<svg id="best_deals" xmlns="http://www.w3.org/2000/svg" xmlns:xlink="http://www.w3.org/1999/xlink" width="24" height="24" viewBox="0 0 24 24">
  <defs>
    <clipPath id="clip-path">
      <rect id="Rectangle_5000" data-name="Rectangle 5000" width="21.865" height="21.865" transform="translate(0 0)" fill="#299d22"/>
    </clipPath>
  </defs>
  <path id="Path_69427" data-name="Path 69427" d="M0,0H24V24H0Z" fill="none"/>
  <g id="Group_13960" data-name="Group 13960" transform="translate(0.973 0.949)">
    <g id="Group_13960-2" data-name="Group 13960" transform="translate(0 0)" clip-path="url(#clip-path)">
      <path id="Path_69487" data-name="Path 69487" d="M10.384,0h.789A2.935,2.935,0,0,1,12.51.873c.307.312.627.612.94.917a.777.777,0,0,0,.715.228c.611-.1,1.226-.178,1.841-.256a1.956,1.956,0,0,1,2.1,1.389,17.687,17.687,0,0,1,.351,1.891.946.946,0,0,0,.557.775c.408.195.8.433,1.2.627a2.233,2.233,0,0,1,1.341,1.618v.526a3.294,3.294,0,0,1-.322.9c-.224.449-.438.9-.663,1.353a.781.781,0,0,0,0,.752c.113.22.224.441.327.666a6.623,6.623,0,0,1,.656,1.587v.526a2.234,2.234,0,0,1-1.341,1.618c-.421.2-.823.442-1.241.649a.863.863,0,0,0-.506.688c-.083.533-.189,1.062-.272,1.595a2,2,0,0,1-2.3,1.738c-.575-.094-1.157-.148-1.732-.243a.789.789,0,0,0-.732.241c-.307.3-.623.595-.924.9a2.933,2.933,0,0,1-1.338.873h-.789a2.937,2.937,0,0,1-1.338-.873c-.312-.317-.636-.623-.957-.932A.693.693,0,0,0,7.5,20.4c-.448.061-.894.135-1.342.189a4.008,4.008,0,0,1-.977.088,1.993,1.993,0,0,1-1.818-1.757c-.088-.532-.19-1.062-.273-1.595a.862.862,0,0,0-.506-.688c-.412-.2-.807-.441-1.222-.639A2.248,2.248,0,0,1,0,14.371v-.526a3.311,3.311,0,0,1,.322-.9c.227-.456.446-.916.672-1.373a.753.753,0,0,0,0-.712c-.1-.208-.211-.416-.307-.627A7.019,7.019,0,0,1,0,8.588V8.062A2.252,2.252,0,0,1,1.361,6.433c.421-.2.823-.441,1.241-.649a.83.83,0,0,0,.482-.656c.085-.532.2-1.061.274-1.594a2,2,0,0,1,2.3-1.76c.568.094,1.143.144,1.71.242a.817.817,0,0,0,.769-.255c.3-.3.612-.585.908-.887A2.932,2.932,0,0,1,10.384,0M6.5,16.107a.857.857,0,0,0,.581-.31q4.139-4.143,8.281-8.283a1.716,1.716,0,0,0,.177-.194.61.61,0,0,0-.305-.958.679.679,0,0,0-.736.258L6.182,14.935a1.38,1.38,0,0,0-.174.2.58.58,0,0,0-.042.64.629.629,0,0,0,.531.336m1.684-6a2.337,2.337,0,1,0-2.337-2.35,2.366,2.366,0,0,0,2.337,2.35M13.36,17a2.337,2.337,0,1,0-2.344-2.341A2.346,2.346,0,0,0,13.36,17" transform="translate(0.154 -0.284)" fill="#299d22"/>
      <path id="Path_69488" data-name="Path 69488" d="M162.851,154.345a1.1,1.1,0,1,1,1.121-1.082,1.108,1.108,0,0,1-1.121,1.082" transform="translate(-154.522 -145.764)" fill="#299d22"/>
      <path id="Path_69489" data-name="Path 69489" d="M280.926,309.681a1.1,1.1,0,1,1,.011,2.2,1.1,1.1,0,1,1-.011-2.2" transform="translate(-267.412 -296.396)" fill="#299d22"/>
    </g>
  </g>
</svg>
