<svg id="cod" xmlns="http://www.w3.org/2000/svg" xmlns:xlink="http://www.w3.org/1999/xlink" width="25.033" height="23.009" viewBox="0 0 25.033 23.009">
  <defs>
    <clipPath id="clip-path">
      <path id="Path_67722" data-name="Path 67722" d="M11.5,0H25.033V23.009H11.5A11.5,11.5,0,0,1,11.5,0Z" fill="#c4c4c4"/>
    </clipPath>
  </defs>
  <circle id="Ellipse_118" data-name="Ellipse 118" cx="11.505" cy="11.505" r="11.505" fill="#efeff4"/>
  <g id="Mask_Group_27" data-name="Mask Group 27" clip-path="url(#clip-path)">
    <g id="money_2_" data-name="money (2)" transform="translate(-2.092 3.138)">
      <g id="Group_11684" data-name="Group 11684" transform="translate(0 0)">
        <path id="Path_67690" data-name="Path 67690" d="M79.274,141.347H76.336L58,150.19v3.146A1.721,1.721,0,0,0,59.689,155H79.274a1.6,1.6,0,0,0,1.574-1.631q0-.015,0-.031V143.068a1.632,1.632,0,0,0-1.54-1.72Z" transform="translate(-55.749 -138.832)" fill="#2ba037"/>
        <path id="Path_67691" data-name="Path 67691" d="M22.88,82.273v8.279a1.662,1.662,0,0,1-1.662,1.662H1.632A1.632,1.632,0,0,1,0,90.583c0-.01,0-.02,0-.03V80.315a1.632,1.632,0,0,1,1.6-1.662H21.218a1.662,1.662,0,0,1,1.662,1.662v1.959Z" transform="translate(0 -78.653)" fill="#3bb54a"/>
      </g>
      <g id="Group_11685" data-name="Group 11685" transform="translate(1.781 1.513)">
        <circle id="Ellipse_114" data-name="Ellipse 114" cx="1.187" cy="1.187" r="1.187" transform="translate(16.915 7.923)" fill="#2ba037"/>
        <circle id="Ellipse_115" data-name="Ellipse 115" cx="5.282" cy="5.282" r="5.282" transform="translate(4.362 0)" fill="#2ba037"/>
        <circle id="Ellipse_116" data-name="Ellipse 116" cx="1.187" cy="1.187" r="1.187" transform="translate(0 0.208)" fill="#2ba037"/>
      </g>
      <path id="Path_67692" data-name="Path 67692" d="M162.029,137.9h-.534a4.323,4.323,0,0,0-.148-.594h.683a.594.594,0,0,0,0-1.187h-3.65a.594.594,0,0,0,0,1.187h1.068c.3,0,.564.3.742.594h-1.81a.594.594,0,0,0,0,1.187h1.81c-.03,0-.03.03-.059.059a1.009,1.009,0,0,1-.683.237h-1.068a.564.564,0,0,0-.534.386.623.623,0,0,0,.148.653l2.582,2.463a.564.564,0,0,0,.415.148.594.594,0,0,0,.415-1.009l-1.573-1.484a2.048,2.048,0,0,0,1.662-1.454h.534a.594.594,0,0,0,0-1.187Z" transform="translate(-148.823 -132.859)" fill="#fedb41"/>
    </g>
  </g>
</svg>
