<svg id="coupon-3-fill_1_" data-name="coupon-3-fill (1)" xmlns="http://www.w3.org/2000/svg" width="20" height="20" viewBox="0 0 20 20">
  <path id="Path_66899" data-name="Path 66899" d="M0,0H20V20H0Z" fill="none"/>
  <path id="Path_66900" data-name="Path 66900" d="M8.75,16.5a1.125,1.125,0,1,0-2.25,0H2.75A.75.75,0,0,1,2,15.75v-12A.75.75,0,0,1,2.75,3H6.5A1.125,1.125,0,1,0,8.75,3h7.5a.75.75,0,0,1,.75.75V7.875a1.875,1.875,0,1,0,0,3.75V15.75a.75.75,0,0,1-.75.75ZM7.625,8.625A1.125,1.125,0,1,0,6.5,7.5,1.125,1.125,0,0,0,7.625,8.625Zm0,4.5A1.125,1.125,0,1,0,6.5,12,1.125,1.125,0,0,0,7.625,13.125Z" transform="translate(0.5 0.333)" fill="#299e22"/>
</svg>
