<svg xmlns="http://www.w3.org/2000/svg" width="345" height="101" viewBox="0 0 345 101">
  <g id="Group_74079" data-name="Group 74079" transform="translate(6947 -2984)">
    <g id="Subtraction_4" data-name="Subtraction 4" transform="translate(-6965 2974)" fill="#efeff4">
      <path d="M 347.6630859375 110.4997329711914 L 32.96854400634766 110.4997329711914 C 33.42263031005859 108.9827194213867 33.65243911743164 107.4065170288086 33.65243911743164 105.8040542602539 C 33.65243911743164 101.5490036010742 32.03162002563477 97.52800750732422 29.08852958679199 94.48173522949219 C 26.26330184936523 91.55757904052734 22.5191478729248 89.83857727050781 18.50002670288086 89.60916900634766 L 18.49998664855957 83.58757781982422 C 20.47245216369629 82.99555206298828 21.86507415771484 81.14290618896484 21.86507415771484 79.03441619873047 C 21.86507415771484 76.9263916015625 20.47245407104492 75.0740966796875 18.50002670288086 74.48207092285156 L 18.49998664855957 69.22415924072266 C 22.36856269836426 68.57281494140625 25.23293876647949 65.19478607177734 25.23293876647949 61.18827819824219 C 25.23293876647949 57.18137741088867 22.36859893798828 53.80295562744141 18.50002670288086 53.15154266357422 L 18.49998664855957 47.04399108886719 C 20.47245216369629 46.45200729370117 21.86507415771484 44.59971237182617 21.86507415771484 42.4916877746582 C 21.86507415771484 40.38344955444336 20.47249221801758 38.53115463256836 18.50002670288086 37.93935775756836 L 18.49998664855957 31.9178466796875 C 22.51915168762207 31.6884822845459 26.26334571838379 29.96947479248047 29.08852958679199 27.04518890380859 C 32.03162002563477 23.998779296875 33.65243911743164 19.97750663757324 33.65243911743164 15.72209739685059 C 33.65243911743164 13.92999458312988 33.36638259887695 12.17680644989014 32.80121612548828 10.49991512298584 L 347.8304138183594 10.49991512298584 C 347.2652587890625 12.17678356170654 346.9792175292969 13.92999458312988 346.9792175292969 15.72209739685059 C 346.9792175292969 20.04432487487793 348.6441650390625 24.11077880859375 351.6673889160156 27.17241477966309 C 354.573486328125 30.11545372009277 358.4036560058594 31.79526138305664 362.4997253417969 31.93466949462891 L 362.4997253417969 37.74471282958984 C 359.9650268554688 37.81630706787109 357.9250183105469 39.918212890625 357.9250183105469 42.4916877746582 C 357.9250183105469 45.06516265869141 359.9649658203125 47.16711044311523 362.4996643066406 47.23870849609375 L 362.4996948242188 53.04033660888672 C 358.1077880859375 53.11250686645508 354.5572204589844 56.73984909057617 354.5572204589844 61.18827819824219 C 354.5572204589844 65.63626098632812 358.1077880859375 69.26323699951172 362.4997253417969 69.33540344238281 L 362.4997253417969 74.28739166259766 C 359.9650268554688 74.35899353027344 357.9250183105469 76.4609375 357.9250183105469 79.03441619873047 C 357.9250183105469 81.60838317871094 359.9649658203125 83.710693359375 362.4996643066406 83.78229522705078 L 362.4996948242188 89.59234619140625 C 358.4037170410156 89.73175048828125 354.5735168457031 91.41151428222656 351.6673889160156 94.35450744628906 C 348.6441650390625 97.41596221923828 346.9792175292969 101.4821395874023 346.9792175292969 105.8040542602539 C 346.9792175292969 107.4066162109375 347.2090148925781 108.9829330444336 347.6630859375 110.4997329711914 Z" stroke="none"/>
      <path d="M 347.0054016113281 109.9997329711914 C 346.6558532714844 108.6359710693359 346.4792175292969 107.2299499511719 346.4792175292969 105.8040542602539 C 346.4792175292969 101.3497772216797 348.1954040527344 97.15882110595703 351.3116149902344 94.00318908691406 C 354.1939392089844 91.08431243896484 357.9578552246094 89.37053680419922 361.9996948242188 89.11603546142578 L 361.9996643066406 84.24552917480469 C 359.4256286621094 83.9293212890625 357.4250183105469 81.71288299560547 357.4250183105469 79.03441619873047 C 357.4250183105469 76.35636901855469 359.4256896972656 74.14031219482422 361.9997253417969 73.82415008544922 L 361.9997253417969 69.81314086914062 C 357.5653686523438 69.48516845703125 354.0572204589844 65.74211883544922 354.0572204589844 61.18827819824219 C 354.0572204589844 56.63400650024414 357.5653686523438 52.89060211181641 361.9996948242188 52.56260299682617 L 361.9996643066406 47.70195007324219 C 359.4256286621094 47.38579177856445 357.4250183105469 45.16973876953125 357.4250183105469 42.4916877746582 C 357.4250183105469 39.81367874145508 359.4256896972656 37.59762954711914 361.9997253417969 37.28146743774414 L 361.9997253417969 32.41097259521484 C 357.9578247070312 32.15646743774414 354.1938781738281 30.44264793395996 351.3116149902344 27.52373313903809 C 348.1954040527344 24.36791610717773 346.4792175292969 20.17668724060059 346.4792175292969 15.72209739685059 C 346.4792175292969 14.10912227630615 346.7041931152344 12.5263671875 347.1492919921875 10.99991512298584 L 33.48230361938477 10.99991512298584 C 33.92742156982422 12.52637577056885 34.15243911743164 14.10912227630615 34.15243911743164 15.72209739685059 C 34.15243911743164 20.10782432556152 32.48175811767578 24.25246047973633 29.4481201171875 27.39259719848633 C 26.64554214477539 30.29345703125 22.96603393554688 32.0440788269043 18.99999046325684 32.38342666625977 L 19.00002479553223 37.58182525634766 C 20.99097442626953 38.34262847900391 22.36507415771484 40.29108047485352 22.36507415771484 42.4916877746582 C 22.36507415771484 44.69209289550781 20.99090766906738 46.64054870605469 18.9999885559082 47.4014778137207 L 19.00002288818359 52.73934936523438 C 22.8956356048584 53.59543228149414 25.73293876647949 57.08072280883789 25.73293876647949 61.18827819824219 C 25.73293876647949 65.29545593261719 22.89563941955566 68.78036499023438 18.99999046325684 69.63636016845703 L 19.00002288818359 74.12458038330078 C 20.99090194702148 74.88553619384766 22.36507415771484 76.83400726318359 22.36507415771484 79.03441619873047 C 22.36507415771484 81.23526763916016 20.99090766906738 83.18405151367188 18.9999885559082 83.94505310058594 L 19.00002288818359 89.14359283447266 C 22.96600151062012 89.48297119140625 26.64554214477539 91.23355102539062 29.4481201171875 94.13432312011719 C 32.48175811767578 97.27427673339844 34.15243911743164 101.4186859130859 34.15243911743164 105.8040542602539 C 34.15243911743164 107.2298889160156 33.97580718994141 108.6357498168945 33.626220703125 109.9997329711914 L 347.0054016113281 109.9997329711914 M 348.349853515625 110.9997329711914 L 348.3484497070312 110.9997329711914 L 348.349853515625 110.9997329711914 Z M 348.349853515625 110.9997329711914 L 32.28180313110352 110.9997329711914 C 32.85921096801758 109.3346405029297 33.15243911743164 107.5870513916016 33.15243911743164 105.8040542602539 C 33.15243911743164 101.6792755126953 31.5814380645752 97.78163909912109 28.72893905639648 94.82913970947266 C 25.88148307800293 91.8819580078125 22.07125663757324 90.19841766357422 18.00002861022949 90.08855438232422 L 17.9999828338623 83.19855499267578 C 19.95021057128906 82.79759979248047 21.36507415771484 81.04673004150391 21.36507415771484 79.03441619873047 C 21.36507415771484 77.02291870117188 19.94984817504883 75.27200317382812 18.00002861022949 74.87109375 L 17.9999828338623 68.78945922851562 C 21.83880233764648 68.35964202880859 24.73293876647949 65.09227752685547 24.73293876647949 61.18827819824219 C 24.73293876647949 57.28423309326172 21.83839225769043 54.01605224609375 18.00002861022949 53.58623504638672 L 17.9999828338623 46.65496063232422 C 19.95021057128906 46.25400543212891 21.36507415771484 44.5035514831543 21.36507415771484 42.4916877746582 C 21.36507415771484 40.48005294799805 19.94984817504883 38.72909545898438 18.00002861022949 38.32841491699219 L 17.9999828338623 31.43846130371094 C 22.07125663757324 31.32864189147949 25.88116645812988 29.64541625976562 28.72893905639648 26.69777870178223 C 31.5814380645752 23.74514198303223 33.15243911743164 19.84723281860352 33.15243911743164 15.72209739685059 C 33.15243911743164 13.74809741973877 32.79452896118164 11.8228702545166 32.08861923217773 9.99991512298584 L 348.54296875 9.99991512298584 C 347.83740234375 11.822096824646 347.4792175292969 13.74687004089355 347.4792175292969 15.72209739685059 C 347.4792175292969 19.91200637817383 349.0929870605469 23.85368728637695 352.0231628417969 26.82109642028809 C 354.9525756835938 29.78773307800293 358.8507690429688 31.42955207824707 362.9997253417969 31.44400596618652 L 362.9997253417969 38.25868988037109 C 362.8817138671875 38.24850463867188 362.7588500976562 38.24282455444336 362.6334533691406 38.24282455444336 C 360.3128967285156 38.24282455444336 358.4250183105469 40.14886856079102 358.4250183105469 42.4916877746582 C 358.4250183105469 44.83455276489258 360.3128967285156 46.74059677124023 362.6334533691406 46.74059677124023 C 362.7546997070312 46.74059677124023 362.8778991699219 46.73523330688477 362.9996643066406 46.72468948364258 L 362.9997253417969 53.54804992675781 C 362.8848571777344 53.54255294799805 362.7619934082031 53.53923416137695 362.6334533691406 53.53923416137695 C 358.4559020996094 53.53923416137695 355.0572204589844 56.97055053710938 355.0572204589844 61.18827819824219 C 355.0572204589844 65.40554809570312 358.4559020996094 68.83650970458984 362.6334533691406 68.83650970458984 C 362.7547607421875 68.83650970458984 362.8779907226562 68.83354949951172 362.9997253417969 68.82764434814453 L 362.9997253417969 74.80136871337891 C 362.8817138671875 74.79114532470703 362.7588500976562 74.78550720214844 362.6334533691406 74.78550720214844 C 360.3128967285156 74.78550720214844 358.4250183105469 76.69150543212891 358.4250183105469 79.03441619873047 C 358.4250183105469 81.37773132324219 360.3128967285156 83.28418731689453 362.6334533691406 83.28418731689453 C 362.7551574707031 83.28418731689453 362.8784484863281 83.27886962890625 362.9996643066406 83.26832580566406 L 362.9997253417969 90.0830078125 C 358.8509521484375 90.09745788574219 354.9530334472656 91.73882293701172 352.0231628417969 94.70582580566406 C 349.0929870605469 97.67304992675781 347.4792175292969 101.6145095825195 347.4792175292969 105.8040542602539 C 347.4792175292969 107.5852813720703 347.7719421386719 109.3329620361328 348.3493957519531 110.9984130859375 L 348.349853515625 110.9997329711914 Z" stroke="none" fill="#e6e5e5"/>
    </g>
  </g>
</svg>
