<svg id="customer-service-fill" xmlns="http://www.w3.org/2000/svg" width="16" height="16" viewBox="0 0 16 16">
  <path id="Path_66785" data-name="Path 66785" d="M0,0H16V16H0Z" fill="none"/>
  <path id="Path_66786" data-name="Path 66786" d="M14,11a3.6,3.6,0,0,1-2.828,3.516l-.383-1.148a2.4,2.4,0,0,0,1.69-1.169H11A1.2,1.2,0,0,1,9.8,11V8.6A1.2,1.2,0,0,1,11,7.4h1.763a4.8,4.8,0,0,0-9.526,0H5A1.2,1.2,0,0,1,6.2,8.6V11A1.2,1.2,0,0,1,5,12.2H3.2A1.2,1.2,0,0,1,2,11V8A6,6,0,1,1,14,8Z" fill="#d9232d"/>
</svg>
