<svg id="coupon-3-fill" xmlns="http://www.w3.org/2000/svg" width="20" height="20" viewBox="0 0 20 20">
  <path id="Path_66800" data-name="Path 66800" d="M0,0H20V20H0Z" fill="none"/>
  <path id="emi_pdp" d="M245.125,365.656v-2.125a.531.531,0,0,1,1.062,0v2.125a.531.531,0,0,1-1.062,0Zm9.031.531a.531.531,0,0,0,.531-.531v-2.125a.531.531,0,0,0-1.063,0v2.125a.531.531,0,0,0,.531.531ZM260,375.75a4.25,4.25,0,1,1-4.25-4.25,4.25,4.25,0,0,1,4.25,4.25Zm-1.062,0a3.187,3.187,0,1,0-3.187,3.188,3.187,3.187,0,0,0,3.187-3.188Zm-11.687-6.375h-2.125V371.5h2.125Zm-2.125,5.313h2.125v-2.125h-2.125Zm3.187-3.187h2.125v-2.125h-2.125Zm0,3.188h2.125v-2.125h-2.125Zm-4.25.957v-7.332H255.75v2.125h1.062v-4.144a1.159,1.159,0,0,0-1.151-1.168h-.443v.531a1.062,1.062,0,0,1-2.125,0v-.531h-6.375v.531a1.062,1.062,0,0,1-2.125,0v-.531h-.44A1.16,1.16,0,0,0,243,366.293v9.35a1.161,1.161,0,0,0,1.154,1.168h6.284V375.75h-6.284A.1.1,0,0,1,244.063,375.644Zm9.562-4.144v-2.125H251.5V371.5Zm3.719,4.25H255.75v-1.594a.531.531,0,0,0-1.062,0v2.125a.531.531,0,0,0,.531.531h2.125a.531.531,0,1,0,0-1.062Z" transform="translate(-241.5 -361.5)" fill="#299e22"/>
</svg>
