<svg xmlns="http://www.w3.org/2000/svg" xmlns:xlink="http://www.w3.org/1999/xlink" width="150" height="159.795" viewBox="0 0 150 159.795">
  <defs>
    <clipPath id="clip-path">
      <rect id="Rectangle_54694" data-name="Rectangle 54694" width="145.663" height="157.123" fill="none"/>
    </clipPath>
    <clipPath id="clip-path-3">
      <rect id="Rectangle_54690" data-name="Rectangle 54690" width="105.508" height="23.712" fill="none"/>
    </clipPath>
    <clipPath id="clip-path-4">
      <rect id="Rectangle_54692" data-name="Rectangle 54692" width="21.711" height="18.218" fill="#898989"/>
    </clipPath>
  </defs>
  <g id="Group_117020" data-name="Group 117020" transform="translate(18454 19472.795)">
    <ellipse id="Ellipse_713" data-name="Ellipse 713" cx="75" cy="2.5" rx="75" ry="2.5" transform="translate(-18454 -19318)" fill="#e0e0e0"/>
    <g id="Group_117018" data-name="Group 117018" transform="translate(-18454 -19472.795)">
      <g id="Group_117017" data-name="Group 117017" clip-path="url(#clip-path)">
        <g id="Group_117016" data-name="Group 117016">
          <g id="Group_117015" data-name="Group 117015" clip-path="url(#clip-path)">
            <path id="Path_187543" data-name="Path 187543" d="M121.44.094s-.2,0-.59-.008A14.35,14.35,0,0,0,119.125.1,19.171,19.171,0,0,0,112.7,1.578a19.752,19.752,0,0,0-8.162,6.36,17.737,17.737,0,0,0-2.849,5.83A19.588,19.588,0,0,0,103.7,28.6a17.006,17.006,0,0,0,2.566,3.4,13.731,13.731,0,0,0,3.471,2.715,8.51,8.51,0,0,0,4.353,1.1,6.266,6.266,0,0,0,4.216-1.7,6.1,6.1,0,0,0,1.68-4.347,7.977,7.977,0,0,0-1.53-4.621,15.816,15.816,0,0,0-8.493-5.6A20.886,20.886,0,0,0,99.246,19.4a22.189,22.189,0,0,0-5.16,2.051,18.7,18.7,0,0,0-4.429,3.475c-.309.359-.661.684-.937,1.073l-.852,1.149a20.017,20.017,0,0,0-3.029,8.074,21.064,21.064,0,0,0,1.524,11.315A17.415,17.415,0,0,0,93.646,54.8,11.987,11.987,0,0,0,98.8,56.367a9.15,9.15,0,0,0,5.089-1.222,8.031,8.031,0,0,0,3.444-3.751,6.827,6.827,0,0,0,.078-4.931,9.844,9.844,0,0,0-2.836-4.01,12.849,12.849,0,0,0-4.172-2.424,16.187,16.187,0,0,0-9.182-.159,17.917,17.917,0,0,0-7.531,4.2,17.182,17.182,0,0,0-4.318,6.692,19.382,19.382,0,0,0,.2,13.551,20.514,20.514,0,0,0,6.214,8.29A21.921,21.921,0,0,0,91.5,75.926c.71.27,1.256.462,1.631.566s.56.186.56.186-.2-.043-.571-.146-.931-.273-1.648-.532a21.476,21.476,0,0,1-5.776-3.28,20.582,20.582,0,0,1-6.323-8.327,19.592,19.592,0,0,1-.255-13.726,17.458,17.458,0,0,1,4.371-6.818,18.212,18.212,0,0,1,7.654-4.294,16.506,16.506,0,0,1,9.379.147,13.185,13.185,0,0,1,4.292,2.484,10.2,10.2,0,0,1,2.944,4.154,7.2,7.2,0,0,1-.079,5.2,8.4,8.4,0,0,1-3.6,3.934,9.531,9.531,0,0,1-5.3,1.276,12.363,12.363,0,0,1-5.324-1.61A17.8,17.8,0,0,1,86.006,46.7a21.442,21.442,0,0,1-1.554-11.527,20.407,20.407,0,0,1,3.092-8.237l.87-1.175c.283-.4.642-.73.959-1.1A19.069,19.069,0,0,1,93.9,21.114a22.548,22.548,0,0,1,5.257-2.086,21.251,21.251,0,0,1,10.91.161,16.154,16.154,0,0,1,8.685,5.754,8.334,8.334,0,0,1,1.587,4.829,6.447,6.447,0,0,1-1.791,4.592,6.605,6.605,0,0,1-4.447,1.79,8.828,8.828,0,0,1-4.52-1.146,14.035,14.035,0,0,1-3.543-2.783,17.309,17.309,0,0,1-2.6-3.47A19.832,19.832,0,0,1,101.445,13.7a17.922,17.922,0,0,1,2.914-5.895,19.848,19.848,0,0,1,8.28-6.371A18.865,18.865,0,0,1,119.121.017a12.727,12.727,0,0,1,1.732.03c.389.025.588.048.588.048" transform="translate(-19.171 0)" fill="#263238"/>
            <path id="Path_187553" data-name="Path 187553" d="M0,0H105.748V81.562H0Z" transform="translate(21.711 75.56)" fill="#c4c4c4"/>
            <path id="Path_187544" data-name="Path 187544" d="M28.786,100.186,48.318,118.4H152.273l-17.74-18.218Z" transform="translate(-7.075 -24.625)" fill="#979797"/>
            <path id="Path_187545" data-name="Path 187545" d="M28.786,100.123l105.748-.193h.081l.057.059,17.559,18.028.183.187.325.334h-.465l-103.955-.078h-.048l-.033-.032-19.452-18.3L48.4,118.254l-.08-.031,103.955-.078-.141.333-.183-.188L134.4,100.257l.138.059-105.748-.193" transform="translate(-7.075 -24.562)" fill="#263238"/>
            <path id="Path_187546" data-name="Path 187546" d="M70.2,150.052a2.165,2.165,0,1,0,.163.006" transform="translate(-16.723 -36.881)" fill="#263238"/>
            <path id="Path_187547" data-name="Path 187547" d="M103.3,150.052a2.165,2.165,0,1,0,.163.006" transform="translate(-24.86 -36.881)" fill="#263238"/>
            <path id="Path_187548" data-name="Path 187548" d="M95.889,172.371a15.375,15.375,0,0,0-2.093-4.688,13.842,13.842,0,0,0-4-3.833,12.2,12.2,0,0,0-12.92-.354,13.857,13.857,0,0,0-4.2,3.608,15.374,15.374,0,0,0-2.346,4.567,1.241,1.241,0,0,1,.061-.357,8.067,8.067,0,0,1,.277-1,12.068,12.068,0,0,1,1.787-3.376A13.736,13.736,0,0,1,76.7,163.18,12.391,12.391,0,0,1,90,163.545a13.735,13.735,0,0,1,4.03,3.981,12.1,12.1,0,0,1,1.6,3.469,8.045,8.045,0,0,1,.222,1.015,1.255,1.255,0,0,1,.041.36" transform="translate(-17.287 -39.677)" fill="#263238"/>
            <g id="Group_117011" data-name="Group 117011" transform="translate(21.95 76.458)" opacity="0.5">
              <g id="Group_117010" data-name="Group 117010">
                <g id="Group_117009" data-name="Group 117009" clip-path="url(#clip-path-3)">
                  <path id="Path_187549" data-name="Path 187549" d="M29.1,101.375l18.7,23.712h86.807V118.7H48.4Z" transform="translate(-29.104 -101.375)"/>
                </g>
              </g>
            </g>
            <path id="Path_187550" data-name="Path 187550" d="M141.284,187.428c-.109,0-.2-14.187-.2-31.683s.087-31.687.2-31.687.2,14.184.2,31.687-.087,31.683-.2,31.683" transform="translate(-34.678 -30.493)" fill="#263238"/>
            <rect id="Rectangle_54691" data-name="Rectangle 54691" width="9.321" height="10.537" transform="translate(113.889 138.446)" fill="#f5f5f5"/>
            <path id="Path_187551" data-name="Path 187551" d="M21.71,100.186,0,118.4H21.71Z" transform="translate(0 -24.625)" fill="#e8505b"/>
            <g id="Group_117014" data-name="Group 117014" transform="translate(0 75.56)">
              <g id="Group_117013" data-name="Group 117013">
                <g id="Group_117012" data-name="Group 117012" clip-path="url(#clip-path-4)">
                  <path id="Path_187552" data-name="Path 187552" d="M21.71,100.186,0,118.4H21.71Z" transform="translate(0 -100.185)" fill="#898989"/>
                </g>
              </g>
            </g>
          </g>
        </g>
      </g>
    </g>
  </g>
</svg>
