<svg xmlns="http://www.w3.org/2000/svg" xmlns:xlink="http://www.w3.org/1999/xlink" width="260" height="187" viewBox="0 0 260 187">
  <defs>
    <clipPath id="clip-path">
      <rect id="Rectangle_346" data-name="Rectangle 346" width="5.156" height="11.327" fill="none"/>
    </clipPath>
    <clipPath id="clip-path-2">
      <rect id="Rectangle_24923" data-name="Rectangle 24923" width="74.697" height="84.79" fill="none"/>
    </clipPath>
    <clipPath id="clip-path-4">
      <rect id="Rectangle_24917" data-name="Rectangle 24917" width="66.829" height="10.342" fill="none"/>
    </clipPath>
    <clipPath id="clip-path-5">
      <rect id="Rectangle_24918" data-name="Rectangle 24918" width="4.135" height="1.838" fill="none"/>
    </clipPath>
  </defs>
  <g id="Group_75543" data-name="Group 75543" transform="translate(-477 -155)">
    <g id="Group_22646" data-name="Group 22646" transform="translate(417 8)">
      <g id="undraw_options_re_9vxh" transform="matrix(0.998, -0.07, 0.07, 0.998, 64.136, 298.742)">
        <path id="Path_74967" data-name="Path 74967" d="M714.179,559.659c-13.184-23.321,12.1-35.264,15.358-10.638a33.424,33.424,0,0,1,1.4-9.409c1.6-6.228,10.315-10.741,14.476-4.437,2.2,3.906-.717,9.386,1.812,13.088,1.6-9.316,15.122-7.13,13.7,2.217-1.069,4.491-5.814,7.1-9.6,9.136Z" transform="translate(-710.399 -532.138)" fill="#dfdfeb"/>
        <path id="Path_74968" data-name="Path 74968" d="M736.536,596.177c-6.693,2.172-15.056,5.83-15.735,13.825-.019.317-.516.319-.5,0a12.192,12.192,0,0,1,3.454-7.45,21.85,21.85,0,0,1,7.59-4.957C731.9,597.468,737.584,594.778,736.536,596.177Z" transform="translate(-687.954 -583.479)" fill="#fff"/>
        <path id="Path_74969" data-name="Path 74969" d="M815.371,536.127a45.03,45.03,0,0,0-6.326,25.68c.018.319-.478.318-.5,0a45.577,45.577,0,0,1,3.68-20.645C812.544,540.581,815.094,534.452,815.371,536.127Z" transform="translate(-783.697 -535.123)" fill="#fff"/>
        <path id="Path_74970" data-name="Path 74970" d="M903.493,551.714a72.435,72.435,0,0,1,5.981,23.178c.028.318-.468.316-.5,0a72.054,72.054,0,0,0-3.969-18.079c.006-.649-2.853-5.921-1.516-5.1Z" transform="translate(-896.092 -547.862)" fill="#fff"/>
        <path id="Path_74971" data-name="Path 74971" d="M568.481,639.6c-3.774-6.676,3.465-10.095,4.4-3.045a9.568,9.568,0,0,1,.4-2.694c.459-1.783,2.953-3.075,4.144-1.27.63,1.118-.205,2.687.519,3.746a1.987,1.987,0,1,1,3.921.635c-.306,1.286-1.664,2.034-2.749,2.615Z" transform="translate(-503.636 -612.48)" fill="#dfdfeb"/>
        <path id="Path_74972" data-name="Path 74972" d="M574.881,650.054c-1.916.622-4.31,1.669-4.5,3.958-.006.091-.148.091-.142,0a3.49,3.49,0,0,1,.989-2.133,6.254,6.254,0,0,1,2.173-1.419C573.553,650.423,575.181,649.653,574.881,650.054Z" transform="translate(-497.211 -627.177)" fill="#fff"/>
        <path id="Path_74973" data-name="Path 74973" d="M597.448,632.864a12.89,12.89,0,0,0-1.811,7.351c.005.091-.137.091-.142,0a13.048,13.048,0,0,1,1.053-5.91C596.639,634.139,597.369,632.384,597.448,632.864Z" transform="translate(-524.618 -613.335)" fill="#fff"/>
        <path id="Path_74974" data-name="Path 74974" d="M622.675,637.326a20.736,20.736,0,0,1,1.712,6.635c.008.091-.134.09-.142,0a20.628,20.628,0,0,0-1.136-5.175C623.11,638.6,622.292,637.091,622.675,637.326Z" transform="translate(-556.792 -616.981)" fill="#fff"/>
      </g>
      <g id="Group_21417" data-name="Group 21417" transform="translate(2 -37)">
        <ellipse id="Ellipse_144" data-name="Ellipse 144" cx="130" cy="7" rx="130" ry="7" transform="translate(58 357)" fill="#efeff4"/>
        <path id="Path_74726" data-name="Path 74726" d="M3648.78-2470.96" transform="translate(-3376.553 2784.281)" fill="none" stroke="#707070" stroke-width="1"/>
        <path id="Path_74725" data-name="Path 74725" d="M3648.78-2470.96" transform="translate(-3567.115 2792.73)" fill="none" stroke="#707070" stroke-width="1"/>
      </g>
      <g id="Group_22546" data-name="Group 22546" transform="translate(150.151 241.406)">
        <g id="Group_22545" data-name="Group 22545" clip-path="url(#clip-path-2)">
          <g id="Group_22544" data-name="Group 22544">
            <g id="Group_22543" data-name="Group 22543" clip-path="url(#clip-path-2)">
              <path id="Path_75419" data-name="Path 75419" d="M5.814.56A2.351,2.351,0,0,1,5.869,0Z" transform="translate(-1.774 0)" fill="#aa9885"/>
              <path id="Path_75420" data-name="Path 75420" d="M70.6,0H4.1L0,84.789H74.7Z" transform="translate(0 0)" fill="#c7333e"/>
              <g id="Group_22530" data-name="Group 22530" transform="translate(3.773)" opacity="0.15">
                <g id="Group_22529" data-name="Group 22529">
                  <g id="Group_22528" data-name="Group 22528" clip-path="url(#clip-path-4)">
                    <path id="Path_75421" data-name="Path 75421" d="M5.752,0l6.686,2.774V4.462H65.5V2.608L72.259,0V10.342H5.43Z" transform="translate(-5.43 0)"/>
                  </g>
                </g>
              </g>
              <path id="Path_75422" data-name="Path 75422" d="M9.62,2.774.864,84.79H0L4.1,0Z" transform="translate(0 0)" fill="#d9232d"/>
              <path id="Path_75423" data-name="Path 75423" d="M12.028,4.733v5.488L7.893,7.508Z" transform="translate(-2.408 -1.96)" fill="#8d050d"/>
              <path id="Path_75424" data-name="Path 75424" d="M93.65,2.774l8.839,82.016h.781L99.175,0Z" transform="translate(-28.572 0)" fill="#d9232d"/>
              <path id="Path_75425" data-name="Path 75425" d="M93.65,4.733v5.488l4.135-2.714Z" transform="translate(-28.572 -1.96)" fill="#8d050d"/>
              <g id="Group_22533" data-name="Group 22533" transform="translate(65.078 4.65)" opacity="0.2">
                <g id="Group_22532" data-name="Group 22532">
                  <g id="Group_22531" data-name="Group 22531" clip-path="url(#clip-path-5)">
                    <path id="Path_75426" data-name="Path 75426" d="M93.65,9.774l4.135-.941-4.135-.9Z" transform="translate(-93.65 -7.936)"/>
                  </g>
                </g>
              </g>
              <g id="Group_22536" data-name="Group 22536" transform="translate(5.485 4.65)" opacity="0.2">
                <g id="Group_22535" data-name="Group 22535">
                  <g id="Group_22534" data-name="Group 22534" clip-path="url(#clip-path-5)">
                    <path id="Path_75427" data-name="Path 75427" d="M12.028,9.774,7.893,8.833l4.135-.9Z" transform="translate(-7.893 -7.936)"/>
                  </g>
                </g>
              </g>
              <path id="Path_75428" data-name="Path 75428" d="M69.213,9.467H5.485L0,88.709H74.7Z" transform="translate(0 -3.92)" fill="#e8505b"/>
            </g>
          </g>
        </g>
      </g>
      <path id="Path_75430" data-name="Path 75430" d="M78.063,15.292a2.815,2.815,0,1,0,2.816,2.815,2.815,2.815,0,0,0-2.816-2.815" transform="translate(130.254 243.708)" fill="#e6e6e6"/>
      <path id="Path_75432" data-name="Path 75432" d="M78.063,15.292a2.815,2.815,0,1,0,2.816,2.815,2.815,2.815,0,0,0-2.816-2.815" transform="translate(88.619 243.708)" fill="#e6e6e6"/>
      <path id="Path_75431" data-name="Path 75431" d="M13288.184-2647.349s8.577,10.159,20.2,10.157,20.663-10.157,20.663-10.157" transform="translate(-13120.939 2910)" fill="none" stroke="#fff" stroke-linecap="round" stroke-width="3"/>
      <g id="Group_22549" data-name="Group 22549" transform="translate(-13983 3530.159)">
        <circle id="Ellipse_163" data-name="Ellipse 163" cx="18.5" cy="18.5" r="18.5" transform="translate(14079 -3287.159)" fill="#fef6d3"/>
        <circle id="Ellipse_164" data-name="Ellipse 164" cx="22" cy="22" r="22" transform="translate(14177 -3360.159)" fill="#eaf0fd"/>
        <ellipse id="Ellipse_166" data-name="Ellipse 166" cx="14.5" cy="14" rx="14.5" ry="14" transform="translate(14104 -3371.159)" fill="#fef6d3"/>
        <circle id="Ellipse_167" data-name="Ellipse 167" cx="12.5" cy="12.5" r="12.5" transform="translate(14085 -3333.159)" fill="#faebf8"/>
        <ellipse id="Ellipse_168" data-name="Ellipse 168" cx="11" cy="10.5" rx="11" ry="10.5" transform="translate(14126 -3340.159)" fill="#ffedec"/>
        <circle id="Ellipse_175" data-name="Ellipse 175" cx="11" cy="11" r="11" transform="translate(14054 -3301.159)" fill="#ecf8de"/>
        <ellipse id="Ellipse_177" data-name="Ellipse 177" cx="10.5" cy="11" rx="10.5" ry="11" transform="translate(14208 -3298.159)" fill="#ecf8de"/>
        <circle id="Ellipse_169" data-name="Ellipse 169" cx="9.5" cy="9.5" r="9.5" transform="translate(14065 -3350.159)" fill="#faefe7"/>
        <circle id="Ellipse_170" data-name="Ellipse 170" cx="9.5" cy="9.5" r="9.5" transform="translate(14240 -3338.159)" fill="#fef6d3"/>
        <circle id="Ellipse_171" data-name="Ellipse 171" cx="9.5" cy="9.5" r="9.5" transform="translate(14259 -3262.159)" fill="#fef6d3"/>
        <circle id="Ellipse_172" data-name="Ellipse 172" cx="9.5" cy="9.5" r="9.5" transform="translate(14202 -3383.159)" fill="#faebf8"/>
        <circle id="Ellipse_173" data-name="Ellipse 173" cx="8" cy="8" r="8" transform="translate(14167 -3379.159)" fill="#ffedec"/>
        <circle id="Ellipse_174" data-name="Ellipse 174" cx="8" cy="8" r="8" transform="translate(14059 -3253.159)" fill="#eaf0fd"/>
        <circle id="Ellipse_176" data-name="Ellipse 176" cx="8" cy="8" r="8" transform="translate(14123 -3304.159)" fill="#ecf8de"/>
        <ellipse id="Ellipse_165" data-name="Ellipse 165" cx="19.5" cy="20" rx="19.5" ry="20" transform="translate(14240 -3316.159)" fill="#ffedec"/>
      </g>
      <path id="noun-safety-shoes-4027968" d="M151.229,96.277a.387.387,0,1,0,0,.774h6.965a.387.387,0,0,0,0-.774Zm.706,1.548-.4,2.121a3.883,3.883,0,0,0,1.237-.937,1.757,1.757,0,0,0,.389-1.183Zm2,0a2.618,2.618,0,0,1-.554,1.663,5.2,5.2,0,0,1-1.994,1.4l-.03.013-.525,2.8a.387.387,0,0,1-.383.314h-.739a5.533,5.533,0,0,1,.567,1.182.387.387,0,1,1-.729.257,3.772,3.772,0,0,0-.818-1.44l-1.371,0c-.041,0-.079.006-.12.006a5.785,5.785,0,0,1,.481,1.046.388.388,0,0,1-.732.26,4.2,4.2,0,0,0-.639-1.239,5.9,5.9,0,0,0-3.345,1.547,4.432,4.432,0,0,1,3.407,4.581h11.4V97.826Zm.774,3.094a1.549,1.549,0,1,1-1.548,1.549A1.555,1.555,0,0,1,154.711,100.92Zm0,.775a.774.774,0,1,0,.774.774A.764.764,0,0,0,154.711,101.694Zm-12.337,4.649a6.433,6.433,0,0,0-1.212,3.868h4.477c0-2.175-1.349-3.84-3.265-3.868Zm-1.6,4.643a.773.773,0,1,0,0,1.545h17.033a.773.773,0,0,0,0-1.545Z" transform="translate(-37.002 155.999)" fill="#c3b785" fill-rule="evenodd"/>
      <g id="Group_22578" data-name="Group 22578" transform="translate(-13347.059 2907.698)">
        <g id="noun-bullet-proof-jacket-1242671" transform="translate(13552.56 -2727.581)">
          <path id="Path_75540" data-name="Path 75540" d="M187.016,101.2h-9.905a.39.39,0,0,1-.39-.39V87.621c0-.088,0-.1,0-.118a.477.477,0,0,1,.069-.336.444.444,0,0,1,.247-.195c.026-.011.061-.027.119-.059a3.635,3.635,0,0,0,1.414-1.425,4.04,4.04,0,0,0,.464-2.042h0v-5.74a2.128,2.128,0,0,1,.009-.272l.1.009h0l-.1-.01a.39.39,0,0,1,.388-.353h3.309a.39.39,0,0,1,.39.39c0,.01,0,.02,0,.03.021,2.772,1.037,4.535,2.333,5.3h0l.018.012a3,3,0,0,0,3.092-.011h0l.027-.014c1.289-.775,2.295-2.543,2.308-5.316h0a.39.39,0,0,1,.39-.388H194.6a.39.39,0,0,1,.39.387,2.093,2.093,0,0,1,.006.242h0V83.44c0,.013,0,.026,0,.039a3.892,3.892,0,0,0,.711,2.4,3.651,3.651,0,0,0,1.149,1.026,1.431,1.431,0,0,0,.132.065.454.454,0,0,1,.247.19.494.494,0,0,1,.076.353c0,.008,0,.019,0,.117v13.181a.39.39,0,0,1-.39.39Z" transform="translate(-176.718 -77.082)" fill="#c1ceea"/>
          <path id="Path_75541" data-name="Path 75541" d="M181.2,338.806a.39.39,0,1,0,0-.78h-4.041a.39.39,0,1,0,0,.78Zm-4.041-3.879a.39.39,0,1,0,0,.78H181.2a.39.39,0,1,0,0-.78Zm11.86,3.879a.39.39,0,1,0,0-.78h-3.91a.39.39,0,0,0,0,.78Zm-3.91-3.879a.39.39,0,1,0,0,.78h3.91a.39.39,0,1,0,0-.78Zm11.86,3.879a.39.39,0,0,0,0-.78h-4.041a.39.39,0,1,0,0,.78Zm-4.041-3.879a.39.39,0,1,0,0,.78h4.041a.39.39,0,1,0,0-.78Z" transform="translate(-176.763 -319.604)" fill="#eaf0fd"/>
          <path id="Path_75542" data-name="Path 75542" d="M248.667,299.235h-3.13v6.653h3.13Zm-3.52-.78h3.91a.39.39,0,0,1,.39.39v7.433a.39.39,0,0,1-.39.39h-3.91a.39.39,0,0,1-.39-.39v-7.433A.39.39,0,0,1,245.147,298.455Z" transform="translate(-240.714 -285.299)" fill="#eaf0fd"/>
          <path id="Path_75543" data-name="Path 75543" d="M380.247,299.235h-3.13v6.653h3.13Zm-3.52-.78h3.91a.39.39,0,0,1,.39.39v7.433a.39.39,0,0,1-.39.39h-3.91a.39.39,0,0,1-.39-.39v-7.433A.39.39,0,0,1,376.727,298.455Z" transform="translate(-364.475 -285.299)" fill="#eaf0fd"/>
        </g>
      </g>
      <g id="Group_22584" data-name="Group 22584" transform="translate(-13472.026 3008.599)">
        <g id="noun-bullet-proof-jacket-1242671-2" data-name="noun-bullet-proof-jacket-1242671" transform="translate(13552.56 -2727.581)">
          <path id="Path_75540-2" data-name="Path 75540" d="M180.16,85.144h-3.311a.13.13,0,0,1-.13-.13V80.6c0-.029,0-.035,0-.039a.16.16,0,0,1,.023-.112.148.148,0,0,1,.083-.065c.009,0,.02-.009.04-.02a1.215,1.215,0,0,0,.473-.476,1.351,1.351,0,0,0,.155-.683h0V77.291a.711.711,0,0,1,0-.091l.032,0h0l-.033,0a.13.13,0,0,1,.13-.118h1.106a.13.13,0,0,1,.13.13s0,.007,0,.01a1.966,1.966,0,0,0,.78,1.771h0l.006,0a1,1,0,0,0,1.034,0h0l.009,0a1.978,1.978,0,0,0,.772-1.777h0a.13.13,0,0,1,.13-.13H182.7a.13.13,0,0,1,.13.13.7.7,0,0,1,0,.081h0v1.915s0,.009,0,.013a1.3,1.3,0,0,0,.238.8,1.22,1.22,0,0,0,.384.343.478.478,0,0,0,.044.022.152.152,0,0,1,.083.064.165.165,0,0,1,.025.118s0,.006,0,.039v4.406a.13.13,0,0,1-.13.13Z" transform="translate(-176.718 -77.082)" fill="#c1ceea"/>
          <path id="Path_75541-2" data-name="Path 75541" d="M178.247,336.224a.13.13,0,0,0,0-.261H176.9a.13.13,0,0,0,0,.261Zm-1.351-1.3a.13.13,0,1,0,0,.261h1.351a.13.13,0,1,0,0-.261Zm3.965,1.3a.13.13,0,0,0,0-.261h-1.307a.13.13,0,0,0,0,.261Zm-1.307-1.3a.13.13,0,1,0,0,.261h1.307a.13.13,0,1,0,0-.261Zm3.965,1.3a.13.13,0,0,0,0-.261h-1.351a.13.13,0,0,0,0,.261Zm-1.351-1.3a.13.13,0,1,0,0,.261h1.351a.13.13,0,1,0,0-.261Z" transform="translate(-176.765 -329.805)" fill="#eaf0fd"/>
          <path id="Path_75542-2" data-name="Path 75542" d="M246.064,298.716h-1.046v2.224h1.046Zm-1.177-.261h1.307a.13.13,0,0,1,.13.13v2.485a.13.13,0,0,1-.13.13h-1.307a.13.13,0,0,1-.13-.13v-2.485A.13.13,0,0,1,244.888,298.455Z" transform="translate(-243.406 -294.057)" fill="#eaf0fd"/>
          <path id="Path_75543-2" data-name="Path 75543" d="M377.644,298.716H376.6v2.224h1.046Zm-1.177-.261h1.307a.13.13,0,0,1,.13.13v2.485a.13.13,0,0,1-.13.13h-1.307a.13.13,0,0,1-.13-.13v-2.485A.13.13,0,0,1,376.468,298.455Z" transform="translate(-372.372 -294.057)" fill="#eaf0fd"/>
        </g>
      </g>
      <g id="noun-pump-4756122" transform="translate(157.262 100.327)">
        <path id="Path_75544" data-name="Path 75544" d="M293.578,164.63h10.234a1.091,1.091,0,0,1,1.088,1.088v.166H292.49v-.166A1.091,1.091,0,0,1,293.578,164.63Zm11.321,1.737v1.156H292.49v-1.156Zm0,1.639v1.155H292.49v-1.155Zm0,1.639V170.8H292.49v-1.156Zm0,1.639v1.156H292.49v-1.156Zm0,1.639v.166a1.091,1.091,0,0,1-1.088,1.088H293.578a1.091,1.091,0,0,1-1.088-1.088v-.166Z" transform="translate(-177.255 -36.706)" fill="#c79d9b" fill-rule="evenodd"/>
        <path id="Path_75545" data-name="Path 75545" d="M507.2,196.071h1.252a.6.6,0,0,0,.595-.595v-5.366a.6.6,0,0,0-.595-.595H507.2Z" transform="translate(-379.063 -60.097)" fill="#c79d9b" fill-rule="evenodd"/>
        <path id="Path_75546" data-name="Path 75546" d="M255.43,196.071h-1.252a.6.6,0,0,1-.595-.595v-5.366a.6.6,0,0,1,.595-.595h1.252Z" transform="translate(-140.686 -60.097)" fill="#c79d9b" fill-rule="evenodd"/>
        <path id="Path_75547" data-name="Path 75547" d="M112.406,147.953h-6.761v.223a.5.5,0,0,1-.494.494H104.4a.5.5,0,0,1-.494-.494v-2.412a.5.5,0,0,1,.494-.494h.753a.5.5,0,0,1,.494.494v.223H108.1v-3.452h-.53a.5.5,0,0,1-.494-.494v-.781a.5.5,0,0,1,.5-.5h3.205a.5.5,0,0,1,.5.5v.781a.5.5,0,0,1-.494.494h-.53v3.452h2.152Z" transform="translate(0 -14.273)" fill="#c79d9b" fill-rule="evenodd"/>
        <path id="Path_75548" data-name="Path 75548" d="M526.277,233.5a.642.642,0,1,0,0,1.269h2.763a.642.642,0,1,0,0-1.269Z" transform="translate(-396.3 -101.438)" fill="#c79d9b"/>
        <path id="Path_75549" data-name="Path 75549" d="M339.824,127.432l-.756-1.855H332.94l-.756,1.855Z" transform="translate(-214.563 0)" fill="#c79d9b" fill-rule="evenodd"/>
        <path id="Path_75551" data-name="Path 75551" d="M318.284,331.68a1.379,1.379,0,0,1-.259,1.895v1.137h9.342v-1.137a1.379,1.379,0,0,1-.263-1.895Z" transform="translate(-201.256 -193.719)" fill="#c79d9b" fill-rule="evenodd"/>
      </g>
      <g id="noun-pump-4756122-2" data-name="noun-pump-4756122" transform="translate(83.022 30.74)">
        <path id="Path_75544-2" data-name="Path 75544" d="M292.85,164.63h3.385a.361.361,0,0,1,.36.36v.055h-4.1v-.055A.361.361,0,0,1,292.85,164.63Zm3.744.574v.382h-4.1V165.2Zm0,.542v.382h-4.1v-.382Zm0,.542v.382h-4.1v-.382Zm0,.542v.382h-4.1v-.382Zm0,.542v.055a.361.361,0,0,1-.36.36H292.85a.361.361,0,0,1-.36-.36v-.055Z" transform="translate(-184.839 -38.277)" fill="#c79d9b" fill-rule="evenodd"/>
        <path id="Path_75545-2" data-name="Path 75545" d="M507.2,191.684h.414a.2.2,0,0,0,.2-.2v-1.775a.2.2,0,0,0-.2-.2H507.2Z" transform="translate(-395.282 -62.669)" fill="#c79d9b" fill-rule="evenodd"/>
        <path id="Path_75546-2" data-name="Path 75546" d="M254.194,191.684h-.414a.2.2,0,0,1-.2-.2v-1.775a.2.2,0,0,1,.2-.2h.414Z" transform="translate(-146.705 -62.669)" fill="#c79d9b" fill-rule="evenodd"/>
        <path id="Path_75547-2" data-name="Path 75547" d="M106.716,143.141h-2.236v.074a.164.164,0,0,1-.163.163h-.249a.164.164,0,0,1-.163-.163v-.8a.164.164,0,0,1,.163-.163h.249a.164.164,0,0,1,.163.163v.074h.813v-1.142h-.175a.164.164,0,0,1-.163-.163v-.258a.165.165,0,0,1,.164-.164h1.06a.165.165,0,0,1,.164.164v.258a.164.164,0,0,1-.163.163H106v1.142h.712Z" transform="translate(0 -14.884)" fill="#c79d9b" fill-rule="evenodd"/>
        <path id="Path_75548-2" data-name="Path 75548" d="M525.783,233.5a.212.212,0,1,0,0,.42h.914a.212.212,0,1,0,0-.42Z" transform="translate(-413.256 -105.778)" fill="#c79d9b"/>
        <path id="Path_75549-2" data-name="Path 75549" d="M334.711,126.19l-.25-.613h-2.027l-.25.613Z" transform="translate(-223.744 0)" fill="#c79d9b" fill-rule="evenodd"/>
        <path id="Path_75551-2" data-name="Path 75551" d="M318.111,331.68a.456.456,0,0,1-.086.627v.376h3.09v-.376a.456.456,0,0,1-.087-.627Z" transform="translate(-209.866 -202.007)" fill="#c79d9b" fill-rule="evenodd"/>
      </g>
      <g id="noun-drill-1704393" transform="translate(-8.626 133.079)">
        <path id="Path_75558" data-name="Path 75558" d="M117.018,70h7.838a.383.383,0,0,1,.356.356v7.125a.356.356,0,0,1-.356.356h-7.838a.383.383,0,0,1-.356-.356V70.356a.356.356,0,0,1,.356-.356Z" fill="#ddb8d8"/>
        <path id="Path_75559" data-name="Path 75559" d="M426.054,118.8h-3.206a2.494,2.494,0,0,0-2.494-2.137H420v4.987h.356a2.494,2.494,0,0,0,2.494-2.137h3.206a.356.356,0,1,0,0-.712Z" transform="translate(-294.074 -45.241)" fill="#ddb8d8"/>
        <path id="Path_75560" data-name="Path 75560" d="M163.253,353.874a.378.378,0,0,0,.086.285.371.371,0,0,0,.271.121h2.85a.363.363,0,0,0,.356-.306l.563-3.968h-3.563Z" transform="translate(-45.166 -271.456)" fill="#ddb8d8"/>
      </g>
      <g id="noun-fan-1018936" transform="translate(-33.531 82.397)">
        <path id="Path_75561" data-name="Path 75561" d="M169.164,88.238a4.534,4.534,0,0,1,.971-2.417c.67-.912.589-1.5.22-1.81-.141-.121-2.151-1.718-5.389-.329s-3.256,3.825-2.731,4.873c.732,1.461,2.953,1.964,4,2.122a2.464,2.464,0,0,1,.09-.714,2.438,2.438,0,0,1,2.838-1.725Zm1.369,4.069a4.248,4.248,0,0,1,1.7,2.087c.453,1.03,1,1.257,1.459,1.1.174-.061,2.562-1,2.977-4.5s-1.689-4.734-2.856-4.807c-1.621-.094-3.157,1.555-3.827,2.388h0a2.438,2.438,0,0,1,.479,3.713Zm-.527,5.024c.912-1.382.209-3.592-.176-4.565h0a2.436,2.436,0,0,1-3.465-1.358l-.026.022a4.267,4.267,0,0,1-2.658.439c-1.12-.112-1.584.231-1.676.71-.033.18-.411,2.722,2.417,4.833s4.941.9,5.585-.081Z" fill="#c3b785"/>
        <path id="Path_75562" data-name="Path 75562" d="M288.392,228.618a1.9,1.9,0,1,0-.9,1.145,1.9,1.9,0,0,0,.9-1.145Zm-2.037.22h0a.3.3,0,1,0,0-.007Z" transform="translate(-117.874 -137.471)" fill="#c3b785"/>
      </g>
      <g id="noun-fan-1018936-2" data-name="noun-fan-1018936" transform="translate(119.266 189.972)">
        <path id="Path_75561-2" data-name="Path 75561" d="M166.605,86.417a2.921,2.921,0,0,1,.626-1.557c.432-.587.379-.964.142-1.166a3.336,3.336,0,0,0-3.472-.212c-2.086.895-2.1,2.464-1.76,3.14.471.941,1.9,1.265,2.578,1.367a1.565,1.565,0,0,1,.754-1.375,1.571,1.571,0,0,1,1.133-.2Zm.882,2.621a2.737,2.737,0,0,1,1.1,1.345c.292.664.644.81.94.708a3.336,3.336,0,0,0,1.918-2.9c.268-2.255-1.088-3.05-1.84-3.1-1.045-.061-2.034,1-2.466,1.539h0a1.571,1.571,0,0,1,.309,2.392Zm-.34,3.237c.587-.89.134-2.314-.113-2.941h0a1.57,1.57,0,0,1-2.232-.875l-.017.014a2.749,2.749,0,0,1-1.713.283c-.722-.072-1.021.149-1.08.457a3.341,3.341,0,0,0,1.557,3.114c1.822,1.36,3.183.579,3.6-.052Z" fill="#c3b785"/>
        <path id="Path_75562-2" data-name="Path 75562" d="M287.063,227.758a1.226,1.226,0,1,0-.58.738,1.226,1.226,0,0,0,.58-.738Zm-1.312.142h0a.495.495,0,1,1,.369-.047.488.488,0,0,1-.369.047Z" transform="translate(-119.586 -139.467)" fill="#c3b785"/>
      </g>
      <g id="noun-printer-scanner-4881748" transform="translate(30.438 185.229)">
        <path id="Path_75563" data-name="Path 75563" d="M126.682,13.023v.964h-5.4v-.964H118.87v4.761h1.261v-1.62h7.557v1.62h1.262V13.023Zm-5.259,2.5a.605.605,0,1,1,.177-.428A.6.6,0,0,1,121.423,15.522Zm1.492,0a.605.605,0,1,1,.177-.428A.6.6,0,0,1,122.915,15.522Zm-1.762-.587a.222.222,0,0,1,.066.159.23.23,0,0,1-.066.159.221.221,0,0,1-.158.066.23.23,0,0,1-.159-.066.222.222,0,0,1-.066-.159.23.23,0,0,1,.066-.159.222.222,0,0,1,.159-.066A.229.229,0,0,1,121.153,14.935Zm1.492,0a.222.222,0,0,1,.066.159.23.23,0,0,1-.066.159.221.221,0,0,1-.158.066.23.23,0,0,1-.159-.066.222.222,0,0,1-.066-.159.23.23,0,0,1,.066-.159.222.222,0,0,1,.159-.066A.225.225,0,0,1,122.645,14.935Zm-2.133,1.611h6.794v1.238h-.625V17h-5.4v.782h-.77Zm5.6-6.625H125.1V8.913Zm.19.382h-1.581V8.721h-3.054v4.885H126.3Zm-4.218-1.036h1.073v.382h-1.073Zm-.01.515h2.107v.382h-2.107Zm0,.514h2.107v.382h-2.107Zm3.728,2.437h-3.728v-.382H125.8Zm0-.616h-3.728v-.382H125.8Zm0-.616h-3.728V11.12H125.8Zm-4.135,9.051H126.3V17.384h-4.635Zm.454-2.522h1.716v.382h-1.716Zm0,.726h3.728v.382h-3.728Zm0,.725h3.728v.382h-3.728Z" transform="translate(0)" fill="#c79d9b" fill-rule="evenodd"/>
      </g>
      <g id="noun-hammer-3890603" transform="translate(-22.07 187.505)">
        <path id="Path_75564" data-name="Path 75564" d="M110.833,50.355l-.765-.765a.228.228,0,0,0-.185-.067l-.189.017a.5.5,0,0,1-.547-.518l.024-.647a.209.209,0,0,0-.061-.155l-1.135-1.135a.214.214,0,0,0-.3,0,.246.246,0,0,1-.348,0l-.07-.07a3.1,3.1,0,0,0-4.378,0l-.278.278a.2.2,0,0,0,0,.284.205.205,0,0,0,.284,0,1.6,1.6,0,0,1,2.265-.011,2.346,2.346,0,0,1,.574.8.628.628,0,0,1-.13.7c-.01.01.011.08.08.149l1.218,1.219a.209.209,0,0,0,.155.061l.647-.023h.018a.5.5,0,0,1,.5.546l-.017.189a.232.232,0,0,0,.067.185l.766.766a.238.238,0,0,0,.328,0l1.473-1.474a.232.232,0,0,0,0-.328ZM103.5,51.8l.784.783,2.25-2.25-.784-.783Zm-.291-.034a.08.08,0,0,0-.057-.023.079.079,0,0,0-.054.021l-4.742,4.4a1.108,1.108,0,1,0,1.566,1.566l4.4-4.742a.079.079,0,0,0,0-.111Z" transform="translate(0 0)" fill="#9fb289"/>
      </g>
      <g id="noun-spanner-1596869" transform="translate(-12.509 254.836) rotate(-34)">
        <path id="Path_75565" data-name="Path 75565" d="M256.885,47.951a1.81,1.81,0,0,0-1.176-1.143l-.119-.048-.222-.092.059.233a11.713,11.713,0,0,1,.259,1.394,10.016,10.016,0,0,1-1.316.761,9.841,9.841,0,0,1-1.316-.761,11.814,11.814,0,0,1,.259-1.394l.059-.234-.223.093-.118.048a1.808,1.808,0,0,0-1.176,1.14c-.222.78.488,1.731,1.562,2.112-.017,1.45.039,2.931.1,4.5q.028.73.054,1.464a1.453,1.453,0,0,0-.319.232,1.351,1.351,0,0,0-.409,1.065,1.606,1.606,0,0,0,.473,1.055,1.491,1.491,0,0,0,1.055.436h0a1.49,1.49,0,0,0,1.055-.437,1.6,1.6,0,0,0,.472-1.054,1.361,1.361,0,0,0-.727-1.3q.024-.734.054-1.466c.06-1.565.117-3.046.1-4.495a2.935,2.935,0,0,0,.925-.542,1.584,1.584,0,0,0,.637-1.567Zm-1.7,8.91,0,.073q-.01.384-.017.767v.069l-.06.034-.67.384-.06.035-.06-.035-.67-.384-.06-.034V57.7q-.007-.383-.017-.768l0-.073.064-.035c.227-.127.456-.254.689-.382l.058-.032.058.032q.349.192.689.382Z" transform="translate(0)" fill="#ddb8d8"/>
      </g>
      <path id="noun-skillsaw-4239053" d="M125.249,94.691a4.083,4.083,0,0,1,4.025,3.4h-.624c-.023,0-.045,0-.067,0a3.4,3.4,0,0,0-6.667,0h-.692a4.083,4.083,0,0,1,4.025-3.4Zm5.4,3.4a5.442,5.442,0,0,0-9.15-3.264l-.644-.406a1.311,1.311,0,0,0-1.759.31,6.77,6.77,0,0,0-1.288,3.286,1.306,1.306,0,0,0,1.319,1.434h4.2a2.041,2.041,0,1,1,3.849,0h1.409v0c.022,0,.045,0,.067,0h2.041a.68.68,0,0,0,0-1.36Zm-10.8,0a5.407,5.407,0,0,1,.783-2.2l-.478-.3a5.409,5.409,0,0,0-.986,2.5Zm.842,2.041h3.037a2.041,2.041,0,0,0,3.042,0h3.241v.748c-1.1-.667-1.048.238-1.048.238v1.333l-1.333,1.333c-.333-1.19-.952-.524-.952-.524l-.952.952h-1.9c.667-1.1-.238-1.048-.238-1.048h-1.333l-1.333-1.333c1.19-.333.524-.952.524-.952Zm5.238-1.361a.68.68,0,1,1-.68-.68A.68.68,0,0,1,125.93,98.772Z" transform="translate(110.064 144.268)" fill="#9fb289" fill-rule="evenodd"/>
      <g id="noun-cutter-4062795" transform="translate(70.513 77.776)">
        <path id="Path_75566" data-name="Path 75566" d="M195.183,244.425c-.208.14-.749.51-1.374,1.025a14.772,14.772,0,0,0-1.264,1.164,8.45,8.45,0,0,0-1.115,1.412.278.278,0,0,1-.207.132.282.282,0,0,1-.232-.08l-.225-.227a.392.392,0,0,1-.092-.407,6.341,6.341,0,0,1,2.254-2.691,11.326,11.326,0,0,1,1.6-.982Z" transform="translate(0 -121.656)" fill="#c3b785"/>
        <path id="Path_75567" data-name="Path 75567" d="M245,294.087c-.227.162-.864.624-1.559,1.205a16.5,16.5,0,0,0-1.307,1.2,5.874,5.874,0,0,0-.97,1.254.185.185,0,0,1-.138.1.183.183,0,0,1-.16-.053l-.212-.212a.605.605,0,0,1-.117-.694,8.088,8.088,0,0,1,2.2-2.281c.735-.58,1.417-1.037,1.619-1.17Z" transform="translate(-48.343 -169.843)" fill="#c3b785"/>
        <path id="Path_75568" data-name="Path 75568" d="M427.534,126.07a2.746,2.746,0,0,1-1.475.85,1.445,1.445,0,0,1-.513,0,1.833,1.833,0,0,1,.213-.408l.3-.428a1.843,1.843,0,0,0,1.36-.992,1.8,1.8,0,0,0,.01-1.209c-.012-.042-.025-.082-.038-.12a1.921,1.921,0,0,1,.652,1.157,1.46,1.46,0,0,1-.5,1.152Z" transform="translate(-227.899 -5.219)" fill="#c3b785"/>
        <path id="Path_75569" data-name="Path 75569" d="M331.872,187.82a2.234,2.234,0,0,0-.372,1.2l-1.165.857-.378-.378,1.574-1.574Z" transform="translate(-135.156 -67.371)" fill="#c3b785"/>
        <path id="Path_75570" data-name="Path 75570" d="M381.786,118.717a2.742,2.742,0,0,0-.125-.335,2.22,2.22,0,0,1-.363.7,2.628,2.628,0,0,1-.639.584,3.108,3.108,0,0,1-.829.385,1.538,1.538,0,0,0-.428.362,2,2,0,0,0-.448,1.287l.1,1.445a.088.088,0,0,1-.025.068l-.347.367,0,0,.372.372.49-.49.242-1.245a2.059,2.059,0,0,1,.36-1.025l.313-.455a.09.09,0,0,1,.052-.037,1.7,1.7,0,0,0,1.27-.9,1.677,1.677,0,0,0,0-1.089Zm-2.152,2.337-.077.077a.091.091,0,0,1-.063.027.088.088,0,0,1-.063-.027.09.09,0,0,1,0-.127l.077-.077a.09.09,0,0,1,.127.127Z" transform="translate(-182.431 0)" fill="#c3b785"/>
      </g>
      <g id="noun-grass-cutter-3148656" transform="translate(7.504 175.692)">
        <path id="Path_75571" data-name="Path 75571" d="M534.17,429a.891.891,0,1,0,.891.891A.891.891,0,0,0,534.17,429Zm0,1.233a.343.343,0,1,1,.343-.343A.344.344,0,0,1,534.17,430.233Z" transform="translate(-445.625 -411.701)" fill="#c79d9b"/>
        <path id="Path_75572" data-name="Path 75572" d="M272.316,487.381a.513.513,0,0,1-.514-.514h-.785a1.3,1.3,0,1,0,2.6,0h-.783A.514.514,0,0,1,272.316,487.381Z" transform="translate(-188.659 -468.399)" fill="#c79d9b"/>
        <path id="Path_75573" data-name="Path 75573" d="M256.239,389.25a1.631,1.631,0,0,0-1.629,1.629h3.258a1.631,1.631,0,0,0-1.629-1.629Z" transform="translate(-172.583 -372.753)" fill="#c79d9b"/>
        <path id="Path_75574" data-name="Path 75574" d="M88.544,16.957a1.231,1.231,0,0,1,.661.194v-1.1a.285.285,0,0,0-.24-.281l-.255-.044.033-.193a.289.289,0,0,0-.237-.334l-2.718-.462a.289.289,0,0,0-.334.237l-.031.184-.539-.093v-.354a.815.815,0,0,0-.211-.548L80.079,9.085a.819.819,0,0,0-.606-.269h-.731a.271.271,0,1,0,0,.543h.731a.275.275,0,0,1,.2.09l2.661,2.94v2.234l-1.97-.34a.289.289,0,0,0-.32.185,7.9,7.9,0,0,0-.435,3.382.287.287,0,0,0,.286.259h1.787a1.971,1.971,0,0,1,3.942,0h1.689a1.23,1.23,0,0,1,1.228-1.151Zm-8.137.519a.174.174,0,0,1-.173.173.172.172,0,0,1-.17-.173V16.155a.17.17,0,0,1,.17-.171.172.172,0,0,1,.173.171Zm.718-.536a.167.167,0,1,1-.334,0v-.814a.167.167,0,0,1,.334,0Zm.726-.36a.171.171,0,1,1-.343,0v-.493a.171.171,0,0,1,.343,0Zm.829-1.9V12.768l1.591,1.758a.273.273,0,0,1,.071.184v.26Z" fill="#c79d9b"/>
      </g>
      <g id="noun-bulb-4510057" transform="translate(-82.444 228.729)">
        <path id="Path_75575" data-name="Path 75575" d="M228.46,305.64v.732a1.208,1.208,0,0,0,1.2,1.2h2.407a1.208,1.208,0,0,0,1.2-1.2v-.732Z" transform="translate(0 -299.787)" fill="#9fb289"/>
        <path id="Path_75576" data-name="Path 75576" d="M320.557,1.033a.173.173,0,0,1,.345,0V5.5h1.022V1.011a1.189,1.189,0,1,0-2.378,0V5.5h1.011Z" transform="translate(-89.29 0)" fill="#9fb289"/>
        <path id="Path_75577" data-name="Path 75577" d="M260.778,1.392a1.527,1.527,0,0,1,.269-.863.517.517,0,0,0-.107-.154.576.576,0,0,0-.984.409V5.875h.821Z" transform="translate(-30.876 -0.378)" fill="#9fb289"/>
        <path id="Path_75578" data-name="Path 75578" d="M288.31,418.77h2.433v.511H288.31Z" transform="translate(-58.67 -410.686)" fill="#9fb289"/>
        <path id="Path_75579" data-name="Path 75579" d="M288.31,457.27h2.433v.569H288.31Z" transform="translate(-58.67 -448.427)" fill="#9fb289"/>
        <path id="Path_75580" data-name="Path 75580" d="M288.147,498.714a.477.477,0,0,0,.473.456h1.487a.466.466,0,0,0,.185-.038.471.471,0,0,0,.288-.418v-.055h-2.445Z" transform="translate(-58.498 -488.999)" fill="#9fb289"/>
        <path id="Path_75581" data-name="Path 75581" d="M307.861,536.643h-1.532l-.081-.01.016.074a.5.5,0,0,0,.492.387h.711a.5.5,0,0,0,.487-.387l.017-.074-.076.009Z" transform="translate(-76.254 -526.224)" fill="#9fb289"/>
      </g>
    </g>
  </g>
</svg>
