<svg xmlns="http://www.w3.org/2000/svg" width="233.015" height="194.753" viewBox="0 0 233.015 194.753">
  <g id="Group_71197" data-name="Group 71197" transform="translate(-81.765 -173.314)">
    <ellipse id="Ellipse_113" data-name="Ellipse 113" cx="93.778" cy="94.265" rx="93.778" ry="94.265" transform="translate(110.291 178.333)" fill="#d92633" opacity="0.17"/>
    <g id="Ellipse_1127" data-name="Ellipse 1127" transform="translate(114.789 179.537)" fill="none" stroke="#f9dadc" stroke-width="1">
      <ellipse cx="93.778" cy="94.265" rx="93.778" ry="94.265" stroke="none"/>
      <ellipse cx="93.778" cy="94.265" rx="93.278" ry="93.765" fill="none"/>
    </g>
    <g id="Group_71061" data-name="Group 71061" transform="translate(81.765 173.314)">
      <g id="Background_Complete" data-name="Background Complete" transform="translate(0 40.771)">
        <g id="Group_71064" data-name="Group 71064" transform="translate(150.728 16.744)">
          <path id="Path_126581" data-name="Path 126581" d="M474.951,191.955V209.51a5.726,5.726,0,0,0,5.751,5.628h62.948a5.751,5.751,0,0,0,5.751-5.751V194.554l7.837-8.234-76.518-.239A5.778,5.778,0,0,0,474.951,191.955Z" transform="translate(-474.951 -186.081)" fill="#f5f5f5"/>
          <g id="Group_71061-2" data-name="Group 71061" transform="translate(8.05 8.616)">
            <path id="Path_126582" data-name="Path 126582" d="M552.293,209.744l-57.121-.264.006-1.756,57.12.264Z" transform="translate(-495.172 -207.724)" fill="#e0e0e0"/>
          </g>
          <g id="Group_71062" data-name="Group 71062" transform="translate(8.05 14.392)">
            <path id="Path_126583" data-name="Path 126583" d="M552.293,224.253l-57.121-.264.006-1.756,57.12.264Z" transform="translate(-495.172 -222.233)" fill="#e0e0e0"/>
          </g>
          <g id="Group_71063" data-name="Group 71063" transform="translate(42.569 20.175)">
            <rect id="Rectangle_41461" data-name="Rectangle 41461" width="1.756" height="22.601" transform="matrix(0.005, -1, 1, 0.005, 0, 1.756)" fill="#e0e0e0"/>
          </g>
        </g>
        <g id="Group_71088" data-name="Group 71088" transform="translate(6.637 51.375)">
          <g id="Group_71067" data-name="Group 71067">
            <g id="Group_71066" data-name="Group 71066">
              <g id="Group_71065" data-name="Group 71065">
                <path id="Path_126584" data-name="Path 126584" d="M149.81,333.8c8.8-6.149,10.8-17.564,10.451-27.824-.058-1.713.13-3.518-.684-5.021s-2.716-2.529-4.25-1.808c-1.272.6-1.826,2.078-2.538,3.3a10.019,10.019,0,0,1-4.017,3.836,3.817,3.817,0,0,1-3.517.318c-1.477-.815-1.651-2.856-1.641-4.56q.03-4.762.059-9.524a15.884,15.884,0,0,0-.514-5.059,5.284,5.284,0,0,0-3.321-3.573,3.2,3.2,0,0,0-3.967,2.148,15.742,15.742,0,0,0-.049,2.121,1.791,1.791,0,0,1-1.048,1.686,2.06,2.06,0,0,1-1.871-.781,22.653,22.653,0,0,1-4.067-6.139,31.412,31.412,0,0,0-3.793-6.335,9.211,9.211,0,0,0-6.241-3.5,5.515,5.515,0,0,0-5.655,3.763c-.618,2.4.783,4.838,2.307,6.782a38.019,38.019,0,0,0,7.917,7.546A3.128,3.128,0,0,1,124.7,292.6c.37,1.136-.706,2.264-1.827,2.637a19.721,19.721,0,0,1-3.975.447,3.831,3.831,0,0,0-3.27,2c-.7,1.741.759,3.566,2.192,4.762a32.569,32.569,0,0,0,9.64,5.565,10.984,10.984,0,0,1,3.582,1.741,3.153,3.153,0,0,1,1.01,3.611,3.211,3.211,0,0,1-3.491,1.342,22.688,22.688,0,0,1-3.738-1.428c-2.341-.883-5.364-.722-6.864,1.3a5.392,5.392,0,0,0-.574,4.767,12.426,12.426,0,0,0,2.582,4.21,32.753,32.753,0,0,0,13.986,9.829c5.43,1.883,10.462,2.393,15.859.419" transform="translate(-113 -273.072)" fill="#e8505b"/>
              </g>
            </g>
          </g>
          <g id="Group_71071" data-name="Group 71071" transform="translate(2.61 1.435)">
            <g id="Group_71070" data-name="Group 71070">
              <g id="Group_71069" data-name="Group 71069">
                <g id="Group_71068" data-name="Group 71068">
                  <path id="Path_126585" data-name="Path 126585" d="M153.892,343.571a74.811,74.811,0,0,0-2.783-14.039A152.649,152.649,0,0,0,145.05,313.1l-1.809-4.226c-.6-1.386-1.189-2.76-1.852-4.068a76.2,76.2,0,0,0-4.235-7.3c-1.459-2.257-2.927-4.345-4.313-6.288s-2.721-3.725-4-5.3a60.518,60.518,0,0,0-6.6-6.972c-.84-.76-1.512-1.327-1.972-1.705l-.525-.428a1.347,1.347,0,0,0-.186-.137,1.153,1.153,0,0,0,.165.162l.506.451c.446.394,1.1.976,1.931,1.748a63.905,63.905,0,0,1,6.506,7.022c1.268,1.579,2.584,3.367,3.964,5.311s2.834,4.039,4.283,6.294a77.119,77.119,0,0,1,4.2,7.28c.656,1.3,1.242,2.665,1.839,4.054l1.807,4.224a156.418,156.418,0,0,1,6.071,16.392,76.093,76.093,0,0,1,2.839,13.978" transform="translate(-119.557 -276.675)" fill="#e0e0e0"/>
                </g>
              </g>
            </g>
          </g>
          <g id="Group_71075" data-name="Group 71075" transform="translate(24.343 10.81)">
            <g id="Group_71074" data-name="Group 71074">
              <g id="Group_71073" data-name="Group 71073">
                <g id="Group_71072" data-name="Group 71072">
                  <path id="Path_126586" data-name="Path 126586" d="M174.158,318.968a3.433,3.433,0,0,0,.166-.727c.09-.471.2-1.156.316-2,.241-1.7.494-4.049.762-6.645s.554-4.94.82-6.628c.131-.844.243-1.527.327-2a3.416,3.416,0,0,0,.1-.739,3.386,3.386,0,0,0-.214.714c-.121.464-.267,1.142-.426,1.984-.323,1.684-.645,4.033-.914,6.633-.259,2.563-.492,4.88-.671,6.651-.086.8-.158,1.474-.217,2.014A3.438,3.438,0,0,0,174.158,318.968Z" transform="translate(-174.149 -300.227)" fill="#e0e0e0"/>
                </g>
              </g>
            </g>
          </g>
          <g id="Group_71079" data-name="Group 71079" transform="translate(2.451 25.436)">
            <g id="Group_71078" data-name="Group 71078">
              <g id="Group_71077" data-name="Group 71077">
                <g id="Group_71076" data-name="Group 71076">
                  <path id="Path_126587" data-name="Path 126587" d="M119.158,336.988a4.755,4.755,0,0,0,.873.1c.562.05,1.376.118,2.378.234,2.006.217,4.766.613,7.793,1.183s5.743,1.214,7.694,1.732c.978.252,1.764.477,2.308.63a4.682,4.682,0,0,0,.855.21,4.671,4.671,0,0,0-.818-.328c-.534-.189-1.313-.447-2.286-.729-1.942-.575-4.66-1.249-7.7-1.827a77.327,77.327,0,0,0-7.829-1.094c-1.008-.088-1.827-.122-2.393-.134A4.609,4.609,0,0,0,119.158,336.988Z" transform="translate(-119.158 -336.965)" fill="#e0e0e0"/>
                </g>
              </g>
            </g>
          </g>
          <g id="Group_71083" data-name="Group 71083" transform="translate(33.89 25.916)">
            <g id="Group_71082" data-name="Group 71082">
              <g id="Group_71081" data-name="Group 71081">
                <g id="Group_71080" data-name="Group 71080">
                  <path id="Path_126588" data-name="Path 126588" d="M198.133,366.145a1.131,1.131,0,0,0,.15-.267l.374-.793c.322-.689.762-1.7,1.29-2.954,1.057-2.509,2.407-6.02,3.845-9.915s2.755-7.416,3.758-9.944l1.2-2.99.321-.816a1.129,1.129,0,0,0,.092-.293,1.161,1.161,0,0,0-.15.268l-.374.792c-.322.689-.762,1.7-1.29,2.954-1.057,2.509-2.407,6.02-3.846,9.917s-2.754,7.414-3.757,9.942c-.492,1.228-.9,2.239-1.2,2.99l-.321.816A1.148,1.148,0,0,0,198.133,366.145Z" transform="translate(-198.132 -338.173)" fill="#e0e0e0"/>
                </g>
              </g>
            </g>
          </g>
          <g id="Group_71087" data-name="Group 71087" transform="translate(4.789 44.506)">
            <g id="Group_71086" data-name="Group 71086">
              <g id="Group_71085" data-name="Group 71085">
                <g id="Group_71084" data-name="Group 71084">
                  <path id="Path_126589" data-name="Path 126589" d="M125.031,384.871a1.155,1.155,0,0,0,.289.119l.845.283,3.116,1.01c2.631.854,6.252,2.074,10.251,3.428s7.635,2.543,10.286,3.342c1.324.4,2.4.713,3.147.914l.862.227a1.157,1.157,0,0,0,.307.058,1.174,1.174,0,0,0-.289-.12l-.845-.283-3.116-1.01c-2.631-.853-6.252-2.074-10.253-3.428s-7.634-2.542-10.284-3.341c-1.325-.4-2.4-.713-3.148-.914l-.862-.227A1.15,1.15,0,0,0,125.031,384.871Z" transform="translate(-125.031 -384.868)" fill="#e0e0e0"/>
                </g>
              </g>
            </g>
          </g>
        </g>
        <g id="Group_71092" data-name="Group 71092">
          <path id="Path_126590" data-name="Path 126590" d="M160.085,148.476v13.6a4.456,4.456,0,0,1-4.456,4.456H106.855a4.456,4.456,0,0,1-4.456-4.456V150.585l-6.072-6.38,59.288-.186A4.456,4.456,0,0,1,160.085,148.476Z" transform="translate(-96.327 -144.02)" fill="#e0e0e0"/>
          <g id="Group_71089" data-name="Group 71089" transform="translate(13.257 6.676)">
            <path id="Path_126591" data-name="Path 126591" d="M129.633,162.355l44.259-.2,0-1.36-44.259.2Z" transform="translate(-129.629 -160.791)" fill="#fafafa"/>
          </g>
          <g id="Group_71090" data-name="Group 71090" transform="translate(13.257 11.152)">
            <path id="Path_126592" data-name="Path 126592" d="M129.633,173.6l44.259-.2,0-1.36-44.259.2Z" transform="translate(-129.629 -172.032)" fill="#fafafa"/>
          </g>
          <g id="Group_71091" data-name="Group 71091" transform="translate(13.256 15.632)">
            <rect id="Rectangle_41462" data-name="Rectangle 41462" width="17.512" height="1.36" transform="translate(0 0.086) rotate(-0.282)" fill="#fafafa"/>
          </g>
        </g>
      </g>
      <g id="Device" transform="translate(39.858 65.73)">
        <g id="Group_71132" data-name="Group 71132" transform="translate(0 0)">
          <g id="Group_71098" data-name="Group 71098">
            <g id="Group_71097" data-name="Group 71097">
              <g id="Group_71093" data-name="Group 71093">
                <path id="Rectangle_41463" data-name="Rectangle 41463" d="M11.55,0H91.2A11.549,11.549,0,0,1,102.75,11.549V135.906A11.549,11.549,0,0,1,91.2,147.455H11.549A11.549,11.549,0,0,1,0,135.906V11.55A11.55,11.55,0,0,1,11.55,0Z" transform="translate(0 102.75) rotate(-90)" fill="#263238"/>
              </g>
              <g id="Group_71094" data-name="Group 71094" transform="translate(10.088 3.24)">
                <rect id="Rectangle_41464" data-name="Rectangle 41464" width="96.27" height="123.143" transform="translate(0 96.27) rotate(-90)" fill="#fff"/>
              </g>
              <g id="Group_71095" data-name="Group 71095" transform="translate(135.305 46.635)">
                <circle id="Ellipse_1157" data-name="Ellipse 1157" cx="3.942" cy="3.942" r="3.942" transform="matrix(0.229, -0.973, 0.973, 0.229, 0, 7.676)" fill="#455a64"/>
              </g>
              <g id="Group_71096" data-name="Group 71096" transform="translate(4.247 35.902)">
                <rect id="Rectangle_41465" data-name="Rectangle 41465" width="30.947" height="1.629" rx="0.814" transform="translate(0 30.947) rotate(-90)" fill="#455a64"/>
              </g>
            </g>
          </g>
          <g id="Group_71104" data-name="Group 71104" transform="translate(22.929 40.489)">
            <circle id="Ellipse_1158" data-name="Ellipse 1158" cx="9.949" cy="9.949" r="9.949" transform="translate(0 16.62) rotate(-56.646)" fill="#e8505b"/>
            <circle id="Ellipse_1159" data-name="Ellipse 1159" cx="9.949" cy="9.949" r="9.949" transform="translate(0 16.62) rotate(-56.646)" fill="#fff" opacity="0.3"/>
            <g id="Group_71099" data-name="Group 71099" transform="translate(9.741 11.272)">
              <path id="Path_126593" data-name="Path 126593" d="M279.12,336.74c.377-.031.719.385.764.929s-.224,1.01-.6,1.041-.719-.385-.764-.929S278.743,336.771,279.12,336.74Z" transform="translate(-278.514 -336.738)" fill="#263238"/>
            </g>
            <g id="Group_71100" data-name="Group 71100" transform="translate(15.946 11.143)">
              <path id="Path_126594" data-name="Path 126594" d="M294.827,336.414c-.378-.016-.7.414-.725.959s.266,1,.644,1.016.7-.414.725-.96S295.2,336.43,294.827,336.414Z" transform="translate(-294.101 -336.414)" fill="#263238"/>
            </g>
            <g id="Group_71101" data-name="Group 71101" transform="translate(9.474 15.538)">
              <path id="Path_126595" data-name="Path 126595" d="M286.126,347.666a40.459,40.459,0,0,1-8.284,0,40.528,40.528,0,0,1,8.284,0Z" transform="translate(-277.842 -347.454)" fill="#263238"/>
            </g>
            <g id="Group_71102" data-name="Group 71102" transform="translate(8.991 9.888)">
              <path id="Path_126596" data-name="Path 126596" d="M278.746,333.5c-.024.118-.5.114-1.049.2s-1,.231-1.062.126.355-.447,1-.545S278.774,333.395,278.746,333.5Z" transform="translate(-276.628 -333.262)" fill="#263238"/>
            </g>
            <g id="Group_71103" data-name="Group 71103" transform="translate(16.37 9.813)">
              <path id="Path_126597" data-name="Path 126597" d="M297.262,333.873c-.075.095-.5-.13-1.057-.3s-1.032-.228-1.041-.349.527-.255,1.165-.057S297.338,333.788,297.262,333.873Z" transform="translate(-295.164 -333.073)" fill="#263238"/>
            </g>
          </g>
          <g id="Group_71110" data-name="Group 71110" transform="translate(96.923 41.638)">
            <circle id="Ellipse_1160" data-name="Ellipse 1160" cx="10.312" cy="10.312" r="10.312" transform="translate(0 20.367) rotate(-80.951)" fill="#e8505b"/>
            <circle id="Ellipse_1161" data-name="Ellipse 1161" cx="10.312" cy="10.312" r="10.312" transform="translate(0 20.367) rotate(-80.951)" opacity="0.3"/>
            <g id="Group_71105" data-name="Group 71105" transform="translate(7.619 9.206)">
              <path id="Path_126598" data-name="Path 126598" d="M459.684,334.436c.391-.032.745.4.792.963s-.233,1.047-.623,1.08-.746-.4-.792-.963S459.293,334.469,459.684,334.436Z" transform="translate(-459.055 -334.435)" fill="#263238"/>
            </g>
            <g id="Group_71106" data-name="Group 71106" transform="translate(14.051 9.072)">
              <path id="Path_126599" data-name="Path 126599" d="M475.964,334.1c-.392-.016-.728.429-.752.994s.276,1.037.668,1.053.729-.43.752-1S476.355,334.115,475.964,334.1Z" transform="translate(-475.211 -334.099)" fill="#263238"/>
            </g>
            <g id="Group_71107" data-name="Group 71107" transform="translate(7.341 12.038)">
              <path id="Path_126600" data-name="Path 126600" d="M466.943,343.359a7.432,7.432,0,0,1-1.208-.626,6.685,6.685,0,0,0-3.07-.758,7.642,7.642,0,0,0-3.078.8,6.637,6.637,0,0,1-1.231.586,3.376,3.376,0,0,1,1.09-.85,6.7,6.7,0,0,1,3.212-.959,6.031,6.031,0,0,1,3.223.921A3.207,3.207,0,0,1,466.943,343.359Z" transform="translate(-458.355 -341.549)" fill="#263238"/>
            </g>
            <g id="Group_71108" data-name="Group 71108" transform="translate(6.844 8.002)">
              <path id="Path_126601" data-name="Path 126601" d="M459.3,331.432c.035.044-.033.173-.2.323a1.714,1.714,0,0,1-.807.378,1.549,1.549,0,0,1-.895-.1c-.211-.1-.307-.209-.284-.26.054-.112.539.049,1.1-.059S459.221,331.333,459.3,331.432Z" transform="translate(-457.107 -331.411)" fill="#263238"/>
            </g>
            <g id="Group_71109" data-name="Group 71109" transform="translate(14.477 7.84)">
              <path id="Path_126602" data-name="Path 126602" d="M478.47,331.687c.017.052-.1.152-.324.225a1.531,1.531,0,0,1-.927-.034,1.8,1.8,0,0,1-.758-.507c-.151-.175-.206-.312-.166-.352.09-.093.5.262,1.063.458S478.429,331.567,478.47,331.687Z" transform="translate(-476.282 -331.004)" fill="#263238"/>
            </g>
          </g>
          <g id="Group_71116" data-name="Group 71116" transform="translate(48.634 74.86)">
            <g id="Group_71111" data-name="Group 71111" transform="translate(38.982)">
              <path id="Path_126603" data-name="Path 126603" d="M417.889,401.97l2.389-1.184,2.33,1.3-.388-2.638,1.953-1.815-2.629-.446-1.123-2.418-1.237,2.362-2.647.32,1.864,1.906Z" transform="translate(-416.538 -394.765)" fill="#e0e0e0"/>
            </g>
            <g id="Group_71112" data-name="Group 71112" transform="translate(29.236)">
              <path id="Path_126604" data-name="Path 126604" d="M393.409,401.97l2.389-1.184,2.33,1.3-.388-2.638,1.953-1.815-2.629-.446-1.123-2.418-1.237,2.362-2.647.32,1.864,1.906Z" transform="translate(-392.057 -394.765)" fill="#e8505b"/>
            </g>
            <g id="Group_71113" data-name="Group 71113" transform="translate(19.491)">
              <path id="Path_126605" data-name="Path 126605" d="M368.928,401.97l2.389-1.184,2.33,1.3-.388-2.638,1.953-1.815-2.629-.446-1.123-2.418-1.237,2.362-2.647.32,1.864,1.906Z" transform="translate(-367.577 -394.765)" fill="#e8505b"/>
            </g>
            <g id="Group_71114" data-name="Group 71114" transform="translate(9.745)">
              <path id="Path_126606" data-name="Path 126606" d="M344.448,401.97l2.389-1.184,2.33,1.3-.388-2.638,1.953-1.815-2.629-.446-1.123-2.418-1.237,2.362-2.647.32,1.864,1.906Z" transform="translate(-343.097 -394.765)" fill="#e8505b"/>
            </g>
            <g id="Group_71115" data-name="Group 71115">
              <path id="Path_126607" data-name="Path 126607" d="M319.968,401.97l2.389-1.184,2.33,1.3-.388-2.638,1.953-1.815-2.629-.446-1.123-2.418-1.237,2.362-2.647.32,1.864,1.906Z" transform="translate(-318.616 -394.765)" fill="#e8505b"/>
            </g>
          </g>
          <g id="Group_71117" data-name="Group 71117" transform="translate(47.605 23.3)">
            <path id="Path_126608" data-name="Path 126608" d="M363.786,265.353c0,.059-10.691.106-23.877.106s-23.879-.047-23.879-.106,10.689-.106,23.879-.106S363.786,265.295,363.786,265.353Z" transform="translate(-316.03 -265.247)" fill="#263238"/>
          </g>
          <g id="Group_71118" data-name="Group 71118" transform="translate(60.034 20.432)">
            <path id="Path_126609" data-name="Path 126609" d="M370.839,258.148c0,.059-5.281.106-11.794.106s-11.794-.047-11.794-.106,5.28-.106,11.794-.106S370.839,258.09,370.839,258.148Z" transform="translate(-347.251 -258.042)" fill="#263238"/>
          </g>
          <g id="Group_71129" data-name="Group 71129" transform="translate(56.275 33.973)">
            <g id="Group_71127" data-name="Group 71127" transform="translate(0.151 0)">
              <g id="Group_71124" data-name="Group 71124">
                <circle id="Ellipse_1162" data-name="Ellipse 1162" cx="13.584" cy="13.584" r="13.584" transform="matrix(0.307, -0.952, 0.952, 0.307, 0, 25.859)" fill="#e8505b"/>
                <g id="Group_71119" data-name="Group 71119" transform="translate(11.58 13.67)">
                  <path id="Path_126610" data-name="Path 126610" d="M368.107,326.4c.515-.042.982.525,1.043,1.269s-.307,1.379-.821,1.422-.982-.526-1.043-1.269S367.592,326.441,368.107,326.4Z" transform="translate(-367.279 -326.396)" fill="#263238"/>
                </g>
                <g id="Group_71120" data-name="Group 71120" transform="translate(20.053 13.494)">
                  <path id="Path_126611" data-name="Path 126611" d="M389.553,325.954c-.516-.021-.959.565-.99,1.311s.363,1.366.879,1.387.959-.566.99-1.311S390.069,325.975,389.553,325.954Z" transform="translate(-388.562 -325.954)" fill="#263238"/>
                </g>
                <g id="Group_71121" data-name="Group 71121" transform="translate(11.214 17.947)">
                  <path id="Path_126612" data-name="Path 126612" d="M377.671,337.146c.021.021-.089.161-.308.4a7.764,7.764,0,0,1-1.018.917,7.256,7.256,0,0,1-1.8.984,6.365,6.365,0,0,1-2.49.39,7.347,7.347,0,0,1-2.449-.565,10.558,10.558,0,0,1-1.8-.945,5.877,5.877,0,0,1-1.443-1.18,13.054,13.054,0,0,1,1.6.924,12.8,12.8,0,0,0,1.789.837,7.577,7.577,0,0,0,2.329.505,6.413,6.413,0,0,0,2.34-.335,8,8,0,0,0,1.756-.862c.463-.318.836-.586,1.078-.793S377.65,337.125,377.671,337.146Z" transform="translate(-366.359 -337.141)" fill="#263238"/>
                </g>
                <g id="Group_71122" data-name="Group 71122" transform="translate(10.134 10.359)">
                  <path id="Path_126613" data-name="Path 126613" d="M366.534,318.337c-.024.12-.674.076-1.445.2s-1.379.355-1.438.248.513-.536,1.373-.667S366.564,318.228,366.534,318.337Z" transform="translate(-363.647 -318.079)" fill="#263238"/>
                </g>
                <g id="Group_71123" data-name="Group 71123" transform="translate(21.093 10.223)">
                  <path id="Path_126614" data-name="Path 126614" d="M394.039,318.765c-.075.1-.651-.246-1.42-.477s-1.436-.279-1.444-.4.713-.27,1.569,0S394.115,318.683,394.039,318.765Z" transform="translate(-391.174 -317.737)" fill="#263238"/>
                </g>
              </g>
              <g id="Group_71125" data-name="Group 71125" transform="translate(10.089 16.975)">
                <path id="Path_126615" data-name="Path 126615" d="M364.88,334.7c.053-.01.139.131.153.388a1.6,1.6,0,0,1-1.084,1.527c-.247.072-.408.037-.416-.017-.02-.118.5-.293.859-.817C364.77,335.269,364.763,334.719,364.88,334.7Z" transform="translate(-363.533 -334.699)" fill="#263238"/>
              </g>
              <g id="Group_71126" data-name="Group 71126" transform="translate(22.114 17.121)">
                <path id="Path_126616" data-name="Path 126616" d="M395.3,336.168c.01.054-.1.136-.314.154a1.23,1.23,0,0,1-1.229-.912c-.044-.209,0-.339.057-.345.119-.01.253.392.652.675C394.85,336.039,395.273,336.052,395.3,336.168Z" transform="translate(-393.738 -335.065)" fill="#263238"/>
              </g>
            </g>
            <g id="Group_71128" data-name="Group 71128" transform="translate(0 0.014)">
              <path id="Path_126617" data-name="Path 126617" d="M371.665,309.054s-.012-.093-.025-.273l-.051-.8q-.016-.265-.035-.59c-.023-.216-.069-.45-.107-.705s-.084-.529-.13-.821a9.067,9.067,0,0,0-.221-.92,16.087,16.087,0,0,0-1.868-4.477,16.772,16.772,0,0,0-4.274-4.767l-.727-.541c-.255-.167-.524-.32-.79-.484s-.528-.342-.819-.474l-.872-.418-.443-.21-.466-.17-.945-.344c-.321-.106-.657-.174-.989-.265a8.517,8.517,0,0,0-1.016-.23,15.611,15.611,0,0,0-2.122-.245c-.362-.013-.726-.048-1.094-.042l-1.111.057c-.186.013-.374.012-.56.037l-.56.086c-.373.062-.753.106-1.129.183a17.748,17.748,0,0,0-2.237.657,17.483,17.483,0,0,0-2.188.961c-.354.192-.694.416-1.045.624-.172.11-.355.2-.518.328l-.494.37a18.933,18.933,0,0,0-1.9,1.617l-.852.939-.215.236-.193.255-.384.514-.386.516-.338.552-.337.556-.169.278-.143.293-.569,1.183-.455,1.242a16.621,16.621,0,0,0,0,10.583l.455,1.242.569,1.183.143.294.169.279.337.555.338.552.386.516.384.514.193.255.215.236.853.939a18.842,18.842,0,0,0,1.9,1.618l.494.37c.164.124.347.218.519.328.351.208.69.432,1.045.624a17.571,17.571,0,0,0,2.188.962,17.763,17.763,0,0,0,2.237.656c.376.078.756.121,1.129.184l.56.086c.186.025.375.023.561.036l1.111.057c.367.006.732-.029,1.094-.042a15.566,15.566,0,0,0,2.123-.245,8.636,8.636,0,0,0,1.016-.23c.332-.09.668-.159.989-.265l.945-.344.466-.17.443-.211.872-.418c.291-.132.548-.32.819-.474s.535-.317.79-.484l.726-.541a16.764,16.764,0,0,0,4.274-4.767,16.091,16.091,0,0,0,1.868-4.477,9.2,9.2,0,0,0,.22-.92q.069-.439.13-.821c.038-.255.084-.488.107-.7s.024-.413.035-.59c.022-.347.039-.613.051-.8s.025-.273.025-.273,0,.092,0,.273-.017.455-.03.8q-.011.266-.025.592c-.02.217-.062.452-.1.708l-.121.826a9.168,9.168,0,0,1-.212.926,16.01,16.01,0,0,1-1.846,4.518,16.825,16.825,0,0,1-4.285,4.825l-.731.549c-.257.17-.527.325-.795.492s-.532.347-.825.481l-.879.425-.447.214-.47.173-.954.35c-.324.108-.663.178-1,.271a8.69,8.69,0,0,1-1.026.235,15.8,15.8,0,0,1-2.145.254c-.365.014-.734.05-1.106.045l-1.123-.055c-.188-.013-.379-.012-.567-.036l-.566-.086c-.378-.062-.762-.105-1.142-.184a17.862,17.862,0,0,1-2.265-.66,17.627,17.627,0,0,1-2.215-.97c-.359-.194-.7-.42-1.058-.63-.174-.111-.359-.206-.525-.331l-.5-.373a19,19,0,0,1-1.928-1.635l-.864-.95-.217-.239-.2-.258-.389-.52-.391-.522-.342-.559-.342-.563-.171-.282-.145-.3-.577-1.2-.461-1.258a16.812,16.812,0,0,1,0-10.717l.461-1.258.577-1.2.145-.3.172-.282.342-.562.342-.559.391-.522.389-.52.2-.258.217-.239.864-.949a19.038,19.038,0,0,1,1.928-1.635l.5-.373c.166-.125.351-.22.525-.331.355-.21.7-.436,1.058-.63a17.631,17.631,0,0,1,2.215-.97,17.946,17.946,0,0,1,2.264-.66c.38-.078.764-.121,1.142-.183l.566-.086c.188-.024.379-.023.567-.035l1.123-.055c.371-.005.74.031,1.105.045a15.669,15.669,0,0,1,2.144.254,8.731,8.731,0,0,1,1.026.235c.336.092.674.163,1,.271l.953.351.47.173.447.214.879.425c.293.134.552.324.825.481s.538.322.795.492l.731.549a16.828,16.828,0,0,1,4.285,4.825,16,16,0,0,1,1.846,4.518,9.092,9.092,0,0,1,.212.926q.065.442.121.826c.035.256.078.491.1.709s.017.415.025.592c.013.348.023.615.03.8S371.665,309.054,371.665,309.054Z" transform="translate(-337.809 -292.093)" fill="#e8505b"/>
            </g>
          </g>
          <rect id="Rectangle_41466" data-name="Rectangle 41466" width="123.143" height="6.144" transform="translate(10.088 3.24)" fill="#e0e0e0"/>
          <path id="Path_126618" data-name="Path 126618" d="M229.256,220.89a.832.832,0,1,1-.832-.832A.832.832,0,0,1,229.256,220.89Z" transform="translate(-215.194 -214.747)" fill="#fff"/>
          <path id="Path_126619" data-name="Path 126619" d="M236.2,220.89a.832.832,0,1,1-.832-.832A.832.832,0,0,1,236.2,220.89Z" transform="translate(-219.373 -214.747)" fill="#fff"/>
          <path id="Path_126620" data-name="Path 126620" d="M243.142,220.89a.832.832,0,1,1-.832-.832A.832.832,0,0,1,243.142,220.89Z" transform="translate(-223.552 -214.747)" fill="#fff"/>
          <g id="Group_71130" data-name="Group 71130" transform="translate(24.222 28.145)">
            <path id="Path_126621" data-name="Path 126621" d="M352.735,277.523c0,.059-21.367.106-47.719.106s-47.723-.048-47.723-.106,21.363-.106,47.723-.106S352.735,277.464,352.735,277.523Z" transform="translate(-257.294 -277.417)" fill="#e0e0e0"/>
          </g>
          <g id="Group_71131" data-name="Group 71131" transform="translate(24.222 30.51)">
            <path id="Path_126622" data-name="Path 126622" d="M352.735,283.465c0,.059-21.367.106-47.719.106s-47.723-.047-47.723-.106,21.363-.106,47.723-.106S352.735,283.407,352.735,283.465Z" transform="translate(-257.294 -283.359)" fill="#e0e0e0"/>
          </g>
        </g>
      </g>
      <g id="Character" transform="translate(72.578 9.602)">
        <g id="Group_71179" data-name="Group 71179" transform="translate(0)">
          <g id="Group_71150" data-name="Group 71150" transform="translate(0 24.527)">
            <g id="Group_71147" data-name="Group 71147">
              <g id="Group_71133" data-name="Group 71133" transform="translate(0 10.654)">
                <path id="Path_126623" data-name="Path 126623" d="M334.224,175.734s-.842-1.906-1-2.325c-.428-1.143-3.183-8.8-2.522-9.957,3.055-5.36,5.422-9.171,11.447-9.171l10.639-.071s10.083-2.053,17.187,20.875Z" transform="translate(-309.915 -154.137)" fill="#455a64"/>
                <path id="Path_126624" data-name="Path 126624" d="M280.5,177.616l13.931-3L310.812,166l.062-11.755c-2.458-.678-7.16,1.027-15.626,5.34l-12.577,6.493a7.446,7.446,0,0,0-2.169,11.541Z" transform="translate(-278.639 -154.098)" fill="#455a64"/>
              </g>
              <g id="Group_71140" data-name="Group 71140" transform="translate(1.467 25.337)">
                <g id="Group_71137" data-name="Group 71137" transform="translate(22.114 25.398)">
                  <g id="Group_71134" data-name="Group 71134">
                    <path id="Path_126625" data-name="Path 126625" d="M347.509,260.972c-.2-.661-.064-1.086.9-.762,2.126.713,4.024.481,4.489.068s.038-1.2-.653-1.135a8.365,8.365,0,0,1-2.239-.31,5.455,5.455,0,0,1-1.67-.705c-.443-.283-.826-.547-1.166-.791a10.987,10.987,0,0,1-2.574-2.555l-6.723,2.884,1.083,3.368a3.56,3.56,0,0,0,2.274,2.609,16.12,16.12,0,0,0,4.978.391c.561-.367,2.724,2.762,3.378,3.867s1.436,1.241,1.689.566c.173-.46-1.749-3.889-2.421-4.967a13.13,13.13,0,0,1-1.344-2.528" transform="translate(-337.872 -254.782)" fill="#b77153"/>
                  </g>
                  <g id="Group_71135" data-name="Group 71135" transform="translate(3.761 7.132)">
                    <path id="Path_126626" data-name="Path 126626" d="M348.64,274.826c-.006.024-.166.017-.4-.1a1.74,1.74,0,0,1-.92-1.646c.024-.254.1-.395.125-.387a2.225,2.225,0,0,0,1.19,2.127Z" transform="translate(-347.319 -272.698)" fill="#995037"/>
                  </g>
                  <g id="Group_71136" data-name="Group 71136" transform="translate(5.967 7.271)">
                    <path id="Path_126627" data-name="Path 126627" d="M354.1,275.117c-.007.024-.16.01-.375-.106a1.729,1.729,0,0,1-.863-1.592c.021-.243.092-.379.116-.372a2.3,2.3,0,0,0,1.121,2.07Z" transform="translate(-352.861 -273.046)" fill="#995037"/>
                  </g>
                </g>
                <g id="Group_71139" data-name="Group 71139">
                  <path id="Path_126628" data-name="Path 126628" d="M282.323,199.361s21.343,24.53,21.318,24.125,9.567-7.577,9.567-7.577l-20.927-24.926Z" transform="translate(-282.323 -190.983)" fill="#455a64"/>
                  <g id="Group_71138" data-name="Group 71138" transform="translate(12.945 3.557)">
                    <path id="Path_126629" data-name="Path 126629" d="M314.84,199.919c.006,0,.057.045.15.145l.4.443,1.434,1.656c1.2,1.4,2.856,3.353,4.67,5.515s3.45,4.127,4.624,5.556l1.383,1.7.368.469a.77.77,0,0,1,.117.173c-.006,0-.057-.045-.15-.145l-.4-.443L326,213.333c-1.2-1.4-2.856-3.354-4.672-5.516s-3.45-4.127-4.624-5.556l-1.383-1.7-.368-.469A.78.78,0,0,1,314.84,199.919Z" transform="translate(-314.84 -199.918)" fill="#263238"/>
                  </g>
                </g>
              </g>
              <g id="Group_71141" data-name="Group 71141" transform="translate(48.366 22.104)">
                <path id="Path_126630" data-name="Path 126630" d="M403.937,192.478a7.266,7.266,0,0,0,.256-1.572,4.709,4.709,0,0,0-1.395-3.441c-.518-.545-1.074-1.014-1.523-1.508a4.65,4.65,0,0,1-.956-1.49,2.6,2.6,0,0,1-.174-1.183,1.045,1.045,0,0,1,.111-.424,2.959,2.959,0,0,0,.2,1.551,4.754,4.754,0,0,0,.96,1.413c.445.475,1,.938,1.533,1.5a4.888,4.888,0,0,1,1.15,1.837,4.7,4.7,0,0,1,.241,1.754,4.246,4.246,0,0,1-.224,1.17A1.307,1.307,0,0,1,403.937,192.478Z" transform="translate(-400.133 -182.861)" fill="#263238"/>
              </g>
              <g id="Group_71142" data-name="Group 71142" transform="translate(16.148 12.023)">
                <path id="Path_126631" data-name="Path 126631" d="M326.436,158.361a2.071,2.071,0,0,1,.31-.147c.207-.089.516-.208.924-.338a8.037,8.037,0,0,1,1.529-.311,5.255,5.255,0,0,1,2.06.192,4.773,4.773,0,0,1,2.106,1.355,5.6,5.6,0,0,1,1.266,2.58,9.83,9.83,0,0,1,.2,3.174,6.888,6.888,0,0,1-1.18,3.2,8.786,8.786,0,0,1-2.553,2.264c-.934.589-1.875,1.07-2.766,1.54l-4.74,2.488-3.2,1.661-.876.442a2.029,2.029,0,0,1-.312.141,2.11,2.11,0,0,1,.293-.179l.858-.477,3.171-1.72,4.716-2.527c.888-.474,1.829-.961,2.749-1.544a8.642,8.642,0,0,0,2.491-2.211,6.706,6.706,0,0,0,1.147-3.1,9.72,9.72,0,0,0-.186-3.107,5.445,5.445,0,0,0-1.206-2.505,4.647,4.647,0,0,0-2.021-1.33,5.189,5.189,0,0,0-2-.217,8.352,8.352,0,0,0-1.516.273c-.408.116-.721.222-.932.3A2.046,2.046,0,0,1,326.436,158.361Z" transform="translate(-319.202 -157.539)" fill="#263238"/>
              </g>
              <g id="Group_71143" data-name="Group 71143" transform="translate(13.458 26.047)">
                <path id="Path_126632" data-name="Path 126632" d="M315.746,197.862a8.694,8.694,0,0,0-3.3-5.094,2.667,2.667,0,0,1,.785.485,6.847,6.847,0,0,1,2.393,3.694A2.675,2.675,0,0,1,315.746,197.862Z" transform="translate(-312.446 -192.766)" fill="#263238"/>
              </g>
              <g id="Group_71144" data-name="Group 71144" transform="translate(34.814 20.715)">
                <path id="Path_126633" data-name="Path 126633" d="M379.408,187.135a2.591,2.591,0,0,1-.453.122,4.569,4.569,0,0,1-1.346.058,4.949,4.949,0,0,1-2.023-.665,4.63,4.63,0,0,1-1.868-2.1,4.939,4.939,0,0,1-.258-3.387,2.776,2.776,0,0,1,1.126-1.561,1.394,1.394,0,0,1,1.017-.208,1.487,1.487,0,0,1,.887.589,4.929,4.929,0,0,1,.476,4.246,5.047,5.047,0,0,1-1.207,1.977,4.593,4.593,0,0,1-2.075,1.172,4.743,4.743,0,0,1-4.435-1.032,4.65,4.65,0,0,1-1.33-4.043,4.006,4.006,0,0,1,.812-1.873,2,2,0,0,1,.795-.608,1.28,1.28,0,0,1,.977.01,1.818,1.818,0,0,1,1.041,1.447,3.047,3.047,0,0,1-.323,1.627,7.769,7.769,0,0,1-1.694,2.259,8.062,8.062,0,0,1-1.74,1.231,7.482,7.482,0,0,1-1.242.519c-.146.048-.261.073-.337.094a.488.488,0,0,1-.117.023.521.521,0,0,1,.111-.044c.074-.027.187-.059.33-.113a8.423,8.423,0,0,0,1.217-.551,8.2,8.2,0,0,0,1.7-1.245,7.734,7.734,0,0,0,1.639-2.236,2.9,2.9,0,0,0,.3-1.544,1.654,1.654,0,0,0-.945-1.3,1.1,1.1,0,0,0-.844,0,1.827,1.827,0,0,0-.717.558,3.825,3.825,0,0,0-.763,1.785,4.458,4.458,0,0,0,1.28,3.862,4.542,4.542,0,0,0,4.238.978,4.386,4.386,0,0,0,1.98-1.117,4.845,4.845,0,0,0,1.158-1.892A5.186,5.186,0,0,0,377,182.03a4.46,4.46,0,0,0-.219-1.023,2.945,2.945,0,0,0-.449-.9,1.3,1.3,0,0,0-.771-.521,1.207,1.207,0,0,0-.881.18,2.606,2.606,0,0,0-1.055,1.452,4.8,4.8,0,0,0,.226,3.276,4.526,4.526,0,0,0,1.792,2.058,4.94,4.94,0,0,0,1.971.684A5.51,5.51,0,0,0,379.408,187.135Z" transform="translate(-366.091 -179.371)" fill="#fafafa"/>
              </g>
              <g id="Group_71146" data-name="Group 71146" transform="translate(44.478)">
                <g id="Group_71145" data-name="Group 71145">
                  <path id="Path_126634" data-name="Path 126634" d="M402.047,134.372a4.825,4.825,0,0,1-.951-1.891,1.283,1.283,0,0,1-.026-.691.533.533,0,0,1,.514-.395c.239.023.4.245.529.448a10.153,10.153,0,0,1,.982,1.862,1.418,1.418,0,0,1,.115.566.574.574,0,0,1-.277.482.591.591,0,0,1-.6-.081,1.738,1.738,0,0,1-.409-.482" transform="translate(-396.786 -129.779)" fill="#995037"/>
                  <path id="Path_126635" data-name="Path 126635" d="M404.23,132.457l-1.053-2.2a1.75,1.75,0,0,1-.218-.686.53.53,0,0,1,.921-.439,1.761,1.761,0,0,1,.353.52l.5.966a3.1,3.1,0,0,1,.328.822,1.047,1.047,0,0,1-.165.844.642.642,0,0,1-.792.188" transform="translate(-397.946 -128.309)" fill="#995037"/>
                  <path id="Path_126636" data-name="Path 126636" d="M391.972,138.307a9.574,9.574,0,0,1-1.6-2.9c-.132-1,1.1-2.778,3.728-3.177a6.447,6.447,0,0,0,2.705-.927.849.849,0,0,0,.308-1.027,15.282,15.282,0,0,1-.922-2.6c.123-.537.473-.527,1.383.8s1.959,2.682,1.757,3.3-3.411,2.512-3.411,2.512l.877,1.414Z" transform="translate(-390.366 -127.337)" fill="#b77153"/>
                </g>
                <path id="Path_126637" data-name="Path 126637" d="M400.991,168.5l-10.1-19.787,6.5-3.645,13.663,21.659s.721,1.384,1.728,3H401.331" transform="translate(-390.682 -138.009)" fill="#455a64"/>
              </g>
            </g>
            <g id="Group_71148" data-name="Group 71148" transform="translate(44.463 7.058)">
              <path id="Path_126638" data-name="Path 126638" d="M396.95,145.067a.491.491,0,0,1-.112.08l-.341.207-1.308.762-4.7,2.676.037-.12c.982,2,2.259,4.32,3.546,6.837,1.916,3.724,3.572,7.135,4.737,9.619.584,1.242,1.045,2.252,1.358,2.952l.355.809a1.692,1.692,0,0,1,.11.288,1.713,1.713,0,0,1-.149-.27l-.391-.792-1.419-2.922c-1.2-2.467-2.875-5.865-4.79-9.587-1.285-2.514-2.554-4.838-3.52-6.853l-.038-.079.075-.041,4.734-2.61,1.333-.718.354-.183A.509.509,0,0,1,396.95,145.067Z" transform="translate(-390.328 -145.067)" fill="#263238"/>
            </g>
            <g id="Group_71149" data-name="Group 71149" transform="translate(22.616 27.6)">
              <path id="Path_126639" data-name="Path 126639" d="M337.142,201.318a12.144,12.144,0,0,1-1.684-4.65c.061-.014.336,1.059.8,2.34S337.2,201.29,337.142,201.318Z" transform="translate(-335.449 -196.668)" fill="#263238"/>
            </g>
          </g>
          <g id="Group_71178" data-name="Group 71178" transform="translate(18.202)">
            <path id="Path_126640" data-name="Path 126640" d="M393.27,110.419a3.994,3.994,0,0,0,4.711-6.04,4.816,4.816,0,0,0,3.241-5.515,6.235,6.235,0,0,0-4.822-4.606,5.131,5.131,0,0,0-2.667.068,3.264,3.264,0,0,0-1.989,1.707" transform="translate(-364.92 -82.814)" fill="#263238"/>
            <g id="Group_71151" data-name="Group 71151" transform="translate(25.263 22.323)">
              <path id="Path_126641" data-name="Path 126641" d="M390.589,121.925c.007.024-.3.078-.779.33a3.441,3.441,0,0,0-1.523,1.641,3.366,3.366,0,0,0,.255,3.208,3.36,3.36,0,0,0,1.487,1.253,3.337,3.337,0,0,0,3.857-.881,3.363,3.363,0,0,0,.8-1.775,3.367,3.367,0,0,0-1.164-3,3.441,3.441,0,0,0-2.085-.816c-.543-.018-.84.066-.844.041a.849.849,0,0,1,.213-.059,2.756,2.756,0,0,1,.633-.064,3.435,3.435,0,0,1,2.18.784,3.483,3.483,0,0,1,.986,1.293,3.541,3.541,0,0,1,.275,1.847,3.551,3.551,0,0,1-.832,1.887,3.528,3.528,0,0,1-4.1.936,3.541,3.541,0,0,1-1.569-1.338,3.536,3.536,0,0,1-.554-1.783,3.479,3.479,0,0,1,.327-1.593,3.437,3.437,0,0,1,1.623-1.652,2.75,2.75,0,0,1,.6-.217A.853.853,0,0,1,390.589,121.925Z" transform="translate(-387.821 -121.801)" fill="#e8505b"/>
            </g>
            <path id="Path_126642" data-name="Path 126642" d="M354.118,81.9a3.913,3.913,0,0,0,1.842-7.233,4.863,4.863,0,0,0-7.258-5.69,6.452,6.452,0,0,0-11.927,1.911,6.236,6.236,0,0,0-8,8.461,4.83,4.83,0,0,0,.818,9.626,4.262,4.262,0,0,0,6.459,4.784,4.662,4.662,0,0,0,8.382-.963" transform="translate(-324.362 -65.727)" fill="#263238"/>
            <g id="Group_71163" data-name="Group 71163" transform="translate(12.863 7.751)">
              <g id="Group_71162" data-name="Group 71162">
                <g id="Group_71152" data-name="Group 71152">
                  <path id="Path_126643" data-name="Path 126643" d="M368.775,112.295c.083-1.938.188-3.693.188-3.693a5.227,5.227,0,0,0,4.52-4.969c.187-4.423-.253-14.606-.253-14.606l-7.975-3.83-8.58,6.912,1.346,20.311a5.386,5.386,0,0,0,5.623,5.024h0A5.386,5.386,0,0,0,368.775,112.295Z" transform="translate(-356.674 -85.197)" fill="#b77153"/>
                </g>
                <g id="Group_71155" data-name="Group 71155" transform="translate(14.162 10.739)">
                  <g id="Group_71154" data-name="Group 71154">
                    <g id="Group_71153" data-name="Group 71153">
                      <path id="Path_126644" data-name="Path 126644" d="M394.429,112.838c-.07.074-.483-.274-1.076-.3s-1.034.278-1.1.2c-.031-.036.041-.172.233-.313a1.433,1.433,0,0,1,1.735.078C394.4,112.663,394.463,112.805,394.429,112.838Z" transform="translate(-392.248 -112.173)" fill="#263238"/>
                    </g>
                  </g>
                </g>
                <g id="Group_71158" data-name="Group 71158" transform="translate(7.587 10.739)">
                  <g id="Group_71157" data-name="Group 71157">
                    <g id="Group_71156" data-name="Group 71156">
                      <path id="Path_126645" data-name="Path 126645" d="M377.912,112.838c-.07.074-.483-.274-1.076-.3s-1.034.278-1.1.2c-.031-.036.04-.172.233-.313a1.433,1.433,0,0,1,1.735.078C377.886,112.663,377.946,112.805,377.912,112.838Z" transform="translate(-375.731 -112.173)" fill="#263238"/>
                    </g>
                  </g>
                </g>
                <g id="Group_71160" data-name="Group 71160" transform="translate(11.801 10.555)">
                  <g id="Group_71159" data-name="Group 71159">
                    <path id="Path_126646" data-name="Path 126646" d="M386.513,117.02a3.654,3.654,0,0,1,.967-.147c.152-.011.3-.037.323-.147a.885.885,0,0,0-.094-.485l-.429-1.254a22.78,22.78,0,0,1-.957-3.274,22.679,22.679,0,0,1,1.2,3.19q.215.66.41,1.261a1.011,1.011,0,0,1,.068.641.376.376,0,0,1-.253.227.945.945,0,0,1-.258.028A3.63,3.63,0,0,1,386.513,117.02Z" transform="translate(-386.318 -111.711)" fill="#263238"/>
                  </g>
                </g>
                <g id="Group_71161" data-name="Group 71161" transform="translate(6.551 21.527)">
                  <path id="Path_126647" data-name="Path 126647" d="M378.868,141.149a10.551,10.551,0,0,1-5.737-1.878,5.55,5.55,0,0,0,5.662,2.964Z" transform="translate(-373.131 -139.271)" fill="#995037"/>
                </g>
              </g>
            </g>
            <path id="Path_126648" data-name="Path 126648" d="M370.512,84.787a5.837,5.837,0,0,0,.08,6.758,3.392,3.392,0,0,0,2.678,1.5,1.907,1.907,0,0,0,1.865-2.084,2.2,2.2,0,1,0,4.211.075,3.965,3.965,0,0,0,.5,1.357,1.345,1.345,0,0,0,1.221.643c.667-.088,1.054-.8,1.207-1.459a6,6,0,0,0-1.7-5.513,7.266,7.266,0,0,0-5.525-1.938,9.253,9.253,0,0,0-5.427,2.374" transform="translate(-351.515 -76.788)" fill="#263238"/>
            <path id="Path_126649" data-name="Path 126649" d="M358.784,89.737a10.31,10.31,0,0,1,.891,3.968,5.322,5.322,0,0,1-1.434,3.725,3.621,3.621,0,0,1-3.762.9,4.19,4.19,0,0,1-.548,3.531,2.682,2.682,0,0,1-3.279.862,3.591,3.591,0,0,1-1.533-2.826,9.048,9.048,0,0,1,9.842-10.1" transform="translate(-339.225 -80.179)" fill="#263238"/>
            <g id="Group_71166" data-name="Group 71166" transform="translate(11.575 19.935)">
              <g id="Group_71165" data-name="Group 71165">
                <path id="Path_126650" data-name="Path 126650" d="M355.952,115.963a1.555,1.555,0,0,0-1.863.446,2.542,2.542,0,0,0,2.529,4.173" transform="translate(-353.438 -115.802)" fill="#b77153"/>
                <g id="Group_71164" data-name="Group 71164" transform="translate(0.913 1.306)">
                  <path id="Path_126651" data-name="Path 126651" d="M357.2,121.231c0,.025-.2.053-.5-.033a1.331,1.331,0,0,1-.909-.813.971.971,0,0,1,.024-.706,1.039,1.039,0,0,1,.367-.435c.272-.18.482-.173.483-.15s-.176.082-.391.27a.873.873,0,0,0-.282.955,1.315,1.315,0,0,0,.759.739C357.013,121.172,357.2,121.2,357.2,121.231Z" transform="translate(-355.731 -119.082)" fill="#995037"/>
                </g>
              </g>
            </g>
            <g id="Group_71167" data-name="Group 71167" transform="translate(20.041 16.814)">
              <path id="Path_126652" data-name="Path 126652" d="M377.659,108.457c-.055.172-.7.109-1.471.143s-1.41.134-1.478-.033.557-.572,1.454-.6S377.718,108.3,377.659,108.457Z" transform="translate(-374.704 -107.962)" fill="#263238"/>
            </g>
            <g id="Group_71168" data-name="Group 71168" transform="translate(21.263 16.994)">
              <path id="Path_126653" data-name="Path 126653" d="M377.773,108.415" transform="translate(-377.773 -108.415)" fill="none" stroke="#4e585d" stroke-width="1"/>
            </g>
            <g id="Group_71169" data-name="Group 71169" transform="translate(27.257 16.491)">
              <path id="Path_126654" data-name="Path 126654" d="M394.765,107.847c-.067.061-.2.021-.354-.018a1.443,1.443,0,0,0-.541-.034,6.658,6.658,0,0,1-.68.06c-.195,0-.33-.044-.355-.128s.062-.194.227-.3a1.7,1.7,0,0,1,.751-.262,1,1,0,0,1,.855.3C394.819,107.642,394.827,107.793,394.765,107.847Z" transform="translate(-392.831 -107.152)" fill="#263238"/>
            </g>
            <path id="Path_126655" data-name="Path 126655" d="M383.744,127.558a1.333,1.333,0,0,1,1.117-.158.837.837,0,0,1,.555.912.914.914,0,0,1-.359.509,1.164,1.164,0,0,1-.922.226.9.9,0,0,1-.686-.627.738.738,0,0,1,.359-.829" transform="translate(-359.914 -102.81)" fill="#995037"/>
            <g id="Group_71170" data-name="Group 71170" transform="translate(23.411 24.142)">
              <path id="Path_126656" data-name="Path 126656" d="M385.76,127.447c.01.024-.141.125-.426.187a1.923,1.923,0,0,1-1.989-.828c-.157-.246-.191-.425-.168-.434s.112.139.288.344a2.151,2.151,0,0,0,1.847.77C385.582,127.466,385.749,127.417,385.76,127.447Z" transform="translate(-383.171 -126.371)" fill="#263238"/>
            </g>
            <g id="Group_71171" data-name="Group 71171" transform="translate(10.016 23.79)">
              <path id="Path_126657" data-name="Path 126657" d="M356.531,129.025c-.025,0-.009-.307-.148-.832a3.441,3.441,0,0,0-1.261-1.851,3.367,3.367,0,0,0-3.184-.466,3.37,3.37,0,0,0-1.553,1.171,3.337,3.337,0,0,0,0,3.956,3.365,3.365,0,0,0,1.553,1.171,3.366,3.366,0,0,0,3.185-.466,3.44,3.44,0,0,0,1.26-1.851c.139-.525.123-.834.148-.832a.849.849,0,0,1,.01.221,2.761,2.761,0,0,1-.078.631,3.436,3.436,0,0,1-1.25,1.95,3.479,3.479,0,0,1-1.48.674,3.535,3.535,0,0,1-1.862-.143,3.536,3.536,0,0,1-1.654-1.232,3.527,3.527,0,0,1,0-4.2,3.541,3.541,0,0,1,1.654-1.232,3.538,3.538,0,0,1,1.861-.143,3.483,3.483,0,0,1,1.48.674,3.438,3.438,0,0,1,1.25,1.95,2.756,2.756,0,0,1,.078.631A.847.847,0,0,1,356.531,129.025Z" transform="translate(-349.523 -125.486)" fill="#e8505b"/>
            </g>
            <g id="Group_71172" data-name="Group 71172" transform="translate(19.668 7.537)">
              <path id="Path_126658" data-name="Path 126658" d="M383.287,84.661c0-.005.039,0,.11.027a.861.861,0,0,1,.278.179,1.287,1.287,0,0,1,.356,1.16,1.659,1.659,0,0,1-1.378,1.221,3.453,3.453,0,0,1-2.333-.558l-.822-.474.9.3a.976.976,0,0,1,.609.7,1.254,1.254,0,0,1-.126.952,1.333,1.333,0,0,1-.81.574,1.9,1.9,0,0,1-1.009-.022,3.451,3.451,0,0,1-1.733-1.5l-.576-.844.732.711a1.592,1.592,0,0,1,.394,1.5A1.648,1.648,0,0,1,377,89.709a2.144,2.144,0,0,1-2.266-.276,2.7,2.7,0,0,1-.857-1.277,2.493,2.493,0,0,1-.1-.4.437.437,0,0,1-.008-.143c.017,0,.043.192.17.522a2.741,2.741,0,0,0,.872,1.2,2.01,2.01,0,0,0,2.1.221,1.466,1.466,0,0,0,.776-1.006,1.4,1.4,0,0,0-.346-1.312l.156-.133a3.286,3.286,0,0,0,1.622,1.409,1.4,1.4,0,0,0,1.581-.455.95.95,0,0,0-.367-1.357l.08-.178a3.321,3.321,0,0,0,2.2.567A1.537,1.537,0,0,0,383.915,86a1.242,1.242,0,0,0-.284-1.092A1.487,1.487,0,0,0,383.287,84.661Z" transform="translate(-373.766 -84.659)" fill="#455a64"/>
            </g>
            <g id="Group_71173" data-name="Group 71173" transform="translate(5.848 7.798)">
              <path id="Path_126659" data-name="Path 126659" d="M351.788,92.166s-.014.029-.053.077a1.762,1.762,0,0,1-.186.2,2.578,2.578,0,0,1-2.5.556,2.676,2.676,0,0,1-1.58-1.367l.167-.023a2.575,2.575,0,1,1-4.331-2.264l.138.151a2.646,2.646,0,0,1-1.674.606,2.875,2.875,0,0,1-1.572-.428,2.378,2.378,0,0,1-.941-1.105,2.794,2.794,0,0,1,.457-2.849,1.707,1.707,0,0,1,.486-.4c.013.016-.18.135-.432.448a2.75,2.75,0,0,0-.578,1.581,2.656,2.656,0,0,0,.21,1.163,2.229,2.229,0,0,0,.891,1.017,2.707,2.707,0,0,0,1.475.385,2.46,2.46,0,0,0,1.544-.568l.138.151a2.458,2.458,0,0,0-.507,2.676,2.433,2.433,0,0,0,2.659,1.351,2.471,2.471,0,0,0,1.862-1.939l.046-.28.121.257a2.541,2.541,0,0,0,1.466,1.306,2.453,2.453,0,0,0,1.533.012,2.656,2.656,0,0,0,.886-.473C351.7,92.254,351.779,92.158,351.788,92.166Z" transform="translate(-339.053 -85.314)" fill="#455a64"/>
            </g>
            <g id="Group_71174" data-name="Group 71174" transform="translate(1.75 16.808)">
              <path id="Path_126660" data-name="Path 126660" d="M337.694,112.871a1.012,1.012,0,0,1-.344.205,2.345,2.345,0,0,1-2.621-.57,2.457,2.457,0,0,1-.6-2.042l.182.081a4.064,4.064,0,0,1-1.5,1.221,3.21,3.21,0,0,1-1.451.309,2.958,2.958,0,0,1-1.334-.367,2.357,2.357,0,0,1-1.268-1.884,2.236,2.236,0,0,1,.41-1.494,1.721,1.721,0,0,1,.3-.3c.079-.058.121-.084.126-.078s-.155.134-.355.43a2.208,2.208,0,0,0,.885,3.158,2.876,2.876,0,0,0,2.6.037,3.923,3.923,0,0,0,1.422-1.152l.258-.333-.076.414a2.3,2.3,0,0,0,.529,1.888,2.189,2.189,0,0,0,1.4.729,2.437,2.437,0,0,0,1.064-.108C337.565,112.929,337.686,112.857,337.694,112.871Z" transform="translate(-328.757 -107.948)" fill="#455a64"/>
            </g>
            <g id="Group_71175" data-name="Group 71175" transform="translate(30.254 13.106)">
              <path id="Path_126661" data-name="Path 126661" d="M403.335,98.65a1.336,1.336,0,0,1,.088.736,2.645,2.645,0,0,1-2.326,2.433,1.337,1.337,0,0,1-.739-.055c0-.035.284-.006.715-.093a2.732,2.732,0,0,0,2.2-2.3C403.342,98.934,403.3,98.655,403.335,98.65Z" transform="translate(-400.358 -98.65)" fill="#455a64"/>
            </g>
            <g id="Group_71176" data-name="Group 71176" transform="translate(30.645 17.275)">
              <path id="Path_126662" data-name="Path 126662" d="M406.363,109.121a.644.644,0,0,1,.1.3,1.713,1.713,0,0,1-.082.873,1.354,1.354,0,0,1-.964.886,1.382,1.382,0,0,1-.806-.07,1.112,1.112,0,0,1-.634-.615l.2-.067a1.371,1.371,0,0,1,.05.391,1.585,1.585,0,0,1-1,1.418,1.328,1.328,0,0,1-.792.033,1.533,1.533,0,0,1-.6-.329,1.445,1.445,0,0,1-.482-.835.631.631,0,0,1,.011-.353c.02,0,.012.126.07.334a1.457,1.457,0,0,0,.5.738,1.239,1.239,0,0,0,1.224.229,1.407,1.407,0,0,0,.855-1.239,1.181,1.181,0,0,0-.041-.329l.2-.067a1.077,1.077,0,0,0,1.2.574,1.22,1.22,0,0,0,.868-.753,1.838,1.838,0,0,0,.138-.811A1.883,1.883,0,0,1,406.363,109.121Z" transform="translate(-401.342 -109.121)" fill="#455a64"/>
            </g>
            <g id="Group_71177" data-name="Group 71177" transform="translate(22.526 23.19)">
              <path id="Path_126663" data-name="Path 126663" d="M381.946,123.979c.027,0,.045.091.009.225a.931.931,0,0,1-.789.654c-.139.01-.221-.024-.22-.051,0-.061.307-.09.578-.321S381.887,123.969,381.946,123.979Z" transform="translate(-380.946 -123.978)" fill="#263238"/>
            </g>
          </g>
        </g>
      </g>
      <g id="Speech_Bubble" data-name="Speech Bubble" transform="translate(54.132 0)">
        <g id="Group_71196" data-name="Group 71196" transform="translate(0 0)">
          <g id="Group_71192" data-name="Group 71192">
            <g id="Group_71191" data-name="Group 71191">
              <path id="Path_126671" data-name="Path 126671" d="M247.469,41.611a1.674,1.674,0,0,1-.277.034l-.811.068a9.11,9.11,0,0,0-1.306.189c-.255.055-.537.079-.825.167l-.921.267a15.228,15.228,0,0,0-4.372,2.231,15.58,15.58,0,0,0-4.272,4.866,16.419,16.419,0,0,0-1.477,3.481,17.432,17.432,0,0,0-.551,6.211c.023.366.106.728.157,1.1a7.735,7.735,0,0,0,.222,1.1,15.571,15.571,0,0,0,1.719,4.309,15.391,15.391,0,0,0,7.338,6.517,14.151,14.151,0,0,0,5.135,1.092,13.852,13.852,0,0,0,5.338-.83l.522-.2.069-.026.063.031,7.565,3.733-.221.193c-.832-2.483-1.638-4.891-2.411-7.2l-.03-.089.066-.067a16.062,16.062,0,0,0,3.874-6.61,16.49,16.49,0,0,0,.493-7,16.086,16.086,0,0,0-5.486-10.02,16.521,16.521,0,0,0-3.721-2.309,16.178,16.178,0,0,0-3.132-.948l-1.172-.186-.864-.051-.529-.035a.9.9,0,0,1-.18-.021.964.964,0,0,1,.18-.006l.531.009.869.025,1.183.162a15.867,15.867,0,0,1,3.172.912,16.5,16.5,0,0,1,3.785,2.3,16.2,16.2,0,0,1,3.518,4.151,16.385,16.385,0,0,1,2.1,5.98,16.727,16.727,0,0,1-.476,7.114A16.325,16.325,0,0,1,258.406,69l.036-.156,2.421,7.2.122.363-.344-.169-7.567-3.728.132,0-.533.2a14.15,14.15,0,0,1-5.457.847,14.451,14.451,0,0,1-5.247-1.121,15.673,15.673,0,0,1-7.474-6.661,15.833,15.833,0,0,1-1.738-4.393,8.047,8.047,0,0,1-.221-1.121c-.051-.375-.133-.743-.156-1.115a17.668,17.668,0,0,1,.587-6.307,16.578,16.578,0,0,1,1.518-3.524,15.677,15.677,0,0,1,4.364-4.9,15.129,15.129,0,0,1,4.442-2.206l.933-.254a8.439,8.439,0,0,1,.834-.154,8.537,8.537,0,0,1,1.318-.16l.816-.036A1.787,1.787,0,0,1,247.469,41.611Z" transform="translate(-232.303 -41.606)" fill="#263238"/>
            </g>
          </g>
          <g id="Group_71195" data-name="Group 71195" transform="translate(9.487 8.379)">
            <g id="Group_71193" data-name="Group 71193">
              <path id="Path_126672" data-name="Path 126672" d="M265.372,68.164l-1.1.013-2.443-3.324-.025-2.2s-1.7-.085-1.471,2.793.008,2.147.008,2.147-3.617.055-3.914.373c-.216.231-.274,3.825-.29,5.774a2.111,2.111,0,0,0,1.519,2.108,1.583,1.583,0,0,0,.39.048c.9-.01,5.5-.8,5.5-.8l1.9-.021Z" transform="translate(-256.135 -62.652)" fill="#e8505b"/>
            </g>
            <g id="Group_71194" data-name="Group 71194" transform="translate(9.822 4.872)">
              <path id="Path_126673" data-name="Path 126673" d="M283.37,74.891l-.592,7.545-1.887.021-.084-7.386Z" transform="translate(-280.807 -74.891)" fill="#e8505b"/>
            </g>
          </g>
        </g>
      </g>
    </g>
  </g>
</svg>
