<svg xmlns="http://www.w3.org/2000/svg" xmlns:xlink="http://www.w3.org/1999/xlink" width="194.905" height="180" viewBox="0 0 194.905 180"><defs><style>.a,.b{fill:#fff;}.a{stroke:#707070;}.c{clip-path:url(#a);}.d{clip-path:url(#b);}.e,.f{fill:#e7e7e7;}.f{isolation:isolate;}.g{fill:#2a7cc1;}.h{fill:#b9bdc3;}.i{fill:#d5d5d5;}.j{fill:#375e69;}.k{fill:#0e538c;}.l{fill:#436e7a;}.m{fill:#355b65;}.n{fill:#95daf9;}.o{fill:#bee6fa;}.p{fill:#9e9e9e;}.q{fill:#e10038;}.r{fill:#c4002e;}.s{fill:#3d3a3a;}.t{fill:#5a99b8;}.u{fill:#ac1121;}.v{fill:#f8a661;}.w{fill:#2e2e2e;}.x{fill:#614d3a;}.y{fill:#f0984f;}.z{fill:#cd0820;}.aa{fill:#171616;}</style><clipPath id="a"><circle class="a" cx="90" cy="90" r="90" transform="translate(16266 4944)"/></clipPath><clipPath id="b"><path class="b" d="M32.713,23H197.953V201.265H19V36.873A13.793,13.793,0,0,1,32.713,23Z" transform="translate(-19 -23)"/></clipPath></defs><g transform="translate(-147 -1685)"><g transform="translate(-16104.095 -3259)"><g class="c"><g transform="translate(16267 4944)"><g transform="translate(0 0)"><path class="b" d="M0,0H178.953V178.954H0Z"/><g transform="translate(0 0.689)"><g class="d" transform="translate(0 0)"><g transform="translate(-80.038 0.986)"><g transform="translate(33.031 6.74)"><path class="e" d="M158.179,35.7a121.41,121.41,0,0,0-18.6-1c-6.205.176-12.42.948-18.6,1.537-12.342,1.179-24.713,2.4-37.123,2.358C71.686,38.56,59.8,36.337,47.734,35.132c-11.725-1.17-23.387-2.088-34.718,1.99a1.416,1.416,0,0,0-.915,1.77,1.393,1.393,0,0,0,1.651.952c11.417-2.39,23.374-.723,34.6,1.942A176.976,176.976,0,0,0,84.624,47c12.142.325,24.261-.667,36.351-1.675,6.195-.517,12.41-.855,18.6-1.451,6.211-.6,12.392-1.415,18.6-1.994A3.092,3.092,0,0,0,158.179,35.7Z" transform="translate(30.196 -34.138)"/><path class="f" d="M286.056,102.481c-22.205-12.732-46.651,2.99-69.021,6.52-12.121,1.912-24.6,1.229-36.8.819-12.522-.42-24.768-.465-37.04,2.471-1.44.347-2.863.741-4.282,1.158-3.333.979-1.874,5.688,1.4,5.168a135.663,135.663,0,0,1,18.348-1.188c6.192-.135,12.4-.024,18.592.144,7.807.208,15.626.534,23.429.353,10.281,2.1,20.683,3.7,31.073,4.834,7.531.82,15.1,1.379,22.673,1.457,7.734.077,15.916-.178,23.312-2.675a2.725,2.725,0,0,0,1.756-3.411,2.692,2.692,0,0,0-2.461-1.9,134.422,134.422,0,0,0-15.376.18c-5.708-.644-11.454-.221-17.219-.151-4.484.054-12.692,1.081-13.365-1.28s7.3-3.408,11.039-4.9c2.977-1.188,6.077-2.119,9-3.427q1.022-.457,2.041-.92c10.039-3.006,21.258-4.493,31.006.059C286.32,106.795,288.2,103.712,286.056,102.481Z" transform="translate(-9.093 -53.576)"/><path class="e" d="M28.967,75.338A125.973,125.973,0,0,0,9.994,73.961c-6.372.042-12.763.406-19.13.694q-19.532.873-39.052,1.886a1.379,1.379,0,0,0-1.371,1.387,1.379,1.379,0,0,0,1.371,1.387q19.124.915,38.256,1.638,1.92.076,3.836.139c-1.452.723-2.874,1.48-4.257,2.229a90.18,90.18,0,0,1-12.288,5.908c-4.058,1.458-8.537,2.791-12.866,2.108a2.365,2.365,0,0,0-2.838,1.793,2.4,2.4,0,0,0,1.59,2.821c9.166,3.4,17.775-.49,25.6-5.367C-5.621,87.137-.171,83.348,5.916,81.46l3.281.089a112.343,112.343,0,0,0,19.771-1.457C31.28,79.746,31.29,75.671,28.967,75.338Z" transform="translate(49.559 -46.338)"/></g><g transform="translate(0 131.559)"><path class="g" d="M65.619,270.758v-2.143c-7.816-6.289-23.183-18.167-26.409-20.931-4.213-3.607-7.022-10-10.884-13.884s-26.685-19.715-30.2-19.715-31.6,5.276-36.515,8.885a30.686,30.686,0,0,0-7.724,8.608,31.87,31.87,0,0,0-10.533,3.607c-4.564,2.775-14.045,14.441-19.311,18.607-4.494,3.554-17.936,13.983-21.782,16.964Z" transform="translate(97.734 -214.087)"/><path class="h" d="M109.572,268.617l-.03-.024-.627-.5-.2-.16-.664-.53-.141-.112-.6-.48-.221-.176-.719-.571-.173-.139-.649-.514-.206-.162-.765-.606-.265-.208-.557-.44-.305-.241-.74-.584-.343-.27-.51-.4-.363-.286-.723-.569-.438-.347-.326-.257-.8-.629-.453-.356-.343-.271-.488-.383-5.138-4.036-.108-.085-.869-.683-.073-.057-.784-.617-.12-.094-.793-.624-.141-.111-.646-.51-.168-.132-.693-.548-.179-.139-.563-.447-.134-.106-.632-.5-.166-.132-.487-.388-.137-.11-.538-.431-.154-.123L85,249.2l-.118-.1-.442-.358-.128-.1-.359-.294-.055-.044c-.124-.1-.238-.2-.343-.287l-.092-.077-.278-.235-.016-.014c-4.213-3.607-7.022-10-10.884-13.884S45.6,214.091,42.087,214.091c0,0,23.175,27.212,25.279,31.377s2.811,12.5,4.564,15.549c.878,1.526,1.577,5.827,2.062,9.746h35.585Z" transform="translate(53.781 -214.088)"/><path class="i" d="M-27.036,236.22a33.989,33.989,0,0,0-8.56,2.56,7.742,7.742,0,0,0-1.466,3.9c-.032,1.674,1.29,3.483,2.919,3.277.7-.089,1.418-.524,2.075-.255.549.225.8.844,1.06,1.387,1.412,2.983,4.2,5,6.87,6.885a3.362,3.362,0,0,0,1.673.763c2.117.113,3.35-3.6,5.348-2.884a3.07,3.07,0,0,1,1.209,1.03c1.517,1.81,3.317,3.551,5.59,4.1,3.742.9,7.508-1.756,9.657-5.005a4.121,4.121,0,0,1,1.216-1.387c1.135-.662,2.581.09,3.484,1.054s1.612,2.185,2.782,2.779c1.7.863,3.732.116,5.629.215,1.982.1,3.782,1.134,5.63,1.873s4.039,1.165,5.742.127c1.941-1.183,2.549-3.825,4.315-5.266,2.21-1.8,5.388-1.193,8.217-1.318,4.81-.266,1.853,7.54,4.431,3.423.515-.716,9.073,3.311,9.085,2.426-.014-.188-.979-15.668-1.033-15.849-.466-.569-.943-1.11-1.44-1.609-.171-.173-.383-.37-.626-.588a11.945,11.945,0,0,0-2-.818c-4.115-1.425-5.836,2.221-10.11,1.406-10.875-1.8-24.488-4.329-35.492-4.894A64.855,64.855,0,0,1-15.5,231.087c-1.929-.555-3.857-1.208-5.789-1.856A31.142,31.142,0,0,0-27.036,236.22Z" transform="translate(78.662 -218.727)"/><path class="e" d="M-29.954,232.644l-1.751,4.262c2.112,1.493,5.807-.852,7.283,1.293.4.576.466,1.326.816,1.932,2.053,3.549,5.828-2.553,9.908-1.012s2.569,6.988,5.427,8.024a8.156,8.156,0,0,0,9.159-2.88,29.748,29.748,0,0,1,2.235-3.375c.928-.977,2.5-1.543,3.6-.763,1.044.745,1.582,2.566,2.835,2.339a3.286,3.286,0,0,0,1.078-.59c2.348-1.476,5.253.574,7.246,2.522,1.657,1.618,3.59,3.468,5.927,2.215,2.3-1.233,1.857-4.618,4.266-5.813,2.3-1.14,4.8-.712,7.223-.384q.215-1.589.429-3.178c-.287,2.121,12.842,4.341,14.651,4.266a12.88,12.88,0,0,0,3.919-.8,47.7,47.7,0,0,0-5.211-6.9c-3.862-3.884-26.684-19.715-30.2-19.715s-31.6,5.276-36.515,8.885a30.675,30.675,0,0,0-7.724,8.608A33.988,33.988,0,0,0-29.954,232.644Z" transform="translate(76.977 -214.088)"/><g transform="translate(95.864 0.003)"><path class="h" d="M70.306,232.075q-.283-.23-.592-.477l-.137-.108a214.221,214.221,0,0,0-22.739-15.376l-.2-.108c-.725-.4-1.392-.746-1.988-1.03l-.119-.057c-.5-.236-.943-.427-1.326-.565-.137-.051-.268-.092-.391-.129-.106-.031-.206-.058-.3-.079a2.1,2.1,0,0,0-.394-.056h-.045S55.869,230.283,63.14,239.6a54.8,54.8,0,0,0,10.427,1.909,12.88,12.88,0,0,0,3.919-.8l-.986-1.46-.213-.314c-.129-.189-.258-.376-.388-.564-.087-.126-.173-.252-.26-.377-.124-.178-.249-.352-.374-.526-.091-.128-.182-.257-.274-.383-.127-.174-.255-.347-.383-.515-.091-.121-.181-.246-.274-.365-.133-.173-.269-.341-.4-.51-.088-.111-.176-.225-.265-.334-.15-.182-.3-.357-.456-.533-.077-.089-.152-.18-.23-.267q-.347-.388-.706-.75c-.06-.06-.125-.124-.195-.191q-.206-.2-.47-.431-.131-.115-.274-.239c-.267-.231-.567-.486-.891-.751Z" transform="translate(-42.081 -214.091)"/></g><path class="b" d="M-19.422,239.387a.466.466,0,0,0-.633-.169l-1.412.668a.67.67,0,0,0-.239.91.655.655,0,0,0,.9.241.68.68,0,0,0,.132-.1l1.179-.977A.476.476,0,0,0-19.422,239.387Z" transform="translate(73.862 -221.767)"/><path class="b" d="M-9.7,229.922a.75.75,0,0,0-.525-.535,1.887,1.887,0,0,0-.362-.058,1.052,1.052,0,0,0-.677.277l-.37.3a.811.811,0,0,0,0,1.138.788.788,0,0,0,.767.208l.4-.127a1.038,1.038,0,0,0,.686-.614A.846.846,0,0,0-9.7,229.922Z" transform="translate(70.742 -218.757)"/><path class="b" d="M-14.508,244.528l-.368.268a.565.565,0,0,0-.178.773.557.557,0,0,0,.069.091.544.544,0,0,0,.775-.017.533.533,0,0,0,.072-.094l.263-.375C-13.61,244.793-14.136,244.257-14.508,244.528Z" transform="translate(71.77 -223.39)"/><path class="b" d="M-1.882,234.822a1.086,1.086,0,0,0-.854-.08.874.874,0,0,0-.566,1.092.868.868,0,0,0,.566.573,1.086,1.086,0,0,0,.854-.08.872.872,0,0,0,.32-1.183.866.866,0,0,0-.32-.323Z" transform="translate(68.061 -220.399)"/><path class="b" d="M22.35,228.878a.74.74,0,0,0-.849-.352l-.524.221a.956.956,0,0,0-.518.406.907.907,0,0,0,0,.892.866.866,0,0,0,1.194.31.88.88,0,0,0,.168-.131l.411-.416A.783.783,0,0,0,22.35,228.878Z" transform="translate(60.616 -218.502)"/><path class="b" d="M14.014,242.834a2.093,2.093,0,0,0-.784.284l-.59.4a.888.888,0,0,0-.3,1.179A.854.854,0,0,0,13.5,245l.637-.317a2.11,2.11,0,0,0,.631-.544.8.8,0,0,0-.036-1.117A.775.775,0,0,0,14.014,242.834Z" transform="translate(63.167 -222.888)"/><path class="b" d="M12.514,234.008a6.2,6.2,0,0,0-.6.208c-.156.069-.3.162-.452.244a.86.86,0,0,0-.3,1.156.824.824,0,0,0,1.133.3,6.5,6.5,0,0,0,.538-.379,4.76,4.76,0,0,0,.356-.352.716.716,0,0,0-.029-1.005A.7.7,0,0,0,12.514,234.008Z" transform="translate(63.537 -220.184)"/><path class="b" d="M2.057,246.951a8.994,8.994,0,0,0-1.346.389.743.743,0,0,0-.5.894.714.714,0,0,0,.877.508h0a10.156,10.156,0,0,0,1.427-.678.615.615,0,0,0,.195-.841A.6.6,0,0,0,2.057,246.951Z" transform="translate(66.951 -224.15)"/><path class="b" d="M28.339,243.674a3.007,3.007,0,0,0-.5.189,2.8,2.8,0,0,0-.471.4.678.678,0,0,0-.1.809.653.653,0,0,0,.9.239l.375-.235a1.721,1.721,0,0,0,.455-.54.6.6,0,0,0-.222-.807A.58.58,0,0,0,28.339,243.674Z" transform="translate(58.468 -223.146)"/><path class="b" d="M39.976,223.137a4.474,4.474,0,0,0-.526.059,2.67,2.67,0,0,0-.516.2l-.845.383a.829.829,0,0,0-.3,1.126.808.808,0,0,0,1.112.3l.74-.335a2.847,2.847,0,0,0,.808-.561.7.7,0,0,0-.019-.981A.682.682,0,0,0,39.976,223.137Z" transform="translate(55.165 -216.86)"/><path class="b" d="M31.73,236.01a5.444,5.444,0,0,0-1.489.163.668.668,0,0,0-.462.82.659.659,0,0,0,.81.468h0a5.51,5.51,0,0,0,1.371-.572.478.478,0,0,0,.152-.654A.469.469,0,0,0,31.73,236.01Z" transform="translate(57.657 -220.803)"/><path class="b" d="M50.48,234.413a3.156,3.156,0,0,0-.411-.058,1.5,1.5,0,0,0-.443.1.758.758,0,0,0-.511.918.736.736,0,0,0,.9.522,1.223,1.223,0,0,0,.738-.431.639.639,0,0,0-.012-.9A.618.618,0,0,0,50.48,234.413Z" transform="translate(51.579 -220.296)"/><path class="b" d="M46.647,244.949a.8.8,0,0,0-.96-.126,1.481,1.481,0,0,0-.557.347c-.156.182-.291.389-.434.583a.87.87,0,0,0,.132,1.047.83.83,0,0,0,1.028.139l.386-.3a1.13,1.13,0,0,0,.4-.434l.125-.277A.839.839,0,0,0,46.647,244.949Z" transform="translate(52.997 -223.471)"/><path class="b" d="M60.906,244.376a6.517,6.517,0,0,0-1.348.608.7.7,0,0,0-.241.941.673.673,0,0,0,.923.246,6.5,6.5,0,0,0,1.192-.875.559.559,0,0,0-.025-.785A.543.543,0,0,0,60.906,244.376Z" transform="translate(48.393 -223.362)"/><path class="b" d="M55.384,224.378l-.544.112a1.046,1.046,0,0,0-.646.742.533.533,0,0,0,.363.652,1.143,1.143,0,0,0,.817-.1,2.271,2.271,0,0,0,.5-.551.519.519,0,0,0-.021-.728A.5.5,0,0,0,55.384,224.378Z" transform="translate(49.981 -217.235)"/><path class="b" d="M66.035,236.167a.736.736,0,0,0-.686-.533,1.171,1.171,0,0,0-.471,0,2.816,2.816,0,0,0-.444.2,5.375,5.375,0,0,0-.605.379.755.755,0,0,0-.232,1.034.738.738,0,0,0,.8.33,5.325,5.325,0,0,0,.686-.185c.152-.058.3-.121.45-.187a.95.95,0,0,0,.324-.337A.775.775,0,0,0,66.035,236.167Z" transform="translate(47.055 -220.681)"/><path class="b" d="M76.4,237.4l-.766-.208a.832.832,0,0,0-1.02.6.844.844,0,0,0,.59,1.031.819.819,0,0,0,.429,0l.766-.208a.637.637,0,0,0,0-1.212Z" transform="translate(43.565 -221.158)"/><path class="b" d="M78.76,244.98a2.285,2.285,0,0,0-.446.026,1.6,1.6,0,0,0-.436.173l-.571.277a.948.948,0,0,0-.3,1.3.925.925,0,0,0,1.238.333l.556-.3a1.8,1.8,0,0,0,.629-.62.8.8,0,0,0-.29-1.08A.77.77,0,0,0,78.76,244.98Z" transform="translate(42.848 -223.551)"/><path class="j" d="M-58.181,271.45c-1.5.775-2.712,2.2-4.093,3.187-1.508,1.074-3.32,1.892-4.6,3.255a1.258,1.258,0,0,0,.062,1.765,1.223,1.223,0,0,0,1.119.3c1.936-.347,3.63-1.862,5.033-3.191,1.293-1.224,2.9-2.824,3.412-4.588a.651.651,0,0,0-.464-.791A.637.637,0,0,0-58.181,271.45Z" transform="translate(88.137 -231.636)"/><path class="j" d="M-57.8,282.929a.9.9,0,0,0-1.235-.334l0,0-.549.393a1.8,1.8,0,0,0-.535.49,2.843,2.843,0,0,0-.158.325.891.891,0,0,0,0,.852.831.831,0,0,0,.935.388l.267-.069a1.331,1.331,0,0,0,.6-.391l.535-.538A.943.943,0,0,0-57.8,282.929Z" transform="translate(85.996 -235.038)"/><path class="j" d="M-39.325,276.842a1.112,1.112,0,0,0-.437.121,2.656,2.656,0,0,0-.431.354l-.579.541a.686.686,0,0,0,.817,1.079l.7-.388a2.18,2.18,0,0,0,.394-.257,1.353,1.353,0,0,0,.3-.441.7.7,0,0,0-.269-.943A.681.681,0,0,0-39.325,276.842Z" transform="translate(79.894 -233.307)"/><path class="j" d="M-26.468,265.094a.523.523,0,0,0-.736,0,1.537,1.537,0,0,0-.437.474l-.252.5a.49.49,0,0,0,.072.571.466.466,0,0,0,.654,0l.427-.363a1.559,1.559,0,0,0,.353-.54A.549.549,0,0,0-26.468,265.094Z" transform="translate(75.798 -229.667)"/><path class="j" d="M-38.129,258.8a.874.874,0,0,0-1.246-.007l-.007.007-1.152,1.507a.671.671,0,0,0,.014.941.651.651,0,0,0,.913,0l1.478-1.174c.793,0,1.435.164,1.435-.638S-37.336,257.985-38.129,258.8Z" transform="translate(79.811 -227.67)"/><path class="j" d="M-5.731,275.436a3.929,3.929,0,0,0-1.417,1.627.952.952,0,0,0,.36,1.287.924.924,0,0,0,.905,0,3.9,3.9,0,0,0,1.6-1.439A1.09,1.09,0,0,0-4.7,275.44,1.061,1.061,0,0,0-5.731,275.436Z" transform="translate(69.295 -232.841)"/><path class="j" d="M-25.477,284.518c-1.1,1.482-2.668,2.367-3.929,3.662-.559.574-.193,1.8.695,1.71,2.36-.238,4.089-2.2,5.031-4.3a1.062,1.062,0,0,0-.4-1.435A1.036,1.036,0,0,0-25.477,284.518Z" transform="translate(76.338 -235.512)"/><path class="k" d="M26.89,274.841a.854.854,0,0,0-1.2,0,3.257,3.257,0,0,0-.792.746,3.051,3.051,0,0,0-.394.981.85.85,0,0,0,.606,1.032.83.83,0,0,0,.611-.078,2.917,2.917,0,0,0,.811-.649,3.276,3.276,0,0,0,.49-.984A.91.91,0,0,0,26.89,274.841Z" transform="translate(59.316 -232.624)"/><path class="j" d="M41.351,279.747c-.49,2.125-1.44,4.534-.949,6.722a1.254,1.254,0,0,0,2.289.305c1.14-1.877.987-4.539,1.2-6.678C44.033,278.606,41.68,278.323,41.351,279.747Z" transform="translate(54.353 -233.918)"/><path class="j" d="M14.015,287.345c-.016-.058-.03-.114-.041-.173.014.151.005.09-.027-.182a3.474,3.474,0,0,1-.1-.364c-.026-.127-.064-.244-.1-.368-.016-.056-.029-.113-.04-.171v-.042a.961.961,0,0,0-.679-.909.924.924,0,0,0-1.137.655v0a2.554,2.554,0,0,0,.124,1.519,2.03,2.03,0,0,0,.871.918.775.775,0,0,0,1.058-.314A.8.8,0,0,0,14.015,287.345Z" transform="translate(63.293 -235.844)"/><path class="k" d="M58.533,274.33a.864.864,0,0,0-1.23.064.889.889,0,0,0,0,1.185,10.8,10.8,0,0,1,1.582,2.41c.465.95.686,1.969,1.223,2.887a1.059,1.059,0,0,0,1.465.358,1.08,1.08,0,0,0,.51-.9C62.174,277.941,60.271,275.734,58.533,274.33Z" transform="translate(49.068 -232.474)"/><path class="k" d="M77.212,269.092a17.234,17.234,0,0,0-1.282-3.121c-.514-.959-2.17-.29-1.76.757a17.144,17.144,0,0,0,1.528,3.014.827.827,0,0,0,1.147.268A.846.846,0,0,0,77.212,269.092Z" transform="translate(43.716 -229.84)"/><path class="j" d="M80.362,286.282a4.488,4.488,0,0,0-.326-1.013l-.455-.795a1.059,1.059,0,0,0-1.449-.388,1.108,1.108,0,0,0-.38,1.477l.422.814a4.551,4.551,0,0,0,.674.8.9.9,0,0,0,1.29-.029A.93.93,0,0,0,80.362,286.282Z" transform="translate(42.613 -235.488)"/><path class="k" d="M93.35,271.022a5.423,5.423,0,0,0-.859-1.054,5.484,5.484,0,0,1-.835-1.1c-.407-.682-1.591-.235-1.3.56A4.323,4.323,0,0,0,92.3,272.1a.769.769,0,0,0,1.057-.285.79.79,0,0,0,0-.789Z" transform="translate(38.622 -230.768)"/><path class="l" d="M110,278.537a28.694,28.694,0,0,0-4.239-5.448c-.836-.957-2.514.337-1.755,1.38a28.886,28.886,0,0,0,4.36,5.353,1.04,1.04,0,0,0,1.481-.045A1.069,1.069,0,0,0,110,278.537Z" transform="translate(34.376 -232.06)"/><path class="l" d="M105.686,285.866a8.258,8.258,0,0,0-2.307-.954,1.128,1.128,0,0,0-1.371.8,1.163,1.163,0,0,0,.78,1.4,8.169,8.169,0,0,0,2.435.513.953.953,0,0,0,.464-1.756Z" transform="translate(34.956 -235.774)"/><path class="l" d="M120.759,285.362a2.974,2.974,0,0,0-.492-.568,1.42,1.42,0,0,0-2.016,0,1.486,1.486,0,0,0,0,2.055,2.916,2.916,0,0,0,.557.5,1.475,1.475,0,0,0,.944.191,1.276,1.276,0,0,0,.844-.357,1.325,1.325,0,0,0,.35-.861A1.558,1.558,0,0,0,120.759,285.362Z" transform="translate(29.968 -235.62)"/></g><g transform="translate(123.503 101.011)"><g transform="translate(0)"><path class="h" d="M303.35,248.932v-2.9c-10.57-8.506-31.358-24.573-35.722-28.311-5.7-4.883-9.5-13.521-14.722-18.779s-36.093-26.667-40.843-26.667-42.742,7.136-49.391,12.019a41.491,41.491,0,0,0-10.449,11.643s-8.073,1.126-14.247,4.883-19,19.531-26.123,25.164c-6.08,4.808-24.262,18.913-29.462,22.946Z" transform="translate(-82.392 -170.73)"/><path class="m" d="M362.8,246.036l-.04-.033-.849-.681-.269-.216-.9-.717-.191-.153-.815-.649-.3-.238-.972-.772-.234-.186-.877-.694-.274-.219-1.035-.819-.359-.283-.754-.6-.411-.326-1-.79-.463-.365-.69-.544-.491-.387-.978-.769-.592-.465-.441-.347-1.083-.851-.613-.481-.465-.366-.66-.518c-2.365-1.858-4.72-3.705-6.95-5.458l-.146-.115-1.175-.925-.1-.077-1.06-.832-.162-.128-1.073-.846-.191-.15-.874-.689-.227-.18-.938-.741-.242-.191-.762-.6-.18-.143-.855-.68-.224-.178-.658-.525-.186-.148-.728-.583-.206-.167-.549-.441-.159-.128-.6-.486-.172-.139c-.169-.139-.333-.271-.485-.4l-.074-.06-.468-.388-.124-.1c-.137-.113-.263-.221-.376-.318l-.022-.019c-5.7-4.883-9.5-13.521-14.722-18.779s-36.092-26.666-40.842-26.667c0,0,31.344,36.807,34.193,42.441s3.8,16.9,6.171,21.032c1.187,2.065,2.136,7.879,2.789,13.179h48.132Z" transform="translate(-141.846 -170.731)"/><path class="i" d="M161.335,205.339a54.2,54.2,0,0,0-13.65,4.081,12.351,12.351,0,0,0-2.337,6.217c-.05,2.669,2.057,5.554,4.656,5.225,1.121-.139,2.263-.837,3.308-.406.871.359,1.283,1.346,1.691,2.209,2.25,4.758,6.693,7.973,10.954,10.977a5.361,5.361,0,0,0,2.668,1.219c3.375.18,5.342-5.744,8.53-4.6a4.906,4.906,0,0,1,1.928,1.643c2.418,2.887,5.29,5.662,8.913,6.535,5.965,1.438,11.971-2.8,15.4-7.98a6.562,6.562,0,0,1,1.938-2.215c1.809-1.056,4.114.143,5.554,1.68s2.57,3.484,4.437,4.432c2.712,1.376,5.95.185,8.975.343,3.16.164,6.034,1.808,8.976,2.983s6.44,1.858,9.155.2c3.1-1.887,4.064-6.1,6.88-8.393,3.524-2.875,8.593-1.9,13.1-2.1a23.712,23.712,0,0,0,18.775-11.13,6.886,6.886,0,0,0,1.292-3.923,4.142,4.142,0,0,0-.161-.887c-.743-.909-1.5-1.771-2.295-2.566-.274-.277-.61-.591-1-.938a19.106,19.106,0,0,0-3.186-1.3,143.76,143.76,0,0,0-20.089-5.365c-17.34-2.874-35.075.7-52.621-.2a103.4,103.4,0,0,1-23.394-3.928c-3.077-.889-6.151-1.926-9.229-2.96A49.648,49.648,0,0,0,161.335,205.339Z" transform="translate(-102.182 -177.442)"/><path class="e" d="M156.684,199.644l-2.791,6.8c3.367,2.381,9.256-1.359,11.612,2.061.631.918.743,2.113,1.3,3.08,3.273,5.659,9.293-4.07,15.8-1.613s4.1,11.143,8.653,12.794a13,13,0,0,0,14.6-4.592c1.255-1.751,2.084-3.823,3.565-5.381s3.993-2.461,5.735-1.217c1.664,1.188,2.522,4.092,4.521,3.729a5.224,5.224,0,0,0,1.718-.941c3.744-2.353,8.375.916,11.554,4.023,2.641,2.58,5.724,5.53,9.45,3.531,3.665-1.966,2.961-7.363,6.8-9.268,3.663-1.817,7.661-1.135,11.519-.611q.342-2.533.686-5.064c-.457,3.382,20.476,6.922,23.36,6.8a20.524,20.524,0,0,0,6.249-1.281c-2.674-3.962-5.288-7.958-8.307-11-6.158-6.2-42.546-31.434-48.145-31.434s-50.393,8.4-58.228,14.159a48.9,48.9,0,0,0-12.316,13.725A54.171,54.171,0,0,0,156.684,199.644Z" transform="translate(-104.869 -170.052)"/><g transform="translate(129.695)"><path class="n" d="M316.547,198.729q-.45-.367-.943-.76l-.215-.171c-8.612-6.823-25.928-18.791-36.256-24.517l-.313-.173c-1.155-.635-2.219-1.188-3.168-1.643l-.191-.091c-.794-.376-1.5-.68-2.115-.9-.222-.08-.428-.148-.623-.208-.168-.05-.328-.093-.475-.126a3.441,3.441,0,0,0-.629-.089c-.023,0-.049,0-.069,0,0,0,21.984,25.816,33.577,40.668,6.252,1.8,14.852,3.117,16.625,3.044A20.524,20.524,0,0,0,328,212.476l-1.571-2.329c-.112-.166-.226-.334-.339-.5-.206-.3-.411-.6-.617-.9-.137-.2-.274-.4-.411-.6-.2-.283-.4-.56-.6-.839-.145-.2-.29-.409-.435-.61-.2-.277-.407-.548-.611-.821-.145-.194-.289-.391-.435-.582-.213-.277-.429-.543-.643-.812-.142-.177-.28-.359-.424-.533-.239-.291-.48-.569-.727-.85-.123-.139-.242-.288-.366-.426q-.553-.619-1.126-1.2c-.1-.1-.2-.2-.311-.3q-.332-.317-.749-.688-.206-.185-.435-.382c-.425-.369-.9-.771-1.426-1.2Z" transform="translate(-271.55 -170.046)"/></g><path class="b" d="M188.324,206.5a.632.632,0,0,0-.856-.229l-1.91.9a.908.908,0,0,0-.335,1.23.886.886,0,0,0,1.408.189l1.595-1.318A.645.645,0,0,0,188.324,206.5Z" transform="translate(-114.681 -181.118)"/><path class="b" d="M201.47,193.7a1.015,1.015,0,0,0-.71-.723,2.6,2.6,0,0,0-.49-.079,1.424,1.424,0,0,0-.915.377l-.5.4a1.1,1.1,0,0,0,0,1.539,1.067,1.067,0,0,0,1.039.282l.541-.171a1.4,1.4,0,0,0,.931-.832A1.144,1.144,0,0,0,201.47,193.7Z" transform="translate(-118.904 -177.046)"/><path class="b" d="M194.972,213.449l-.5.362a.768.768,0,0,0-.147,1.168.732.732,0,0,0,1.044-.017.764.764,0,0,0,.1-.133l.355-.507C196.187,213.811,195.476,213.086,194.972,213.449Z" transform="translate(-117.515 -183.313)"/><path class="b" d="M212.046,200.323a1.462,1.462,0,0,0-1.156-.109,1.183,1.183,0,0,0,0,2.254,1.463,1.463,0,0,0,1.156-.109,1.181,1.181,0,0,0,.431-1.6,1.165,1.165,0,0,0-.431-.436Z" transform="translate(-122.527 -179.267)"/><path class="b" d="M244.827,192.285a1,1,0,0,0-1.148-.476l-.708.3a1.288,1.288,0,0,0-.7.549,1.225,1.225,0,0,0,0,1.207,1.171,1.171,0,0,0,1.842.241l.556-.566A1.059,1.059,0,0,0,244.827,192.285Z" transform="translate(-132.6 -176.702)"/><path class="b" d="M233.549,211.166a2.811,2.811,0,0,0-1.06.384l-.8.538a1.2,1.2,0,0,0-.411,1.6,1.158,1.158,0,0,0,1.569.416l.861-.429a2.854,2.854,0,0,0,.854-.736,1.079,1.079,0,0,0-.046-1.512A1.05,1.05,0,0,0,233.549,211.166Z" transform="translate(-129.148 -182.635)"/><path class="b" d="M231.521,199.223a8.14,8.14,0,0,0-.817.286,6.854,6.854,0,0,0-.612.33,1.163,1.163,0,0,0-.4,1.563,1.115,1.115,0,0,0,1.533.41,8.752,8.752,0,0,0,.728-.514,6.516,6.516,0,0,0,.48-.477.969.969,0,0,0-.032-1.36A.943.943,0,0,0,231.521,199.223Z" transform="translate(-128.649 -178.977)"/><path class="b" d="M217.377,216.73a12.144,12.144,0,0,0-1.82.526,1,1,0,0,0-.673,1.209.965.965,0,0,0,1.185.687h0a13.827,13.827,0,0,0,1.93-.917.833.833,0,0,0,.259-1.14A.814.814,0,0,0,217.377,216.73Z" transform="translate(-124.032 -184.341)"/><path class="b" d="M252.927,212.3a4.16,4.16,0,0,0-.677.255,3.819,3.819,0,0,0-.637.547.916.916,0,0,0-.137,1.095.886.886,0,0,0,1.212.324l.507-.318a2.32,2.32,0,0,0,.617-.731.806.806,0,0,0-.3-1.092A.786.786,0,0,0,252.927,212.3Z" transform="translate(-135.506 -182.983)"/><path class="b" d="M268.675,184.519a6.141,6.141,0,0,0-.712.079,3.574,3.574,0,0,0-.7.277l-1.144.517a1.121,1.121,0,0,0-.37,1.53,1.094,1.094,0,0,0,1.474.4l1-.454a3.859,3.859,0,0,0,1.093-.759.945.945,0,0,0-.021-1.325A.922.922,0,0,0,268.675,184.519Z" transform="translate(-139.982 -174.48)"/><path class="b" d="M257.513,201.932a7.382,7.382,0,0,0-2.014.221.9.9,0,0,0-.625,1.108.89.89,0,0,0,1.1.633,7.429,7.429,0,0,0,1.858-.773.647.647,0,0,0,.206-.884A.632.632,0,0,0,257.513,201.932Z" transform="translate(-136.603 -179.814)"/><path class="b" d="M282.875,199.77a4.309,4.309,0,0,0-.557-.078,2.049,2.049,0,0,0-.6.135,1.026,1.026,0,0,0-.692,1.242,1,1,0,0,0,1.218.705,1.66,1.66,0,0,0,1-.584.865.865,0,0,0-.016-1.212A.85.85,0,0,0,282.875,199.77Z" transform="translate(-144.823 -179.128)"/><path class="b" d="M277.693,214.022a1.084,1.084,0,0,0-1.294-.171,2,2,0,0,0-.754.469c-.211.246-.394.526-.587.788a1.177,1.177,0,0,0,.179,1.416,1.123,1.123,0,0,0,1.389.183l.522-.4a1.531,1.531,0,0,0,.542-.587l.169-.379A1.137,1.137,0,0,0,277.693,214.022Z" transform="translate(-142.907 -183.423)"/><path class="b" d="M296.976,213.247a8.787,8.787,0,0,0-1.823.821.946.946,0,0,0-.327,1.272.91.91,0,0,0,1.248.333,8.806,8.806,0,0,0,1.612-1.183.755.755,0,0,0-.027-1.058A.733.733,0,0,0,296.976,213.247Z" transform="translate(-149.133 -183.275)"/><path class="o" d="M289.507,186.2l-.736.152a1.415,1.415,0,0,0-.874,1,.72.72,0,0,0,.492.882,1.55,1.55,0,0,0,1.105-.139,3.069,3.069,0,0,0,.673-.746.7.7,0,0,0-.021-.981A.68.68,0,0,0,289.507,186.2Z" transform="translate(-146.985 -174.988)"/><path class="o" d="M303.914,202.144a1,1,0,0,0-.93-.721,1.589,1.589,0,0,0-.637.006,3.815,3.815,0,0,0-.6.273,7.378,7.378,0,0,0-.819.513,1.021,1.021,0,0,0-.313,1.4,1,1,0,0,0,1.076.446,7.252,7.252,0,0,0,.926-.25c.206-.079.407-.164.61-.252a1.289,1.289,0,0,0,.439-.456A1.047,1.047,0,0,0,303.914,202.144Z" transform="translate(-150.943 -179.65)"/><path class="o" d="M317.932,203.815l-1.036-.282a1.126,1.126,0,0,0-1.38.807,1.141,1.141,0,0,0,.8,1.4,1.11,1.11,0,0,0,.583,0l1.036-.282a.861.861,0,0,0,0-1.64Z" transform="translate(-155.663 -180.293)"/><path class="o" d="M321.127,214.065a3.085,3.085,0,0,0-.6.036,2.188,2.188,0,0,0-.59.235l-.773.371a1.282,1.282,0,0,0-.423,1.749,1.25,1.25,0,0,0,1.685.453l.754-.406a2.438,2.438,0,0,0,.85-.839,1.078,1.078,0,0,0-.4-1.46A1.051,1.051,0,0,0,321.127,214.065Z" transform="translate(-156.631 -183.531)"/><path class="p" d="M135.893,249.866c-2.025,1.048-3.668,2.983-5.536,4.311-2.042,1.452-4.49,2.559-6.221,4.4a1.7,1.7,0,0,0,.063,2.382,1.654,1.654,0,0,0,1.534.415c2.618-.469,4.909-2.518,6.808-4.314,1.75-1.656,3.918-3.821,4.615-6.206a.88.88,0,0,0-.623-1.072A.86.86,0,0,0,135.893,249.866Z" transform="translate(-95.371 -194.466)"/><path class="p" d="M136.409,265.4a1.215,1.215,0,0,0-1.67-.451l0,0-.745.532a2.426,2.426,0,0,0-.724.663,3.825,3.825,0,0,0-.215.44,1.207,1.207,0,0,0,0,1.153,1.125,1.125,0,0,0,1.265.525l.361-.094a1.811,1.811,0,0,0,.817-.529l.725-.728A1.276,1.276,0,0,0,136.409,265.4Z" transform="translate(-98.27 -199.069)"/><path class="p" d="M161.4,257.159a1.509,1.509,0,0,0-.592.163,3.623,3.623,0,0,0-.583.479l-.783.733a.928.928,0,0,0,1.105,1.46l.94-.524a2.934,2.934,0,0,0,.533-.347,1.826,1.826,0,0,0,.411-.6.944.944,0,0,0-.362-1.276A.916.916,0,0,0,161.4,257.159Z" transform="translate(-106.525 -196.726)"/><path class="p" d="M178.793,241.271a.708.708,0,0,0-1,0,2.071,2.071,0,0,0-.592.641l-.343.677a.659.659,0,0,0,.1.773.629.629,0,0,0,.884,0l.578-.491a2.108,2.108,0,0,0,.48-.73A.743.743,0,0,0,178.793,241.271Z" transform="translate(-112.063 -191.804)"/><path class="p" d="M163.034,232.821a1.182,1.182,0,0,0-1.685-.01l-.01.01-1.558,2.039a.91.91,0,0,0,.083,1.273.884.884,0,0,0,1.17,0l2-1.588A1.238,1.238,0,0,0,163.034,232.821Z" transform="translate(-106.65 -189.168)"/><path class="p" d="M206.842,255.259a5.311,5.311,0,0,0-1.92,2.2,1.287,1.287,0,0,0,.485,1.741,1.25,1.25,0,0,0,1.229,0,5.276,5.276,0,0,0,2.166-1.947,1.474,1.474,0,0,0-.562-1.993A1.436,1.436,0,0,0,206.842,255.259Z" transform="translate(-120.859 -196.097)"/><path class="p" d="M180.134,267.546c-1.481,2-3.609,3.2-5.314,4.953-.754.777-.261,2.433.94,2.313,3.192-.321,5.531-2.973,6.8-5.818a1.436,1.436,0,0,0-.556-1.939A1.4,1.4,0,0,0,180.134,267.546Z" transform="translate(-111.335 -199.712)"/><path class="k" d="M250.966,254.453a1.156,1.156,0,0,0-1.622,0,4.422,4.422,0,0,0-1.071,1.01,4.135,4.135,0,0,0-.533,1.327,1.149,1.149,0,0,0,.822,1.395,1.121,1.121,0,0,0,.823-.105,3.952,3.952,0,0,0,1.1-.879,4.438,4.438,0,0,0,.662-1.331A1.227,1.227,0,0,0,250.966,254.453Z" transform="translate(-134.359 -195.804)"/><path class="k" d="M270.527,261.091c-.664,2.874-1.944,6.133-1.284,9.092a1.7,1.7,0,0,0,3.1.413c1.542-2.539,1.334-6.139,1.617-9.032C274.154,259.547,270.972,259.164,270.527,261.091Z" transform="translate(-141.072 -197.553)"/><path class="k" d="M233.549,271.366c-.022-.078-.04-.155-.056-.234q.029.306-.036-.247a4.707,4.707,0,0,1-.133-.492c-.036-.171-.087-.33-.137-.5-.021-.076-.039-.153-.054-.231l0-.056a1.3,1.3,0,0,0-.918-1.229,1.249,1.249,0,0,0-1.537.885v.006a3.453,3.453,0,0,0,.168,2.055,2.75,2.75,0,0,0,1.179,1.242,1.047,1.047,0,0,0,1.432-.415A1.076,1.076,0,0,0,233.549,271.366Z" transform="translate(-128.978 -200.158)"/><path class="j" d="M293.765,253.759a1.169,1.169,0,0,0-1.664.076,1.2,1.2,0,0,0,.005,1.614,14.573,14.573,0,0,1,2.14,3.26c.629,1.285.931,2.663,1.654,3.9a1.431,1.431,0,0,0,1.978.489,1.459,1.459,0,0,0,.693-1.226C298.685,258.644,296.115,255.657,293.765,253.759Z" transform="translate(-148.218 -195.597)"/><path class="j" d="M319.032,246.679a23.264,23.264,0,0,0-1.735-4.22c-.7-1.3-2.936-.393-2.381,1.023a23.25,23.25,0,0,0,2.067,4.077A1.127,1.127,0,0,0,319.032,246.679Z" transform="translate(-155.459 -192.039)"/><path class="j" d="M323.292,269.929a6.082,6.082,0,0,0-.44-1.371l-.617-1.075a1.431,1.431,0,0,0-1.961-.524,1.5,1.5,0,0,0-.514,2l.571,1.1a6.076,6.076,0,0,0,.912,1.084,1.224,1.224,0,0,0,1.745-.035A1.26,1.26,0,0,0,323.292,269.929Z" transform="translate(-156.95 -199.677)"/><path class="l" d="M340.863,249.288a7.333,7.333,0,0,0-1.161-1.425,7.421,7.421,0,0,1-1.129-1.482c-.549-.923-2.152-.318-1.762.757.5,1.387,1.234,2.988,2.627,3.6a1.063,1.063,0,0,0,1.263-.166A1.081,1.081,0,0,0,340.863,249.288Z" transform="translate(-162.351 -193.293)"/><path class="l" d="M363.383,259.449c-1.447-2.8-3.687-5.025-5.734-7.368-1.131-1.3-3.4.456-2.374,1.867,1.834,2.519,3.511,5.227,5.9,7.24a1.406,1.406,0,0,0,2-.06A1.447,1.447,0,0,0,363.383,259.449Z" transform="translate(-168.092 -195.04)"/><path class="l" d="M357.543,269.366a11.16,11.16,0,0,0-3.121-1.289,1.526,1.526,0,0,0-1.859,1.077,1.572,1.572,0,0,0,1.055,1.895,11.042,11.042,0,0,0,3.291.694A1.288,1.288,0,0,0,357.543,269.366Z" transform="translate(-167.306 -200.063)"/><path class="l" d="M377.935,268.683a4.022,4.022,0,0,0-.665-.769,1.92,1.92,0,0,0-2.727,0,2.012,2.012,0,0,0,0,2.779,3.978,3.978,0,0,0,.754.678,2,2,0,0,0,1.277.259,1.728,1.728,0,0,0,1.142-.486,1.8,1.8,0,0,0,.473-1.165A2.1,2.1,0,0,0,377.935,268.683Z" transform="translate(-174.056 -199.855)"/></g></g><g transform="translate(205.974 10.864)"><path class="p" d="M207.644,82.552a1.385,1.385,0,0,0-2.677,0c-1.119-.388-2.528.235-2.258,1.695.046.25.374.2.446,0,.32-.884,1.166-1.448,1.886-.606a.449.449,0,0,0,.641-.009.459.459,0,0,0,.128-.316c-.052-.895.793-1.018,1.3-.445a.32.32,0,0,0,.455-.018A.329.329,0,0,0,207.644,82.552Z" transform="translate(-202.675 -52.778)"/><path class="p" d="M224.644,66.552a1.385,1.385,0,0,0-2.677,0c-1.119-.388-2.528.235-2.258,1.695.046.25.374.2.446,0,.32-.884,1.166-1.448,1.886-.606a.449.449,0,0,0,.641-.009.459.459,0,0,0,.128-.316c-.052-.895.793-1.018,1.3-.445a.32.32,0,0,0,.455-.018A.329.329,0,0,0,224.644,66.552Z" transform="translate(-208.019 -47.876)"/><path class="p" d="M274.9,40.092a1.2,1.2,0,0,0-1.194.624,1.381,1.381,0,0,0-1-.11,1.27,1.27,0,0,0-.806,1.52.242.242,0,0,0,.474-.065c.083-.687.879-1.132,1.215-.342.184.431.767.166.793-.219.051-.771.794-.464.871.117.047.351.583.314.658,0a1.2,1.2,0,0,0-1.008-1.526Z" transform="translate(-224.42 -40.084)"/></g><g transform="translate(211.663 42.279)"><path class="q" d="M256.694,86.968c.019,1.623-8.14,1-9.111,1.224a8.922,8.922,0,0,0-4.084,2.666,13.86,13.86,0,0,1-3.358,2.529s4.712.223,4.7,1.588-3.172,5.591-3.244,6.082c.66-.22,2.205-.845,2.662-1.009.743-.266,1.078-1.02,1.738-1.452,1.334-.875,2.618-1.991,4.312-1.842,1.018.089,5.673,1.576,5.637-.543C255.9,93.165,256.73,90.011,256.694,86.968Z" transform="translate(-240.142 -85.862)"/><path class="r" d="M257.645,86.879c.038,3.259.112,6.52.167,9.781.039,2.269-4.947.678-6.038.581-1.814-.16-3.19,1.037-4.62,1.974a10.451,10.451,0,0,1-2.239,1.106c-.49.175-1.85.544-2.555.779a1.2,1.2,0,0,1,.186-.357c.228-.094.456-.193.679-.293a8.292,8.292,0,0,0,1.722-.943,15.6,15.6,0,0,0,2.48-3.166,5.362,5.362,0,0,1,1.281-1.25,5.8,5.8,0,0,1,2.6-.8,10.176,10.176,0,0,0,2.717-.444,3.834,3.834,0,0,0,1.545-5.935A2.823,2.823,0,0,0,257.645,86.879Z" transform="translate(-240.839 -85.835)"/><path class="s" d="M265.647,147.814c-.023.662-1.233.5-1.38,0s-.182-56.209-.222-61.276c-.012-1.479,1.286-1.54,1.49-.239S265.923,139.769,265.647,147.814Z" transform="translate(-247.656 -85.374)"/><path class="s" d="M265.123,175.988c1.048,0,1.589-.646,1.157-.667s-.055,0-1.1,0-.65-.072-1.329-.051S264.075,175.988,265.123,175.988Z" transform="translate(-247.52 -112.913)"/><path class="t" d="M264.655,176.4c4.6-.144,1.3-.515,1.3-.9s-.257.2-1.3.2-1.537-.588-1.537-.2S260.051,176.541,264.655,176.4Z" transform="translate(-247.05 -112.943)"/></g></g></g></g></g></g></g><g transform="translate(16251.095 4982.217)"><path class="u" d="M77.113,160.662s8.364,3.845,11.456,2.839c4.065-1.319.886-8.517.886-8.517s-2.93-.244-3.685,1.083S77.113,160.662,77.113,160.662Z" transform="translate(-50.363 -107.957)"/><g transform="translate(35.14 0.618)"><path class="v" d="M144.527,90.392a10.634,10.634,0,0,1-1.137.814,1.226,1.226,0,0,1-.8.019h0c-.016,0-.954,1.671-.954,1.671l-1.714-.558,1.295-2.047a6.664,6.664,0,0,1,1.436-1.837,3.266,3.266,0,0,1,.485-.277c.865-.465,1.887.95,1.3,1.538-.156.155-.634-.276-.919-.087-.187.124-.1.425-.168.608.291-.075.8-.366,1.142-.2a.209.209,0,0,1,.1.276A.2.2,0,0,1,144.527,90.392Z" transform="translate(-105.247 -88.085)"/><path class="u" d="M89.35,117.353c7.362.066,21.784-7.329,23.728-8.7,1.541-1.083,1.784-4.783-1.336-4.5-1,.092-20.006,3.768-20.883,4.2" transform="translate(-89.35 -93.004)"/><path class="u" d="M118.913,101.65c.821-1.907,11.832-6.925,13.767-8.356.675-.5.411-1.032,1.255-.808a3.347,3.347,0,0,1,1.585,1.286,1.914,1.914,0,0,1,.4.891c.012.428-.795.556-1.039.869-.967,1.233-12.346,10.252-13.515,9.942a5.843,5.843,0,0,1-1.829-1.321A2.466,2.466,0,0,1,118.913,101.65Z" transform="translate(-98.607 -89.417)"/></g><g transform="translate(0 44.041)"><path class="w" d="M89.24,163.16c1.426.848,6.127.743,7.862.191,1.708-.547,4.635-3.529,4.658-4.736.019-.822,0-7.4,0-7.4l-13,5.591S87.059,161.866,89.24,163.16Z" transform="translate(-53.826 -150.85)"/><g transform="translate(43.649 0.399)"><g transform="translate(49.453 20.696)"><path class="x" d="M173.885,186.6s1.988,2.107,2.783,1.011,4.8-5.895,3.722-6.508c-.25-.14-3,1.543-4.74,2.822A4.781,4.781,0,0,0,173.885,186.6Z" transform="translate(-173.885 -181.099)"/></g><g transform="translate(42.315 19.601)"><path class="v" d="M165.72,179.651c1.6.633,6.533,4.037,6.509,4.53-.025.42-1.133,2.141-1.395,2.05-.978-.346-6.618-3.452-6.618-3.452a1.617,1.617,0,0,1-.679-1.808C164.141,179.38,165.058,179.39,165.72,179.651Z" transform="translate(-163.475 -179.52)"/></g><path class="w" d="M106.109,151.262s17.632,4.864,23.994,9.05c1.986,1.307,0,6.22-.067,6.314l-28.277-4.091Z" transform="translate(-101.759 -151.262)"/><path class="w" d="M141.885,164.309c17.607,9.863,19.791,12.526,21.775,14.01.271.2-2.073,2.976-2.073,2.976l-21.28-10.935s-1.96-2.185-1.2-3.625C140.033,164.977,140.967,163.795,141.885,164.309Z" transform="translate(-113.445 -155.222)"/></g><g transform="translate(0 27.393)"><path class="x" d="M43.211,191.924c-.15-1.384-1.787-1.745-1.787-1.745s-3.606,2.736-3.308,4.247c.33,1.678.78,3.212,1.359,3.026.175-.056.4-1.755.767-2.271a6.564,6.564,0,0,1,1.96-1.213C43.668,193.139,43.319,192.911,43.211,191.924Z" transform="translate(-38.098 -190.179)"/></g><g transform="translate(4.313 28.754)"><path class="v" d="M51.884,195.006c-1.691.188-7.347-.289-7.478-.656-.11-.315.372-2,.643-2.043,1.016-.143,7.234-.166,7.234-.166s1.244.083,1.206,1.034A1.687,1.687,0,0,1,51.959,195Z" transform="translate(-44.389 -192.141)"/></g><path class="s" d="M94.14,163.19s-8.047,15.6-13.437,20.769c-1.683,1.613-5.416-2.149-5.482-2.256l8.289-20.887s1.215-4.672,1.75-6.361c3.116-1.711,11.12-4.091,12.513-3.733C97.585,154.128,94.14,163.19,94.14,163.19Z" transform="translate(-49.768 -150.687)"/><path class="s" d="M70.792,196.573c-19.483-.3-22.369-1.647-24.685-2.021-.317-.051.941-3.726.941-3.726l23.224-.529s2.522,1.021,2.291,2.707C72.283,195.056,71.807,196.594,70.792,196.573Z" transform="translate(-40.6 -162.822)"/></g><path class="y" d="M95.744,107.607s.146,2.423-1.759,2.181c-2.036-.258-1.937-2.65-1.937-2.65l.686-5.631,3.7.469Z" transform="translate(-55.057 -91.58)"/><path class="b" d="M99.561,138,86.982,141.3s-5.155-23.145-5.864-29.522c1.187-1.07,11.475-8.449,14.649,1.114C102.564,126.892,99.561,138,99.561,138Z" transform="translate(-51.622 -93.586)"/><path class="z" d="M87.472,107.762a18.615,18.615,0,0,1,2.17,1.688c.038.832,3.117,7.319,2.088,20.566a17.9,17.9,0,0,1-.925,3.524c-3.753,10-11.1,12.379-13.341,12.838s1.233-2.07,4.358-11-7.4-23.172-2.93-25.6A17.683,17.683,0,0,1,87.472,107.762Z" transform="translate(-50.248 -93.494)"/><path class="z" d="M105.028,141.824s.429-4.024.625-6.728c.119-2.625.853-14.258-1.739-18.088-.615-.909-4.21-8.283-6.322-7.79.045.026,6.891,3.678,7.256,33.009Z" transform="translate(-56.8 -93.934)"/><path class="w" d="M97.27,108.706l-.437,1.56,1.9,1.489-.159-2.067Z" transform="translate(-56.562 -93.785)"/><path class="b" d="M95.2,109.744a9.644,9.644,0,0,1-3.443-2.033c-.055-.1-.067-.485-.115-.644.109-.39,4,1.119,4,1.119Z" transform="translate(-54.931 -93.263)"/><g transform="translate(12.693 14.811)"><path class="v" d="M74.437,153.746a11.044,11.044,0,0,1-.254-1.394,1.29,1.29,0,0,1,.321-.753h0c.011-.014-1.092-1.584-1.092-1.584l1.205-1.353,1.288,2.055a6.747,6.747,0,0,1,1.04,2.1,3.411,3.411,0,0,1,.047.567c.055.993-1.635,1.355-1.914.562-.073-.212.513-.475.461-.817-.034-.225-.336-.273-.473-.41-.054.3-.005.9-.3,1.14a.2.2,0,0,1-.284-.015A.2.2,0,0,1,74.437,153.746Z" transform="translate(-61.893 -120.837)"/><path class="u" d="M77.183,113.551c.989-1.94.533-5.036-.119-5-7.853.4-18.478,9.562-19.894,11.271-1.21,1.459-.486,5.094,2.449,3.982.657-.248,11.607-5,15.084-6.5" transform="translate(-56.611 -108.548)"/><path class="u" d="M56.99,127.214c-.074,2.08,8.933,12.876,10.069,15.019.393.748-.073,1.111.783,1.282a3.275,3.275,0,0,0,1.975-.454,1.857,1.857,0,0,0,.745-.623c.192-.382-.478-.854-.565-1.244-.344-1.535-7.97-15.94-9.155-16.178a5.772,5.772,0,0,0-2.211.379A2.238,2.238,0,0,0,56.99,127.214Z" transform="translate(-56.73 -113.592)"/></g><path class="b" d="M98.787,109.306l-1.289-.978.209-.866,1.08.769Z" transform="translate(-56.771 -93.404)"/><g transform="translate(36.822)"><path class="v" d="M92.808,94.063s-.769-.957-1,.547c-.035.779.8.709.8.709a22.057,22.057,0,0,0,.778,3.7c.4.907,4.984-.7,4.984-.7l.315-1.765s.346-4.178-1.364-4.893a3.255,3.255,0,0,0-4.3,1.722A3.33,3.33,0,0,0,92.808,94.063Z" transform="translate(-91.802 -88.477)"/><path class="aa" d="M92.7,92.529s-1.124-2.177.3-3.8a10.641,10.641,0,0,1,2.983-1.29c2.748-.7,5.593.21,2.893,1.62,1.516.335,1.67,1.065.429,1.526.735.631-.014,1.4-.487,1.519s.19-1.491-2.3-1.676-2.619.671-3.52,2.342c-.035-.013-.055-.057-.123-.11A.93.93,0,0,0,92.7,92.529Z" transform="translate(-91.953 -87.194)"/><path class="aa" d="M92.82,97.077s1.151,2.181,2.1,2.132a2.293,2.293,0,0,0,1.563-.925,1.058,1.058,0,0,1,1.225.213.76.76,0,0,0,1.08.074.775.775,0,0,0,.243-.411c.368.05,2.256,5.443-.975,5.733S91.181,100.623,92.82,97.077Z" transform="translate(-91.995 -90.222)"/></g><path class="u" d="M92.083,109.9c.044-.2-1.145-.385-2.8-1.851-.985.987-.806,5.67-.806,5.67l2.88.125-1.176,2.132s.9.848,1.2,4.786c.274,3.538,3.829,16.667-6.684,23.306,5.543-3.08,8.319-9.637,9.236-14.312C95.309,119.379,91.975,110.4,92.083,109.9Z" transform="translate(-52.747 -93.583)"/><path class="w" d="M92.661,111.62c2.819,8.87-10.486,16.97-12.037,25.651q1.706,1.712,3.3,3.528,1.883-1.764,3.647-3.635c-.585-9.227,10.451-17.375,5.574-25.829Z" transform="translate(-51.466 -94.59)"/></g></g></g></svg>