<svg id="Group_13915" data-name="Group 13915" xmlns="http://www.w3.org/2000/svg" width="16" height="16" viewBox="0 0 16 16">
  <path id="Path_69470" data-name="Path 69470" d="M0,0H16V16H0Z" fill="none"/>
  <path id="Path_69471" data-name="Path 69471" d="M13.333,15.333H4a2,2,0,0,1-2-2V2.667A.667.667,0,0,1,2.667,2H12a.667.667,0,0,1,.667.667v8h2.667v2.667A2,2,0,0,1,13.333,15.333ZM12.667,12v1.333a.667.667,0,0,0,1.333,0V12Zm-8-6.667V6.667H10V5.333ZM4.667,8V9.333H10V8Zm0,2.667V12H8V10.667Z" transform="translate(-0.667 -0.667)" fill="#d9232d"/>
</svg>
