<svg id="icon_deal" xmlns="http://www.w3.org/2000/svg" width="26.12" height="26.126" viewBox="0 0 26.12 26.126">
  <metadata><?xpacket begin="﻿" id="W5M0MpCehiHzreSzNTczkc9d"?>
<x:xmpmeta xmlns:x="adobe:ns:meta/" x:xmptk="Adobe XMP Core 5.6-c138 79.159824, 2016/09/14-01:09:01        ">
   <rdf:RDF xmlns:rdf="http://www.w3.org/1999/02/22-rdf-syntax-ns#">
      <rdf:Description rdf:about=""/>
   </rdf:RDF>
</x:xmpmeta>
                                                                                                    
                                                                                                    
                                                                                                    
                                                                                                    
                                                                                                    
                                                                                                    
                                                                                                    
                                                                                                    
                                                                                                    
                                                                                                    
                                                                                                    
                                                                                                    
                                                                                                    
                                                                                                    
                                                                                                    
                                                                                                    
                                                                                                    
                                                                                                    
                                                                                                    
                                                                                                    
                           
<?xpacket end="w"?></metadata>
<defs>
    <style>
      .cls-1 {
        fill: #d9232d;
        fill-rule: evenodd;
      }
    </style>
  </defs>
  <path id="Forma_1_copy_3" data-name="Forma 1 copy 3" class="cls-1" d="M1598.01,100.834a5.909,5.909,0,0,1-1.72,3.977c-0.63.649-1.49,1.542-2.2,2.272-6.8,7.045-11.2,7.064-14.26,3.9-0.55-.568-1.34-1.341-2.04-2.071a3.047,3.047,0,0,1,.16-4.241c1.8-1.867,6.35-6.574,8.62-8.847a5.628,5.628,0,0,1,3.85-1.786c1.25,0,5.26-.042,5.26-0.042a2.186,2.186,0,0,1,2.33,2.458v4.38Zm-3.91-6.179a1.631,1.631,0,1,1-1.63,1.632A1.631,1.631,0,0,1,1594.1,94.655Z" transform="translate(-1573.44 -90.438)"/>
  <path id="Forma_1_copy_4" data-name="Forma 1 copy 4" class="cls-1" d="M1597.1,90.449h-8.89a2.964,2.964,0,0,0-2.28.979l-11.5,11.5a3.233,3.233,0,0,0-.98,2.284,3.1,3.1,0,0,0,.98,2.284l8.07,8.074a3.238,3.238,0,0,0,2.29.979,3.084,3.084,0,0,0,2.28-.979l11.5-11.5a3.61,3.61,0,0,0,.98-2.284V92.9A2.4,2.4,0,0,0,1597.1,90.449Zm0.82,8.888a5.862,5.862,0,0,1-1.8,4c-0.65.652-1.55,1.549-2.28,2.283-7.08,7.079-11.65,7.1-14.83,3.918-0.57-.571-1.39-1.348-2.13-2.082a3,3,0,0,1,.17-4.262c1.88-1.876,6.61-6.606,8.97-8.89a5.935,5.935,0,0,1,4-1.794c1.3,0,5.47-.043,5.47-0.043a2.237,2.237,0,0,1,2.43,2.47v4.4Z" transform="translate(-1573.44 -90.438)"/>
</svg>
