<svg xmlns="http://www.w3.org/2000/svg" width="21.505" height="21.505" viewBox="0 0 21.505 21.505"><defs><style>.a{fill:none;}.b{fill:#278bed;}.c{fill:#fff;}</style></defs><path class="a" d="M0,0H21.5V21.5H0Z"/><path class="b" d="M9.68,17.36a7.68,7.68,0,1,1,7.68-7.68A7.68,7.68,0,0,1,9.68,17.36Z" transform="translate(1.072 1.072)"/><path class="c" d="M2.051-2.508A3.285,3.285,0,0,1,2.244-3.75a3.256,3.256,0,0,1,.765-1.017,5.831,5.831,0,0,0,.724-.788,1.383,1.383,0,0,0,.234-.773,1.184,1.184,0,0,0-.272-.841,1.045,1.045,0,0,0-.8-.29,1.149,1.149,0,0,0-.812.284,1,1,0,0,0-.308.771H.352a2.1,2.1,0,0,1,.706-1.641,2.7,2.7,0,0,1,1.837-.6,2.636,2.636,0,0,1,1.837.6,2.139,2.139,0,0,1,.659,1.67A2.733,2.733,0,0,1,4.5-4.5l-.721.709a1.93,1.93,0,0,0-.4,1.283Zm-.1,1.822a.751.751,0,0,1,.217-.56.8.8,0,0,1,.586-.214.794.794,0,0,1,.592.22.756.756,0,0,1,.217.554.742.742,0,0,1-.211.539.8.8,0,0,1-.6.217.786.786,0,0,1-.595-.217A.748.748,0,0,1,1.951-.686Z" transform="translate(7.812 15)"/></svg>