<svg id="insight" xmlns="http://www.w3.org/2000/svg" width="15" height="15" viewBox="0 0 15 15">
  <path id="Path_109493" data-name="Path 109493" d="M0,0H15V15H0Z" fill="none"/>
  <path id="Path_109494" data-name="Path 109494" d="M6.463,12c-.186-.8-1.023-1.446-1.367-1.875a5,5,0,1,1,7.806,0c-.344.428-1.18,1.079-1.366,1.874H6.462ZM11.5,13.25v.625a1.25,1.25,0,0,1-1.25,1.25H7.75a1.25,1.25,0,0,1-1.25-1.25V13.25ZM9.625,7V4.5L6.812,8.254H8.375v2.5L11.187,7H9.625Z" transform="translate(-1.5 -0.75)" fill="#d9232d"/>
</svg>
