<svg xmlns="http://www.w3.org/2000/svg" width="24" height="24" viewBox="0 0 24 24"><defs><style>.a{fill:#fff;}.b{fill:#fc4f58;}.c{fill:#db3d46;}.d{fill:#d9232d;}</style></defs><g transform="translate(-96.99 -96)"><rect class="a" width="24" height="24" rx="4" transform="translate(96.99 96)"/><circle class="b" cx="0.902" cy="0.902" r="0.902" transform="translate(103.037 98.672)"/><circle class="b" cx="0.902" cy="0.902" r="0.902" transform="translate(113.279 98.672)"/><path class="c" d="M371.5,224.7s4.915,6.66,10.664.234c1.174-1.312-.574-1.61-.727-1.2a4.806,4.806,0,0,1-4.641,2.789c-2.526-.121-4.618-2.717-4.664-2.766C371.656,223.256,370.831,224,371.5,224.7Z" transform="translate(-267.831 -124.571)"/><path class="d" d="M-537.629-74.194h-2.17c.118-1.381.168-2.722.168-4.024A3.286,3.286,0,0,0-540-80.131a1.49,1.49,0,0,0-1.2-.454,2.549,2.549,0,0,0-1.4.483q-.03,1.021-.03,1.834c0,.907.02,2.268.049,4.073h-2.189c.118-1.5.178-2.949.178-4.359a2.98,2.98,0,0,0-.306-1.568,1.423,1.423,0,0,0-1.272-.463,1.977,1.977,0,0,0-1.479.6q.044,3.24.039,5.8h-2.2q.148-2.559.148-4.024a16.77,16.77,0,0,0-.4-3.688l2.091-.227.138.868h.128a3.49,3.49,0,0,1,2.4-.966,2.676,2.676,0,0,1,2.347.966h.128a3.88,3.88,0,0,1,2.4-.966,3.159,3.159,0,0,1,2.1.6,2.751,2.751,0,0,1,.71,2.179c0,.108-.01.306-.02.592s-.019.493-.019.592C-537.658-77.36-537.648-76-537.629-74.194Z" transform="translate(652.712 188.852)"/></g></svg>