<svg xmlns="http://www.w3.org/2000/svg" width="38.451" height="38.451" viewBox="0 0 38.451 38.451">
  <g id="non-gst" transform="translate(-124.183 -180.788) rotate(-20)">
    <g id="Rectangle_15_copy" data-name="Rectangle 15 copy" transform="translate(51.351 222)" fill="#fff" stroke="#ff9d00" stroke-width="1">
      <rect width="30" height="30" rx="4" stroke="none"/>
      <rect x="0.5" y="0.5" width="29" height="29" rx="3.5" fill="none"/>
    </g>
    <g id="Rectangle_15_copy-2" data-name="Rectangle 15 copy" transform="translate(53.203 223.851)" fill="#fff" stroke="#ff9d00" stroke-width="0.5">
      <rect width="26.297" height="26.297" rx="3" stroke="none"/>
      <rect x="0.25" y="0.25" width="25.797" height="25.797" rx="2.75" fill="none"/>
    </g>
    <path id="Path_69426" data-name="Path 69426" d="M-8.2,0h1.372V-7.154H-6.8L-4.956,0h1.582V-9.8H-4.746v5.866h-.028L-6.272-9.8H-8.2ZM0,.14A2.175,2.175,0,0,0,2.338-2.324V-7.476A2.175,2.175,0,0,0,0-9.94,2.175,2.175,0,0,0-2.338-7.476v5.152A2.175,2.175,0,0,0,0,.14Zm0-1.4c-.49,0-.8-.266-.8-.966V-7.574c0-.7.308-.966.8-.966s.8.266.8.966v5.348C.8-1.526.49-1.26,0-1.26ZM3.374,0H4.746V-7.154h.028L6.622,0H8.2V-9.8H6.832v5.866H6.8L5.306-9.8H3.374ZM-5.873,11.14c1.512,0,2.3-.9,2.3-2.464V5.47H-5.8v1.4h.77V8.788c0,.7-.308.952-.8.952s-.8-.252-.8-.952V3.426c0-.7.308-.966.8-.966s.8.266.8.966v.938h1.456v-.84c0-1.568-.784-2.464-2.3-2.464s-2.3.9-2.3,2.464V8.676C-8.169,10.244-7.385,11.14-5.873,11.14Zm6.034,0A2.174,2.174,0,0,0,2.485,8.648c0-1.218-.406-2-1.694-3.136C-.217,4.63-.539,4.112-.539,3.4c0-.672.28-.938.77-.938s.77.266.77.966v.5H2.457V3.524c0-1.568-.742-2.464-2.24-2.464A2.142,2.142,0,0,0-2.079,3.5c0,1.12.42,1.918,1.708,3.052C.637,7.43.945,7.948.945,8.76c0,.728-.308.98-.8.98s-.8-.252-.8-.952V8.116H-2.107v.56C-2.107,10.244-1.351,11.14.161,11.14ZM5.313,11h1.54V2.6h1.61V1.2H3.7V2.6h1.61Z" transform="translate(67 236)" fill="#ff9d00"/>
  </g>
</svg>
