<svg xmlns="http://www.w3.org/2000/svg" width="20" height="20" viewBox="0 0 20 20">
  <g id="paytm" transform="translate(-8435 -1874)">
    <path id="Path_69896" data-name="Path 69896" d="M10,20A10,10,0,1,1,20,10,10.011,10.011,0,0,1,10,20ZM10,1a9,9,0,1,0,9,9A9.01,9.01,0,0,0,10,1Z" transform="translate(8435 1874)" fill="#083171"/>
    <path id="Path_69893" data-name="Path 69893" d="M196.974,232.279l.116-.082a.928.928,0,0,1,1.262.09c.035.036.052.038.087.008s.049-.041.072-.064a.924.924,0,0,1,.958-.172.755.755,0,0,1,.541.724c.006.736,0,1.47,0,2.207a.42.42,0,0,1-.475.426c-.116,0-.232-.008-.347,0s-.153-.023-.153-.133c.006-.718,0-1.437,0-2.155v-.09c0-.167-.078-.236-.258-.244a.255.255,0,0,0-.292.226c0,.033,0,.069,0,.1v1.86c0,.272-.177.431-.484.428-.156,0-.368.062-.457-.028s-.026-.259-.026-.4v-1.912a.262.262,0,0,0-.379-.264.253.253,0,0,0-.177.267c0,.6,0,1.188,0,1.783V235a.42.42,0,0,1-.466.408c-.116,0-.232-.008-.347,0s-.162-.021-.159-.139c.006-1.008,0-2.017,0-3.028,0-.044,0-.085,0-.128s.02-.074.084-.074c.266,0,.53,0,.8,0,.067,0,.1.015.093.08A.943.943,0,0,0,196.974,232.279Z" transform="translate(8251.985 1650.566)" fill="#02b9ef"/>
    <path id="Path_69894" data-name="Path 69894" d="M-143.864,235.589v1.052c0,.457-.272.693-.788.7-.226,0-.455,0-.68,0a.751.751,0,0,1-.817-.68,7.311,7.311,0,0,1,0-.872.8.8,0,0,1,.857-.713c.124,0,.252,0,.376,0s.168-.064.165-.167-.052-.149-.168-.144-.261,0-.391,0c-.318-.005-.5-.159-.492-.436,0-.113-.058-.264.026-.331s.237-.021.362-.021c.324,0,.646,0,.97,0a.526.526,0,0,1,.582.516C-143.861,234.852-143.864,235.222-143.864,235.589Zm-.886.582v-.128c0-.262,0-.262-.3-.251-.148.005-.229.072-.232.208,0,.108,0,.213,0,.321,0,.185.1.233.4.241.223.005.11-.133.13-.21A1.24,1.24,0,0,0-144.75,236.171Zm3.463-.862c0,.393.006.788,0,1.18a.748.748,0,0,1-.417.739,1.024,1.024,0,0,1-.429.1c-.333.005-.666,0-1,.005-.081,0-.1-.026-.1-.09.006-.108,0-.213,0-.321a.4.4,0,0,1,.414-.37c.151-.005.3,0,.449,0,.122,0,.188-.044.188-.159s-.064-.159-.185-.162a2.653,2.653,0,0,1-.605-.031.741.741,0,0,1-.605-.659c-.017-.5-.006-1-.009-1.5,0-.056.02-.074.084-.072.237,0,.472.005.709,0,.1,0,.09.049.09.105v1.129a.23.23,0,0,0,.249.257c.191.005.275-.236.275-.236s0-.762,0-1.142c0-.09.026-.115.127-.113.211.008.426.01.637,0,.116-.005.133.033.13.123C-141.29,234.5-141.287,234.9-141.287,235.309Zm-7.378.582v-1.257a.653.653,0,0,1,.75-.662,5.654,5.654,0,0,1,.909.021.7.7,0,0,1,.631.683c0,.372,0,.744,0,1.116,0,.467-.31.752-.837.765-.159.005-.319,0-.478,0-.072,0-.1.018-.1.087.006.1,0,.205,0,.308a.4.4,0,0,1-.429.382c-.145,0-.327.054-.42-.021s-.023-.233-.026-.357C-148.668,236.6-148.665,236.246-148.665,235.892Zm.874-.629v.244c0,.29,0,.29.327.264.142-.01.208-.072.211-.2,0-.144-.006-.29,0-.434.017-.416-.069-.375-.452-.377-.069,0-.093.018-.093.08C-147.787,234.981-147.79,235.122-147.79,235.263Z" transform="translate(8586.685 1648.647)" fill="#06306f"/>
    <path id="Path_69895" data-name="Path 69895" d="M117,212.82c0-.341,0-.685,0-1.026,0-.08-.02-.113-.119-.11-.13.005-.3.038-.376-.018-.09-.074-.02-.233-.032-.357v-.026c0-.121-.043-.262.014-.352s.235-.033.359-.062a1.059,1.059,0,0,0,.582-.357.675.675,0,0,1,.4-.231c.09-.015.145-.005.139.1-.009.144,0,.29,0,.436,0,.062.023.082.093.08.116,0,.232,0,.347,0,.069,0,.093.021.09.082,0,.21,0,.418,0,.629,0,.059-.017.09-.09.082a.247.247,0,0,0-.043,0c-.127.01-.3-.051-.371.026s-.023.221-.023.336c0,.7,0,1.393,0,2.091,0,.1-.029.128-.139.121s-.211,0-.318,0a.479.479,0,0,1-.518-.475Z" transform="translate(8329.217 1671.724)" fill="#02b9ef"/>
  </g>
</svg>
