<svg xmlns="http://www.w3.org/2000/svg" width="208.537" height="136.628" viewBox="0 0 208.537 136.628">
  <g id="Group_3901" data-name="Group 3901" transform="translate(-238.941 -209.717)">
    <path id="Path_1139" data-name="Path 1139" d="M10,0H194.977a10,10,0,0,1,10,10l.628,41.394a10,10,0,0,1-10,10H10.628a10,10,0,0,1-10-10L0,10A10,10,0,0,1,10,0Z" transform="translate(238.941 285.036) rotate(-3)" fill="#458d00"/>
    <g id="Group_3900" data-name="Group 3900" transform="translate(301.199 209.717)">
      <path id="Path_1138" data-name="Path 1138" d="M5808.773,1416.839h5.259s5.45-3.937,9.848-13.31c4.4-8.9,9.466-7.217,12.43-12.748s3.888-11.725,5.928-14.06,9.275-2.624,8.8,14.06c-.29,6.088-6.979,12.748-6.979,12.748s-1.817,3.562,1.338,3.749,19.016-2.867,22.03,3.507c1.982,4.275-1.585,9.342-4.757,11.256-.731.777,9.435,5.612.44,11.763-1.782.913,7.171,5.819-1.568,11.9-1.157.407,3.356,3.065,1.128,6.533-2.2,2.093-2.805,1.459-8.452,2-14.294.085-34.081.016-37.963,0h-.589s-2.724-.526-3.489-2.119c-2.458-2.332-3.9-.974-3.9-.974v-34.306Z" transform="translate(-5789.807 -1375.57)" fill="#f1f1f1"/>
      <rect id="Rectangle_1619" data-name="Rectangle 1619" width="22.332" height="44.664" rx="3" transform="translate(0 34.046)" fill="#f1f1f1"/>
      <ellipse id="Ellipse_19" data-name="Ellipse 19" cx="4.785" cy="4.387" rx="4.785" ry="4.387" transform="translate(6.381 65.152)" fill="#f1f1f1"/>
    </g>
    <rect id="Rectangle_1621" data-name="Rectangle 1621" width="85.341" height="66.199" transform="translate(294.416 215.839) rotate(-3)" fill="#fff"/>
    <g id="Group_3899" data-name="Group 3899" transform="translate(304.389 214.739)">
      <path id="Path_1138-2" data-name="Path 1138" d="M5808.706,1411.987h4.549s4.714-3.474,8.519-11.745c3.8-7.857,8.188-6.369,10.752-11.249s3.363-10.346,5.128-12.406,8.022-2.316,7.609,12.406c-.25,5.372-6.037,11.249-6.037,11.249s-1.572,3.143,1.158,3.308,16.45-2.53,19.056,3.095c1.715,3.772-1.371,8.244-4.115,9.932-.633.686,8.162,4.952.38,10.38-1.541.806,6.2,5.135-1.356,10.5-1,.359,2.9,2.7.976,5.765-1.9,1.847-2.426,1.287-7.312,1.765-12.364.075-29.481.014-32.838,0h-.51s-2.356-.464-3.018-1.87c-2.126-2.058-3.376-.859-3.376-.859v-30.272Z" transform="translate(-5789.064 -1375.57)" fill="#fff" stroke="#458d00" stroke-width="3"/>
      <rect id="Rectangle_1619-2" data-name="Rectangle 1619" width="19.142" height="38.284" rx="4" transform="translate(0 32.215)" fill="#458d00"/>
      <circle id="Ellipse_19-2" data-name="Ellipse 19" cx="3.988" cy="3.988" r="3.988" transform="translate(5.583 58.535)" fill="#fff"/>
    </g>
    <text id="Thank_You_" data-name="Thank You!" transform="matrix(0.999, -0.052, 0.052, 0.999, 270.098, 328.785)" fill="#fff" font-size="29" font-family="Roboto-Medium, Roboto" font-weight="500"><tspan x="0" y="0">Thank You!</tspan></text>
  </g>
</svg>
