<svg id="restart-line" xmlns="http://www.w3.org/2000/svg" width="14.569" height="14.569" viewBox="0 0 14.569 14.569">
  <path id="Path_66807" data-name="Path 66807" d="M0,0H14.569V14.569H0Z" fill="none"/>
  <path id="Subtraction_1" data-name="Subtraction 1" d="M10.8,10H1.2a.583.583,0,0,1-.421-.184A.64.64,0,0,1,.6,9.371V3.155H0V.631A.615.615,0,0,1,.6,0H4.918L3.842,0A.525.525,0,0,1,4.264.62c-.086.51-.616,3.5-.621,3.521H6.025c.009,0,.031,0,.062,0a.584.584,0,0,1,.42.148.437.437,0,0,1,.1.342c-.037.5-.2,3.435-.233,4.018v.019L8.31,3.307H6.039A.477.477,0,0,1,5.67,3.16a.5.5,0,0,1-.047-.438c.144-.578.508-2.065.58-2.357l0-.011A.483.483,0,0,1,6.681,0H11.4a.615.615,0,0,1,.6.631V3.155h-.6V9.371A.613.613,0,0,1,10.8,10Z" transform="translate(1.333 2.667)" fill="#d9232d"/>
</svg>
