<svg id="restart-line" xmlns="http://www.w3.org/2000/svg" width="16" height="16" viewBox="0 0 16 16">
  <path id="Path_66807" data-name="Path 66807" d="M0,0H16V16H0Z" fill="none"/>
  <path id="Path_66808" data-name="Path 66808" d="M13.025,13.711a6.654,6.654,0,1,1,1.1-1.218L12,8.667h2a5.333,5.333,0,1,0-1.64,3.848Z" transform="translate(-0.667 -0.667)" fill="#d9232d"/>
  <path id="Path_66809" data-name="Path 66809" d="M2.287,5.011H7.459V7.886a.286.286,0,0,1-.285.286h-4.6a.286.286,0,0,1-.285-.286Zm1.724.575v.575H5.735V5.586ZM2,3.287A.288.288,0,0,1,2.285,3H7.462a.285.285,0,0,1,.285.287V4.437H2Z" transform="translate(3.127 2.414)" fill="#d9232d"/>
</svg>
