<svg xmlns="http://www.w3.org/2000/svg" width="23.879" height="12.769" viewBox="0 0 23.879 12.769">
  <g id="Group_127738" data-name="Group 127738" transform="translate(0)">
    <g id="Group_127739" data-name="Group 127739">
      <g id="noun-rolling-5023750" transform="translate(0 3.801)">
        <path id="Path_187557" data-name="Path 187557" d="M145.01,162.445c0,2.246-4.071,4.073-9.9,4.444H135.1a.244.244,0,0,1-.243-.228c0-.005,0-.01,0-.016h0v-1.515h0a.241.241,0,0,1,.219-.243c3.717-.328,7.69-1.362,7.69-3.277.083-.419-.384-1.151-2.2-1.794-.079-.021-.156-.044-.237-.064a.244.244,0,1,1,.12-.473l.114.031a.224.224,0,0,1,.06.008l.091.032c3.153.845,4.3,1.6,4.3,3.093ZM132.223,163.6a.244.244,0,0,0-.416.173v1.181c-4.708-.228-8.36-1.679-8.36-3.344.022-.44.07-1.185,1.952-1.831a.244.244,0,0,0,.029-.017l.038-.01a.244.244,0,1,0-.12-.473c-3.319.839-4.213,1.626-4.213,3.165,0,2.334,4.573,4.245,10.675,4.482V168a.244.244,0,0,0,.416.173l2.111-2.111a.243.243,0,0,0,0-.345Z" transform="translate(-121.132 -159.273)" fill="#278bed" fill-rule="evenodd"/>
      </g>
      <path id="Path_187558" data-name="Path 187558" d="M1.5-3.372h.6A.636.636,0,0,0,2.8-4.1a.649.649,0,0,0-.169-.463.622.622,0,0,0-.476-.179.663.663,0,0,0-.437.154.477.477,0,0,0-.186.382H.27a1.41,1.41,0,0,1,.24-.808,1.6,1.6,0,0,1,.665-.554,2.178,2.178,0,0,1,.935-.2,2.158,2.158,0,0,1,1.432.438,1.487,1.487,0,0,1,.521,1.2,1.256,1.256,0,0,1-.215.7,1.555,1.555,0,0,1-.628.534,1.47,1.47,0,0,1,.682.5,1.371,1.371,0,0,1,.247.834,1.511,1.511,0,0,1-.562,1.23A2.254,2.254,0,0,1,2.11.133a2.318,2.318,0,0,1-1-.215,1.579,1.579,0,0,1-.7-.6,1.607,1.607,0,0,1-.236-.865h1.27a.612.612,0,0,0,.2.457.694.694,0,0,0,.5.193.726.726,0,0,0,.532-.2.669.669,0,0,0,.2-.5A.785.785,0,0,0,2.68-2.2a.833.833,0,0,0-.57-.181H1.5Zm6.341-2.4v1.045H7.78a1.83,1.83,0,0,0-1.164.357,1.522,1.522,0,0,0-.56.992,1.438,1.438,0,0,1,1.079-.442,1.351,1.351,0,0,1,1.128.544,2.273,2.273,0,0,1,.42,1.427A2.092,2.092,0,0,1,8.438-.841a1.8,1.8,0,0,1-.686.716,1.894,1.894,0,0,1-.976.258A1.958,1.958,0,0,1,5.738-.145,1.874,1.874,0,0,1,5.026-.94,2.728,2.728,0,0,1,4.763-2.13v-.532a3.454,3.454,0,0,1,.362-1.595,2.7,2.7,0,0,1,1.032-1.11,2.838,2.838,0,0,1,1.488-.4ZM6.7-2.8a.7.7,0,0,0-.42.122.765.765,0,0,0-.251.3v.4q0,1.088.716,1.088a.573.573,0,0,0,.482-.272,1.15,1.15,0,0,0,.193-.682,1.128,1.128,0,0,0-.2-.688A.619.619,0,0,0,6.7-2.8Zm6.322.509a2.842,2.842,0,0,1-.5,1.794,1.679,1.679,0,0,1-1.4.631A1.688,1.688,0,0,1,9.714-.5a2.837,2.837,0,0,1-.5-1.79V-3.341a2.842,2.842,0,0,1,.5-1.794,1.683,1.683,0,0,1,1.4-.631,1.684,1.684,0,0,1,1.405.635,2.844,2.844,0,0,1,.5,1.794ZM11.756-3.51a2.141,2.141,0,0,0-.154-.925.511.511,0,0,0-.487-.306.5.5,0,0,0-.474.284,2.015,2.015,0,0,0-.159.86V-2.13a2.157,2.157,0,0,0,.154.94.512.512,0,0,0,.487.3.505.505,0,0,0,.476-.29,2.058,2.058,0,0,0,.157-.909Zm1.7-.731a1.533,1.533,0,0,1,.138-.663,1.017,1.017,0,0,1,.4-.447,1.145,1.145,0,0,1,.606-.156,1.06,1.06,0,0,1,.837.346,1.371,1.371,0,0,1,.306.942v.028a1.33,1.33,0,0,1-.307.923,1.063,1.063,0,0,1-.832.342,1.073,1.073,0,0,1-.811-.319,1.28,1.28,0,0,1-.33-.864Zm.737.048a.965.965,0,0,0,.1.506.337.337,0,0,0,.3.161q.393,0,.4-.637v-.078q0-.669-.407-.669-.369,0-.4.577Z" transform="translate(5.073 5.77)" fill="#278bed"/>
    </g>
  </g>
</svg>
