<svg xmlns="http://www.w3.org/2000/svg" xmlns:xlink="http://www.w3.org/1999/xlink" width="355" height="168" viewBox="0 0 355 168">
  <defs>
    <clipPath id="clip-path">
      <rect id="Rectangle_43347" data-name="Rectangle 43347" width="355" height="168" rx="8" transform="translate(10 5563)" fill="#fff" stroke="#efeff4" stroke-width="1"/>
    </clipPath>
    <linearGradient id="linear-gradient" x1="0.245" y1="0.18" x2="1.218" y2="1.861" gradientUnits="objectBoundingBox">
      <stop offset="0" stop-color="#afaef0"/>
      <stop offset="1" stop-color="#3da9ed"/>
    </linearGradient>
    <filter id="Rectangle_43346" x="2" y="85" width="247" height="53" filterUnits="userSpaceOnUse">
      <feOffset input="SourceAlpha"/>
      <feGaussianBlur stdDeviation="3" result="blur"/>
      <feFlood flood-opacity="0.161"/>
      <feComposite operator="in" in2="blur"/>
      <feComposite in="SourceGraphic"/>
    </filter>
  </defs>
  <g id="Mask_Group_42" data-name="Mask Group 42" transform="translate(-10 -5563)" clip-path="url(#clip-path)">
    <g id="Group_74302" data-name="Group 74302" transform="translate(5353 -15264)">
      <path id="Path_112533" data-name="Path 112533" d="M0,0H355V168H0Z" transform="translate(-5343 20827)" fill="url(#linear-gradient)"/>
      <g id="Speech_Bubble" data-name="Speech Bubble" transform="translate(-5012.669 20834.914)">
        <g id="Group_73991" data-name="Group 73991" transform="translate(0)">
          <g id="Group_73984" data-name="Group 73984" transform="translate(6.42 3.929)">
            <path id="Path_112534" data-name="Path 112534" d="M413.659,82.218h-1.894a1.61,1.61,0,0,1-1.653,1.619,1.533,1.533,0,0,1-1.485-.978,1.7,1.7,0,0,1,.135-1.534,2.055,2.055,0,0,1,2.3-.787V76.267h-1.873v2.5a3.657,3.657,0,0,0-2.627,3.574,3.4,3.4,0,0,0,3.547,3.413A3.25,3.25,0,0,0,413.659,82.218Z" transform="translate(-406.565 -73.612)" fill="#6a78d5"/>
            <rect id="Rectangle_43337" data-name="Rectangle 43337" width="1.901" height="1.775" transform="translate(4.505 1.775) rotate(180)" fill="#6a78d5"/>
          </g>
          <g id="Group_73990" data-name="Group 73990">
            <g id="Group_73989" data-name="Group 73989">
              <g id="Group_73988" data-name="Group 73988">
                <g id="Group_73987" data-name="Group 73987">
                  <g id="Group_73986" data-name="Group 73986">
                    <g id="Group_73985" data-name="Group 73985">
                      <path id="Path_112535" data-name="Path 112535" d="M404.682,64.081a.981.981,0,0,0,0-.171c0-.125-.008-.292-.014-.5-.005-.111-.005-.235-.016-.372s-.04-.285-.063-.445l-.075-.519-.144-.58a9.389,9.389,0,0,0-1.225-2.811,9.916,9.916,0,0,0-7.454-4.555,10.238,10.238,0,0,0-1.359-.028c-.23.016-.464.012-.7.045l-.7.106a9.969,9.969,0,0,0-2.766.944A10.644,10.644,0,0,0,387.689,57a10.435,10.435,0,0,0-1.87,2.6,9.454,9.454,0,0,0-.974,3.172,6.3,6.3,0,0,0-.072.846,7.615,7.615,0,0,0-.016.855,10.129,10.129,0,0,0,.217,1.713,10.011,10.011,0,0,0,1.435,3.41l-.011-.1-1.394,3.474-.083.206.214-.059,3.714-1.021-.092-.017A9.969,9.969,0,0,0,393,73.93a9.03,9.03,0,0,0,2.174.135,6.984,6.984,0,0,0,1.044-.1l.508-.079c.167-.031.329-.082.492-.122a9.936,9.936,0,0,0,5.65-3.876,9.5,9.5,0,0,0,1.217-2.307l.186-.52.125-.493.112-.451c.028-.145.043-.284.063-.415.033-.263.079-.493.089-.7s.012-.369.017-.51.005-.232.007-.312a.482.482,0,0,0,0-.106.491.491,0,0,0-.015.106c-.006.079-.014.182-.025.31s-.021.31-.034.507-.066.429-.1.689a9.879,9.879,0,0,1-7.328,7.9c-.16.038-.319.088-.484.117l-.5.075a6.869,6.869,0,0,1-1.025.092,8.851,8.851,0,0,1-2.131-.141,9.787,9.787,0,0,1-4.152-1.828l-.042-.031-.05.014L385.078,72.9l.131.147,1.4-3.472.022-.054-.032-.049a9.807,9.807,0,0,1-1.4-3.334,9.95,9.95,0,0,1-.212-1.674,7.425,7.425,0,0,1,.015-.836,6.074,6.074,0,0,1,.07-.827,9.254,9.254,0,0,1,.949-3.1,10.247,10.247,0,0,1,1.824-2.549,10.46,10.46,0,0,1,2.429-1.774,9.794,9.794,0,0,1,2.706-.934l.686-.106c.227-.034.456-.03.681-.047a9.791,9.791,0,0,1,8.7,4.458,9.449,9.449,0,0,1,1.247,2.765l.152.572.084.514.073.44c.015.135.018.259.027.369.015.212.028.378.036.5A.936.936,0,0,0,404.682,64.081Z" transform="translate(-384.752 -54.081)" fill="#263238"/>
                    </g>
                  </g>
                </g>
              </g>
            </g>
          </g>
        </g>
      </g>
      <g id="Group_74299" data-name="Group 74299">
        <g id="Group_74074" data-name="Group 74074" transform="translate(-5127.699 20837.482)" opacity="0.24">
          <g id="Group_74073" data-name="Group 74073">
            <g id="Background_Complete" data-name="Background Complete" transform="translate(0 0)">
              <g id="Group_74021" data-name="Group 74021" transform="translate(67.706 99.521)">
                <g id="Group_73995" data-name="Group 73995">
                  <g id="Group_73994" data-name="Group 73994">
                    <g id="Group_73993" data-name="Group 73993">
                      <g id="Group_73992" data-name="Group 73992">
                        <path id="Path_112536" data-name="Path 112536" d="M260.436,385.684c-5.862-2.775-8.2-9.372-9.027-15.518a6.731,6.731,0,0,1-.1-3.059,2.106,2.106,0,0,1,2.349-1.5c.818.228,1.3,1.054,1.844,1.71a6.051,6.051,0,0,0,2.779,1.88,2.305,2.305,0,0,0,2.126-.165c.8-.634.7-1.867.518-2.881q-.5-2.834-.995-5.666a9.579,9.579,0,0,1-.2-3.065,3.191,3.191,0,0,1,1.618-2.462,1.936,1.936,0,0,1,2.579.879,9.487,9.487,0,0,1,.242,1.258,1.082,1.082,0,0,0,.794.9c.425.051.782-.306,1.035-.654a13.674,13.674,0,0,0,1.8-4.066,18.975,18.975,0,0,1,1.62-4.155,5.564,5.564,0,0,1,3.364-2.714,3.331,3.331,0,0,1,3.747,1.671c.61,1.368.021,2.96-.691,4.272a22.969,22.969,0,0,1-3.955,5.292,1.892,1.892,0,0,0-.645.982c-.106.714.649,1.277,1.354,1.386a11.882,11.882,0,0,0,2.413-.134,2.313,2.313,0,0,1,2.148.86c.591.967-.092,2.2-.825,3.056a19.675,19.675,0,0,1-5.181,4.285,6.637,6.637,0,0,0-1.958,1.4,1.9,1.9,0,0,0-.237,2.252,1.939,1.939,0,0,0,2.214.447,13.719,13.719,0,0,0,2.082-1.227c1.305-.762,3.122-.97,4.219.083a3.256,3.256,0,0,1,.822,2.781,7.507,7.507,0,0,1-1.114,2.767,19.783,19.783,0,0,1-7.339,7.262,13.58,13.58,0,0,1-9.4,1.847" transform="translate(-251.157 -346.316)" fill="#f5f5f5"/>
                      </g>
                    </g>
                  </g>
                </g>
                <g id="Group_74000" data-name="Group 74000" transform="translate(10.208 0.612)">
                  <g id="Group_73999" data-name="Group 73999">
                    <g id="Group_73998" data-name="Group 73998">
                      <g id="Group_73997" data-name="Group 73997">
                        <g id="Group_73996" data-name="Group 73996">
                          <path id="Path_112537" data-name="Path 112537" d="M281.17,382.774a92.275,92.275,0,0,1,1.953-10.4l.652-2.7c.216-.885.43-1.764.693-2.61a46.144,46.144,0,0,1,1.787-4.774c.642-1.491,1.305-2.883,1.935-4.179s1.246-2.492,1.851-3.559a36.514,36.514,0,0,1,3.226-4.817c.424-.537.766-.943,1-1.214l.27-.307a.8.8,0,0,1,.1-.1.738.738,0,0,1-.082.113l-.256.319c-.226.28-.559.693-.974,1.236a38.654,38.654,0,0,0-3.167,4.838c-.6,1.068-1.2,2.265-1.826,3.562s-1.281,2.69-1.917,4.18a46.628,46.628,0,0,0-1.769,4.759c-.26.841-.471,1.712-.687,2.6l-.651,2.7a94.516,94.516,0,0,0-1.964,10.374" transform="translate(-281.17 -348.117)" fill="#e0e0e0"/>
                        </g>
                      </g>
                    </g>
                  </g>
                </g>
                <g id="Group_74005" data-name="Group 74005" transform="translate(10.187 8.637)">
                  <g id="Group_74004" data-name="Group 74004">
                    <g id="Group_74003" data-name="Group 74003">
                      <g id="Group_74002" data-name="Group 74002">
                        <g id="Group_74001" data-name="Group 74001">
                          <path id="Path_112538" data-name="Path 112538" d="M284.477,382.62a2.1,2.1,0,0,1-.172-.416c-.1-.271-.233-.668-.39-1.162-.314-.986-.7-2.362-1.123-3.881s-.828-2.887-1.156-3.865c-.163-.489-.3-.885-.4-1.156a2.085,2.085,0,0,1-.131-.431,2.014,2.014,0,0,1,.2.4c.119.264.274.653.453,1.139.362.97.791,2.337,1.212,3.858l1.07,3.894c.131.467.243.862.332,1.178A2.06,2.06,0,0,1,284.477,382.62Z" transform="translate(-281.106 -371.71)" fill="#e0e0e0"/>
                        </g>
                      </g>
                    </g>
                  </g>
                </g>
                <g id="Group_74010" data-name="Group 74010" transform="translate(13.558 14.9)">
                  <g id="Group_74009" data-name="Group 74009">
                    <g id="Group_74008" data-name="Group 74008">
                      <g id="Group_74007" data-name="Group 74007">
                        <g id="Group_74006" data-name="Group 74006">
                          <path id="Path_112539" data-name="Path 112539" d="M303.648,390.127a2.847,2.847,0,0,1-.51.15c-.33.086-.807.209-1.392.379-1.173.331-2.777.845-4.522,1.489s-3.3,1.3-4.408,1.806c-.557.249-1,.462-1.311.608a2.841,2.841,0,0,1-.488.211,2.808,2.808,0,0,1,.454-.278c.3-.166.736-.4,1.288-.664,1.1-.538,2.65-1.214,4.4-1.864a46.616,46.616,0,0,1,4.552-1.44c.592-.154,1.075-.257,1.412-.321A2.844,2.844,0,0,1,303.648,390.127Z" transform="translate(-291.018 -390.124)" fill="#e0e0e0"/>
                        </g>
                      </g>
                    </g>
                  </g>
                </g>
                <g id="Group_74015" data-name="Group 74015" transform="translate(0.943 19.455)">
                  <g id="Group_74014" data-name="Group 74014">
                    <g id="Group_74013" data-name="Group 74013">
                      <g id="Group_74012" data-name="Group 74012">
                        <g id="Group_74011" data-name="Group 74011">
                          <path id="Path_112540" data-name="Path 112540" d="M263.314,419.062a.68.68,0,0,1-.116-.144l-.3-.434c-.261-.378-.625-.935-1.066-1.629-.882-1.388-2.04-3.343-3.289-5.518s-2.388-4.139-3.239-5.543l-1.014-1.66-.273-.453a.679.679,0,0,1-.084-.166.711.711,0,0,1,.116.145l.3.434c.262.378.626.935,1.066,1.629.882,1.388,2.04,3.343,3.289,5.519s2.387,4.138,3.239,5.542l1.014,1.66.273.453A.675.675,0,0,1,263.314,419.062Z" transform="translate(-253.928 -403.515)" fill="#e0e0e0"/>
                        </g>
                      </g>
                    </g>
                  </g>
                </g>
                <g id="Group_74020" data-name="Group 74020" transform="translate(10.328 26.484)">
                  <g id="Group_74019" data-name="Group 74019">
                    <g id="Group_74018" data-name="Group 74018">
                      <g id="Group_74017" data-name="Group 74017">
                        <g id="Group_74016" data-name="Group 74016">
                          <path id="Path_112541" data-name="Path 112541" d="M297.909,424.18a.7.7,0,0,1-.16.1l-.475.254-1.754.916c-1.481.773-3.515,1.865-5.76,3.074s-4.291,2.284-5.789,3.026c-.749.372-1.357.666-1.782.861l-.49.222a.689.689,0,0,1-.177.065.724.724,0,0,1,.16-.1l.475-.253,1.754-.916c1.481-.773,3.515-1.865,5.76-3.074s4.29-2.283,5.788-3.026c.749-.372,1.357-.666,1.783-.861l.491-.222A.7.7,0,0,1,297.909,424.18Z" transform="translate(-281.522 -424.179)" fill="#e0e0e0"/>
                        </g>
                      </g>
                    </g>
                  </g>
                </g>
              </g>
              <g id="Group_74045" data-name="Group 74045" transform="translate(29.995 65.788)">
                <g id="Group_74023" data-name="Group 74023">
                  <g id="Group_74022" data-name="Group 74022">
                    <path id="Path_112542" data-name="Path 112542" d="M142.929,247.231s-4.041.562-1.772,9.413a105.8,105.8,0,0,0,4.193,13.413s.305,2-1.311,1.943-4.911-1.374-6.029.37c-1.16,1.809-.146,3.988,2.389,6.269s7.9,7.483,8.389,7.955.835,1.446-.272,1.58-8.974-.789-9.189,2.97,7.891,8.954,8.766,9.538,1.013,1.042.817,1.551-2.811-.051-5.059-.222-4.885.025-4.827,2.2,4.314,7.686,16.731,11.78l5.878,1.52,4.345-4.279c8.741-9.724,9.7-16.617,8.665-18.537s-3.418-.779-5.284.486-3.857,3.05-4.28,2.707-.531-.809-.062-1.752,4.922-9.478,2.867-12.633-8.422,1.555-9.45,1.989-1.2-.6-1.021-1.235,2.26-7.833,3.326-11.072.863-5.634-1.042-6.627c-1.837-.958-4.044,1.818-5.416,2.675s-2.1-1.034-2.1-1.034a105.742,105.742,0,0,0-3.027-13.723c-2.429-8.809-6.3-7.23-6.3-7.23" transform="translate(-137.532 -247.138)" fill="#ebebeb"/>
                  </g>
                </g>
                <g id="Group_74026" data-name="Group 74026" transform="translate(7.415 8.023)">
                  <g id="Group_74025" data-name="Group 74025">
                    <g id="Group_74024" data-name="Group 74024">
                      <path id="Path_112543" data-name="Path 112543" d="M176.01,334.541c-1.759-6.476-4.691-18.039-7.26-27.953s-4.9-18.881-6.628-25.366l-2.052-7.677-.556-2.088c-.06-.234-.106-.415-.14-.545s-.041-.187-.041-.187.023.061.06.182l.158.539.59,2.079c.511,1.806,1.232,4.424,2.11,7.662,1.759,6.476,4.113,15.442,6.682,25.353s5.481,21.481,7.207,27.966" transform="translate(-159.332 -270.726)" fill="#e0e0e0"/>
                    </g>
                  </g>
                </g>
                <g id="Group_74029" data-name="Group 74029" transform="translate(5.012 27.252)">
                  <g id="Group_74028" data-name="Group 74028">
                    <g id="Group_74027" data-name="Group 74027">
                      <path id="Path_112544" data-name="Path 112544" d="M152.268,327.26a1.97,1.97,0,0,1,.387.207c.244.143.589.361,1.014.633.848.547,2,1.331,3.256,2.22l3.206,2.287.975.686a1.976,1.976,0,0,1,.349.267,1.951,1.951,0,0,1-.389-.2c-.243-.144-.589-.361-1.011-.638-.842-.555-1.984-1.355-3.239-2.243l-3.221-2.263-.979-.682A1.982,1.982,0,0,1,152.268,327.26Z" transform="translate(-152.268 -327.259)" fill="#e0e0e0"/>
                    </g>
                  </g>
                </g>
                <g id="Group_74032" data-name="Group 74032" transform="translate(14.688 22.44)">
                  <g id="Group_74031" data-name="Group 74031">
                    <g id="Group_74030" data-name="Group 74030">
                      <path id="Path_112545" data-name="Path 112545" d="M180.716,323.938c-.044-.028,1.469-2.474,3.379-5.464s3.495-5.39,3.538-5.362-1.469,2.474-3.38,5.464S180.76,323.966,180.716,323.938Z" transform="translate(-180.715 -313.112)" fill="#e0e0e0"/>
                    </g>
                  </g>
                </g>
                <g id="Group_74035" data-name="Group 74035" transform="translate(17.947 40.838)">
                  <g id="Group_74034" data-name="Group 74034">
                    <g id="Group_74033" data-name="Group 74033">
                      <path id="Path_112546" data-name="Path 112546" d="M190.3,375.031a2.04,2.04,0,0,1,.322-.312l.917-.8c.773-.678,1.837-1.62,2.972-2.7s2.134-2.092,2.85-2.831l.848-.875a2.071,2.071,0,0,1,.327-.306,2.02,2.02,0,0,1-.273.356c-.185.221-.459.535-.805.916-.691.764-1.675,1.794-2.817,2.876s-2.22,2.013-3.016,2.666c-.4.325-.726.585-.956.757A2.037,2.037,0,0,1,190.3,375.031Z" transform="translate(-190.297 -367.203)" fill="#e0e0e0"/>
                    </g>
                  </g>
                </g>
                <g id="Group_74038" data-name="Group 74038" transform="translate(7.998 45.151)">
                  <g id="Group_74037" data-name="Group 74037">
                    <g id="Group_74036" data-name="Group 74036">
                      <path id="Path_112547" data-name="Path 112547" d="M161.047,379.885a1.763,1.763,0,0,1,.4.1l1.076.333c.906.289,2.154.7,3.528,1.166s2.616.9,3.511,1.218l1.057.389a.208.208,0,1,1-.023.07l-1.076-.333c-.906-.289-2.154-.7-3.529-1.166s-2.615-.9-3.51-1.218l-1.057-.39A1.742,1.742,0,0,1,161.047,379.885Z" transform="translate(-161.047 -379.883)" fill="#e0e0e0"/>
                    </g>
                  </g>
                </g>
                <g id="Group_74041" data-name="Group 74041" transform="translate(9.147 59.112)">
                  <g id="Group_74040" data-name="Group 74040">
                    <g id="Group_74039" data-name="Group 74039">
                      <path id="Path_112548" data-name="Path 112548" d="M164.426,420.932a2.809,2.809,0,0,1,.514.13l1.381.422c1.163.364,2.766.879,4.533,1.458s3.364,1.115,4.517,1.511l1.362.478a2.861,2.861,0,0,1,.491.2,2.886,2.886,0,0,1-.514-.13l-1.381-.422c-1.163-.364-2.767-.879-4.534-1.458s-3.363-1.115-4.516-1.511l-1.362-.478A2.866,2.866,0,0,1,164.426,420.932Z" transform="translate(-164.426 -420.93)" fill="#e0e0e0"/>
                    </g>
                  </g>
                </g>
                <g id="Group_74044" data-name="Group 74044" transform="translate(21.668 52.912)">
                  <g id="Group_74043" data-name="Group 74043">
                    <g id="Group_74042" data-name="Group 74042">
                      <path id="Path_112549" data-name="Path 112549" d="M201.238,412.917a3.256,3.256,0,0,1,.4-.405l1.126-1.059c.95-.9,2.256-2.137,3.66-3.548s2.645-2.719,3.536-3.673l1.056-1.129a3.322,3.322,0,0,1,.4-.4,3.248,3.248,0,0,1-.348.449c-.234.281-.578.682-1.012,1.17-.866.978-2.092,2.3-3.5,3.716s-2.73,2.642-3.7,3.513c-.488.434-.886.782-1.167,1.015A3.288,3.288,0,0,1,201.238,412.917Z" transform="translate(-201.238 -402.703)" fill="#e0e0e0"/>
                    </g>
                  </g>
                </g>
              </g>
              <g id="Group_74046" data-name="Group 74046" transform="translate(5.896)">
                <path id="Path_112550" data-name="Path 112550" d="M76.9,67.27l-3.319-1.036A2.955,2.955,0,0,1,69.8,68.168a2.813,2.813,0,0,1-2.066-2.526,3.116,3.116,0,0,1,1.075-2.615c.853-.753,2.35-1.212,4.464-.119L75.6,55.424,72.322,54.4l-1.368,4.384A6.714,6.714,0,0,0,64.4,63.611c-1.514,4.854,2.487,7.339,4.35,7.92C70.172,71.976,75.133,73.146,76.9,67.27Z" transform="translate(-64.062 -49.735)" fill="#f5f5f5"/>
                <rect id="Rectangle_43338" data-name="Rectangle 43338" width="3.489" height="3.259" transform="matrix(-0.955, -0.298, 0.298, -0.955, 12.033, 4.15)" fill="#f5f5f5"/>
              </g>
              <g id="Group_74047" data-name="Group 74047" transform="translate(27.149 5.861)">
                <path id="Path_112551" data-name="Path 112551" d="M128.48,61.14l1.329-.35a1.168,1.168,0,0,1,.86-1.442,1.112,1.112,0,0,1,1.223.412,1.232,1.232,0,0,1,.189,1.1,1.491,1.491,0,0,1-1.47.978l.79,3,1.314-.347-.463-1.755a2.655,2.655,0,0,0,1.182-2.995A2.471,2.471,0,0,0,130.314,58,2.359,2.359,0,0,0,128.48,61.14Z" transform="translate(-128.349 -57.916)" fill="#ebebeb"/>
                <rect id="Rectangle_43339" data-name="Rectangle 43339" width="1.38" height="1.288" transform="matrix(0.967, -0.255, 0.255, 0.967, 3.212, 7.538)" fill="#ebebeb"/>
              </g>
              <g id="Group_74048" data-name="Group 74048" transform="translate(134.295 40.394)">
                <path id="Path_112552" data-name="Path 112552" d="M451.543,165.224l1.293.468a1.168,1.168,0,0,1,1.528-.7,1.111,1.111,0,0,1,.771,1.034,1.232,1.232,0,0,1-.471,1.014,1.492,1.492,0,0,1-1.765-.033l-1.056,2.914,1.278.463.618-1.707a2.655,2.655,0,0,0,2.676-1.789,2.471,2.471,0,0,0-1.577-3.206A2.359,2.359,0,0,0,451.543,165.224Z" transform="translate(-451.183 -163.481)" fill="#ebebeb"/>
                <rect id="Rectangle_43340" data-name="Rectangle 43340" width="1.38" height="1.288" transform="translate(0.439 7.044) rotate(19.914)" fill="#ebebeb"/>
              </g>
              <g id="Group_74049" data-name="Group 74049" transform="translate(0 49.043)">
                <path id="Path_112553" data-name="Path 112553" d="M47.248,197.64l2.736-1.054a2.491,2.491,0,0,1,1.486-3.257,2.372,2.372,0,0,1,2.688.587,2.627,2.627,0,0,1,.659,2.29c-.169.944-.918,2.031-2.887,2.416l2.376,6.168,2.705-1.042-1.392-3.613a5.66,5.66,0,0,0,1.805-6.623c-1.541-4-5.486-3.547-7.022-2.955C49.228,191.009,45.337,192.834,47.248,197.64Z" transform="translate(-46.729 -190.171)" fill="#f5f5f5"/>
                <rect id="Rectangle_43341" data-name="Rectangle 43341" width="2.942" height="2.747" transform="matrix(0.933, -0.359, 0.359, 0.933, 8.059, 15.892)" fill="#f5f5f5"/>
              </g>
              <g id="Group_74050" data-name="Group 74050" transform="translate(127.731 58.835)">
                <path id="Path_112554" data-name="Path 112554" d="M440.087,232.809l-1.938.747a1.766,1.766,0,0,1-1.053,2.308,1.681,1.681,0,0,1-1.9-.416,1.862,1.862,0,0,1-.467-1.623,2.254,2.254,0,0,1,2.046-1.712l-1.684-4.371-1.917.738.986,2.56a4.011,4.011,0,0,0-1.279,4.693,3.733,3.733,0,0,0,4.976,2.095A3.564,3.564,0,0,0,440.087,232.809Z" transform="translate(-432.099 -225.023)" fill="#f5f5f5"/>
                <rect id="Rectangle_43342" data-name="Rectangle 43342" width="2.085" height="1.947" transform="translate(2.645 1.817) rotate(158.931)" fill="#f5f5f5"/>
              </g>
            </g>
            <g id="Plant" transform="translate(2.535 80.347)">
              <g id="Group_74072" data-name="Group 74072">
                <g id="Group_74053" data-name="Group 74053" transform="translate(0 25.148)">
                  <g id="Group_74052" data-name="Group 74052">
                    <g id="Group_74051" data-name="Group 74051">
                      <path id="Path_112555" data-name="Path 112555" d="M67.262,389.022c.323-1.251-.5-2.506-1.417-3.414a9.478,9.478,0,0,1-2.5-2.921c-.775-1.944.267-4.461-1.055-6.083-.778-.954-2.173-1.273-2.863-2.293a5.211,5.211,0,0,1-.621-1.822,18.5,18.5,0,0,0-4.6-8.611,16.059,16.059,0,0,0,1.805,8.3,10.553,10.553,0,0,1,1.371,3.152c.288,1.848-.743,3.752-.289,5.567.519,2.075,2.851,3.464,2.961,5.6.093,1.806-1.481,3.391-1.364,5.2a4.874,4.874,0,0,0,.8,2.142,7.172,7.172,0,0,0,6.557,3.869l3.808.133Z" transform="translate(-54.182 -363.879)" fill="#454e92"/>
                    </g>
                  </g>
                </g>
                <g id="Group_74071" data-name="Group 74071" transform="translate(3.36)">
                  <g id="Group_74062" data-name="Group 74062" transform="translate(11.158 12.065)">
                    <g id="Group_74057" data-name="Group 74057">
                      <g id="Group_74056" data-name="Group 74056">
                        <g id="Group_74055" data-name="Group 74055">
                          <g id="Group_74054" data-name="Group 74054">
                            <path id="Path_112556" data-name="Path 112556" d="M98.8,372.556a3.043,3.043,0,0,0,1.049-.023,6.353,6.353,0,0,0,1.238-.312,5.245,5.245,0,0,0,1.529-.837,2.133,2.133,0,0,0,.629-.838,3.942,3.942,0,0,0,.179-1.138,10.994,10.994,0,0,1,.089-1.232,3.4,3.4,0,0,1,.465-1.225,9.314,9.314,0,0,0,1.435-2.607,8.624,8.624,0,0,0-.1-3.338,7.088,7.088,0,0,1,.089-3.578c.408-1.191,1.244-2.267,1.662-3.609a18.284,18.284,0,0,0,.31-4.253,5.643,5.643,0,0,1,.5-2.115c.308-.674.736-1.31,1.069-2.02a14.8,14.8,0,0,0,.98-4.654q.135-1.2.273-2.434a11.906,11.906,0,0,1,.423-2.436,21.448,21.448,0,0,1,.911-2.357,7.815,7.815,0,0,0,.442-1.231,12.366,12.366,0,0,0,.123-1.31,15.423,15.423,0,0,0-.1-2.636c-.1-.879-.262-1.75-.356-2.631l-.017-.152-.02-.176-.156.078a5.881,5.881,0,0,0-2.05,1.73,9.328,9.328,0,0,0-1.26,2.321,28.619,28.619,0,0,0-1.186,4.987,13.544,13.544,0,0,1-1.565,4.606c-.417.678-.922,1.3-1.364,1.959a5.383,5.383,0,0,0-.945,2.171c-.225,1.611.662,3.026.478,4.453a4.942,4.942,0,0,1-.695,1.977c-.346.608-.752,1.173-1.138,1.74a11.2,11.2,0,0,0-1.022,1.757,5.561,5.561,0,0,0-.468,1.909c-.093,1.284.089,2.5,0,3.653a8.4,8.4,0,0,1-.94,3.13c-.461.937-.973,1.784-1.4,2.606a13.421,13.421,0,0,0-.578,1.214,5.975,5.975,0,0,0-.334,1.2,7.605,7.605,0,0,0-.028,2.174,5.478,5.478,0,0,0,1.089,2.772,2.657,2.657,0,0,0,.308.334,1.534,1.534,0,0,0,.25.212c.142.1.218.153.218.153a4.809,4.809,0,0,1-.737-.729,5.515,5.515,0,0,1-1.034-2.754,7.561,7.561,0,0,1,.049-2.142,5.879,5.879,0,0,1,.337-1.175,13.214,13.214,0,0,1,.581-1.2c.433-.815.95-1.658,1.421-2.6a8.552,8.552,0,0,0,.973-3.185c.1-1.175-.077-2.4.02-3.652a5.379,5.379,0,0,1,.459-1.845,11.013,11.013,0,0,1,1.011-1.722c.385-.563.8-1.13,1.152-1.751a5.142,5.142,0,0,0,.727-2.057c.184-1.52-.7-2.944-.468-4.442a5.168,5.168,0,0,1,.913-2.076c.435-.649.943-1.269,1.372-1.965a13.749,13.749,0,0,0,1.6-4.683,28.463,28.463,0,0,1,1.178-4.946,9.1,9.1,0,0,1,1.227-2.261,5.64,5.64,0,0,1,1.964-1.659l-.175-.1c.005.048.012.1.017.153.1.892.255,1.765.357,2.633a15.2,15.2,0,0,1,.1,2.6,12.378,12.378,0,0,1-.117,1.271,7.644,7.644,0,0,1-.427,1.187,21.678,21.678,0,0,0-.918,2.383,12.138,12.138,0,0,0-.429,2.476l-.27,2.435a14.623,14.623,0,0,1-.952,4.586c-.322.689-.748,1.327-1.066,2.023a5.867,5.867,0,0,0-.511,2.193,18.28,18.28,0,0,1-.289,4.208c-.395,1.3-1.226,2.377-1.646,3.606a7.248,7.248,0,0,0-.082,3.667,8.518,8.518,0,0,1,.123,3.275,9.289,9.289,0,0,1-1.4,2.574,3.528,3.528,0,0,0-.472,1.273,10.979,10.979,0,0,0-.08,1.247,3.868,3.868,0,0,1-.163,1.107,2.042,2.042,0,0,1-.591.8,5.239,5.239,0,0,1-1.492.841,6.577,6.577,0,0,1-1.22.331,4.887,4.887,0,0,1-.774.075C98.889,372.553,98.8,372.556,98.8,372.556Z" transform="translate(-96.868 -325.415)" fill="#454e92"/>
                          </g>
                        </g>
                      </g>
                    </g>
                    <g id="Group_74061" data-name="Group 74061" transform="translate(1.929 2.273)">
                      <g id="Group_74060" data-name="Group 74060">
                        <g id="Group_74059" data-name="Group 74059">
                          <g id="Group_74058" data-name="Group 74058">
                            <path id="Path_112557" data-name="Path 112557" d="M114.574,332.1a.453.453,0,0,0-.037.115l-.084.343c-.075.3-.164.753-.308,1.319s-.495,1.2-.79,1.989-.619,1.685-.905,2.7-.548,2.144-.817,3.352a14.106,14.106,0,0,1-1.219,3.719c-.312.619-.664,1.245-.943,1.93a8.987,8.987,0,0,0-.548,2.186,44.212,44.212,0,0,1-.821,4.607l-2.153,8.8-1.805,7.177-1.2,4.844-.313,1.32c-.03.14-.055.253-.075.345a.434.434,0,0,0-.018.12.457.457,0,0,0,.042-.113l.1-.339.358-1.309,1.271-4.825,1.856-7.164c.668-2.708,1.4-5.681,2.174-8.8a43.646,43.646,0,0,0,.819-4.627,8.787,8.787,0,0,1,.528-2.133c.269-.667.615-1.29.928-1.916a14.209,14.209,0,0,0,1.216-3.777c.261-1.212.507-2.336.786-3.35s.573-1.917.866-2.7.614-1.43.755-2.013.2-1.028.264-1.334c.024-.141.044-.255.06-.348A.443.443,0,0,0,114.574,332.1Z" transform="translate(-102.539 -332.097)" fill="#454e92"/>
                          </g>
                        </g>
                      </g>
                    </g>
                  </g>
                  <g id="Group_74070" data-name="Group 74070">
                    <g id="Group_74065" data-name="Group 74065">
                      <g id="Group_74064" data-name="Group 74064">
                        <g id="Group_74063" data-name="Group 74063">
                          <path id="Path_112558" data-name="Path 112558" d="M77.823,349.16c2.488-1.479,3.2-5.967,2.164-8.669s-2.854-5.17-3.134-8.05c-.215-2.214.51-4.487-.006-6.651-.7-2.921-3.547-5.183-3.514-8.185.018-1.685.977-3.27.9-4.952-.094-2.064-1.678-3.7-2.659-5.52-1.5-2.783-1.6-6.074-2.114-9.194s-1.7-6.463-4.469-8c-.408,2.65-1.105,4.464-.887,8.053.079,1.289,1.576,3.757,1.78,6.582.122,1.688.206,3.38.31,5.069a16.25,16.25,0,0,0,.8,4.857c.452,1.179,1.177,2.25,1.513,3.467.631,2.29-.2,4.77.312,7.09.432,1.965,1.792,3.657,2.07,5.65.39,2.8-1.422,5.709-.494,8.38.461,1.326,1.551,2.39,1.86,3.758.24,1.062-.022,2.186.2,3.253.35,1.719,3.628,3.053,5.379,2.947" transform="translate(-64.062 -289.942)" fill="#454e92"/>
                        </g>
                      </g>
                    </g>
                    <g id="Group_74069" data-name="Group 74069" transform="translate(1.612 2.63)">
                      <g id="Group_74068" data-name="Group 74068">
                        <g id="Group_74067" data-name="Group 74067">
                          <g id="Group_74066" data-name="Group 74066">
                            <path id="Path_112559" data-name="Path 112559" d="M68.8,297.675a.693.693,0,0,0,.011.149c.014.112.033.255.056.436.057.383.121.945.251,1.671s.515,1.553.816,2.545c.318.988.633,2.129.913,3.406s.521,2.689.771,4.21a17.64,17.64,0,0,0,1.275,4.76c.349.8.74,1.591,1.034,2.439a10.953,10.953,0,0,1,.524,2.688,54.224,54.224,0,0,0,.73,5.8l2.148,11.068,1.852,9.015,1.269,6.074.357,1.649.1.428a.683.683,0,0,0,.042.144.678.678,0,0,0-.017-.149c-.019-.111-.044-.253-.075-.432-.074-.4-.179-.951-.312-1.658l-1.193-6.089-1.8-9.025c-.654-3.4-1.373-7.141-2.128-11.065a54.964,54.964,0,0,1-.732-5.776,11.149,11.149,0,0,0-.543-2.742c-.3-.866-.7-1.665-1.049-2.454a17.571,17.571,0,0,1-1.281-4.7c-.258-1.518-.506-2.934-.8-4.213s-.62-2.423-.951-3.411-.7-1.81-.853-2.523-.222-1.281-.295-1.659l-.08-.432A.652.652,0,0,0,68.8,297.675Z" transform="translate(-68.802 -297.675)" fill="#454e92"/>
                          </g>
                        </g>
                      </g>
                    </g>
                  </g>
                </g>
              </g>
            </g>
          </g>
        </g>
        <g id="Question_Mark" data-name="Question Mark" transform="translate(-5094.809 20851.061)">
          <g id="Group_74082" data-name="Group 74082" transform="translate(0 0)">
            <g id="Group_74076" data-name="Group 74076">
              <g id="Group_74075" data-name="Group 74075">
                <path id="Path_112560" data-name="Path 112560" d="M145.059,129.982h19.668s0-16.513,17.161-16.809c8.913-.153,13.534,5.685,15.411,10.157a17.622,17.622,0,0,1-1.4,15.929c-3.336,5.5-10.52,11.026-23.774,8.691L172,191.768h19.447V165.792s27.275-7.051,27.275-37.108c0-28.759-23.257-34.972-35.755-35.371-6.956-.222-9.477-.521-18.078.7C153.923,95.569,144.827,108.3,145.059,129.982Z" transform="translate(-145.054 -93.11)" fill="#6270d1"/>
                <rect id="Rectangle_43343" data-name="Rectangle 43343" width="19.737" height="18.433" transform="translate(26.889 107.793)" fill="#6270d1"/>
              </g>
            </g>
            <g id="Group_74077" data-name="Group 74077" transform="translate(11.408 19.954)">
              <path id="Path_112561" data-name="Path 112561" d="M198.052,151.906a1.823,1.823,0,0,1-.294-.018c-.192-.01-.472-.064-.838-.068a17.136,17.136,0,0,0-3.084.128,22.1,22.1,0,0,0-4.452,1.047,19,19,0,0,0-2.481,1.067,13.187,13.187,0,0,0-2.426,1.571,12.03,12.03,0,0,0-1.985,2.1,19.406,19.406,0,0,0-3.249,6.472,17.033,17.033,0,0,0-.592,3.029c-.042.363-.053.646-.063.838a1.852,1.852,0,0,1-.027.294,1.81,1.81,0,0,1-.009-.294c0-.193,0-.478.03-.844a15.765,15.765,0,0,1,.539-3.057,19.53,19.53,0,0,1,1.74-4.264,19.89,19.89,0,0,1,1.493-2.28,12.083,12.083,0,0,1,2.011-2.129,13.217,13.217,0,0,1,2.459-1.588,18.8,18.8,0,0,1,2.507-1.067,21.519,21.519,0,0,1,4.49-1.018,15.911,15.911,0,0,1,3.1-.072c.367.015.647.08.838.1A1.823,1.823,0,0,1,198.052,151.906Z" transform="translate(-178.552 -151.705)" fill="#263238"/>
            </g>
            <g id="Group_74078" data-name="Group 74078" transform="translate(27.337 0.141)">
              <path id="Path_112562" data-name="Path 112562" d="M258.531,110.027a.415.415,0,0,1-.064-.077l-.172-.237-.647-.919c-.142-.2-.29-.426-.469-.662l-.614-.745-.7-.856c-.256-.3-.555-.587-.853-.9s-.609-.653-.954-.979l-1.1-.994c-.192-.17-.379-.351-.583-.52l-.634-.5c-.432-.333-.862-.7-1.33-1.031a42.573,42.573,0,0,0-6.444-3.806l-1.794-.812-1.783-.692c-.58-.24-1.173-.411-1.745-.6s-1.131-.385-1.692-.517l-1.629-.428c-.528-.14-1.053-.223-1.553-.332-.5-.094-.984-.219-1.456-.278l-1.354-.2c-.86-.147-1.65-.177-2.34-.247-.345-.027-.666-.064-.962-.078l-.811-.022-1.123-.036-.292-.014a.415.415,0,0,1-.1-.011.422.422,0,0,1,.1-.007l.293,0,1.125,0,.814.006c.3.009.619.041.965.063.691.06,1.484.081,2.348.221l1.36.185c.475.056.957.178,1.463.269s1.03.187,1.56.324l1.637.422c.564.13,1.122.335,1.7.513s1.171.359,1.753.6l1.791.692,1.8.814a41.818,41.818,0,0,1,6.464,3.834c.469.339.9.705,1.331,1.042l.634.5c.2.17.391.353.583.525l1.1,1.006c.345.33.646.677.95.991s.593.615.847.916l.7.869.6.756c.175.24.32.471.457.673l.621.939.157.246A.45.45,0,0,1,258.531,110.027Z" transform="translate(-225.328 -93.525)" fill="#263238"/>
            </g>
            <g id="Group_74079" data-name="Group 74079" transform="translate(38.324 58.869)">
              <path id="Path_112563" data-name="Path 112563" d="M277.758,265.978a1.359,1.359,0,0,1-.149.2l-.454.564c-.2.245-.442.542-.742.872s-.628.72-1.024,1.12-.815.852-1.3,1.3-1,.933-1.555,1.429a42.6,42.6,0,0,1-7.955,5.484c-.661.341-1.286.673-1.889.945-.595.289-1.162.531-1.681.749s-.994.4-1.411.559-.78.287-1.079.383l-.689.223a1.367,1.367,0,0,1-.243.066,1.343,1.343,0,0,1,.232-.1l.677-.255c.3-.106.655-.239,1.067-.411s.887-.347,1.4-.581,1.076-.472,1.667-.766c.6-.277,1.218-.613,1.875-.956,1.3-.713,2.7-1.552,4.111-2.519s2.686-1.985,3.815-2.946c.554-.491,1.088-.951,1.56-1.412s.916-.884,1.308-1.285.736-.774,1.04-1.1.56-.612.764-.851l.478-.542A1.348,1.348,0,0,1,277.758,265.978Z" transform="translate(-257.591 -265.978)" fill="#263238"/>
            </g>
            <g id="Group_74080" data-name="Group 74080" transform="translate(37.811 72.68)">
              <path id="Path_112564" data-name="Path 112564" d="M256.173,330.968c-.049,0-.089-5.47-.089-12.216s.04-12.217.089-12.217.089,5.469.089,12.217S256.222,330.968,256.173,330.968Z" transform="translate(-256.084 -306.534)" fill="#263238"/>
            </g>
            <g id="Group_74081" data-name="Group 74081" transform="translate(38.561 107.83)">
              <path id="Path_112565" data-name="Path 112565" d="M258.376,426.9c-.049,0-.089-3.839-.089-8.572s.04-8.574.089-8.574.089,3.838.089,8.574S258.425,426.9,258.376,426.9Z" transform="translate(-258.287 -409.752)" fill="#263238"/>
            </g>
          </g>
        </g>
        <g id="Group_74083" data-name="Group 74083" transform="translate(-5102.597 20851.408)">
          <path id="Path_112566" data-name="Path 112566" d="M121.137,130.243H140.8s0-16.513,17.161-16.809c8.912-.153,13.533,5.685,15.411,10.157a17.623,17.623,0,0,1-1.4,15.929c-3.336,5.5-10.646,10.5-23.9,8.164v44.345h19.447V166.053S194.8,159,194.8,128.945c0-28.759-25.79-35.439-36.83-35.439C149.525,93.506,120.766,95.547,121.137,130.243Z" transform="translate(-121.134 -93.506)" fill="#6270d1"/>
          <rect id="Rectangle_43344" data-name="Rectangle 43344" width="19.737" height="18.433" transform="translate(26.964 107.659)" fill="#b7923f"/>
          <rect id="Rectangle_43345" data-name="Rectangle 43345" width="19.737" height="18.433" transform="translate(26.964 107.659)" fill="#454e92"/>
        </g>
        <path id="Path_112567" data-name="Path 112567" d="M121.137,130.243H140.8s0-16.513,17.161-16.809c8.912-.153,13.533,5.685,15.411,10.157a17.623,17.623,0,0,1-1.4,15.929c-3.336,5.5-10.646,10.5-23.9,8.164v44.345h19.447V166.053S194.8,159,194.8,128.945c0-28.759-25.79-35.439-36.83-35.439C149.525,93.506,120.766,95.547,121.137,130.243Z" transform="translate(-5223.731 20757.902)" opacity="0.3"/>
        <g id="Character" transform="translate(-5039.901 20843.863)">
          <g id="Group_74298" data-name="Group 74298" transform="translate(0 0)">
            <g id="Group_74100" data-name="Group 74100" transform="translate(0 21.8)">
              <path id="Path_112568" data-name="Path 112568" d="M315.287,186.777c-.344.686.929,1.239,1.663,1.461a9.284,9.284,0,0,0,5.232-.5,4.687,4.687,0,0,0,1.777-1.994,13.97,13.97,0,0,0,.9-2.55S316.817,183.725,315.287,186.777Z" transform="translate(-313.708 -167.124)" fill="#9dac8c"/>
              <g id="Group_74084" data-name="Group 74084" transform="translate(1.521 16.075)" opacity="0.4">
                <path id="Path_112569" data-name="Path 112569" d="M315.287,186.777c-.344.686.929,1.239,1.663,1.461a9.284,9.284,0,0,0,5.232-.5,4.687,4.687,0,0,0,1.777-1.994,13.97,13.97,0,0,0,.9-2.55S316.817,183.725,315.287,186.777Z" transform="translate(-315.23 -183.198)"/>
              </g>
              <g id="Group_74086" data-name="Group 74086" transform="translate(23.783 15.108)">
                <path id="Path_112570" data-name="Path 112570" d="M381.127,182.725a7.715,7.715,0,0,0,4.542,1.426,3.221,3.221,0,0,0,2.162-.68c.263-.24.458-.547.729-.778.184-.157.4-.276.571-.444a.731.731,0,0,0,.251-.646,1.348,1.348,0,0,0-.47-.752,5.887,5.887,0,0,0-3.089-.481,10.591,10.591,0,0,0-3.116.611,3.548,3.548,0,0,0-2.1,1.43" transform="translate(-380.602 -180.36)" fill="#5d6653"/>
                <g id="Group_74085" data-name="Group 74085" transform="translate(0 0.005)" opacity="0.4">
                  <path id="Path_112571" data-name="Path 112571" d="M389.382,181.612a1.426,1.426,0,0,0-.6-.684,5.439,5.439,0,0,0-2.955-.549,10.591,10.591,0,0,0-3.116.611,3.547,3.547,0,0,0-2.1,1.43l.525.315a7.715,7.715,0,0,0,4.542,1.426,3.22,3.22,0,0,0,2.162-.68c.263-.24.458-.547.729-.778.184-.157.4-.276.571-.444A.731.731,0,0,0,389.382,181.612Z" transform="translate(-380.602 -180.374)" fill="#5d6653"/>
                </g>
              </g>
              <path id="Path_112572" data-name="Path 112572" d="M319.364,165.694l16.977.222a.218.218,0,0,0,.21-.285l-1.991-6.212s.293-3.1.7-6.839c.616-5.668,1.434-12.8,1.445-12.776-1.16-3.254-8.011-3.809-8.011-3.809l-7.809.464-.275-.458-2.247,1.045a10.386,10.386,0,0,0-1.41.795c-1.483.994-5.061,3.269-5.713,5.809-1.508,5.872,1.046,12.427,1.046,12.427l1.639-1.281a11.507,11.507,0,0,1,1.3-.869l3.29,8.815a1.554,1.554,0,0,0-.714,1.132,1.752,1.752,0,0,0,1.562,1.82" transform="translate(-310.763 -135.996)" fill="#9dac8c"/>
              <g id="Group_74087" data-name="Group 74087" transform="translate(13.664 10.504)" opacity="0.3">
                <path id="Path_112573" data-name="Path 112573" d="M353.1,175.641a31.451,31.451,0,0,0-.033-8.8c-.943,2.4-.908,5.1-1.906,7.472a3.194,3.194,0,0,0-.266.787.879.879,0,0,0,.227.768c.271.248.675.114,1.04.07a3.974,3.974,0,0,0,.937-.3" transform="translate(-350.887 -166.842)"/>
              </g>
              <g id="Group_74088" data-name="Group 74088" transform="translate(9.397 23.85)" opacity="0.4">
                <path id="Path_112574" data-name="Path 112574" d="M338.585,208.184c1.371.475,2.812-.406,4.254-.563a10.726,10.726,0,0,1,2.853.269,21.329,21.329,0,0,0,5.79.142,2.216,2.216,0,0,0,.852-.22,1.027,1.027,0,0,0,.445-.845c-3.206-.329-6.412-.525-9.618-.854a6.046,6.046,0,0,0-2.4.076,5.769,5.769,0,0,0-2.4,1.812" transform="translate(-338.357 -206.03)"/>
              </g>
              <path id="Path_112575" data-name="Path 112575" d="M385.464,157.947c-1.388-3.12-6.275-11.757-6.275-11.757l-3.785,4.745.883,9.314s2-2.231,7.586-2.276a2.739,2.739,0,0,1,2.08,1.1Z" transform="translate(-353.391 -142.719)" fill="#9dac8c"/>
              <g id="Group_74089" data-name="Group 74089" transform="translate(8.242 9.46)">
                <path id="Path_112576" data-name="Path 112576" d="M336.076,167.9a25.676,25.676,0,0,1-1.1-4.12,25.7,25.7,0,0,1,1.1,4.12Z" transform="translate(-334.965 -163.776)" fill="#263238"/>
              </g>
              <g id="Group_74090" data-name="Group 74090" transform="translate(21.727 7.584)">
                <path id="Path_112577" data-name="Path 112577" d="M374.564,158.268a2.293,2.293,0,0,1,.35.3,9.591,9.591,0,0,1,.843.927,8.938,8.938,0,0,1,1.807,3.7,6.914,6.914,0,0,1,.109,2.281c-.088.7-.221,1.309-.307,1.828s-.143.939-.17,1.231a3.05,3.05,0,0,1-.047.455,1.818,1.818,0,0,1-.021-.459,10.8,10.8,0,0,1,.115-1.247c.07-.523.191-1.141.268-1.828a7.007,7.007,0,0,0-.119-2.225,9.362,9.362,0,0,0-1.733-3.658C375.029,158.73,374.538,158.294,374.564,158.268Z" transform="translate(-374.563 -158.267)" fill="#263238"/>
              </g>
              <g id="Group_74091" data-name="Group 74091" transform="translate(9.365 26.193)">
                <path id="Path_112578" data-name="Path 112578" d="M347.16,215.673a1.583,1.583,0,0,1-.369.108,3.547,3.547,0,0,1-.443.086,5.965,5.965,0,0,1-.594.073,8.8,8.8,0,0,1-1.559-.009,9.261,9.261,0,0,1-3.631-1.127,8.778,8.778,0,0,1-1.29-.876,5.921,5.921,0,0,1-.449-.4,3.556,3.556,0,0,1-.316-.322,1.592,1.592,0,0,1-.244-.3c.026-.025.391.384,1.087.917a9.786,9.786,0,0,0,1.291.831,9.788,9.788,0,0,0,3.569,1.108,9.79,9.79,0,0,0,1.534.046C346.62,215.768,347.153,215.638,347.16,215.673Z" transform="translate(-338.264 -212.91)" fill="#263238"/>
              </g>
              <g id="Group_74092" data-name="Group 74092" transform="translate(22.427 27.013)">
                <path id="Path_112579" data-name="Path 112579" d="M377.7,215.32a1.2,1.2,0,0,1,.131.5,3.069,3.069,0,0,1-.092,1.241,2.163,2.163,0,0,1-.667,1.055.941.941,0,0,1-.449.256c-.015-.026.15-.129.363-.347a2.414,2.414,0,0,0,.583-1.014A6.62,6.62,0,0,0,377.7,215.32Z" transform="translate(-376.619 -215.32)" fill="#263238"/>
              </g>
              <g id="Group_74093" data-name="Group 74093" transform="translate(21.849 28.213)">
                <path id="Path_112580" data-name="Path 112580" d="M375.654,218.843a1.851,1.851,0,0,1-.729,1.879c-.038-.037.28-.376.477-.9S375.6,218.845,375.654,218.843Z" transform="translate(-374.922 -218.843)" fill="#263238"/>
              </g>
              <g id="Group_74094" data-name="Group 74094" transform="translate(18.333 17.005)">
                <path id="Path_112581" data-name="Path 112581" d="M365.806,185.933a89.247,89.247,0,0,0-1.2,1.75,3.16,3.16,0,0,1,1.2-1.75Z" transform="translate(-364.598 -185.93)" fill="#263238"/>
              </g>
              <g id="Group_74095" data-name="Group 74095" transform="translate(2.22 6.613)">
                <path id="Path_112582" data-name="Path 112582" d="M322.952,157.563a8.591,8.591,0,0,1-.753-.5,9.7,9.7,0,0,0-4.022-1.5,8.606,8.606,0,0,1-.9-.116,3.142,3.142,0,0,1,.91-.008,8.144,8.144,0,0,1,4.079,1.523A3.154,3.154,0,0,1,322.952,157.563Z" transform="translate(-317.282 -155.416)" fill="#263238"/>
              </g>
              <g id="Group_74096" data-name="Group 74096" transform="translate(22.783 3.357)">
                <path id="Path_112583" data-name="Path 112583" d="M380.683,145.854a9.933,9.933,0,0,0-3.014,3.58,2.1,2.1,0,0,1,.237-.661,6.751,6.751,0,0,1,2.166-2.573A2.1,2.1,0,0,1,380.683,145.854Z" transform="translate(-377.666 -145.853)" fill="#263238"/>
              </g>
              <g id="Group_74097" data-name="Group 74097" transform="translate(8.944 0.552)">
                <path id="Path_112584" data-name="Path 112584" d="M346.872,137.618a.647.647,0,0,1,.077.157,2.925,2.925,0,0,1,.159.478,4.04,4.04,0,0,1-.006,1.844,4.533,4.533,0,0,1-1.389,2.347,4.71,4.71,0,0,1-3.133,1.116,5.3,5.3,0,0,1-3.163-1.057,6.05,6.05,0,0,1-1.741-2.11,6.435,6.435,0,0,1-.58-1.752,4.68,4.68,0,0,1-.061-.5.646.646,0,0,1,0-.175c.018,0,.039.238.132.66a6.976,6.976,0,0,0,.624,1.709,6.06,6.06,0,0,0,1.727,2.036,5.2,5.2,0,0,0,3.067,1.011,4.59,4.59,0,0,0,3.025-1.061,4.474,4.474,0,0,0,1.375-2.253,4.179,4.179,0,0,0,.061-1.8C346.955,137.845,346.851,137.626,346.872,137.618Z" transform="translate(-337.026 -137.618)" fill="#263238"/>
              </g>
              <g id="Group_74098" data-name="Group 74098" transform="translate(18.341 17.12)" opacity="0.3">
                <path id="Path_112585" data-name="Path 112585" d="M366.26,186.76c-.005-.17-.027-.371-.175-.456a.335.335,0,0,0-.309.005.867.867,0,0,0-.247.2,4.166,4.166,0,0,0-.91,1.454l1.669-.144C366.278,187.471,366.271,187.112,366.26,186.76Z" transform="translate(-364.62 -186.269)"/>
              </g>
              <g id="Group_74099" data-name="Group 74099" transform="translate(24.312 11.513)" opacity="0.3">
                <path id="Path_112586" data-name="Path 112586" d="M383.365,172.39a5.464,5.464,0,0,0-1.21-2.587,8.533,8.533,0,0,1,.074,5.3l.087-.226C382.78,173.935,383.493,173.344,383.365,172.39Z" transform="translate(-382.155 -169.803)"/>
              </g>
            </g>
            <g id="Group_74120" data-name="Group 74120" transform="translate(13.483 114.38)">
              <g id="Group_74101" data-name="Group 74101">
                <path id="Path_112587" data-name="Path 112587" d="M359.06,408.536l-1.019,15.275-6.641-.078-1.046-15.88Z" transform="translate(-350.355 -407.852)" fill="#ffbe9d"/>
              </g>
              <g id="Group_74119" data-name="Group 74119" transform="translate(0.574 13.789)">
                <g id="Group_74118" data-name="Group 74118">
                  <g id="Group_74103" data-name="Group 74103">
                    <g id="Group_74102" data-name="Group 74102">
                      <path id="Path_112588" data-name="Path 112588" d="M359.342,448.5v.442s7.486,3.013,7.564,4.434l-14.868-.087.231-4.946A8.5,8.5,0,0,0,359.342,448.5Z" transform="translate(-352.04 -448.344)" fill="#48622b"/>
                    </g>
                  </g>
                  <g id="Group_74106" data-name="Group 74106" transform="translate(1.291 1.566)">
                    <g id="Group_74105" data-name="Group 74105">
                      <g id="Group_74104" data-name="Group 74104">
                        <path id="Path_112589" data-name="Path 112589" d="M356.268,452.968a.607.607,0,0,0-.424.691.583.583,0,0,0,.68.426.64.64,0,0,0,.445-.734.605.605,0,0,0-.757-.365" transform="translate(-355.832 -452.943)" fill="#fff"/>
                      </g>
                    </g>
                  </g>
                  <g id="Group_74108" data-name="Group 74108" transform="translate(0 3.757)">
                    <g id="Group_74107" data-name="Group 74107">
                      <path id="Path_112590" data-name="Path 112590" d="M352.04,460.566l.056-1.189,14.23.519s.66.292.583.758Z" transform="translate(-352.04 -459.376)" fill="#263238"/>
                    </g>
                  </g>
                  <g id="Group_74111" data-name="Group 74111" transform="translate(5.996 0.573)">
                    <g id="Group_74110" data-name="Group 74110">
                      <g id="Group_74109" data-name="Group 74109">
                        <path id="Path_112591" data-name="Path 112591" d="M371.006,450.1c0,.073-.366.1-.725.335s-.55.535-.617.506c-.067-.014.044-.448.483-.72S371.022,450.03,371.006,450.1Z" transform="translate(-369.646 -450.028)" fill="#263238"/>
                      </g>
                    </g>
                  </g>
                  <g id="Group_74114" data-name="Group 74114" transform="translate(7.92 1.266)">
                    <g id="Group_74113" data-name="Group 74113">
                      <g id="Group_74112" data-name="Group 74112">
                        <path id="Path_112592" data-name="Path 112592" d="M376.288,452.092c.016.071-.3.192-.547.5s-.321.63-.394.626-.116-.414.2-.789S376.287,452.023,376.288,452.092Z" transform="translate(-375.296 -452.062)" fill="#263238"/>
                      </g>
                    </g>
                  </g>
                  <g id="Group_74117" data-name="Group 74117" transform="translate(9.7 1.918)">
                    <g id="Group_74116" data-name="Group 74116">
                      <g id="Group_74115" data-name="Group 74115">
                        <path id="Path_112593" data-name="Path 112593" d="M380.61,455.226c-.066.015-.165-.348.024-.745s.529-.553.559-.492-.181.272-.331.6S380.682,455.219,380.61,455.226Z" transform="translate(-380.525 -453.977)" fill="#263238"/>
                      </g>
                    </g>
                  </g>
                </g>
              </g>
            </g>
            <g id="Group_74227" data-name="Group 74227" transform="translate(3.544)">
              <path id="Path_112594" data-name="Path 112594" d="M343.434,75.342a2.413,2.413,0,0,0-.91-2.72,3.953,3.953,0,0,0-2.95-.58,11.741,11.741,0,0,0-2.909,1,3.284,3.284,0,0,0-5.574,1.82,2.087,2.087,0,0,0-2.473,2.741l4.6,1.617,5.027,8.843a4.022,4.022,0,0,0,5.918-5.347,3.451,3.451,0,0,0,.706-.873,3.524,3.524,0,0,0,1.627-2.178A3.72,3.72,0,0,0,343.434,75.342Z" transform="translate(-326.001 -71.979)" fill="#263238"/>
              <g id="Group_74221" data-name="Group 74221" transform="translate(0 2.397)">
                <g id="Group_74198" data-name="Group 74198" transform="translate(3.024)">
                  <g id="Group_74197" data-name="Group 74197">
                    <g id="Group_74195" data-name="Group 74195" transform="translate(0 0.874)">
                      <g id="Group_74194" data-name="Group 74194">
                        <g id="Group_74193" data-name="Group 74193">
                          <g id="Group_74192" data-name="Group 74192">
                            <g id="Group_74177" data-name="Group 74177">
                              <g id="Group_74176" data-name="Group 74176">
                                <g id="Group_74175" data-name="Group 74175">
                                  <g id="Group_74127" data-name="Group 74127">
                                    <g id="Group_74126" data-name="Group 74126">
                                      <g id="Group_74125" data-name="Group 74125">
                                        <g id="Group_74124" data-name="Group 74124">
                                          <g id="Group_74123" data-name="Group 74123">
                                            <g id="Group_74122" data-name="Group 74122">
                                              <g id="Group_74121" data-name="Group 74121">
                                                <path id="Path_112595" data-name="Path 112595" d="M341.411,100.113c-.286-1.439-.485-2.425-.482-2.415s2.714-1.057,2.527-4.848a40.043,40.043,0,0,0-1.479-7.271c-.6-2.172-2.625-4.567-4.77-3.874l-6.485,3.167c-.651.21-.766.822-.612,1.489l.011.325,2.523,10.44,1.066,4.666a3.942,3.942,0,0,0,4.4,2.99h0A3.942,3.942,0,0,0,341.411,100.113Z" transform="translate(-330.048 -81.583)" fill="#ffbe9d"/>
                                              </g>
                                            </g>
                                          </g>
                                        </g>
                                      </g>
                                    </g>
                                  </g>
                                  <g id="Group_74143" data-name="Group 74143" transform="translate(9.739 5.463)">
                                    <g id="Group_74134" data-name="Group 74134" transform="translate(1.205 0.715)">
                                      <g id="Group_74133" data-name="Group 74133">
                                        <g id="Group_74132" data-name="Group 74132">
                                          <g id="Group_74131" data-name="Group 74131">
                                            <g id="Group_74130" data-name="Group 74130">
                                              <g id="Group_74129" data-name="Group 74129">
                                                <g id="Group_74128" data-name="Group 74128">
                                                  <path id="Path_112596" data-name="Path 112596" d="M363.125,100.065a.481.481,0,0,1-.354.57.46.46,0,0,1-.574-.322.482.482,0,0,1,.354-.57A.461.461,0,0,1,363.125,100.065Z" transform="translate(-362.184 -99.725)" fill="#263238"/>
                                                </g>
                                              </g>
                                            </g>
                                          </g>
                                        </g>
                                      </g>
                                    </g>
                                    <g id="Group_74142" data-name="Group 74142">
                                      <g id="Group_74141" data-name="Group 74141">
                                        <g id="Group_74140" data-name="Group 74140">
                                          <g id="Group_74139" data-name="Group 74139">
                                            <g id="Group_74138" data-name="Group 74138">
                                              <g id="Group_74137" data-name="Group 74137">
                                                <g id="Group_74136" data-name="Group 74136">
                                                  <g id="Group_74135" data-name="Group 74135">
                                                    <path id="Path_112597" data-name="Path 112597" d="M360.512,97.955c-.046.074-.457-.115-.963-.008s-.824.439-.892.388c-.033-.022,0-.145.141-.3a1.317,1.317,0,0,1,.7-.387,1.267,1.267,0,0,1,.783.083C360.459,97.821,360.535,97.922,360.512,97.955Z" transform="translate(-358.646 -97.625)" fill="#263238"/>
                                                  </g>
                                                </g>
                                              </g>
                                            </g>
                                          </g>
                                        </g>
                                      </g>
                                    </g>
                                  </g>
                                  <g id="Group_74159" data-name="Group 74159" transform="translate(4.842 6.663)">
                                    <g id="Group_74150" data-name="Group 74150" transform="translate(1.174 0.645)">
                                      <g id="Group_74149" data-name="Group 74149">
                                        <g id="Group_74148" data-name="Group 74148">
                                          <g id="Group_74147" data-name="Group 74147">
                                            <g id="Group_74146" data-name="Group 74146">
                                              <g id="Group_74145" data-name="Group 74145">
                                                <g id="Group_74144" data-name="Group 74144">
                                                  <path id="Path_112598" data-name="Path 112598" d="M348.656,103.383a.481.481,0,0,1-.354.57.46.46,0,0,1-.574-.322.481.481,0,0,1,.353-.57A.46.46,0,0,1,348.656,103.383Z" transform="translate(-347.715 -103.043)" fill="#263238"/>
                                                </g>
                                              </g>
                                            </g>
                                          </g>
                                        </g>
                                      </g>
                                    </g>
                                    <g id="Group_74158" data-name="Group 74158">
                                      <g id="Group_74157" data-name="Group 74157">
                                        <g id="Group_74156" data-name="Group 74156">
                                          <g id="Group_74155" data-name="Group 74155">
                                            <g id="Group_74154" data-name="Group 74154">
                                              <g id="Group_74153" data-name="Group 74153">
                                                <g id="Group_74152" data-name="Group 74152">
                                                  <g id="Group_74151" data-name="Group 74151">
                                                    <path id="Path_112599" data-name="Path 112599" d="M346.134,101.48c-.046.074-.458-.115-.963-.008s-.824.439-.892.388c-.033-.022,0-.145.141-.3a1.318,1.318,0,0,1,.7-.387,1.27,1.27,0,0,1,.783.083C346.081,101.347,346.157,101.447,346.134,101.48Z" transform="translate(-344.268 -101.15)" fill="#263238"/>
                                                  </g>
                                                </g>
                                              </g>
                                            </g>
                                          </g>
                                        </g>
                                      </g>
                                    </g>
                                  </g>
                                  <g id="Group_74167" data-name="Group 74167" transform="translate(8.154 6.026)">
                                    <g id="Group_74166" data-name="Group 74166">
                                      <g id="Group_74165" data-name="Group 74165">
                                        <g id="Group_74164" data-name="Group 74164">
                                          <g id="Group_74163" data-name="Group 74163">
                                            <g id="Group_74162" data-name="Group 74162">
                                              <g id="Group_74161" data-name="Group 74161">
                                                <g id="Group_74160" data-name="Group 74160">
                                                  <path id="Path_112600" data-name="Path 112600" d="M355.111,103.448a3.422,3.422,0,0,1,.791-.321c.126-.041.243-.092.247-.185a.67.67,0,0,0-.167-.365l-.589-.9a17.249,17.249,0,0,1-1.4-2.4,17.33,17.33,0,0,1,1.588,2.277l.574.914a.763.763,0,0,1,.173.493.332.332,0,0,1-.173.234.9.9,0,0,1-.213.077A3.377,3.377,0,0,1,355.111,103.448Z" transform="translate(-353.992 -99.278)" fill="#263238"/>
                                                </g>
                                              </g>
                                            </g>
                                          </g>
                                        </g>
                                      </g>
                                    </g>
                                  </g>
                                  <g id="Group_74174" data-name="Group 74174" transform="translate(5.691 15.835)">
                                    <g id="Group_74173" data-name="Group 74173">
                                      <g id="Group_74172" data-name="Group 74172">
                                        <g id="Group_74171" data-name="Group 74171">
                                          <g id="Group_74170" data-name="Group 74170">
                                            <g id="Group_74169" data-name="Group 74169">
                                              <g id="Group_74168" data-name="Group 74168">
                                                <path id="Path_112601" data-name="Path 112601" d="M351.95,128.362a9.536,9.536,0,0,1-5.189-.28s1.783,2.329,5.383,1.216Z" transform="translate(-346.761 -128.082)" fill="#eb996e"/>
                                              </g>
                                            </g>
                                          </g>
                                        </g>
                                      </g>
                                    </g>
                                  </g>
                                </g>
                              </g>
                            </g>
                            <g id="Group_74184" data-name="Group 74184" transform="translate(4.488 5.991)">
                              <g id="Group_74183" data-name="Group 74183">
                                <g id="Group_74182" data-name="Group 74182">
                                  <g id="Group_74181" data-name="Group 74181">
                                    <g id="Group_74180" data-name="Group 74180">
                                      <g id="Group_74179" data-name="Group 74179">
                                        <g id="Group_74178" data-name="Group 74178">
                                          <path id="Path_112602" data-name="Path 112602" d="M345.544,99.457c-.033.146-.554.142-1.148.288s-1.061.37-1.156.254c-.043-.056.026-.2.206-.356a2.058,2.058,0,0,1,1.755-.413C345.433,99.292,345.558,99.388,345.544,99.457Z" transform="translate(-343.228 -99.176)" fill="#263238"/>
                                        </g>
                                      </g>
                                    </g>
                                  </g>
                                </g>
                              </g>
                            </g>
                            <g id="Group_74191" data-name="Group 74191" transform="translate(9.352 3.838)">
                              <g id="Group_74190" data-name="Group 74190">
                                <g id="Group_74189" data-name="Group 74189">
                                  <g id="Group_74188" data-name="Group 74188">
                                    <g id="Group_74187" data-name="Group 74187">
                                      <g id="Group_74186" data-name="Group 74186">
                                        <g id="Group_74185" data-name="Group 74185">
                                          <path id="Path_112603" data-name="Path 112603" d="M359.571,93.2c-.081.137-.519.1-1.016.2s-.9.269-1.022.169c-.055-.049-.013-.178.148-.326a1.63,1.63,0,0,1,.785-.361,1.611,1.611,0,0,1,.857.061C359.523,93.025,359.605,93.131,359.571,93.2Z" transform="translate(-357.51 -92.852)" fill="#263238"/>
                                        </g>
                                      </g>
                                    </g>
                                  </g>
                                </g>
                              </g>
                            </g>
                          </g>
                        </g>
                      </g>
                    </g>
                    <g id="Group_74196" data-name="Group 74196" transform="translate(2.071)">
                      <path id="Path_112604" data-name="Path 112604" d="M336.326,80.74a2.565,2.565,0,0,0,3.478,1.865c.539-.219,1.1-.63,1.643-.432.576.208.756.974,1.291,1.273.763.427,1.683-.313,2.555-.24a3.468,3.468,0,0,1,1.722,1,1.785,1.785,0,0,0,1.855.457,7.594,7.594,0,0,0-.6-1.64,2.555,2.555,0,0,0-1.247-1.18,9.58,9.58,0,0,1-.909-.3c-.615-.316-.89-1.03-1.338-1.557a2.812,2.812,0,0,0-2.386-.956,15.416,15.416,0,0,1-2.177.415c-.548-.023-1.072-.267-1.62-.257a3.388,3.388,0,0,0-2.46,1.841" transform="translate(-336.129 -79.017)" fill="#263238"/>
                    </g>
                  </g>
                </g>
                <path id="Path_112605" data-name="Path 112605" d="M330.05,83.537a3.525,3.525,0,0,1-1.821-.487,2.873,2.873,0,0,0-2.739-.9,2.371,2.371,0,0,0-1.709,2.269,3.408,3.408,0,0,0-2.486,2.442,3.952,3.952,0,0,0,.851,3.577,7.074,7.074,0,0,1,.559.809,5.787,5.787,0,0,0-.606.918c-.778,1.723,1.334,2.383,1.334,2.383.006,1.158,1.073,1.153,1.758,1.149.659,0,1.064,1.823,1.6,1.752l-.541-5.64a.705.705,0,0,0,.25.045c1.291.023.954-2.419.536-3.051A7.313,7.313,0,0,0,328,87.247a5.278,5.278,0,0,0,.05-2.611A6.1,6.1,0,0,0,330.05,83.537Z" transform="translate(-321.17 -81.033)" fill="#263238"/>
                <g id="Group_74220" data-name="Group 74220" transform="translate(3.114 10.234)">
                  <g id="Group_74208" data-name="Group 74208">
                    <g id="Group_74207" data-name="Group 74207">
                      <g id="Group_74206" data-name="Group 74206">
                        <g id="Group_74205" data-name="Group 74205">
                          <g id="Group_74204" data-name="Group 74204">
                            <g id="Group_74203" data-name="Group 74203">
                              <g id="Group_74202" data-name="Group 74202">
                                <g id="Group_74201" data-name="Group 74201">
                                  <g id="Group_74200" data-name="Group 74200">
                                    <g id="Group_74199" data-name="Group 74199">
                                      <path id="Path_112606" data-name="Path 112606" d="M332.469,109.911a1.093,1.093,0,0,0-1.756-.586,1.5,1.5,0,0,0-.316,1.6,1.7,1.7,0,0,0,2.626,1.124C333.016,112.015,332.7,110.817,332.469,109.911Z" transform="translate(-330.313 -109.069)" fill="#ffbe9d"/>
                                    </g>
                                  </g>
                                </g>
                              </g>
                            </g>
                          </g>
                        </g>
                      </g>
                    </g>
                  </g>
                  <g id="Group_74219" data-name="Group 74219" transform="translate(0.607 0.682)">
                    <g id="Group_74218" data-name="Group 74218">
                      <g id="Group_74217" data-name="Group 74217">
                        <g id="Group_74216" data-name="Group 74216">
                          <g id="Group_74215" data-name="Group 74215">
                            <g id="Group_74214" data-name="Group 74214">
                              <g id="Group_74213" data-name="Group 74213">
                                <g id="Group_74212" data-name="Group 74212">
                                  <g id="Group_74211" data-name="Group 74211">
                                    <g id="Group_74210" data-name="Group 74210">
                                      <g id="Group_74209" data-name="Group 74209">
                                        <path id="Path_112607" data-name="Path 112607" d="M333.322,112.712c-.012,0-.032.036-.089.082a.394.394,0,0,1-.284.078c-.253-.027-.54-.346-.65-.738a1.3,1.3,0,0,1-.03-.573.455.455,0,0,1,.214-.365.2.2,0,0,1,.252.048c.045.054.042.1.054.1s.038-.049,0-.135a.252.252,0,0,0-.121-.116.3.3,0,0,0-.225,0,.554.554,0,0,0-.314.44,1.343,1.343,0,0,0,.021.644c.125.438.455.795.795.807a.42.42,0,0,0,.334-.145C333.331,112.766,333.33,112.714,333.322,112.712Z" transform="translate(-332.097 -111.071)" fill="#eb996e"/>
                                      </g>
                                    </g>
                                  </g>
                                </g>
                              </g>
                            </g>
                          </g>
                        </g>
                      </g>
                    </g>
                  </g>
                </g>
              </g>
              <g id="Group_74222" data-name="Group 74222" transform="translate(6.497 3.825)">
                <path id="Path_112608" data-name="Path 112608" d="M350.779,89.8c-.014-.017.2-.153.478-.5a3.222,3.222,0,0,0,.685-1.7,3.136,3.136,0,0,0-.122-1.263,2.71,2.71,0,0,0-.778-1.21,3.2,3.2,0,0,0-3.13-.609c-.1.033-.2.084-.295.124s-.181.1-.268.152l-.135.076,0-.15a1.107,1.107,0,0,0-.276-.715,1.759,1.759,0,0,0-.629-.45,2.321,2.321,0,0,0-1.462-.107c-.94.213-1.737.643-2.49.729a2.408,2.408,0,0,1-1.7-.341,1.387,1.387,0,0,1-.333-.341.6.6,0,0,1-.076-.147,1.955,1.955,0,0,0,.446.434,2.4,2.4,0,0,0,1.645.276,5.9,5.9,0,0,0,1.144-.33,10.326,10.326,0,0,1,1.329-.436,2.95,2.95,0,0,1,.77-.077,2.373,2.373,0,0,1,.793.183,1.927,1.927,0,0,1,.694.493,1.282,1.282,0,0,1,.319.83l-.137-.074c.093-.053.186-.111.286-.163s.2-.1.314-.132a3.347,3.347,0,0,1,3.3.655,2.842,2.842,0,0,1,.809,1.288,3.223,3.223,0,0,1,.106,1.32,3.185,3.185,0,0,1-.756,1.734,2.272,2.272,0,0,1-.38.352A.681.681,0,0,1,350.779,89.8Z" transform="translate(-340.247 -83.212)" fill="#455a64"/>
              </g>
              <g id="Group_74223" data-name="Group 74223" transform="translate(6.767 1.426)">
                <path id="Path_112609" data-name="Path 112609" d="M350.857,77.452a2.428,2.428,0,0,0-.705-.242,1.859,1.859,0,0,0-.838.076,1.655,1.655,0,0,0-.863.627l-.083.121-.051-.136a2.562,2.562,0,0,0-2.077-1.543,3.308,3.308,0,0,0-2,.577,8.852,8.852,0,0,1-1.583.819,2.49,2.49,0,0,1-1.2.141,1.509,1.509,0,0,1-.318-.087c-.069-.03-.1-.048-.1-.054s.152.045.428.073a2.6,2.6,0,0,0,1.147-.19,9.565,9.565,0,0,0,1.543-.842,5.421,5.421,0,0,1,.954-.466,2.6,2.6,0,0,1,1.144-.146,2.686,2.686,0,0,1,2.2,1.664l-.134-.016a1.761,1.761,0,0,1,.952-.661,1.881,1.881,0,0,1,.89-.044,1.6,1.6,0,0,1,.534.2C350.81,77.4,350.861,77.447,350.857,77.452Z" transform="translate(-341.041 -76.166)" fill="#455a64"/>
              </g>
              <path id="Path_112610" data-name="Path 112610" d="M354.268,114.133a.742.742,0,0,0-.6-.174.876.876,0,0,0-.574.419l-.009.013c-.005.01-.014.018-.019.028l.008-.006a.42.42,0,0,0-.064.257.618.618,0,0,0,.356.46.783.783,0,0,0,.892-.129A.639.639,0,0,0,354.268,114.133Z" transform="translate(-342.167 -99.66)" fill="#e8505b"/>
              <g id="Group_74224" data-name="Group 74224" transform="translate(10.731 14.614)">
                <path id="Path_112611" data-name="Path 112611" d="M354.221,115.812c-.026.005-.06-.1-.15-.243a1.068,1.068,0,0,0-1.105-.5c-.167.026-.269.07-.283.047s.071-.106.252-.169a1.008,1.008,0,0,1,1.247.567C354.254,115.689,354.243,115.809,354.221,115.812Z" transform="translate(-352.682 -114.893)" fill="#263238"/>
              </g>
              <g id="Group_74225" data-name="Group 74225" transform="translate(4 15.44)">
                <path id="Path_112612" data-name="Path 112612" d="M334.236,117.832c.016-.011.1.17-.03.428a.694.694,0,0,1-.363.328.7.7,0,0,1-.925-.582.694.694,0,0,1,.139-.469c.178-.226.376-.232.374-.212s-.15.077-.269.282a.613.613,0,0,0-.081.382.568.568,0,0,0,.708.445.613.613,0,0,0,.31-.238C334.23,118,334.206,117.833,334.236,117.832Z" transform="translate(-332.916 -117.318)" fill="#e8505b"/>
              </g>
              <g id="Group_74226" data-name="Group 74226" transform="translate(3.394 15.187)">
                <path id="Path_112613" data-name="Path 112613" d="M331.913,117.212c.019.009-.01.116-.158.188a.43.43,0,0,1-.283.028.454.454,0,0,1-.312-.576.43.43,0,0,1,.178-.222c.142-.084.248-.05.245-.03s-.084.044-.168.129a.324.324,0,0,0,.3.552C331.83,117.258,331.892,117.2,331.913,117.212Z" transform="translate(-331.137 -116.577)" fill="#e8505b"/>
              </g>
            </g>
            <g id="Group_74236" data-name="Group 74236" transform="translate(3.849 17.625)">
              <path id="Path_112614" data-name="Path 112614" d="M344.366,189.8s8.432.489,13.415.535c3.86.035,5.581-.99,6.353-3.47.648-2.082-.744-6.076-.744-6.076a12.9,12.9,0,0,0-5.9,1.16l.448,1.826-13.594,1.172Z" transform="translate(-336.756 -161.362)" fill="#ffbe9d"/>
              <g id="Group_74228" data-name="Group 74228" transform="translate(21.101 22.365)">
                <path id="Path_112615" data-name="Path 112615" d="M386.941,191.41a4.917,4.917,0,0,0-2.914-1.986,1.2,1.2,0,0,1,.541.047,3.608,3.608,0,0,1,2.131,1.453A1.209,1.209,0,0,1,386.941,191.41Z" transform="translate(-384.028 -189.41)" fill="#eb996e"/>
              </g>
              <g id="Group_74235" data-name="Group 74235">
                <path id="Path_112616" data-name="Path 112616" d="M326.588,161.557h0a16.309,16.309,0,0,0-4.523,1.906L324.1,169a3.127,3.127,0,0,0,4.415,1.768c2.564-1.465,3.469-5.743,3.469-5.743l2.818-12.218-4.669-2.926-3.547,11.674" transform="translate(-322.065 -140.978)" fill="#ffbe9d"/>
                <g id="Group_74234" data-name="Group 74234" transform="translate(3.728)">
                  <path id="Path_112617" data-name="Path 112617" d="M344.023,132.775l.189-4.018-1.043-4.07c-.058-.226-.086-.507.1-.644a.5.5,0,0,1,.629.02,39.576,39.576,0,0,1,1.647,3.867,20.873,20.873,0,0,1,2.435-1.3c.369-.061.829,1.051.857,1.139a6.479,6.479,0,0,1,0,.747s1.278.038,1.392.214a4.388,4.388,0,0,1,.147,1.084s.54.173.627.583.261,1.084.006,1.231-.793.444-.793.444-.217,2.085-.272,2.274a12.933,12.933,0,0,1-1.254,1.357Z" transform="translate(-339.681 -123.87)" fill="#ffbe9d"/>
                  <g id="Group_74229" data-name="Group 74229">
                    <path id="Path_112618" data-name="Path 112618" d="M333.011,153.609c.005-.011.127.073.391.158a2.664,2.664,0,0,0,1.2.1,3.358,3.358,0,0,0,1.743-.8,8.079,8.079,0,0,0,1.62-2.051,9.212,9.212,0,0,0,.631-1.407,14.4,14.4,0,0,0,.437-1.632l.861-3.7,2.042-8.727.005-.023.018-.017c.234-.23.47-.467.7-.71.116-.122.233-.246.344-.373a2.4,2.4,0,0,0,.155-.192c.04-.041.041-.123.057-.21.092-.682.164-1.386.24-2.1l0-.045.04-.022.649-.364c.049-.029.122-.065.153-.09a.188.188,0,0,0,.061-.114,1.087,1.087,0,0,0,0-.353,5.293,5.293,0,0,0-.151-.74.911.911,0,0,0-.542-.437l-.059-.022,0-.059c-.009-.2-.022-.4-.044-.6-.012-.1-.024-.2-.045-.3a.584.584,0,0,0-.039-.126c-.011-.022-.006-.005-.021-.02a.341.341,0,0,0-.057-.024,6.012,6.012,0,0,0-1.247-.141l-.089,0,0-.088c.006-.21.015-.445.006-.665a.7.7,0,0,0-.079-.228c-.036-.082-.076-.163-.117-.243a2.925,2.925,0,0,0-.279-.45.753.753,0,0,0-.173-.17.166.166,0,0,0-.181-.021,4.412,4.412,0,0,0-.48.22c-.636.331-1.253.692-1.859,1.052l-.089.053-.038-.1-.953-2.388-.467-1.168a.485.485,0,0,0-.374-.35.379.379,0,0,0-.443.163.4.4,0,0,0-.052.242c.01.076.047.191.069.284l.154.587.3,1.157.59,2.248,0,.012v.012c-.068,1.4-.133,2.74-.194,4.018v.009l0,.009c-1.287,4.188-2.354,7.661-3.1,10.1l-.875,2.81-.236.737c-.054.166-.088.25-.088.25s.019-.089.066-.257l.215-.743.837-2.822,3.042-10.113,0,.018c.058-1.278.119-2.62.182-4.018l0,.024q-.291-1.1-.6-2.247l-.306-1.157-.155-.586c-.024-.1-.055-.183-.075-.309a.57.57,0,0,1,.074-.347.527.527,0,0,1,.276-.232.657.657,0,0,1,.352-.011.7.7,0,0,1,.312.159.689.689,0,0,1,.184.294l.468,1.168.956,2.387-.127-.043c.609-.362,1.225-.723,1.868-1.058a4.527,4.527,0,0,1,.505-.231.387.387,0,0,1,.172-.024.371.371,0,0,1,.161.064.926.926,0,0,1,.216.208,3.088,3.088,0,0,1,.3.479c.043.083.083.166.121.251a.834.834,0,0,1,.095.289c.01.241,0,.468-.005.684l-.086-.092a6,6,0,0,1,1.3.151.486.486,0,0,1,.088.038.218.218,0,0,1,.088.089.717.717,0,0,1,.056.173c.023.108.036.212.048.317.023.209.036.413.045.615l-.061-.081a1.076,1.076,0,0,1,.651.538,5.148,5.148,0,0,1,.163.788,1.238,1.238,0,0,1-.008.414.362.362,0,0,1-.124.21,1.812,1.812,0,0,1-.174.1l-.653.365.045-.067c-.077.711-.149,1.412-.243,2.1l-.022.132a.34.34,0,0,1-.063.148,2.312,2.312,0,0,1-.168.209c-.114.13-.232.255-.349.378-.236.245-.472.482-.709.713l.023-.041-2.067,8.721L339.159,148a14.4,14.4,0,0,1-.45,1.642,9.3,9.3,0,0,1-.648,1.42,8.084,8.084,0,0,1-1.658,2.061,3.387,3.387,0,0,1-1.789.8,2.624,2.624,0,0,1-1.22-.123,1.8,1.8,0,0,1-.289-.131A.594.594,0,0,1,333.011,153.609Z" transform="translate(-333.011 -123.734)" fill="#eb996e"/>
                  </g>
                  <g id="Group_74230" data-name="Group 74230" transform="translate(7.393 4.539)">
                    <path id="Path_112619" data-name="Path 112619" d="M356.484,137.159c0,.025-.115.038-.3.046a3.408,3.408,0,0,0-.678.08,1.341,1.341,0,0,0-.578.309c-.125.116-.179.215-.2.2s-.006-.13.11-.287a1.146,1.146,0,0,1,.627-.4,1.979,1.979,0,0,1,.728-.034C356.376,137.1,356.485,137.135,356.484,137.159Z" transform="translate(-354.72 -137.062)" fill="#eb996e"/>
                  </g>
                  <g id="Group_74231" data-name="Group 74231" transform="translate(8.121 4.263)">
                    <path id="Path_112620" data-name="Path 112620" d="M356.894,136.663c-.046-.017-.049-.123-.006-.235s.113-.19.159-.173.049.123.006.235S356.94,136.68,356.894,136.663Z" transform="translate(-356.857 -136.253)" fill="#eb996e"/>
                  </g>
                  <g id="Group_74232" data-name="Group 74232" transform="translate(9.033 5.856)">
                    <path id="Path_112621" data-name="Path 112621" d="M361.255,140.985a3.2,3.2,0,0,1-1.011.14.691.691,0,0,0-.563.271c-.09.139-.06.255-.086.262s-.109-.115-.026-.318a.556.556,0,0,1,.243-.27,1.08,1.08,0,0,1,.41-.12A2.876,2.876,0,0,1,361.255,140.985Z" transform="translate(-359.536 -140.932)" fill="#eb996e"/>
                  </g>
                  <g id="Group_74233" data-name="Group 74233" transform="translate(10.408 7.135)">
                    <path id="Path_112622" data-name="Path 112622" d="M363.69,144.687c.049,0,.077.254.063.562s-.065.556-.114.554-.077-.254-.063-.563S363.641,144.685,363.69,144.687Z" transform="translate(-363.573 -144.687)" fill="#eb996e"/>
                  </g>
                </g>
              </g>
            </g>
            <g id="Group_74238" data-name="Group 74238" transform="translate(19.517 31.974)">
              <path id="Path_112623" data-name="Path 112623" d="M368.074,167.828l.3-1.044a.285.285,0,0,1,.477-.12l.4.4.247-.982a.285.285,0,0,1,.534-.054l.557,1.163Z" transform="translate(-368.074 -165.869)" fill="#fff"/>
              <g id="Group_74237" data-name="Group 74237" transform="translate(0.07 1.759)">
                <path id="Path_112624" data-name="Path 112624" d="M370.729,171.048a9,9,0,0,1-2.448.606,9,9,0,0,1,2.448-.606Z" transform="translate(-368.28 -171.036)" fill="#fff"/>
              </g>
            </g>
            <g id="Group_74239" data-name="Group 74239" transform="translate(0.872 27.924)">
              <path id="Path_112625" data-name="Path 112625" d="M314.235,153.977c.008.007-.127.131-.3.4a3.463,3.463,0,0,0-.462,1.286,9.293,9.293,0,0,0-.061,2.04c.037.771.1,1.617.194,2.5a43.936,43.936,0,0,0,.719,4.5c.121.571.23,1.031.306,1.349l.088.366c.019.084.026.129.026.129s-.016-.043-.039-.125l-.1-.363c-.084-.316-.2-.774-.328-1.344a39.9,39.9,0,0,1-.74-4.505c-.094-.887-.155-1.735-.189-2.507a9.1,9.1,0,0,1,.077-2.052,3.386,3.386,0,0,1,.488-1.292A2.052,2.052,0,0,1,314.235,153.977Z" transform="translate(-313.322 -153.977)" fill="#fff"/>
            </g>
            <g id="Group_74240" data-name="Group 74240" transform="translate(1.784 23.294)">
              <path id="Path_112626" data-name="Path 112626" d="M323.168,140.381a.432.432,0,0,1-.077.042l-.225.107c-.195.093-.476.23-.814.417a29.358,29.358,0,0,0-2.559,1.6c-.972.668-1.834,1.3-2.464,1.75l-.748.529-.206.141a.415.415,0,0,1-.075.045.4.4,0,0,1,.066-.057l.2-.151.734-.548c.622-.46,1.48-1.1,2.453-1.768a25.565,25.565,0,0,1,2.576-1.585c.342-.182.627-.312.826-.4l.231-.1A.371.371,0,0,1,323.168,140.381Z" transform="translate(-316.002 -140.381)" fill="#fff"/>
            </g>
            <g id="Group_74241" data-name="Group 74241" transform="translate(18.875 22.742)">
              <path id="Path_112627" data-name="Path 112627" d="M372.5,141.529a.277.277,0,0,1-.057-.043l-.153-.133a6.079,6.079,0,0,0-.6-.445,12.118,12.118,0,0,0-2.189-1.108,22.244,22.244,0,0,0-2.334-.777c-.3-.084-.551-.146-.722-.188l-.2-.05a.267.267,0,0,1-.068-.022.274.274,0,0,1,.071.008l.2.037c.173.034.423.089.729.167a18.909,18.909,0,0,1,2.348.759,11.108,11.108,0,0,1,2.191,1.132A4.327,4.327,0,0,1,372.5,141.529Z" transform="translate(-366.188 -138.762)" fill="#fff"/>
            </g>
            <g id="Group_74242" data-name="Group 74242" transform="translate(7.788 48.595)">
              <path id="Path_112628" data-name="Path 112628" d="M334.891,217.587a.481.481,0,0,1-.133-.046,2.251,2.251,0,0,1-.338-.18,1.643,1.643,0,0,1-.741-1,1.964,1.964,0,0,1,.132-1.246,1.719,1.719,0,0,1,.2-.329.464.464,0,0,1,.095-.1,3.963,3.963,0,0,0-.246.453,2.017,2.017,0,0,0-.109,1.21,1.657,1.657,0,0,0,.7.977C334.71,217.5,334.9,217.575,334.891,217.587Z" transform="translate(-333.633 -214.679)" fill="#fff"/>
            </g>
            <g id="Group_74243" data-name="Group 74243" transform="translate(7.959 47.817)">
              <path id="Path_112629" data-name="Path 112629" d="M334.137,212.392a2.95,2.95,0,0,1,.256.875,1.478,1.478,0,0,1-.162-.428A1.494,1.494,0,0,1,334.137,212.392Z" transform="translate(-334.133 -212.392)" fill="#fff"/>
            </g>
            <g id="Group_74297" data-name="Group 74297" transform="translate(4.109 51.498)">
              <g id="Group_74244" data-name="Group 74244">
                <path id="Path_112630" data-name="Path 112630" d="M331.287,295.873l10.388-.052-.188-35.913-.1-36.531-14.069-.175-2.529,4.768a17.123,17.123,0,0,0-1.946,6.18c-.177,1.65,1.06,7.032,1.492,8.4l3.873,12.28Z" transform="translate(-322.829 -223.203)" fill="#263238"/>
                <path id="Path_112631" data-name="Path 112631" d="M365.569,223.781,376.983,254.9a14.353,14.353,0,0,1-1.407,12.157L362.324,292.92l-7.451-9.322,11.088-23.172-9.775-15.837,1.645-20.776,4.6-.074Z" transform="translate(-343.96 -223.557)" fill="#263238"/>
              </g>
              <g id="Group_74245" data-name="Group 74245" transform="translate(17.61 10.648)">
                <path id="Path_112632" data-name="Path 112632" d="M374.542,254.471s.009.054.016.16.017.269.03.469c.022.421.055,1.027.1,1.8.076,1.575.186,3.84.321,6.636s.283,6.14.453,9.843c.083,1.853.171,3.8.262,5.813.065,1.007.035,2.035.047,3.076s.006,2.1.01,3.169c.014,8.559.028,16.305.037,21.922,0,2.8-.007,5.066-.009,6.643,0,.778-.009,1.385-.012,1.806,0,.2-.005.356-.007.47s-.009.16-.009.16-.006-.054-.01-.16l-.01-.47c-.005-.421-.013-1.028-.022-1.806-.011-1.577-.028-3.844-.047-6.642-.023-5.616-.054-13.362-.089-21.919q0-1.6-.009-3.169c-.011-1.042.019-2.069-.045-3.077-.087-2.015-.171-3.96-.251-5.812-.156-3.7-.3-7.039-.415-9.843s-.2-5.062-.264-6.638c-.027-.777-.048-1.384-.063-1.805-.005-.2-.009-.356-.012-.47S374.542,254.471,374.542,254.471Z" transform="translate(-374.54 -254.471)" fill="#455a64"/>
              </g>
              <g id="Group_74246" data-name="Group 74246" transform="translate(17.344 0.838)">
                <path id="Path_112633" data-name="Path 112633" d="M373.767,225.664a1.3,1.3,0,0,1,.072.338c.035.219.078.537.123.931.091.788.187,1.88.242,3.089s.057,2.306.037,3.1c-.01.4-.023.717-.038.938a1.29,1.29,0,0,1-.042.343,10.59,10.59,0,0,1-.045-1.282c-.013-.791-.035-1.884-.09-3.09s-.13-2.3-.189-3.085A10.528,10.528,0,0,1,373.767,225.664Z" transform="translate(-373.759 -225.664)" fill="#455a64"/>
              </g>
              <g id="Group_74247" data-name="Group 74247" transform="translate(14.687 1.449)">
                <path id="Path_112634" data-name="Path 112634" d="M366.332,227.548a.835.835,0,0,0-.23.388.441.441,0,0,0,.132.415.453.453,0,0,0,.774-.355.442.442,0,0,0-.228-.371.829.829,0,0,0-.444-.079c0-.009.033-.045.121-.071a.581.581,0,0,1,.715.513.61.61,0,0,1-1.05.481.581.581,0,0,1,.079-.876C366.277,227.544,366.328,227.539,366.332,227.548Z" transform="translate(-365.956 -227.459)" fill="#455a64"/>
              </g>
              <g id="Group_74248" data-name="Group 74248" transform="translate(4.16 0.922)">
                <path id="Path_112635" data-name="Path 112635" d="M340.5,225.911a1.02,1.02,0,0,1,.093.326,3.228,3.228,0,0,1,.03.925,3.727,3.727,0,0,1-.393,1.32,3.493,3.493,0,0,1-2.661,1.91,3.732,3.732,0,0,1-1.376-.05,3.231,3.231,0,0,1-.867-.325,1.014,1.014,0,0,1-.279-.193,5.874,5.874,0,0,0,1.171.394,3.575,3.575,0,0,0,4.281-3.073A5.911,5.911,0,0,0,340.5,225.911Z" transform="translate(-335.045 -225.911)" fill="#455a64"/>
              </g>
              <g id="Group_74249" data-name="Group 74249" transform="translate(20.214 0.893)">
                <path id="Path_112636" data-name="Path 112636" d="M384.948,228.835a1.378,1.378,0,0,1-.654-.077,3.04,3.04,0,0,1-2.064-2.274,1.379,1.379,0,0,1-.014-.659c.032,0,.033.25.136.63a3.291,3.291,0,0,0,1.982,2.184C384.7,228.778,384.952,228.8,384.948,228.835Z" transform="translate(-382.187 -225.825)" fill="#455a64"/>
              </g>
              <g id="Group_74250" data-name="Group 74250" transform="translate(22.755 36.425)">
                <path id="Path_112637" data-name="Path 112637" d="M393.925,331.189a2.158,2.158,0,0,1-.6.479,2.78,2.78,0,0,1-.775.339,1.867,1.867,0,0,1-1.045-.028,3.042,3.042,0,0,1-1.455-1.158,2.7,2.7,0,0,1-.4-.655,4.2,4.2,0,0,1,.5.578,3.227,3.227,0,0,0,1.41,1.066,2.184,2.184,0,0,0,1.7-.251A7.041,7.041,0,0,1,393.925,331.189Z" transform="translate(-389.647 -330.165)" fill="#455a64"/>
              </g>
              <g id="Group_74251" data-name="Group 74251" transform="translate(22.424 36.616)">
                <path id="Path_112638" data-name="Path 112638" d="M390.685,333.545a16.888,16.888,0,0,1-2.005-2.82,16.929,16.929,0,0,1,2.005,2.82Z" transform="translate(-388.677 -330.724)" fill="#455a64"/>
              </g>
              <g id="Group_74252" data-name="Group 74252" transform="translate(6.586 10.913)">
                <path id="Path_112639" data-name="Path 112639" d="M342.562,256.192c-.045.018-.167-.178-.271-.438s-.152-.486-.106-.5.167.178.271.438S342.608,256.174,342.562,256.192Z" transform="translate(-342.168 -255.249)" fill="#fafafa"/>
              </g>
              <g id="Group_74253" data-name="Group 74253" transform="translate(13.485 12.044)">
                <path id="Path_112640" data-name="Path 112640" d="M362.516,259.325c-.049,0-.089-.169-.089-.377s.04-.377.089-.377.089.169.089.377S362.565,259.325,362.516,259.325Z" transform="translate(-362.427 -258.571)" fill="#fafafa"/>
              </g>
              <g id="Group_74254" data-name="Group 74254" transform="translate(10.738 15.436)">
                <path id="Path_112641" data-name="Path 112641" d="M354.487,269.473c-.049,0-.1-.2-.121-.465s.008-.474.057-.477.1.205.121.465S354.536,269.47,354.487,269.473Z" transform="translate(-354.361 -268.531)" fill="#fafafa"/>
              </g>
              <g id="Group_74255" data-name="Group 74255" transform="translate(5.221 18.493)">
                <path id="Path_112642" data-name="Path 112642" d="M338.85,278.028c-.041.03-.181-.1-.363-.226s-.343-.228-.327-.276.225-.018.432.132S338.89,278,338.85,278.028Z" transform="translate(-338.159 -277.506)" fill="#fafafa"/>
              </g>
              <g id="Group_74256" data-name="Group 74256" transform="translate(14.627 21.774)">
                <path id="Path_112643" data-name="Path 112643" d="M365.8,287.711c-.041-.027.011-.176.114-.332s.221-.261.262-.234-.01.176-.115.332S365.836,287.738,365.8,287.711Z" transform="translate(-365.782 -287.142)" fill="#fafafa"/>
              </g>
              <g id="Group_74257" data-name="Group 74257" transform="translate(9.152 22.029)">
                <path id="Path_112644" data-name="Path 112644" d="M349.792,289.148c-.049,0-.089-.281-.089-.628s.04-.628.089-.628.089.281.089.628S349.841,289.148,349.792,289.148Z" transform="translate(-349.703 -287.892)" fill="#fafafa"/>
              </g>
              <g id="Group_74258" data-name="Group 74258" transform="translate(6.795 26.593)">
                <path id="Path_112645" data-name="Path 112645" d="M343.477,301.805c-.029.04-.207-.041-.4-.179s-.322-.283-.294-.323.207.041.4.179S343.506,301.766,343.477,301.805Z" transform="translate(-342.783 -301.293)" fill="#fafafa"/>
              </g>
              <g id="Group_74259" data-name="Group 74259" transform="translate(12.378 28.411)">
                <path id="Path_112646" data-name="Path 112646" d="M359.745,306.655c.02.045-.091.137-.247.207s-.3.089-.319.045.091-.137.247-.207S359.725,306.61,359.745,306.655Z" transform="translate(-359.177 -306.631)" fill="#fafafa"/>
              </g>
              <g id="Group_74260" data-name="Group 74260" transform="translate(8.603 33.395)">
                <path id="Path_112647" data-name="Path 112647" d="M348.729,322.523c-.044.022-.22-.242-.393-.588s-.279-.646-.235-.668.22.241.393.588S348.772,322.5,348.729,322.523Z" transform="translate(-348.091 -321.265)" fill="#fafafa"/>
              </g>
              <g id="Group_74261" data-name="Group 74261" transform="translate(15.257 33.143)">
                <path id="Path_112648" data-name="Path 112648" d="M367.644,321.47c-.043-.023.034-.253.173-.513s.286-.452.329-.429-.034.252-.173.512S367.687,321.493,367.644,321.47Z" transform="translate(-367.632 -320.526)" fill="#fafafa"/>
              </g>
              <g id="Group_74262" data-name="Group 74262" transform="translate(12.431 38.167)">
                <path id="Path_112649" data-name="Path 112649" d="M359.532,336.474c-.05-.008-.046-.276-.1-.6s-.135-.574-.09-.6.211.218.265.57S359.578,336.484,359.532,336.474Z" transform="translate(-359.331 -335.28)" fill="#fafafa"/>
              </g>
              <g id="Group_74263" data-name="Group 74263" transform="translate(9.171 41.68)">
                <path id="Path_112650" data-name="Path 112650" d="M350.394,346.292c-.036.033-.206-.095-.379-.286s-.285-.372-.249-.4.206.095.38.286S350.43,346.259,350.394,346.292Z" transform="translate(-349.759 -345.596)" fill="#fafafa"/>
              </g>
              <g id="Group_74264" data-name="Group 74264" transform="translate(16.659 42.819)">
                <path id="Path_112651" data-name="Path 112651" d="M371.753,349.64c-.035-.034.09-.218.28-.41s.371-.32.406-.286-.09.218-.28.41S371.788,349.674,371.753,349.64Z" transform="translate(-371.747 -348.939)" fill="#fafafa"/>
              </g>
              <g id="Group_74265" data-name="Group 74265" transform="translate(12.683 46.899)">
                <path id="Path_112652" data-name="Path 112652" d="M360.109,362.053c-.048-.007-.049-.267,0-.58s.125-.561.174-.553.049.267,0,.58S360.157,362.061,360.109,362.053Z" transform="translate(-360.072 -360.921)" fill="#fafafa"/>
              </g>
              <g id="Group_74266" data-name="Group 74266" transform="translate(9.542 49.345)">
                <path id="Path_112653" data-name="Path 112653" d="M351.373,368.979c-.042.025-.191-.151-.332-.392s-.221-.457-.179-.482.191.151.332.392S351.415,368.955,351.373,368.979Z" transform="translate(-350.85 -368.103)" fill="#fafafa"/>
              </g>
              <g id="Group_74267" data-name="Group 74267" transform="translate(15.578 52.977)">
                <path id="Path_112654" data-name="Path 112654" d="M369.456,378.777c.028.04-.145.213-.388.387s-.462.282-.491.242.145-.213.388-.387S369.427,378.737,369.456,378.777Z" transform="translate(-368.574 -378.769)" fill="#fafafa"/>
              </g>
              <g id="Group_74268" data-name="Group 74268" transform="translate(11.116 55.313)">
                <path id="Path_112655" data-name="Path 112655" d="M355.489,386.887c-.048-.017.013-.292.042-.63s.02-.619.069-.628.141.278.107.644S355.533,386.9,355.489,386.887Z" transform="translate(-355.471 -385.628)" fill="#fafafa"/>
              </g>
              <g id="Group_74269" data-name="Group 74269" transform="translate(12.748 61.085)">
                <path id="Path_112656" data-name="Path 112656" d="M360.774,403.211c-.038.031-.182-.085-.32-.258s-.22-.339-.182-.37.182.086.32.259S360.813,403.18,360.774,403.211Z" transform="translate(-360.262 -402.578)" fill="#fafafa"/>
              </g>
              <g id="Group_74270" data-name="Group 74270" transform="translate(10.238 64.164)">
                <path id="Path_112657" data-name="Path 112657" d="M353.59,412.628c-.041.028-.228-.175-.419-.452s-.313-.525-.272-.553.228.175.419.452S353.63,412.6,353.59,412.628Z" transform="translate(-352.892 -411.621)" fill="#fafafa"/>
              </g>
              <g id="Group_74271" data-name="Group 74271" transform="translate(17.31 60.335)">
                <path id="Path_112658" data-name="Path 112658" d="M373.691,400.878c-.046-.017-.041-.144.011-.282s.131-.237.177-.22.041.143-.011.282S373.737,400.9,373.691,400.878Z" transform="translate(-373.66 -400.374)" fill="#fafafa"/>
              </g>
              <g id="Group_74272" data-name="Group 74272" transform="translate(14.503 67.935)">
                <path id="Path_112659" data-name="Path 112659" d="M365.43,423.823c-.045-.023.041-.266.107-.569s.094-.558.144-.561.1.27.029.6S365.471,423.847,365.43,423.823Z" transform="translate(-365.417 -422.693)" fill="#fafafa"/>
              </g>
              <g id="Group_74273" data-name="Group 74273" transform="translate(16.012 15.744)">
                <path id="Path_112660" data-name="Path 112660" d="M370.187,270.124c-.045.021-.153-.116-.241-.306s-.125-.36-.081-.381.153.116.241.306S370.231,270.1,370.187,270.124Z" transform="translate(-369.846 -269.435)" fill="#fafafa"/>
              </g>
              <g id="Group_74274" data-name="Group 74274" transform="translate(10.677 5.82)">
                <path id="Path_112661" data-name="Path 112661" d="M355.13,240.3c.027.043-.213.235-.466.507s-.431.522-.476.5.073-.329.347-.619S355.107,240.26,355.13,240.3Z" transform="translate(-354.18 -240.294)" fill="#fafafa"/>
              </g>
              <g id="Group_74275" data-name="Group 74275" transform="translate(15.388 4.818)">
                <path id="Path_112662" data-name="Path 112662" d="M368.461,238.235c-.049.01-.129-.192-.248-.426s-.23-.42-.192-.453.222.116.35.374S368.508,238.227,368.461,238.235Z" transform="translate(-368.014 -237.352)" fill="#fafafa"/>
              </g>
              <g id="Group_74276" data-name="Group 74276" transform="translate(2.708 8.218)">
                <path id="Path_112663" data-name="Path 112663" d="M330.8,248.278c-.046-.018,0-.244.1-.5s.223-.457.269-.439,0,.244-.1.5S330.844,248.3,330.8,248.278Z" transform="translate(-330.782 -247.334)" fill="#fafafa"/>
              </g>
              <g id="Group_74277" data-name="Group 74277" transform="translate(2.391 13.67)">
                <path id="Path_112664" data-name="Path 112664" d="M330.608,263.98c-.031.037-.225-.073-.434-.246s-.351-.345-.32-.382.225.073.434.246S330.64,263.942,330.608,263.98Z" transform="translate(-329.85 -263.344)" fill="#fafafa"/>
              </g>
              <g id="Group_74278" data-name="Group 74278" transform="translate(11.477 1.116)">
                <path id="Path_112665" data-name="Path 112665" d="M356.806,227.109c-.046.018-.139-.108-.208-.281s-.089-.329-.043-.347.139.108.208.281S356.851,227.091,356.806,227.109Z" transform="translate(-356.53 -226.48)" fill="#fafafa"/>
              </g>
              <g id="Group_74279" data-name="Group 74279" transform="translate(19.957 3.381)">
                <path id="Path_112666" data-name="Path 112666" d="M381.464,234.01c-.048-.011-.043-.216.01-.458s.135-.431.183-.42.044.216-.01.458S381.512,234.021,381.464,234.01Z" transform="translate(-381.431 -233.132)" fill="#fafafa"/>
              </g>
              <g id="Group_74280" data-name="Group 74280" transform="translate(21.911 7.082)">
                <path id="Path_112667" data-name="Path 112667" d="M387.185,245.069c-.045-.019.016-.273.138-.567s.257-.519.3-.5-.017.273-.138.568S387.23,245.087,387.185,245.069Z" transform="translate(-387.17 -244)" fill="#fafafa"/>
              </g>
              <g id="Group_74281" data-name="Group 74281" transform="translate(19.968 10.159)">
                <path id="Path_112668" data-name="Path 112668" d="M382.041,254.167c-.044.022-.206-.214-.362-.526s-.247-.583-.2-.6.206.214.362.525S382.085,254.145,382.041,254.167Z" transform="translate(-381.465 -253.035)" fill="#fafafa"/>
              </g>
              <g id="Group_74282" data-name="Group 74282" transform="translate(23.476 13.613)">
                <path id="Path_112669" data-name="Path 112669" d="M391.784,264c-.046-.018-.013-.215.074-.44s.194-.394.24-.376.013.214-.074.44S391.83,264.013,391.784,264Z" transform="translate(-391.764 -263.178)" fill="#fafafa"/>
              </g>
              <g id="Group_74283" data-name="Group 74283" transform="translate(20.527 17.001)">
                <path id="Path_112670" data-name="Path 112670" d="M383.438,273.633c-.042.026-.145-.066-.232-.2s-.123-.272-.082-.3.145.066.232.2S383.479,273.607,383.438,273.633Z" transform="translate(-383.107 -273.126)" fill="#fafafa"/>
              </g>
              <g id="Group_74284" data-name="Group 74284" transform="translate(20.6 22.969)">
                <path id="Path_112671" data-name="Path 112671" d="M384.141,291.535c-.036.033-.248-.137-.473-.379s-.379-.467-.343-.5.248.137.473.379S384.176,291.5,384.141,291.535Z" transform="translate(-383.319 -290.652)" fill="#fafafa"/>
              </g>
              <g id="Group_74285" data-name="Group 74285" transform="translate(24.18 19.326)">
                <path id="Path_112672" data-name="Path 112672" d="M394.529,280.835c-.038.03-.224-.142-.415-.385s-.314-.464-.276-.494.224.142.415.385S394.568,280.8,394.529,280.835Z" transform="translate(-393.831 -279.952)" fill="#fafafa"/>
              </g>
              <g id="Group_74286" data-name="Group 74286" transform="translate(26.761 24.17)">
                <path id="Path_112673" data-name="Path 112673" d="M401.425,295.247c-.044-.021.033-.277.173-.571s.288-.516.333-.5-.033.276-.173.571S401.469,295.267,401.425,295.247Z" transform="translate(-401.412 -294.179)" fill="#fafafa"/>
              </g>
              <g id="Group_74287" data-name="Group 74287" transform="translate(21.924 28.612)">
                <path id="Path_112674" data-name="Path 112674" d="M388.027,307.987c-.043.026-.2-.163-.421-.363s-.419-.345-.4-.39.277.038.516.26S388.068,307.964,388.027,307.987Z" transform="translate(-387.209 -307.222)" fill="#fafafa"/>
              </g>
              <g id="Group_74288" data-name="Group 74288" transform="translate(22.24 33.559)">
                <path id="Path_112675" data-name="Path 112675" d="M388.89,321.836c0,.049-.169.089-.377.089s-.377-.04-.377-.089.169-.089.377-.089S388.89,321.786,388.89,321.836Z" transform="translate(-388.136 -321.747)" fill="#fafafa"/>
              </g>
              <g id="Group_74289" data-name="Group 74289" transform="translate(27.127 31.449)">
                <path id="Path_112676" data-name="Path 112676" d="M402.5,316.557c-.043-.027.045-.239.11-.506s.091-.5.141-.5.106.243.031.541S402.536,316.584,402.5,316.557Z" transform="translate(-402.486 -315.553)" fill="#fafafa"/>
              </g>
              <g id="Group_74290" data-name="Group 74290" transform="translate(30.845 32.761)">
                <path id="Path_112677" data-name="Path 112677" d="M413.814,320.53c-.046.016-.172-.222-.281-.533s-.16-.575-.113-.591.172.222.281.533S413.861,320.513,413.814,320.53Z" transform="translate(-413.403 -319.405)" fill="#fafafa"/>
              </g>
              <g id="Group_74291" data-name="Group 74291" transform="translate(30.59 38.547)">
                <path id="Path_112678" data-name="Path 112678" d="M412.666,337.591c-.044-.022.061-.309.234-.638s.348-.579.392-.556-.062.309-.235.638S412.709,337.613,412.666,337.591Z" transform="translate(-412.656 -336.395)" fill="#fafafa"/>
              </g>
              <g id="Group_74292" data-name="Group 74292" transform="translate(26.367 42.062)">
                <path id="Path_112679" data-name="Path 112679" d="M400.729,347.841c-.045.019-.185-.217-.312-.527s-.194-.576-.148-.595.185.218.312.528S400.775,347.822,400.729,347.841Z" transform="translate(-400.255 -346.718)" fill="#fafafa"/>
              </g>
              <g id="Group_74293" data-name="Group 74293" transform="translate(22.052 44.423)">
                <path id="Path_112680" data-name="Path 112680" d="M388.211,353.738c0,.049-.141.089-.314.089s-.314-.04-.314-.089.14-.089.314-.089S388.211,353.688,388.211,353.738Z" transform="translate(-387.583 -353.649)" fill="#fafafa"/>
              </g>
              <g id="Group_74294" data-name="Group 74294" transform="translate(24.788 49.032)">
                <path id="Path_112681" data-name="Path 112681" d="M395.9,368.127c-.047.013-.142-.188-.211-.448s-.087-.481-.04-.494.142.188.211.448S395.944,368.115,395.9,368.127Z" transform="translate(-395.618 -367.184)" fill="#fafafa"/>
              </g>
              <g id="Group_74295" data-name="Group 74295" transform="translate(22.037 47.522)">
                <path id="Path_112682" data-name="Path 112682" d="M387.554,363.383c-.042-.025.008-.186.112-.36s.223-.294.265-.268-.008.186-.112.36S387.6,363.408,387.554,363.383Z" transform="translate(-387.539 -362.751)" fill="#fafafa"/>
              </g>
              <g id="Group_74296" data-name="Group 74296" transform="translate(21.818 53.115)">
                <path id="Path_112683" data-name="Path 112683" d="M387.067,380.24c-.049.006-.116-.229-.151-.523s-.023-.538.025-.544.116.229.151.523S387.116,380.235,387.067,380.24Z" transform="translate(-386.896 -379.173)" fill="#fafafa"/>
              </g>
            </g>
          </g>
        </g>
      </g>
      <g id="Group_74300" data-name="Group 74300" transform="translate(-9 -18)">
        <g transform="matrix(1, 0, 0, 1, -5334, 20845)" filter="url(#Rectangle_43346)">
          <rect id="Rectangle_43346-2" data-name="Rectangle 43346" width="229" height="35" rx="3" transform="translate(11 94)" fill="#fff"/>
        </g>
        <text id="Search_for_any_products..." data-name="Search for any products..." transform="translate(-5285 20961)" fill="#6f6f6f" font-size="13" font-family="Roboto-Regular, Roboto"><tspan x="0" y="0">Search for any products...</tspan></text>
        <path id="search" d="M260.407,84.8l-4.659-4.676a7.144,7.144,0,1,0-1.664,1.67l4.659,4.675a1.261,1.261,0,0,0,1.664,0h0a1.117,1.117,0,0,0,0-1.668Zm-10.4-3.339a5.406,5.406,0,1,1,3.83-1.589,5.424,5.424,0,0,1-3.83,1.589Z" transform="translate(-5555.781 20879.156)" fill="#303030" fill-rule="evenodd"/>
      </g>
      <path id="Path_112684" data-name="Path 112684" d="M0,0H128" transform="translate(-5135.5 20977.5)" fill="none" stroke="#454e92" stroke-width="1" opacity="0.16"/>
      <g id="Group_74301" data-name="Group 74301" transform="translate(13 -13)">
        <text id="Didn_t_find_product_of_your_choice_" data-name="Didn&apos;t find product of your choice?" transform="translate(-5345 20892)" fill="#303030" font-size="14" font-family="Roboto-Bold, Roboto" font-weight="700"><tspan x="0" y="0">Didn&apos;t find product of your choice?</tspan></text>
        <text id="Use_our_AI_driven_Search_for_best_results_" data-name="Use our AI driven Search for best results!" transform="translate(-5345 20911)" fill="#303030" font-size="12" font-family="Roboto-Regular, Roboto"><tspan x="0" y="0">Use our AI driven Search for best results!</tspan></text>
      </g>
    </g>
  </g>
</svg>
