<svg id="secure-payment-fill" xmlns="http://www.w3.org/2000/svg" width="16" height="16" viewBox="0 0 16 16">
  <path id="Path_67782" data-name="Path 67782" d="M0,0H16V16H0Z" fill="none"/>
  <path id="Path_67783" data-name="Path 67783" d="M8.333,2,13.2,3.52a.667.667,0,0,1,.468.637V5.333H15A.667.667,0,0,1,15.667,6V7.333H7V6a.667.667,0,0,1,.667-.667h4.667V4.647l-4-1.251-4,1.251V9.583A2.667,2.667,0,0,0,5.372,11.7l.126.09L8.333,13.72,10.855,12H7.667A.667.667,0,0,1,7,11.333V8.667h8.667v2.667A.667.667,0,0,1,15,12H12.853a3.992,3.992,0,0,1-.933.887L8.333,15.333,4.747,12.888A4,4,0,0,1,3,9.583V4.157a.667.667,0,0,1,.468-.636Z" transform="translate(-1 -0.667)" fill="#d9232d"/>
</svg>
