<svg id="shipping" xmlns="http://www.w3.org/2000/svg" xmlns:xlink="http://www.w3.org/1999/xlink" width="25.033" height="23.009" viewBox="0 0 25.033 23.009">
  <defs>
    <clipPath id="clip-path">
      <path id="Path_67722" data-name="Path 67722" d="M11.5,0H25.033V23.009H11.5A11.5,11.5,0,0,1,11.5,0Z" fill="#c4c4c4"/>
    </clipPath>
  </defs>
  <circle id="Ellipse_118" data-name="Ellipse 118" cx="11.505" cy="11.505" r="11.505" transform="translate(0 0)" fill="#efeff4"/>
  <g id="Mask_Group_26" data-name="Mask Group 26" transform="translate(0 0)" clip-path="url(#clip-path)">
    <g id="truck_1_" data-name="truck (1)" transform="translate(-9.938 2.244)">
      <path id="Path_67706" data-name="Path 67706" d="M457.391,309.562v.941a.357.357,0,0,1-.358.358h-.524V309.2h.524A.358.358,0,0,1,457.391,309.562Z" transform="translate(-422.352 -294.31)" fill="#f7be56"/>
      <path id="Path_67707" data-name="Path 67707" d="M53.18,281.144v3.4H32.721v-.266h-.577v-1.687h.577v-1.447Z" transform="translate(-29.739 -268.35)" fill="#3a556a"/>
      <path id="Path_67708" data-name="Path 67708" d="M313.989,300.472v2.312a.5.5,0,0,1-.5.5H302.086v-2.808h11.9Z" transform="translate(-279.483 -286.232)" fill="#64798a"/>
      <path id="Path_67709" data-name="Path 67709" d="M25.605,300.48v1.687h-.432a.235.235,0,0,1-.235-.235v-1.217a.235.235,0,0,1,.235-.235Z" transform="translate(-23.072 -286.239)" fill="#e56353"/>
      <rect id="Rectangle_4873" data-name="Rectangle 4873" width="22.349" height="13.82" transform="translate(0 0)" fill="#f7be56"/>
      <path id="Path_67710" data-name="Path 67710" d="M313.989,165.627v2.512h-11.9V157.327h5.352a1.344,1.344,0,0,1,1,.443,11.852,11.852,0,0,1,2.147,4.767l2.823,1.98A1.357,1.357,0,0,1,313.989,165.627Z" transform="translate(-279.483 -153.797)" fill="#e56353"/>
      <path id="Path_67711" data-name="Path 67711" d="M339.965,178.9h-4.988v-4.454h.533A4.454,4.454,0,0,1,339.965,178.9Z" transform="translate(-309.913 -169.634)" fill="#27a2db"/>
      <g id="Group_11715" data-name="Group 11715" transform="translate(25.217 10.124)">
        <path id="Path_67712" data-name="Path 67712" d="M338.246,245.834a1.208,1.208,0,0,1-.6.162,1.354,1.354,0,0,1-.617-.158l.107-.38a1.038,1.038,0,0,0,.969,0Z" transform="translate(-337.031 -245.458)" fill="#2f4859"/>
        <path id="Path_67713" data-name="Path 67713" d="M365.024,284.019a2.881,2.881,0,1,0,2.881-2.881A2.88,2.88,0,0,0,365.024,284.019Z" transform="translate(-362.93 -278.468)" fill="#2f4859"/>
      </g>
      <path id="Path_67714" data-name="Path 67714" d="M384.361,301.908a1.433,1.433,0,1,0,2.867,0,1.433,1.433,0,0,0-2.867,0Z" transform="translate(-355.602 -286.242)" fill="#64798a"/>
      <path id="Path_67715" data-name="Path 67715" d="M384.361,302.682a1.125,1.125,0,0,0,.041.324.45.45,0,0,1,.5.2.445.445,0,0,1-.082.535,1.452,1.452,0,0,0,.545.319.437.437,0,0,1,.853.005,1.4,1.4,0,0,0,.545-.324.444.444,0,0,1-.082-.535.449.449,0,0,1,.5-.2,1.121,1.121,0,0,0,.041-.324,1.2,1.2,0,0,0-.036-.308.437.437,0,0,1-.427-.74,1.513,1.513,0,0,0-.545-.314.437.437,0,0,1-.853.005,1.492,1.492,0,0,0-.55.314.447.447,0,0,1,.087.54.466.466,0,0,1-.509.2A1.218,1.218,0,0,0,384.361,302.682Z" transform="translate(-355.602 -287.016)" fill="#ebf0f3"/>
      <path id="Path_67716" data-name="Path 67716" d="M49.545,284.019a2.881,2.881,0,1,0,2.881-2.881A2.88,2.88,0,0,0,49.545,284.019Z" transform="translate(-45.838 -268.344)" fill="#2f4859"/>
      <path id="Path_67717" data-name="Path 67717" d="M68.882,301.908a1.433,1.433,0,1,0,2.867,0,1.433,1.433,0,0,0-2.867,0Z" transform="translate(-63.728 -286.242)" fill="#64798a"/>
      <path id="Path_67718" data-name="Path 67718" d="M68.883,302.682a1.125,1.125,0,0,0,.041.324.45.45,0,0,1,.5.2.445.445,0,0,1-.082.535,1.452,1.452,0,0,0,.545.319.437.437,0,0,1,.853.005,1.4,1.4,0,0,0,.545-.324.444.444,0,0,1-.082-.535.449.449,0,0,1,.5-.2,1.122,1.122,0,0,0,.041-.324,1.209,1.209,0,0,0-.036-.308.437.437,0,0,1-.426-.74,1.513,1.513,0,0,0-.545-.314.437.437,0,0,1-.853.005,1.492,1.492,0,0,0-.55.314.447.447,0,0,1,.087.54.466.466,0,0,1-.509.2A1.216,1.216,0,0,0,68.883,302.682Z" transform="translate(-63.729 -287.016)" fill="#ebf0f3"/>
      <path id="Path_67719" data-name="Path 67719" d="M165.929,303.875v.863a1.054,1.054,0,0,1-1.054,1.054h-5.813a1.053,1.053,0,0,1-1.052-1.054v-.863a1.053,1.053,0,0,1,1.052-1.054h5.813A1.054,1.054,0,0,1,165.929,303.875Z" transform="translate(-146.187 -288.405)" fill="#64798a"/>
      <rect id="Rectangle_4874" data-name="Rectangle 4874" width="4.036" height="2.971" transform="translate(13.764 14.416)" fill="#d5d6db"/>
      <g id="Group_11716" data-name="Group 11716" transform="translate(23.091 14.595)">
        <rect id="Rectangle_4875" data-name="Rectangle 4875" width="3.084" height="0.467" transform="translate(0 0)" fill="#f7be56"/>
        <rect id="Rectangle_4876" data-name="Rectangle 4876" width="3.084" height="0.467" transform="translate(0 0.542)" fill="#f7be56"/>
        <rect id="Rectangle_4877" data-name="Rectangle 4877" width="3.084" height="0.467" transform="translate(0 1.089)" fill="#f7be56"/>
        <rect id="Rectangle_4878" data-name="Rectangle 4878" width="3.084" height="0.467" transform="translate(0 1.634)" fill="#f7be56"/>
      </g>
      <g id="Group_11717" data-name="Group 11717" transform="translate(0.94 1.407)">
        <path id="Path_67720" data-name="Path 67720" d="M12.563,129.866v-.905H33.031Z" transform="translate(-12.563 -128.961)" fill="#fcd462"/>
        <path id="Path_67721" data-name="Path 67721" d="M33.031,263.986v.905H12.563Z" transform="translate(-12.563 -253.883)" fill="#fcd462"/>
      </g>
    </g>
  </g>
</svg>
