<svg id="file-copy-fill_1_" data-name="file-copy-fill (1)" xmlns="http://www.w3.org/2000/svg" width="20" height="20" viewBox="0 0 20 20">
  <path id="Path_67611" data-name="Path 67611" d="M0,0H20V20H0Z" fill="none"/>
  <path id="Path_67612" data-name="Path 67612" d="M6.333,5.333v-2.5A.833.833,0,0,1,7.167,2h10A.833.833,0,0,1,18,2.833V14.5a.833.833,0,0,1-.833.833h-2.5v2.5a.836.836,0,0,1-.839.833H3.839A.834.834,0,0,1,3,17.833L3,6.167a.836.836,0,0,1,.839-.833ZM8,5.333h6.667v8.333h1.667v-10H8Z" transform="translate(-0.5 -0.333)" fill="#3c3c3c"/>
</svg>
