<svg xmlns="http://www.w3.org/2000/svg" xmlns:xlink="http://www.w3.org/1999/xlink" width="27.301" height="27.082" viewBox="0 0 27.301 27.082">
  <defs>
    <clipPath id="clip-path">
      <rect id="Rectangle_44009" data-name="Rectangle 44009" width="11.239" height="9.439" fill="#fff"/>
    </clipPath>
  </defs>
  <g id="translator_icon" transform="translate(-7845 -291)">
    <path id="Path_69829" data-name="Path 69829" d="M18.128,22.277H7.644L0,0H18.128a1.966,1.966,0,0,1,1.966,1.966V20.312A1.966,1.966,0,0,1,18.128,22.277Z" transform="translate(7852.208 295.805)" fill="#c4c4c4"/>
    <path id="Path_69830" data-name="Path 69830" d="M7897.458,329.87l-5.279,4.8-5.771-16.275,5.024-6.168Z" transform="translate(-32.364 -16.592)" fill="#3c3c3c"/>
    <path id="Path_69831" data-name="Path 69831" d="M6.386-46.537H2.976l-.648,1.945H.26l3.514-9.439h1.8l3.533,9.439H7.041ZM3.5-48.113h2.36L4.674-51.646Z" transform="translate(7860.409 356.17)" fill="#fff"/>
    <path id="Path_69828" data-name="Path 69828" d="M1.966,0H12.449l7.644,22.277H1.966A1.966,1.966,0,0,1,0,20.312V1.966A1.966,1.966,0,0,1,1.966,0Z" transform="translate(7845 291)" fill="#696969"/>
    <g id="Group_16836" data-name="Group 16836" transform="translate(7846.923 297.419)">
      <g id="Group_16835" data-name="Group 16835" clip-path="url(#clip-path)">
        <path id="Path_69832" data-name="Path 69832" d="M7.18,6.828a2.8,2.8,0,0,1-.648,1.711,2.418,2.418,0,0,1-2.14.882A4.044,4.044,0,0,1,1.408,7.635,6.877,6.877,0,0,1,.077,4.3C.035,3.986.028,3.664,0,3.343a.184.184,0,0,1,.162-.224c.29-.073.577-.162.865-.243.169-.048.169-.042.142.13A3.552,3.552,0,0,0,2.148,6.25a2.7,2.7,0,0,0,2.032.843A1.372,1.372,0,0,0,5.3,6.5a.863.863,0,0,0-.151-1.109.118.118,0,0,0-.137-.021,5.484,5.484,0,0,1-.934.15.19.19,0,0,1-.207-.1q-.459-.694-.922-1.386c-.092-.137-.011-.138.1-.142a4.087,4.087,0,0,0,1.719-.407,1.728,1.728,0,0,0,.8-.679c.27-.494.149-.719-.353-.8A2.787,2.787,0,0,0,3.9,2.122a6.4,6.4,0,0,0-1.484.665c-.13.082-.183.058-.244-.08-.259-.589-.529-1.173-.8-1.759C1.267.714,1.266.713,1.484.59A4.433,4.433,0,0,1,3.86,0,2.038,2.038,0,0,1,4.8.272,5.407,5.407,0,0,1,6.968,2.4a1.9,1.9,0,0,1-.043,1.821,1.657,1.657,0,0,1-.977.927,6.944,6.944,0,0,1,.76.578,1.044,1.044,0,0,0,.823.058,1.387,1.387,0,0,0,.22-.075A.349.349,0,0,0,8,5.339q-.011-1.4,0-2.8c0-.152-.047-.219-.2-.2a.252.252,0,0,1-.033,0c-.469,0-.469,0-.469-.464,0-.4,0-.8,0-1.2C7.293.543,7.344.5,7.48.5Q9.27.5,11.061.5c.125,0,.181.037.179.171q-.007.749,0,1.5c0,.129-.046.179-.175.177-.283,0-.567.008-.849,0C10.042,2.332,10,2.4,10,2.56q.007,3.264,0,6.528c0,.372.046.35-.348.35h-1.4C8,9.438,8,9.438,8,9.167c0-.55,0-1.1,0-1.649,0-.142-.029-.219-.186-.253a1.428,1.428,0,0,1-.631-.437" transform="translate(-0.001 0.001)" fill="#fff"/>
      </g>
    </g>
  </g>
</svg>
