<svg xmlns="http://www.w3.org/2000/svg" xmlns:xlink="http://www.w3.org/1999/xlink" width="24" height="24.002" viewBox="0 0 24 24.002">
  <defs>
    <clipPath id="clip-path">
      <rect id="Rectangle_44009" data-name="Rectangle 44009" width="9.881" height="8.365" fill="#fff"/>
    </clipPath>
  </defs>
  <g id="Group_127786" data-name="Group 127786" transform="translate(-3 -3)">
    <g id="Group_127783" data-name="Group 127783" transform="translate(3 3)">
      <g id="Group_98855" data-name="Group 98855" transform="translate(0 0)">
        <circle id="Ellipse_144" data-name="Ellipse 144" cx="12" cy="12" r="12" transform="translate(0 0.002)" fill="#e8e8e8"/>
        <path id="Path_122916" data-name="Path 122916" d="M5.645-47.39h-3l-.57,1.723H.26l3.089-8.365H4.933l3.106,8.365H6.221Zm-2.536-1.4H5.184L4.141-51.917Z" transform="translate(12.637 61.904)" fill="#727272"/>
        <path id="Path_122915" data-name="Path 122915" d="M12,0c.115-.218,3.3,23.213,3.3,23.55A11.766,11.766,0,0,1,12,24,12,12,0,1,1,12,0Z" transform="translate(0.121 0.002)" fill="#3a7ff5"/>
      </g>
      <g id="Group_16835" data-name="Group 16835" transform="translate(1.811 7.69)" clip-path="url(#clip-path)">
        <path id="Path_69832" data-name="Path 69832" d="M6.312,6.051a2.5,2.5,0,0,1-.569,1.516,2.117,2.117,0,0,1-1.881.782A3.551,3.551,0,0,1,1.238,6.766,6.122,6.122,0,0,1,.068,3.815C.031,3.532.025,3.247,0,2.963a.163.163,0,0,1,.143-.2C.4,2.7.652,2.621.9,2.549c.148-.042.148-.037.125.115a3.164,3.164,0,0,0,.859,2.875,2.365,2.365,0,0,0,1.786.747,1.2,1.2,0,0,0,.984-.526.769.769,0,0,0-.133-.983.1.1,0,0,0-.12-.019,4.785,4.785,0,0,1-.821.133A.166.166,0,0,1,3.4,4.805Q3,4.19,2.592,3.577c-.081-.121-.01-.122.084-.126a3.569,3.569,0,0,0,1.511-.36,1.523,1.523,0,0,0,.7-.6c.237-.438.131-.638-.31-.712a2.431,2.431,0,0,0-1.155.1,5.6,5.6,0,0,0-1.3.589c-.114.072-.161.051-.214-.07-.228-.522-.465-1.04-.7-1.559C1.114.633,1.113.631,1.3.523A3.872,3.872,0,0,1,3.393,0a1.78,1.78,0,0,1,.823.239A4.771,4.771,0,0,1,6.125,2.123a1.692,1.692,0,0,1-.038,1.614,1.462,1.462,0,0,1-.858.822,6.11,6.11,0,0,1,.668.513.911.911,0,0,0,.724.052,1.212,1.212,0,0,0,.194-.067.309.309,0,0,0,.218-.325q-.01-1.24,0-2.479c0-.135-.041-.194-.175-.176a.22.22,0,0,1-.029,0c-.412,0-.412,0-.412-.411,0-.354,0-.708,0-1.063,0-.121.043-.163.163-.162q1.574,0,3.147,0c.11,0,.159.033.158.151q-.006.664,0,1.328c0,.115-.041.159-.154.157-.249,0-.5.007-.746,0-.153-.007-.188.05-.187.2q.006,2.892,0,5.785c0,.33.041.31-.306.31H7.26c-.231,0-.231,0-.231-.24,0-.487,0-.974,0-1.461,0-.126-.026-.194-.164-.225a1.255,1.255,0,0,1-.555-.387" transform="translate(-0.001 0.001)" fill="#fff"/>
      </g>
    </g>
  </g>
</svg>
