<svg xmlns="http://www.w3.org/2000/svg" width="69.846" height="69.846" viewBox="0 0 69.846 69.846"><defs><style>.a{fill:none;}.b{fill:#1d89f0;}.c{fill:#fff;}</style></defs><path class="a" d="M0,0H69.846V69.846H0Z"/><path class="b" d="M31.1,60.2A29.1,29.1,0,1,1,60.2,31.1,29.1,29.1,0,0,1,31.1,60.2Zm-4.01-39.536a1.164,1.164,0,0,0-1.81.966V40.569a1.164,1.164,0,0,0,1.81.966l14.2-9.464a1.164,1.164,0,0,0,0-1.938l-14.2-9.464Z" transform="translate(3.82 3.82)"/><path class="c" d="M19.144,14.362a1.164,1.164,0,0,0-1.81.966V34.262a1.164,1.164,0,0,0,1.81.966l14.2-9.464a1.164,1.164,0,0,0,0-1.938l-14.2-9.464Z" transform="translate(11.769 10.127)"/></svg>