<svg xmlns="http://www.w3.org/2000/svg" width="16.618" height="16.618" viewBox="0 0 16.618 16.618">
  <g id="restart-line" transform="translate(0 2)">
    <path id="Path_66807" data-name="Path 66807" d="M0,0H14.569V14.569H0Z" transform="translate(0 0.049)" fill="none"/>
    <path id="Path_66809" data-name="Path 66809" d="M2.607,7.249H13.534v6.073a.6.6,0,0,1-.6.6H3.21a.6.6,0,0,1-.6-.6ZM6.249,8.463V9.677H9.892V8.463ZM2,3.607A.609.609,0,0,1,2.6,3H13.539a.6.6,0,0,1,.6.607V6.035H2Z" transform="translate(-0.786 -1.13)" fill="#d9232d"/>
    <g id="Path_66810" data-name="Path 66810" transform="translate(5.284 -2)" fill="#d9232d">
      <path d="M 5.666707515716553 10.33341789245605 C 3.093477487564087 10.33341789245605 0.9999974966049194 8.239937782287598 0.9999974966049194 5.666707515716553 C 0.9999974966049194 3.093477487564087 3.093477487564087 0.9999974966049194 5.666707515716553 0.9999974966049194 C 8.239937782287598 0.9999974966049194 10.33341789245605 3.093477487564087 10.33341789245605 5.666707515716553 C 10.33341789245605 8.239937782287598 8.239937782287598 10.33341789245605 5.666707515716553 10.33341789245605 Z" stroke="none"/>
      <path d="M 5.666707515716553 9.333417892456055 C 7.691827297210693 9.333417892456055 9.333417892456055 7.691827297210693 9.333417892456055 5.666707515716553 C 9.333417892456055 3.641587495803833 7.691827297210693 1.999997496604919 5.666707515716553 1.999997496604919 C 3.641587495803833 1.999997496604919 1.999997496604919 3.641587495803833 1.999997496604919 5.666707515716553 C 1.999997496604919 7.691827297210693 3.641587495803833 9.333417892456055 5.666707515716553 9.333417892456055 M 5.666707515716553 6.185177326202393 L 4.629767417907715 7.222487449645996 L 4.110927581787109 6.703647613525391 L 5.148237705230713 5.666707515716553 L 4.110927581787109 4.629757404327393 L 4.629757404327393 4.110927581787109 L 5.666707515716553 5.148237705230713 L 6.703647613525391 4.110927581787109 L 7.222487449645996 4.629757404327393 L 6.185177326202393 5.666707515716553 L 7.222487449645996 6.703647613525391 L 6.703647613525391 7.222487449645996 L 5.666707515716553 6.185177326202393 M 5.666707515716553 11.33341789245605 C 2.542077541351318 11.33341789245605 -2.484283413650701e-06 8.791337966918945 -2.484283413650701e-06 5.666707515716553 C -2.484283413650701e-06 2.542077541351318 2.542077541351318 -2.484283413650701e-06 5.666707515716553 -2.484283413650701e-06 C 8.791337966918945 -2.484283413650701e-06 11.33341789245605 2.542077541351318 11.33341789245605 5.666707515716553 C 11.33341789245605 8.791337966918945 8.791337966918945 11.33341789245605 5.666707515716553 11.33341789245605 Z" stroke="none" fill="#fbe8e9"/>
    </g>
  </g>
</svg>
