<svg xmlns="http://www.w3.org/2000/svg" width="11.215" height="10.765" viewBox="0 0 11.215 10.765"><defs><style>.a{fill:#fed507;fill-rule:evenodd;}</style></defs><path class="a" d="M42.229,371.07l-3.09-.295a.535.535,0,0,1-.443-.331l-1.107-2.707a.527.527,0,0,0-.983,0l-1.1,2.71a.523.523,0,0,1-.443.331l-3.09.3a.541.541,0,0,0-.3.939L34,374.078a.539.539,0,0,1,.168.528l-.7,2.9a.536.536,0,0,0,.785.591l2.576-1.529a.529.529,0,0,1,.54,0l2.576,1.529a.534.534,0,0,0,.785-.591l-.69-2.9a.539.539,0,0,1,.168-.528l2.328-2.066a.548.548,0,0,0-.313-.942Z" transform="translate(-31.498 -367.401)"/></svg>