<?xml version="1.0" standalone="no"?>
<!DOCTYPE svg PUBLIC "-//W3C//DTD SVG 1.1//EN" "http://www.w3.org/Graphics/SVG/1.1/DTD/svg11.dtd" >
<svg xmlns="http://www.w3.org/2000/svg">
<metadata>Generated by IcoMoon</metadata>
<defs>
<font id="icomoon" horiz-adv-x="1024">
<font-face units-per-em="1024" ascent="960" descent="-64" />
<missing-glyph horiz-adv-x="1024" />
<glyph unicode="&#x20;" horiz-adv-x="512" d="" />
<glyph unicode="&#xe900;" glyph-name="dot" d="M506.88 704c1.527-0.065 3.319-0.102 5.12-0.102 70.692 0 128 57.308 128 128s-57.308 128-128 128c-70.656 0-127.942-57.249-128-127.892v-0.005c-0.012-0.639-0.018-1.392-0.018-2.148 0-68.475 54.67-124.181 122.743-125.849l0.155-0.003zM506.88 576c-1.527 0.065-3.319 0.102-5.12 0.102-70.692 0-128-57.308-128-128s57.308-128 128-128c70.656 0 127.942 57.249 128 127.892v0.005c0.012 0.639 0.018 1.392 0.018 2.148 0 68.475-54.67 124.181-122.743 125.849l-0.155 0.003zM506.88 192c-1.527 0.065-3.319 0.102-5.12 0.102-70.692 0-128-57.308-128-128s57.308-128 128-128c70.656 0 127.942 57.249 128 127.892v0.005c0.012 0.639 0.018 1.392 0.018 2.148 0 68.475-54.67 124.181-122.743 125.849l-0.155 0.003z" />
<glyph unicode="&#xe901;" glyph-name="abrasives" d="M299.793 754.415l-12.083 6.519c-4.208 2.356-9.234 3.744-14.584 3.744-7.472 0-14.312-2.707-19.593-7.193l0.043 0.036-23.006-19.319 20.241-24.098c14.769 14.258 30.758 27.496 47.711 39.461l1.271 0.851zM424.55 813.261l-9.045 10.24c-5.64 6.19-13.735 10.059-22.734 10.059-3.785 0-7.41-0.684-10.758-1.936l0.212 0.070-28.194-10.24 10.889-29.696c16.582 7.797 36.399 15.11 56.895 20.789l2.736 0.647zM562.039 825.754l-5.052 12.663c-4.573 11.351-15.495 19.217-28.254 19.217-0.039 0-0.078 0-0.117 0h-29.997v-31.539c8.888 0.739 19.238 1.16 29.687 1.16 11.888 0 23.649-0.545 35.258-1.612l-1.491 0.111zM202.65 656.759l-13.653 1.98c-1.372 0.222-2.954 0.349-4.566 0.349-11.159 0-20.897-6.085-26.076-15.119l-0.077-0.147-15.189-25.907 27.614-16.009c10.223 21.151 20.834 39.112 32.734 56.105l-0.854-1.287zM121.719 387.482c-8.709-5.427-14.419-14.952-14.419-25.81 0-1.856 0.167-3.672 0.486-5.436l-0.028 0.185 5.222-29.423 31.266 5.461c-4.864 17.919-8.664 39.2-10.643 61.007l-0.109 1.491zM888.491 599.757l8.431 10.82c4.116 5.118 6.606 11.695 6.606 18.854 0 5.632-1.541 10.905-4.225 15.418l0.077-0.139-15.019 25.907-27.307-15.838c5.632-8.397 11.196-17.067 16.384-25.737 5.495-9.66 10.411-19.388 15.189-29.321zM107.622 504.457l-5.222-29.423 31.437-5.495c2.387 23.503 6.333 44.751 11.847 65.358l-0.651-2.86-13.653-2.935c-12.23-2.582-21.625-12.275-23.731-24.464l-0.026-0.18zM936.448 474.283c8.709 5.427 14.419 14.952 14.419 25.81 0 1.856-0.167 3.672-0.486 5.436l0.028-0.185-5.222 29.423-31.266-5.461c4.862-17.918 8.663-39.199 10.643-61.005l0.109-1.493zM855.518 205.005l13.653-1.98c1.372-0.222 2.954-0.349 4.566-0.349 11.159 0 20.897 6.085 26.076 15.119l0.077 0.147 15.189 25.941-27.614 15.974c-10.224-21.15-20.835-39.112-32.734-56.104l0.853 1.286zM813.056 725.129c1.006 2.88 1.587 6.2 1.587 9.656 0 9.332-4.236 17.674-10.89 23.209l-0.049 0.040-22.972 19.217-20.207-24.098c17.95-12.954 33.752-26.396 48.42-40.979l-0.019 0.019zM695.057 804.352c-0.433 12.698-8.586 23.385-19.894 27.546l-0.211 0.068-28.194 10.24-10.889-29.73c23.406-6.653 43.203-14.081 62.23-22.891l-2.599 1.080zM798.037 182.306c0.422 0.569 0.87 1.072 1.359 1.53l0.006 0.006c2.935 3.413 5.871 6.827 9.045 10.24 1.536 1.809 2.935 3.652 4.574 5.666 48.607 59.263 79.105 135.024 82.14 217.798l0.019 0.656c0.307 6.076 0.478 12.186 0.307 18.603-0.514 37.112-6.581 72.626-17.403 105.997l0.712-2.539c-1.092 3.413-2.15 6.827-3.413 10.24v0.614c-1.536 4.403-3.209 8.841-5.052 13.653-0.037 0.069-0.059 0.152-0.059 0.239s0.022 0.17 0.061 0.242l-0.001-0.003c-7.602 19.052-15.505 35.043-24.486 50.325l0.934-1.719c-12.542 21.432-25.911 39.964-40.83 57.11l0.382-0.449-2.287 2.731v-0.034c-22.073 24.662-46.99 46.085-74.418 63.98l-1.426 0.873c-3.243 2.116-6.451 4.096-9.694 5.871-27.206 16.703-58.642 30.451-91.978 39.607l-2.572 0.602c-4.164 1.058-8.26 1.98-12.561 2.935-3.686 0.922-7.373 1.673-10.889 2.458l-7.646 1.399c-2.287 0.444-4.608 0.922-6.827 1.195-17.137 2.895-36.879 4.549-57.007 4.549-15.12 0-30.022-0.933-44.651-2.746l1.75 0.177c-0.297-0.042-0.563-0.151-0.791-0.311l0.006 0.004c-10.411-1.195-19.934-2.731-28.945-4.574h-0.444c-34.788-7.281-65.598-18.383-94.229-33.122l2.069 0.968h-0.307c-8.431-4.267-16.862-9.011-24.849-13.858-29.97-18.248-55.777-39.396-78.299-63.638l-0.207-0.226-0.922-1.092c-3.209-3.413-6.281-6.997-9.353-10.513-1.399-1.809-2.935-3.652-4.437-5.461-51.374-62.566-82.518-143.448-82.518-231.605 0-38.968 6.085-76.515 17.357-111.742l-0.717 2.594c1.058-3.413 2.15-6.827 3.413-10.069v-0.751c1.57-4.403 3.243-8.841 5.052-13.653 0.104-0.118 0.169-0.273 0.171-0.443v0c7.566-19.041 15.472-35.045 24.471-50.328l-0.919 1.688c12.503-21.553 25.98-40.194 41.093-57.36l-0.338 0.391c0.665-0.914 1.325-1.715 2.030-2.475l-0.016 0.017c22.030-24.719 46.954-46.149 74.425-63.989l1.419-0.864c3.209-2.15 6.451-4.13 9.66-5.871 27.207-16.721 58.642-30.48 91.981-39.641l2.569-0.602c4.164-1.058 8.431-1.98 12.595-2.935s7.168-1.673 10.718-2.458l7.987-1.365c2.15-0.444 4.437-0.922 6.588-1.195 17.162-2.893 36.933-4.546 57.091-4.546 15.138 0 30.059 0.932 44.708 2.743l-1.754-0.177c0.286 0.042 0.54 0.151 0.755 0.31l-0.005-0.003c10.411 1.195 19.934 2.731 28.945 4.574h0.649c34.787 7.278 65.597 18.38 94.228 33.121l-2.068-0.967h0.307c8.431 4.267 16.862 9.011 24.815 13.892 29.89 18.232 55.636 39.32 78.134 63.474l0.202 0.219zM528.896 95.607c-184.371 0.815-333.517 150.464-333.517 334.947 0 184.988 149.962 334.95 334.95 334.95 184.879 0 334.774-149.786 334.95-334.624v-0.017c0-0.092 0-0.201 0-0.31 0-184.988-149.962-334.95-334.95-334.95-0.504 0-1.008 0.001-1.511 0.003h0.077zM924.126 392.294c-2.391-23.506-6.336-44.754-11.847-65.362l0.652 2.864 13.653 2.935c12.26 2.518 21.704 12.18 23.866 24.359l0.027 0.183 5.359 29.457zM758.17 107.315l12.083-6.519c4.208-2.356 9.234-3.744 14.584-3.744 7.472 0 14.312 2.707 19.593 7.193l-0.043-0.036 23.006 19.354-20.241 24.064c-14.724-14.333-30.635-27.634-47.505-39.677l-1.237-0.839zM169.472 262.007l-8.397-10.82c-4.116-5.118-6.606-11.695-6.606-18.854 0-5.632 1.541-10.905 4.225-15.418l-0.077 0.139 15.019-25.907 27.307 15.838c-5.666 8.397-11.196 17.067-16.384 25.771q-8.090 14.404-15.019 29.286zM529.067 735.744c-0.391 0.002-0.853 0.003-1.316 0.003-126.327 0-234.807-76.412-281.741-185.538l-0.763-1.993c-15.318-35.276-24.23-76.363-24.23-119.532 0-169.53 137.431-306.961 306.961-306.961s306.961 137.431 306.961 306.961c0 169.088-136.715 306.244-305.635 306.958h-0.068zM529.067 370.005c-0.037 0-0.082 0-0.126 0-25.304 0-47.035 15.297-56.451 37.148l-0.153 0.399c-3.057 7.052-4.836 15.265-4.836 23.893 0 33.932 27.508 61.44 61.44 61.44s61.44-27.508 61.44-61.44c0-33.84-27.358-61.29-61.164-61.439h-0.014zM363.076 57.446c0.423-12.701 8.58-23.393 19.894-27.546l0.211-0.068 28.194-10.24 10.889 29.73c-23.405 6.652-43.202 14.080-62.229 22.89l2.598-1.079zM245.077 136.704c-1.011-2.888-1.596-6.217-1.596-9.683 0-9.336 4.24-17.681 10.899-23.216l0.049-0.040 22.972-19.183 20.207 24.064c-17.95 12.951-33.753 26.394-48.419 40.978l0.018-0.018zM496.094 36.113l5.052-12.663c4.573-11.351 15.495-19.217 28.254-19.217 0.039 0 0.078 0 0.117 0h29.997v31.539c-9.933-0.751-19.934-1.195-29.867-1.195-11.025 0-22.255 0.546-33.417 1.434zM633.583 48.572l9.045-10.24c5.64-6.19 13.735-10.059 22.734-10.059 3.785 0 7.41 0.684 10.758 1.936l-0.212-0.070 28.194 10.24-10.889 29.867c-16.537-7.885-36.286-15.296-56.718-21.079l-2.742-0.663z" />
<glyph unicode="&#xe902;" glyph-name="add-to-home-screen" d="M512-64c-282.767 0.004-511.993 229.233-511.993 512 0 141.383 57.306 269.382 149.958 362.036v0c92.809 93.602 221.448 151.55 363.621 151.55 282.77 0 512-229.23 512-512 0-142.174-57.949-270.812-151.515-363.586l-0.035-0.035c-92.148-92.636-219.71-149.967-360.663-149.967-0.483 0-0.965 0.001-1.447 0.002h0.075zM362.701 234.65c-0.312 0.016-0.678 0.026-1.045 0.026-11.792 0-21.35-9.559-21.35-21.35s9.559-21.35 21.35-21.35c0.368 0 0.733 0.009 1.096 0.028l-0.051-0.002h298.65c0.312-0.016 0.678-0.026 1.045-0.026 11.792 0 21.35 9.559 21.35 21.35s-9.559 21.35-21.35 21.35c-0.368 0-0.733-0.009-1.096-0.028l0.051 0.002zM380.109 463.36c-0.071 0-0.154 0.001-0.238 0.001-10.525 0-20.089-4.114-27.172-10.821l0.018 0.017c-7.007-6.559-11.373-15.864-11.373-26.189s4.366-19.63 11.353-26.17l128.020-121.619c7.038-6.737 16.603-10.884 27.136-10.884s20.098 4.147 27.15 10.897l-0.014-0.014 127.334 121.6c7.007 6.559 11.373 15.864 11.373 26.189s-4.366 19.63-11.353 26.17l-0.020 0.019c-7.148 6.701-16.789 10.818-27.392 10.818s-20.244-4.116-27.414-10.838l0.022 0.020-61.133-58.419v263.117c-1.090 20.587-18.049 36.867-38.81 36.867s-37.719-16.28-38.806-36.77l-0.004-0.097v-263.117l-61.286 58.47c-7.059 6.66-16.601 10.753-27.1 10.753-0.103 0-0.205 0-0.307-0.001h0.016z" />
<glyph unicode="&#xe903;" glyph-name="address" d="M485.322-1.274c26.934-81.007 78.088-83.874 114.187-6.657l410.102 878.68c35.844 77.422 2.611 110.757-74.708 74.708l-878.577-409.999c-77.32-35.844-74.401-87.049 6.554-114.239l316.96-105.585z" />
<glyph unicode="&#xe904;" glyph-name="adventure" d="M361.301 798.242h-38.81v59.529h363.11v-59.529h-38.844v21.914h-285.355v-21.914zM769.161 672.939v-592.316c-0.4-20.824-17.375-37.552-38.257-37.552-0.218 0-0.436 0.002-0.654 0.005h-38.094v-11.093c-0.538-14.809-12.672-26.61-27.563-26.61s-27.025 11.801-27.561 26.561l-0.001 0.049v10.957h-265.865v-10.957c0.007-0.22 0.010-0.478 0.010-0.737 0-9.916-5.456-18.558-13.53-23.087l-0.133-0.069c-4.031-2.335-8.869-3.712-14.029-3.712s-9.997 1.378-14.166 3.785l0.137-0.073c-8.207 4.598-13.664 13.24-13.664 23.156 0 0.259 0.004 0.518 0.011 0.775l-0.001-0.038v10.957h-37.683c-0.195-0.004-0.424-0.006-0.655-0.006-20.875 0-37.843 16.732-38.223 37.517l-0.001 0.036-0.205 592.316c0.419 20.828 17.402 37.551 38.29 37.551 0.207 0 0.413-0.002 0.619-0.005h44.547v53.248h38.878v-53.282h285.355v53.248h38.946v-53.248h44.578c0.185 0.003 0.403 0.005 0.622 0.005 20.87 0 37.838-16.709 38.256-37.479l0.001-0.039zM678.298 539.204h-348.16v-407.211h27.887v380.245h292.42v-380.314h27.921z" />
<glyph unicode="&#xe905;" glyph-name="all-categories" d="M76.8 960h365.773c28.277 0 51.2-22.923 51.2-51.2v-921.6c0-28.277-22.923-51.2-51.2-51.2h-365.773c-28.277 0-51.2 22.923-51.2 51.2v921.6c0 28.277 22.923 51.2 51.2 51.2zM640.102 960h323.226c28.277 0 51.2-22.923 51.2-51.2v-365.773c0-28.277-22.923-51.2-51.2-51.2h-323.226c-28.277 0-51.2 22.923-51.2 51.2v365.773c0 28.277 22.923 51.2 51.2 51.2zM640.102 416.717h323.226c28.277 0 51.2-22.923 51.2-51.2v-365.773c0-28.277-22.923-51.2-51.2-51.2h-323.226c-28.277 0-51.2 22.923-51.2 51.2v365.773c0 28.277 22.923 51.2 51.2 51.2z" />
<glyph unicode="&#xe906;" glyph-name="angle-grinder" d="M902.076 675.601c-33.224 33.096-79.055 53.557-129.664 53.557-47.345 0-90.508-17.907-123.084-47.317l0.161 0.144-81.92 81.92-95.573-95.744-129.707 129.707c-15.819 16.181-37.867 26.214-62.259 26.214-48.071 0-87.040-38.969-87.040-87.040 0-24.392 10.033-46.44 26.198-62.243l129.723-129.723-246.511-246.238 232.107-232.107 329.865 329.83c29.798-21.702 67.133-34.719 107.508-34.719 101.514 0 183.808 82.294 183.808 183.808 0 50.611-20.455 96.445-53.55 129.685l0.006-0.006zM389.632 586.24l-129.707 129.707c-4.548 5.099-7.327 11.862-7.327 19.273 0 16.024 12.99 29.013 29.013 29.013 7.411 0 14.174-2.779 19.302-7.352l-0.029 0.025 129.707-129.707-40.96-40.96zM582.485 396.937c-30.654 40.845-49.089 92.392-49.089 148.244 0 49.168 14.286 94.999 38.933 133.569l-0.597-0.998 41.199-41.199c-15.219-26.207-24.201-57.668-24.201-91.228 0-40.377 13.002-77.716 35.047-108.061l-0.367 0.531zM314.231 333.38l54.613-54.613-40.96-40.96-54.613 54.613zM396.151 415.3l54.613-54.613-40.96-40.96-54.613 54.613zM799.403 572.86c7.022-7.002 11.366-16.686 11.366-27.385 0-21.359-17.315-38.673-38.673-38.673s-38.673 17.315-38.673 38.673c0 10.699 4.344 20.383 11.366 27.384l0.001 0.001c6.994 6.975 16.647 11.288 27.307 11.288s20.312-4.313 27.308-11.289l-0.001 0.001z" />
<glyph unicode="&#xe907;" glyph-name="appliance" d="M800.734 857.6h-560.094c-38.743-0.366-70.009-31.858-70.009-70.653 0-0.157 0.001-0.314 0.002-0.471v0.024-160.017c0-0.041-0.001-0.089-0.001-0.137 0-9.698 7.823-17.569 17.504-17.646h665.061c9.687 0.077 17.511 7.948 17.511 17.646 0 0.048 0 0.096-0.001 0.144v-0.007 160.017c0.001 0.133 0.001 0.29 0.001 0.447 0 38.795-31.266 70.287-69.974 70.653h-0.035zM345.668 679.834h-104.858c-0.014 0-0.032 0-0.049 0-4.817 0-9.173 1.972-12.305 5.152l-0.002 0.002c-3.182 3.243-5.148 7.689-5.154 12.594v71.101c0 0.041-0.001 0.089-0.001 0.137 0 9.698 7.823 17.569 17.504 17.646h175.043c0.030 0 0.066 0 0.101 0 4.807 0 9.149-1.987 12.251-5.184l0.004-0.004c3.167-3.245 5.12-7.686 5.12-12.583 0-0.004 0-0.008 0-0.013v0.001c0.001-0.163 0.002-0.356 0.002-0.549 0-48.529-39.147-87.914-87.585-88.3h-0.037zM573.167 679.834h-35.021c-0.198-0.008-0.43-0.013-0.663-0.013-6.384 0-11.96 3.457-14.96 8.6l-0.044 0.082c-1.539 2.608-2.448 5.746-2.448 9.097s0.909 6.489 2.494 9.181l-0.046-0.085c3.044 5.226 8.62 8.683 15.004 8.683 0.233 0 0.465-0.005 0.696-0.014l-0.033 0.001h35.021c0.198 0.008 0.43 0.013 0.663 0.013 6.384 0 11.96-3.457 14.96-8.6l0.044-0.082c1.545-2.612 2.458-5.756 2.458-9.114s-0.913-6.502-2.504-9.198l0.046 0.084c-3.049-5.206-8.614-8.648-14.984-8.648-0.228 0-0.455 0.004-0.681 0.013l0.033-0.001zM590.677 768.58c0 0.004 0 0.008 0 0.012 0 4.897 1.953 9.338 5.124 12.587l-0.004-0.004c3.106 3.202 7.448 5.189 12.255 5.189 0.036 0 0.071 0 0.107 0h35.016c0.192 0.008 0.417 0.012 0.644 0.012 6.389 0 11.971-3.456 14.979-8.6l0.044-0.082c1.539-2.608 2.448-5.746 2.448-9.097s-0.909-6.489-2.494-9.181l0.046 0.085c-3.044-5.226-8.62-8.683-15.004-8.683-0.233 0-0.465 0.005-0.696 0.014l0.033-0.001h-35.021c-9.655 0.095-17.444 7.944-17.444 17.612 0 0.096 0.001 0.192 0.002 0.288v-0.014zM678.161 679.834h-34.987c-0.198-0.008-0.43-0.013-0.663-0.013-6.384 0-11.96 3.457-14.96 8.6l-0.044 0.082c-1.539 2.608-2.448 5.746-2.448 9.097s0.909 6.489 2.494 9.181l-0.046-0.085c3.044 5.226 8.62 8.683 15.004 8.683 0.233 0 0.465-0.005 0.696-0.014l-0.033 0.001h34.987c0.198 0.008 0.43 0.013 0.663 0.013 6.384 0 11.96-3.457 14.96-8.6l0.044-0.082c1.545-2.612 2.458-5.756 2.458-9.114s-0.913-6.502-2.504-9.198l0.046 0.084c-3.044-5.226-8.62-8.683-15.004-8.683-0.233 0-0.465 0.005-0.696 0.014l0.033-0.001zM748.169 750.933h-35.021c-0.198-0.008-0.43-0.013-0.663-0.013-6.384 0-11.96 3.457-14.96 8.6l-0.044 0.082c-1.539 2.608-2.448 5.746-2.448 9.097s0.909 6.489 2.494 9.181l-0.046-0.085c3.044 5.226 8.62 8.683 15.004 8.683 0.233 0 0.465-0.005 0.696-0.014l-0.033 0.001h34.987c0.198 0.008 0.43 0.013 0.663 0.013 6.384 0 11.96-3.457 14.96-8.6l0.044-0.082c1.542-2.613 2.453-5.757 2.453-9.114s-0.911-6.501-2.499-9.199l0.046 0.085c-3.044-5.226-8.62-8.683-15.004-8.683-0.233 0-0.465 0.005-0.696 0.014l0.033-0.001zM853.197 573.133h-665.020c-0.040 0-0.087 0.001-0.134 0.001-4.79 0-9.119-1.973-12.219-5.151l-0.003-0.004c-3.182-3.243-5.148-7.689-5.154-12.594v-480.018c-0.001-0.133-0.001-0.29-0.001-0.447 0-38.795 31.266-70.287 69.974-70.653h560.095c38.743 0.366 70.009 31.858 70.009 70.653 0 0.157-0.001 0.314-0.002 0.471v-0.024 480.017c-0.006 4.906-1.972 9.352-5.157 12.598l0.003-0.003c-3.103 3.181-7.432 5.155-12.222 5.155-0.047 0-0.094 0-0.142-0.001h0.007zM520.67 75.366c-1.005-0.017-2.191-0.027-3.379-0.027-117.858 0-213.402 95.543-213.402 213.402s95.543 213.402 213.402 213.402c117.858 0 213.402-95.543 213.402-213.402 0-0.015 0-0.029 0-0.044v0.002c0.007-0.66 0.012-1.441 0.012-2.222 0-116.204-93.885-210.479-209.94-211.111h-0.060zM633.515 371.746c-25.307 35.932-66.616 59.119-113.341 59.119-0.018 0-0.035 0-0.053 0h0.003c-9.498-0.014-18.769-0.945-27.741-2.71l0.912 0.15c-64.521-14.779-111.925-71.693-111.925-139.68 0-60.377 37.387-112.023 90.273-133.048l0.967-0.339c14.2-5.429 30.624-8.572 47.782-8.572 46.611 0 87.802 23.2 112.658 58.682l0.293 0.442c2.177 3.022 3.482 6.799 3.482 10.88 0 2.331-0.426 4.563-1.204 6.623l0.043-0.129c-6.434 19.622-10.145 42.206-10.145 65.655s3.71 46.033 10.576 67.194l-0.432-1.539c0.765 1.966 1.208 4.241 1.208 6.62 0 4.027-1.27 7.758-3.432 10.812l0.039-0.059zM464.691 331.332c-8.844-11.713-14.165-26.517-14.165-42.564 0-0.024 0-0.048 0-0.072v0.004c0-9.671-7.84-17.51-17.51-17.51s-17.51 7.84-17.51 17.51v0c0 0.105-0.001 0.229-0.001 0.354 0 23.988 7.908 46.129 21.26 63.958l-0.199-0.278c3.202 4.268 8.25 7 13.936 7 3.996 0 7.676-1.349 10.612-3.616l-0.040 0.030c3.636-2.8 6.144-6.91 6.816-11.613l0.011-0.095c0.105-0.73 0.165-1.574 0.165-2.431 0-4.062-1.344-7.81-3.611-10.824l0.033 0.046z" />
<glyph unicode="&#xe908;" glyph-name="arrow-d" d="M734.097 503.351c-1.711 3.966-5.567 6.702-10.068 6.753h-119.648v272.938c-0.092 5.985-4.919 10.812-10.895 10.904h-174.698c-5.985-0.092-10.812-4.919-10.904-10.895v-272.947h-120.057c-0.007 0-0.014 0-0.022 0-6.022 0-10.904-4.882-10.904-10.904 0-3.017 1.225-5.747 3.205-7.721v0l217.808-218.638c1.994-1.949 4.724-3.151 7.735-3.151s5.742 1.202 7.737 3.153l-0.002-0.002 218.416 218.638c1.943 1.968 3.144 4.674 3.144 7.66 0 1.521-0.311 2.969-0.874 4.284l0.027-0.071z" />
<glyph unicode="&#xe909;" glyph-name="automotive" d="M529.067 857.6c-236.578-3.976-426.835-196.692-426.835-433.845 0-164.211 91.219-307.116 225.749-380.808l2.259-1.134 11.196-6.007h375.228l11.196 6.007c136.79 74.825 228.009 217.731 228.009 381.942 0 237.141-190.238 429.85-426.428 433.84l-0.374 0.005zM690.859 139.605h-78.985l-17.715 128.41q17.545 3.209 35.738 8.090c6.308 1.77 11.346 6.171 13.94 11.913l0.055 0.136c31.941 66.531 50.601 144.639 50.601 227.105 0 11.92-0.39 23.748-1.157 35.474l0.084-1.595c-0.597 9.284-6.937 16.939-15.479 19.485l-0.154 0.039c-44.522 13.677-95.701 21.553-148.719 21.553s-104.196-7.876-152.429-22.521l3.71 0.968c-8.696-2.586-15.036-10.241-15.63-19.46l-0.003-0.064c-0.684-10.133-1.074-21.963-1.074-33.885 0-82.464 18.661-160.569 51.99-230.324l-1.388 3.226c2.652-5.888 7.705-10.293 13.878-12.013l0.151-0.036c12.049-3.413 24.098-6.007 35.703-8.090l-17.715-128.41h-79.019c-68.672 40.697-120.37 103.872-145.457 179.208l-0.668 2.313q64.273 9.353 128.512 14.746c-15.153 43.704-25.257 94.253-28.164 146.721l-0.064 1.452c-44.175-9.456-83.23-26.288-117.805-49.314l1.24 0.777c0 179.088 145.179 324.267 324.267 324.267s324.267-145.179 324.267-324.267v0c-3.413 2.321-6.827 4.608-10.718 6.827-30.493 17.588-65.814 31.627-103.207 40.249l-2.606 0.506c-3.063-53.561-13.135-103.722-29.338-151.039l1.178 3.958q64.273-5.427 128.512-14.711c-25.735-77.708-77.451-140.935-144.646-180.826l-1.513-0.831z" />
<glyph unicode="&#xe90a;" glyph-name="back" d="M676.026-22.435l-452.282 447.162c-8.833 8.658-14.309 20.714-14.309 34.048s5.476 25.39 14.301 34.040l0.008 0.008 452.282 446.836c12.842 12.629 30.471 20.426 49.92 20.426s37.078-7.797 49.93-20.435l-0.010 0.010c12.738-12.567 20.629-30.019 20.629-49.315s-7.891-36.748-20.621-49.307l-0.008-0.008-386.932-382.464 386.886-382.324c12.741-12.574 20.633-30.034 20.633-49.338s-7.892-36.764-20.625-49.331l-0.008-0.007c-12.842-12.629-30.471-20.426-49.92-20.426s-37.078 7.797-49.93 20.435l0.010-0.010z" />
<glyph unicode="&#xe90b;" glyph-name="ball-bearing" d="M529.067 857.6v0c235.641 0 426.667-191.025 426.667-426.667v0c0-235.641-191.025-426.667-426.667-426.667s-426.667 191.025-426.667 426.667c0 235.641 191.025 426.667 426.667 426.667zM779.127 662.63c-2.539 3.77-5.257 7.063-8.261 10.070l0.001-0.001c-2.501 2.227-5.227 4.379-8.078 6.366l-0.285 0.188c-60.717 57.468-142.897 92.802-233.33 92.802-92.167 0-175.761-36.702-236.966-96.289l0.075 0.073c-1.195-1.092-2.423-2.219-3.413-3.413v0c-65.478-62.248-106.207-149.997-106.207-247.259 0-188.287 152.637-340.924 340.924-340.924 97.186 0 184.874 40.665 246.977 105.909l0.133 0.141 0.239 0.239 0.205 0.239c61.377 61.467 99.333 146.334 99.333 240.067 0 89.689-34.752 171.261-91.525 231.986l0.179-0.194zM719.667 282.999c0.32 0.010 0.697 0.015 1.076 0.015 11.4 0 21.648-4.933 28.727-12.781l0.030-0.034c7.895-7.526 12.805-18.123 12.805-29.867s-4.91-22.341-12.789-29.851l-0.017-0.016c-7.643-7.533-18.143-12.185-29.73-12.185-23.394 0-42.359 18.965-42.359 42.359 0 23.358 18.906 42.301 42.251 42.359h0.006zM677.001 298.018c-2.608-2.073-4.937-4.219-7.102-6.52l-0.031-0.034c-1.722-1.812-3.377-3.748-4.926-5.768l-0.126-0.171c-35.42-33.087-83.138-53.403-135.601-53.403-109.828 0-198.861 89.033-198.861 198.861 0 52.641 20.454 100.504 53.847 136.077l-0.099-0.106q2.833 2.185 5.598 4.71c1.649 1.724 3.235 3.559 4.727 5.472l0.12 0.16c35.232 32.279 82.378 52.058 134.144 52.058 109.828 0 198.861-89.033 198.861-198.861 0-50.976-19.18-97.471-50.717-132.664l0.166 0.188zM381.167 240.333c-0.382-23.289-19.351-42.022-42.695-42.022-11.615 0-22.148 4.638-29.846 12.163l0.008-0.008c-7.883 7.109-12.816 17.357-12.816 28.758 0 0.39 0.006 0.778 0.017 1.166l-0.001-0.057c0 0.056 0 0.122 0 0.188 0 11.688 4.896 22.233 12.749 29.696l0.018 0.017c7.124 7.864 17.374 12.782 28.773 12.782 0.397 0 0.792-0.006 1.185-0.018l-0.058 0.001c0.026 0 0.057 0 0.088 0 11.705 0 22.263-4.91 29.727-12.782l0.017-0.018 3.413-3.413c5.945-6.948 9.563-16.042 9.563-25.98 0-0.227-0.002-0.453-0.006-0.678v0.034zM308.634 591.633c-7.683 7.689-12.435 18.309-12.435 30.038 0 23.402 18.916 42.385 42.292 42.496h0.010c11.698-0.25 22.217-5.096 29.864-12.797l0.003-0.003c7.895-7.526 12.805-18.123 12.805-29.867s-4.91-22.341-12.789-29.851l-0.017-0.016-1.638-1.707c-7.361-6.848-17.263-11.051-28.147-11.051-11.739 0-22.336 4.89-29.866 12.743l-0.014 0.015zM689.801 591.633v0l-3.413 3.413c-5.863 6.923-9.428 15.956-9.428 25.82 0 0.259 0.002 0.517 0.007 0.774l-0.001-0.039c-0.003 0.188-0.005 0.41-0.005 0.632 0 23.564 19.103 42.667 42.667 42.667s42.667-19.103 42.667-42.667c0-11.947-4.91-22.746-12.822-30.492l-0.008-0.007c-7.81-7.31-18.34-11.8-29.918-11.8s-22.107 4.49-29.942 11.823l0.025-0.023zM669.901 672.7c-11.95-12.78-19.768-29.557-21.247-48.121l-0.018-0.28c-19.369 12.265-41.852 21.934-65.834 27.774l-1.545 0.318c11.751 12.827 18.952 29.99 18.952 48.836 0 13.449-3.667 26.042-10.057 36.833l0.184-0.336c42.138-8.628 79.438-24.65 112.279-46.783l-1.106 0.703c-12.598-3.277-23.345-9.929-31.563-18.928l-0.045-0.050zM571.802 701.133c0-23.564-19.103-42.667-42.667-42.667s-42.667 19.103-42.667 42.667c0 23.564 19.103 42.667 42.667 42.667v0c0.215 0.004 0.469 0.006 0.724 0.006 23.149 0 41.916-18.766 41.916-41.916 0-0.266-0.002-0.532-0.007-0.797l0.001 0.040zM476.979 652.39c-25.383-6.132-47.739-15.717-67.947-28.405l0.943 0.553c-0.323 18.805-7.99 35.76-20.248 48.169l0.007-0.007c-8.849 8.907-19.99 15.525-32.466 18.896l-0.507 0.117c31.738 21.411 69.037 37.421 109.162 45.699l2.010 0.347c-6.222-10.466-9.899-23.075-9.899-36.543 0-18.824 7.184-35.97 18.96-48.846l-0.050 0.055zM288.768 571.733c11.777-12.696 28.38-20.772 46.873-21.297l0.094-0.002c-12.265-19.369-21.934-41.852-27.774-65.834l-0.318-1.545c-12.827 11.751-29.99 18.952-48.836 18.952-13.449 0-26.042-3.667-36.833-10.057l0.336 0.184c8.834 43.207 25.461 81.43 48.472 114.924l-0.685-1.055c2.964-13.435 9.493-25.039 18.538-34.137l-0.003 0.003zM258.901 473.634c23.396-0.097 42.325-19.086 42.325-42.496 0-23.47-19.026-42.496-42.496-42.496s-42.496 19.026-42.496 42.496v0c-0.001 0.114-0.002 0.248-0.002 0.382 0 23.131 18.751 41.882 41.882 41.882 0.265 0 0.529-0.002 0.792-0.007l-0.040 0.001zM258.901 359.868c0.126-0.001 0.274-0.001 0.423-0.001 18.686 0 35.685 7.219 48.363 19.019l-0.043-0.040c6.176-25.528 15.843-48.009 28.643-68.317l-0.552 0.937c-18.373-1.554-34.673-9.373-46.989-21.286l0.021 0.020c-9.408-8.627-16.231-19.932-19.266-32.704l-0.088-0.439c-21.927 32.12-38.296 69.919-46.721 110.624l-0.349 2.016c10.415-6.242 22.979-9.933 36.405-9.933 0.053 0 0.107 0 0.16 0h-0.008zM388.301 189.201c11.971 12.771 19.803 29.551 21.281 48.121l0.018 0.28c19.37-12.248 41.851-21.915 65.826-27.771l1.553-0.321c-11.751-12.827-18.952-29.99-18.952-48.836 0-13.449 3.667-26.042 10.057-36.833l-0.184 0.336c-42.827 8.791-80.719 25.209-113.991 47.9l1.078-0.694c12.919 3.289 24.118 9.393 33.356 17.646l-0.076-0.067zM486.4 160.768c0 23.564 19.103 42.667 42.667 42.667s42.667-19.103 42.667-42.667c0-23.564-19.103-42.667-42.667-42.667v0c-0.174-0.003-0.38-0.004-0.586-0.004-23.131 0-41.882 18.751-41.882 41.882 0 0.253 0.002 0.506 0.007 0.759l-0.001-0.038zM581.222 209.51c25.875 6.3 48.652 16.189 69.184 29.287l-0.917-0.547c0.464-18.591 8.092-35.315 20.214-47.589l-0.007 0.007c8.619-9.427 19.926-16.265 32.705-19.3l0.438-0.088c-32.119-21.928-69.918-38.298-110.624-46.721l-2.016-0.349c6.247 10.482 9.939 23.115 9.939 36.611 0 18.791-7.159 35.911-18.899 48.779l0.051-0.057zM770.867 291.601c-12.508 11.927-29.159 19.608-47.584 20.675l-0.203 0.009c11.999 19.131 21.478 41.328 27.229 64.983l0.317 1.543c12.827-11.751 29.99-18.952 48.836-18.952 13.449 0 26.042 3.667 36.833 10.057l-0.336-0.184c-8.698-42.434-24.888-79.989-47.257-113.017l0.699 1.094c-2.963 13.257-9.386 24.709-18.27 33.733l0.009-0.009zM799.3 388.301c-23.396 0.097-42.325 19.086-42.325 42.496 0 23.47 19.026 42.496 42.496 42.496s42.496-19.026 42.496-42.496v0c0.002-0.144 0.003-0.314 0.003-0.484 0-23.149-18.766-41.916-41.916-41.916-0.253 0-0.506 0.002-0.757 0.007l0.038-0.001zM799.3 502.067c-0.13 0.001-0.283 0.001-0.436 0.001-18.681 0-35.677-7.219-48.349-19.019l0.043 0.039c-6.175 25.528-15.842 48.009-28.643 68.316l0.551-0.937c18.902 1.223 35.757 9.115 48.425 21.322l-0.024-0.023c8.506 8.947 14.798 20.078 17.947 32.464l0.11 0.509c21.882-32.125 38.217-69.925 46.619-110.623l0.348-2.017c-10.361 6.158-22.842 9.797-36.174 9.797-0.135 0-0.269 0-0.404-0.001h0.021zM529.067 587.401c-86.049-0.21-155.723-70.014-155.723-156.091 0-86.207 69.885-156.092 156.092-156.092s156.092 69.885 156.092 156.092c0 43.093-17.463 82.108-45.698 110.353l0.001-0.001c-28.301 28.261-67.377 45.739-110.535 45.739-0.080 0-0.16 0-0.24 0h0.012zM529.067 302.967c-70.112 0.343-126.816 57.259-126.816 127.418 0 70.372 57.048 127.42 127.42 127.42s127.42-57.048 127.42-127.42c0-35.192-14.267-67.051-37.331-90.11v0c-23.145-23.055-55.072-37.308-90.327-37.308-0.128 0-0.257 0-0.385 0.001h0.020z" />
<glyph unicode="&#xe90c;" glyph-name="blog" d="M511.795 960h0.41c282.77 0 512-229.23 512-512v0-0.307c0-282.77-229.23-512-512-512v0h-0.41c-282.77 0-512 229.23-512 512v0 0.512c0.117 282.682 229.302 511.795 512 511.795v0zM759.552 384.717c0.768 5.435 1.206 11.713 1.206 18.093 0 26.424-7.52 51.092-20.536 71.981l0.335-0.576c-18.232 20.252-44.538 32.929-73.804 32.929-2.279 0-4.54-0.077-6.781-0.228l0.303 0.016c2.986 12.94 4.698 27.799 4.698 43.058 0 7.069-0.367 14.052-1.084 20.931l0.073-0.86c0.001 0.228 0.002 0.497 0.002 0.767 0 73.124-59.279 132.403-132.403 132.403-1.279 0-2.554-0.018-3.824-0.054l0.187 0.004h-122.88c-2.446 0.147-5.307 0.231-8.187 0.231-39.71 0-75.697-15.94-101.911-41.771l0.018 0.017c-23.738-24.694-38.724-57.954-39.879-94.702l-0.006-0.223v-194.099c0-3.635 0-7.373 0-11.162-0.586-5.307-0.92-11.462-0.92-17.694 0-40.519 14.13-77.738 37.732-106.997l-0.255 0.326c28.592-27.627 67.583-44.651 110.551-44.651 3.78 0 7.529 0.132 11.243 0.391l-0.501-0.028h187.853c1.422-0.046 3.093-0.072 4.771-0.072 43.037 0 82.057 17.201 110.559 45.104l-0.028-0.027c27.299 29.996 44.016 70.043 44.016 113.996 0 1.9-0.031 3.792-0.093 5.677l0.007-0.274s-0.41 19.712-0.461 27.597zM416.154 599.757h103.014c24.119-1.204 43.218-21.052 43.218-45.361 0-0.253-0.002-0.505-0.006-0.757v0.038c-0.532-23.058-19.35-41.546-42.485-41.546-0.49 0-0.978 0.008-1.464 0.025l0.071-0.002h-103.782c-23.965 0.389-43.244 19.908-43.244 43.93 0 24.265 19.67 43.935 43.935 43.935 0.243 0 0.486-0.002 0.728-0.006h-0.036zM609.536 310.989h-205.722c-24.233 0-43.878 19.645-43.878 43.878s19.645 43.878 43.878 43.878h205.824c24.233 0 43.878-19.645 43.878-43.878s-19.645-43.878-43.878-43.878v0z" />
<glyph unicode="&#xe90d;" glyph-name="bogo" d="M885.299 497.715l-49.971 68.454c-1.47 2.067-2.35 4.643-2.35 7.424s0.88 5.357 2.377 7.464l-0.027-0.040 48.947 69.069c1.458 2.051 2.331 4.606 2.331 7.365 0 4.847-2.695 9.066-6.668 11.238l-0.067 0.033-74.65 39.987c-4.059 2.119-6.782 6.297-6.782 11.111 0 0.741 0.065 1.467 0.188 2.173l-0.011-0.075 14.029 83.558c0.106 0.619 0.166 1.331 0.166 2.058 0 6.894-5.45 12.515-12.276 12.789l-0.025 0.001-84.531 3.584c-5.562 0.214-10.191 3.975-11.702 9.075l-0.023 0.090-23.398 81.664c-1.586 5.363-6.468 9.209-12.248 9.209-1.848 0-3.605-0.393-5.19-1.101l0.081 0.032-77.824-33.485c-1.464-0.608-3.164-0.961-4.947-0.961-3.828 0-7.275 1.628-9.688 4.23l-0.008 0.008-56.32 63.027c-2.366 2.665-5.8 4.336-9.626 4.336s-7.26-1.671-9.614-4.323l-55.666-63.86c-2.322-2.661-5.719-4.334-9.507-4.334-1.782 0-3.477 0.37-5.013 1.037l0.081-0.031-78.182 32.256c-1.428 0.598-3.087 0.945-4.828 0.945-5.838 0-10.763-3.909-12.302-9.252l-0.022-0.090-22.374-81.613c-1.491-5.193-6.009-9.002-11.476-9.418l-0.044-0.003-84.48-4.813c-6.778-0.428-12.114-6.030-12.114-12.878 0-0.768 0.067-1.521 0.196-2.252l-0.011 0.078 15.36-83.302c0.137-0.699 0.215-1.503 0.215-2.325 0-4.741-2.599-8.876-6.449-11.056l-0.063-0.033-73.984-40.96c-3.946-2.244-6.563-6.42-6.563-11.208 0-2.785 0.886-5.363 2.391-7.468l-0.026 0.039 49.971-68.454c1.47-2.067 2.35-4.643 2.35-7.424s-0.88-5.357-2.377-7.464l0.027 0.040-48.947-69.069c-1.444-2.049-2.308-4.597-2.308-7.347 0-4.847 2.683-9.067 6.645-11.256l0.066-0.034 74.65-39.987c4.059-2.119 6.782-6.297 6.782-11.111 0-0.741-0.065-1.467-0.188-2.173l0.011 0.075-14.029-83.558c-0.112-0.633-0.175-1.363-0.175-2.107 0-6.887 5.46-12.498 12.287-12.741l0.022-0.001 84.531-3.533c5.563-0.254 10.181-4.022 11.702-9.125l0.023-0.091 23.603-81.408c1.571-5.386 6.464-9.255 12.261-9.255 1.843 0 3.595 0.391 5.177 1.095l-0.081-0.032 77.824 33.485c1.454 0.6 3.143 0.948 4.913 0.948 3.846 0 7.308-1.643 9.722-4.266l0.008-0.009 56.32-63.078c2.358-2.576 5.736-4.185 9.49-4.185 3.898 0 7.39 1.735 9.747 4.476l0.014 0.017 55.654 63.846c2.313 2.667 5.707 4.344 9.493 4.344 1.787 0 3.487-0.374 5.026-1.048l-0.081 0.031 78.234-32.205c1.44-0.613 3.116-0.969 4.875-0.969 5.818 0 10.726 3.898 12.255 9.224l0.022 0.090 22.374 81.613c1.486 5.206 6.003 9.031 11.474 9.469l0.046 0.003 84.48 4.813c6.782 0.423 12.123 6.027 12.123 12.879 0 0.786-0.070 1.556-0.205 2.304l0.012-0.078-15.36 83.302c-0.119 0.651-0.187 1.401-0.187 2.166 0 4.721 2.587 8.839 6.422 11.011l0.063 0.033 74.035 40.96c3.99 2.098 6.665 6.215 6.665 10.957 0 2.938-1.027 5.635-2.74 7.754l0.018-0.023zM507.904 341.299c-0.076 0-0.166 0-0.256 0-126.964 0-229.888 102.924-229.888 229.888s102.924 229.888 229.888 229.888c126.964 0 229.888-102.924 229.888-229.888v0c-0.029-126.852-102.796-229.691-229.618-229.837h-0.014zM714.752 192.819c-12.046-12.052-28.691-19.507-47.077-19.507-0.063 0-0.127 0-0.19 0h0.010c-6.796 0.045-13.348 1.014-19.56 2.788l0.513-0.125-53.965 16.538-41.626-38.298c-1.434-1.331-2.714-2.304-4.198-3.635l66.918-207.462c1.275-3.859 4.849-6.594 9.061-6.594 3.023 0 5.717 1.408 7.461 3.605l0.015 0.020 48.794 62.413c1.72 2.388 4.493 3.924 7.625 3.924 0.82 0 1.615-0.105 2.373-0.303l-0.065 0.014 75.981-22.477c0.756-0.215 1.625-0.338 2.522-0.338 5.288 0 9.574 4.287 9.574 9.574 0 0.941-0.136 1.851-0.389 2.71l0.017-0.068zM421.581 192.512l-53.965-16.538c-5.398-1.694-11.604-2.671-18.039-2.671-0.354 0-0.708 0.003-1.061 0.009l0.053-0.001c-0.009 0-0.021 0-0.032 0-18.433 0-35.125 7.453-47.228 19.509l0.002-0.002-63.795-197.222c-0.301-0.879-0.475-1.893-0.475-2.947 0-5.175 4.195-9.37 9.37-9.37 1.011 0 1.985 0.16 2.897 0.456l-0.066-0.019 75.981 22.118c0.731 0.199 1.569 0.313 2.435 0.313 3.022 0 5.719-1.393 7.484-3.572l0.014-0.018 48.794-62.925c1.76-2.216 4.453-3.624 7.476-3.624 4.213 0 7.786 2.735 9.042 6.527l0.019 0.067 66.918 207.77c-1.57 1.103-2.944 2.299-4.185 3.621l-0.013 0.014zM644.096 628.582l-86.63 6.195-32.614 80.384c-2.824 6.635-9.288 11.203-16.819 11.203s-13.996-4.568-16.774-11.084l-0.045-0.119-32.614-80.384-86.579-6.298c-9.347-0.857-16.611-8.658-16.611-18.155 0-5.528 2.461-10.482 6.347-13.824l0.024-0.020 66.304-56.32-20.48-84.326c-0.334-1.304-0.526-2.8-0.526-4.342 0-10.038 8.138-18.176 18.176-18.176 3.53 0 6.825 1.006 9.614 2.748l-0.077-0.045 73.626 45.824 73.626-45.824c2.712-1.697 6.007-2.703 9.537-2.703 10.038 0 18.176 8.138 18.176 18.176 0 1.541-0.192 3.038-0.553 4.467l0.027-0.126-20.48 84.326 66.304 56.32c3.999 3.348 6.525 8.342 6.525 13.926 0 9.531-7.357 17.344-16.702 18.070l-0.062 0.004z" />
<glyph unicode="&#xe90e;" glyph-name="business-details" d="M907.622 804.71h-221.082v64.819c0.052 0.948 0.082 2.058 0.082 3.174 0 32.88-25.678 59.763-58.075 61.688l-0.17 0.008h-232.755c-32.566-1.933-58.245-28.816-58.245-61.696 0-1.117 0.030-2.226 0.088-3.328l-0.007 0.154v-64.819h-221.082c-65.15-3.813-116.541-57.579-116.541-123.347 0-2.231 0.059-4.448 0.176-6.65l-0.013 0.307v-162.099h1024v162.099c0.104 1.894 0.163 4.112 0.163 6.343 0 65.768-51.39 119.533-116.205 123.331l-0.335 0.016zM628.378 804.71h-232.755v32.512c-0.031 0.517-0.049 1.122-0.049 1.731 0 16.407 12.862 29.81 29.053 30.676l0.077 0.003h174.438c16.268-0.869 29.13-14.272 29.13-30.679 0-0.609-0.018-1.214-0.053-1.814l0.004 0.083zM628.378 415.59c0.424-3.739 0.666-8.074 0.666-12.465 0-64.641-52.402-117.043-117.043-117.043s-117.043 52.402-117.043 117.043c0 4.391 0.242 8.725 0.713 12.99l-0.047-0.526c0.062 11.537 1.552 22.698 4.303 33.353l-0.207-0.943h-399.616v-356.659c-0.104-1.894-0.163-4.112-0.163-6.343 0-65.768 51.39-119.533 116.205-123.331l0.335-0.016h791.245c65.15 3.813 116.541 57.579 116.541 123.347 0 2.231-0.059 4.448-0.176 6.65l0.013-0.307v356.762h-399.872c2.561-9.706 4.069-20.864 4.147-32.362v-0.048zM570.214 415.59c-0.032 11.857-3.003 23.012-8.222 32.786l0.184-0.377h-100.198c-5.064-9.391-8.054-20.547-8.090-32.398v-0.011c-0.212-1.87-0.333-4.037-0.333-6.232 0-32.321 26.201-58.522 58.522-58.522s58.522 26.201 58.522 58.522c0 2.195-0.121 4.363-0.356 6.495l0.024-0.263z" />
<glyph unicode="&#xe90f;" glyph-name="call" d="M1021.741 166.615q-4.356 13.069-55.287 38.561-13.768 8.013-39.261 21.835t-46.198 25.439q-20.76 11.617-38.938 22.534-2.904 2.205-18.178 12.746c-7.405 5.346-15.853 10.542-24.677 15.114l-1.138 0.536c-6.029 3.093-13.139 4.949-20.671 5.055h-0.035c-14.684-2.487-27.292-9.974-36.283-20.616l-0.074-0.089c-14.398-13.705-27.52-28.448-39.357-44.21l-0.656-0.913c-12.434-16.632-25.055-31.334-38.581-45.144l0.073 0.075c-8.117-10.518-19.742-17.981-33.099-20.647l-0.354-0.059c-5.887 0.314-11.388 1.609-16.462 3.724l0.327-0.121c-6.561 2.42-11.509 4.518-14.897 6.185s-9.197 5.109-17.425 10.218-12.854 7.906-13.822 8.39c-65.272 35.852-121.457 77.895-171.021 126.649l0.103-0.101c-48.737 49.427-90.848 105.577-124.772 166.888l-1.991 3.922q-0.645 1.452-8.336 13.822t-10.165 17.479c-1.911 3.845-3.998 8.763-5.835 13.802l-0.349 1.096c-2.016 4.743-3.33 10.242-3.651 16.006l-0.006 0.128c2.669 13.795 10.144 25.504 20.578 33.572l0.128 0.095c13.763 13.544 28.482 26.234 44.003 37.916l1.12 0.807c16.653 12.493 31.378 25.615 44.928 39.864l0.141 0.149c10.732 9.064 18.219 21.672 20.656 36l0.050 0.356c-0.146 7.476-1.998 14.488-5.18 20.705l0.125-0.268c-5.096 9.956-10.292 18.405-16.061 26.414l0.41-0.599q-10.756 15.274-12.746 18.178-10.756 18.178-22.534 38.884t-25.439 46.198q-13.822 25.439-21.835 39.261-25.439 50.985-38.292 55.341c-3.985 1.432-8.584 2.26-13.376 2.26-0.743 0-1.482-0.020-2.216-0.059l0.102 0.004c-18.483-0.617-36.064-3.229-52.921-7.63l1.667 0.37c-19.123-4.064-35.776-9.327-51.704-15.978l1.902 0.704c-34.057-21.096-60.627-51.422-76.577-87.494l-0.492-1.246c-22.598-38.866-36.265-85.38-37.106-135.017l-0.003-0.244c0-0.174-0.001-0.379-0.001-0.585 0-13.26 0.919-26.305 2.697-39.075l-0.168 1.475c2.399-16.19 5.57-30.323 9.656-44.062l-0.567 2.22q6.561-23.287 10.756-34.528t14.897-40.336q10.756-29.096 13.069-35.657c17.216-48.788 37.584-90.796 61.965-130.051l-1.622 2.804c46.677-72.578 98.306-135.607 156.281-192.16l0.223-0.217c56.772-58.279 119.802-109.977 188.146-154.157l4.231-2.562c36.464-22.752 78.49-43.121 122.692-58.907l4.609-1.436q6.561-2.151 35.603-13.069t40.336-14.897 34.528-10.756c11.503-3.508 25.636-6.678 40.090-8.87l1.752-0.219c11.082-1.613 23.878-2.534 36.889-2.534 50.343 0 97.465 13.79 137.796 37.799l-1.239-0.683c37.305 16.458 67.615 43.047 88.205 76.289l0.481 0.834c5.959 14.034 11.221 30.688 14.934 47.918l0.34 1.884c4.036 15.192 6.648 32.773 7.25 50.862l0.010 0.391c0.039 0.665 0.061 1.442 0.061 2.224 0 4.731-0.81 9.273-2.3 13.495l0.087-0.284z" />
<glyph unicode="&#xe910;" glyph-name="camera" d="M512.102 558.182c-81.042-2.144-145.92-68.351-145.92-149.711 0-82.71 67.050-149.76 149.76-149.76s149.76 67.050 149.76 149.76c0 0.001 0 0.001 0 0.002v0c-1.091 82.921-68.565 149.721-151.642 149.721-0.688 0-1.376-0.005-2.062-0.014l0.104 0.001zM921.702 707.891h-122.88c-18.278 0.738-33.722 12.135-40.337 28.114l-0.111 0.302-31.744 92.928c-6.716 16.289-22.165 27.692-40.361 28.413l-0.087 0.003h-348.16c-18.283-0.724-33.732-12.127-40.337-28.114l-0.111-0.302-31.437-93.082c-6.752-16.252-22.185-27.623-40.358-28.362l-0.090-0.003h-122.88c-0.337 0.004-0.736 0.006-1.134 0.006-55.484 0-100.547-44.619-101.265-99.932l-0.001-0.068v-449.126c0.747-55.359 45.799-99.949 101.265-99.949 0.399 0 0.798 0.002 1.196 0.007l-0.061-0.001h818.944c0.337-0.004 0.736-0.006 1.135-0.006 55.466 0 100.518 44.59 101.264 99.878l0.001 0.070v449.28c-0.833 55.292-45.851 99.795-101.263 99.795-0.4 0-0.799-0.002-1.198-0.007l0.061 0.001zM512.102 158.822c-135.069 3.574-243.2 113.918-243.2 249.518 0 137.85 111.75 249.6 249.6 249.6s249.6-111.75 249.6-249.6c0-0.007 0-0.014 0-0.022v0.001c-1.837-138.196-114.295-249.518-252.753-249.518-1.141 0-2.281 0.008-3.419 0.023l0.173-0.002zM885.862 538.214c-18.935 0.486-34.099 15.952-34.099 34.959 0 19.313 15.656 34.97 34.97 34.97s34.97-15.656 34.97-34.97c0-0.014 0-0.028 0-0.043v0.002c-0.024-9.684-4.039-18.425-10.487-24.67l-0.009-0.009c-6.52-6.335-15.429-10.241-25.25-10.241-0.087 0-0.174 0-0.261 0.001h0.013z" />
<glyph unicode="&#xe911;" glyph-name="cart" horiz-adv-x="1020" d="M903.153 696.975h-65.246v-70.672h-70.904v-65.246h70.857v-70.857h65.246v70.857h70.672v65.246h-70.672zM972.805 857.609h-757.775l-45.955 102.391h-128.916c-22.827-2.039-40.586-21.075-40.586-44.259 0-2.169 0.155-4.301 0.456-6.387l-0.028 0.238c-0.246-1.796-0.387-3.871-0.387-5.979 0-23.557 17.565-43.011 40.312-45.98l0.234-0.025h62.232l184.331-389.159-71.692-122.887c-5.503-15.034-9.17-32.422-10.225-50.512l-0.023-0.497c0.262-56.443 45.948-102.129 102.366-102.391h614.462v102.252h-593.94c-5.504 0.372-9.877 4.744-10.247 10.215l-0.002 0.034v5.194l46.373 87.134h378.864c0.217-0.002 0.473-0.003 0.73-0.003 37.008 0 69.259 20.372 86.148 50.515l0.256 0.498 7.837 14.468-35.15-0.417-0.603 53.004h-28.89l-15.674-26.711c-8.215-11.056-21.235-18.142-35.91-18.142-0.793 0-1.581 0.021-2.364 0.062l0.11-0.005h-339.448l-132.718 296.785h662.572l-22.305-30.096h51.613v-78.509l17.853 27.824 49.572 80.781 7.651 13.634c3.976 6.657 6.327 14.683 6.327 23.258 0 0.872-0.024 1.738-0.072 2.598l0.005-0.119c0.225 1.7 0.353 3.666 0.353 5.662 0 25.176-20.409 45.584-45.584 45.584-0.76 0-1.516-0.019-2.267-0.055l0.106 0.004zM819.219 151.447c-56.549 0-102.391-45.842-102.391-102.391s45.842-102.391 102.391-102.391c56.549 0 102.391 45.842 102.391 102.391v0c-0.262 56.443-45.948 102.129-102.366 102.391h-0.025zM819.219 19.934c-16.084 0-29.122 13.038-29.122 29.122s13.038 29.122 29.122 29.122c16.084 0 29.122-13.038 29.122-29.122v0c0-16.084-13.038-29.122-29.122-29.122v0zM307.172 140.781c-56.549 0-102.391-45.842-102.391-102.391s45.842-102.391 102.391-102.391c56.549 0 102.391 45.842 102.391 102.391v0c-0.262 56.443-45.948 102.129-102.366 102.391h-0.025zM307.172 9.269c-16.084 0-29.122 13.038-29.122 29.122s13.038 29.122 29.122 29.122c16.084 0 29.122-13.038 29.122-29.122v0c0-16.084-13.038-29.122-29.122-29.122v0z" />
<glyph unicode="&#xe912;" glyph-name="check-active" d="M512 960c-282.77 0-512-229.23-512-512s229.23-512 512-512c282.77 0 512 229.23 512 512v0c0.001 0.441 0.002 0.964 0.002 1.487 0 281.95-228.565 510.515-510.515 510.515-0.523 0-1.046-0.001-1.568-0.002h0.081zM779.981 540.774v0l-329.421-309.043c-3.105-3.437-7.579-5.588-12.554-5.588-0.176 0-0.352 0.003-0.527 0.008l0.026-0.001c-0.469-0.054-1.013-0.085-1.563-0.085-4.667 0-8.818 2.206-11.468 5.632l-0.025 0.033-176.742 156.365-3.738 3.738c-3.449 3.281-5.595 7.905-5.595 13.030s2.145 9.749 5.587 13.023l0.008 0.007 57.6 57.6c3.281 3.449 7.905 5.595 13.030 5.595s9.749-2.145 13.023-5.587l0.007-0.008 1.843-1.843 102.4-78.336c1.645-1.726 3.961-2.799 6.528-2.799s4.883 1.073 6.525 2.796l0.003 0.004 249.498 227.277h1.894c3.287 3.436 7.909 5.572 13.030 5.572s9.743-2.136 13.024-5.565l0.006-0.007 57.549-57.6c3.457-2.93 5.636-7.276 5.636-12.13 0-4.831-2.158-9.158-5.563-12.069l-0.022-0.018z" />
<glyph unicode="&#xe913;" glyph-name="check-inactive" d="M512-64c-0.441-0.001-0.964-0.002-1.487-0.002-281.95 0-510.515 228.565-510.515 510.515 0 0.523 0.001 1.046 0.002 1.568v-0.081c-0.001 0.426-0.002 0.931-0.002 1.436 0 281.978 228.588 510.566 510.566 510.566 0.505 0 1.009-0.001 1.514-0.002h-0.078c0.441 0.001 0.964 0.002 1.487 0.002 281.95 0 510.515-228.565 510.515-510.515 0-0.523-0.001-1.046-0.002-1.568v0.081c0.001-0.441 0.002-0.964 0.002-1.487 0-281.95-228.565-510.515-510.515-510.515-0.523 0-1.046 0.001-1.568 0.002h0.081zM512 857.6c-225.063-0.664-407.256-183.266-407.256-408.421 0-225.565 182.857-408.422 408.422-408.422s408.422 182.857 408.422 408.422c0 112.767-45.701 214.86-119.593 288.767l0.001-0.001c-73.719 73.922-175.669 119.658-288.301 119.658-0.596 0-1.192-0.001-1.787-0.004h0.092z" />
<glyph unicode="&#xe914;" glyph-name="checkbox-active" d="M910.080 960h-796.314c-62.75-0.203-113.563-51.017-113.766-113.747v-796.333c0.203-62.75 51.017-113.563 113.747-113.766h796.333c62.75 0.203 113.563 51.017 113.766 113.747v796.333c-0.203 62.75-51.017 113.563-113.747 113.766h-0.019zM398.080 163.533l-284.467 284.416 79.667 79.667 204.8-204.8 432.384 432.333 79.616-79.667z" />
<glyph unicode="&#xe915;" glyph-name="checkbox-inactive" d="M910.234-64h-796.467c-62.796 0.087-113.679 50.97-113.766 113.758v796.475c0.087 62.796 50.97 113.679 113.758 113.766h796.475c62.796-0.087 113.679-50.97 113.766-113.758v-796.475c-0.087-62.796-50.97-113.679-113.758-113.766h-0.008zM193.434 857.6c-50.253-0.058-90.975-40.78-91.034-91.028v-637.139c0.058-50.253 40.78-90.975 91.028-91.034h637.138c50.253 0.058 90.975 40.78 91.034 91.028v637.139c-0.058 50.253-40.78 90.975-91.028 91.034h-0.006z" />
<glyph unicode="&#xe916;" glyph-name="circle-delete" d="M512 960c282.77 0 512-229.23 512-512s-229.23-512-512-512c-282.77 0-512 229.23-512 512v0c0 282.77 229.23 512 512 512v0zM572.826 448l182.528 182.579c7.783 7.783 12.597 18.536 12.597 30.413 0 23.754-19.256 43.010-43.010 43.010-11.877 0-22.629-4.814-30.413-12.597l-182.528-182.528-182.579 182.528c-7.783 7.783-18.536 12.597-30.413 12.597-23.754 0-43.010-19.256-43.010-43.010 0-11.877 4.814-22.629 12.597-30.413l182.528-182.579-182.528-182.579c-7.783-7.783-12.597-18.536-12.597-30.413 0-23.754 19.256-43.010 43.010-43.010 11.877 0 22.629 4.814 30.413 12.597l182.579 182.579 182.528-182.528c7.783-7.783 18.536-12.597 30.413-12.597 23.754 0 43.010 19.256 43.010 43.010 0 11.877-4.814 22.629-12.597 30.413v0z" />
<glyph unicode="&#xe917;" glyph-name="circle-next" d="M512-64c-282.77 0-512 229.23-512 512s229.23 512 512 512c282.77 0 512-229.23 512-512v0c-0.32-282.641-229.359-511.68-511.969-512h-0.031zM270.285 399.974h335.872l-105.677-105.882c-4.953-5.010-8.013-11.901-8.013-19.507s3.060-14.497 8.016-19.51l-0.003 0.003 16.384-16.435c4.966-4.967 11.827-8.038 19.406-8.038 0.018 0 0.035 0 0.053 0h-0.003c0.044 0 0.096 0 0.148 0 7.532 0 14.345 3.074 19.255 8.036l181.148 181.096c4.95 5.002 8.009 11.885 8.009 19.482s-3.058 14.48-8.011 19.484l-181.144 181.144c-4.98 4.957-11.847 8.021-19.43 8.021s-14.45-3.064-19.431-8.022l0.001 0.001-16.384-16.435c-4.965-4.912-8.039-11.725-8.039-19.257 0-0.052 0-0.104 0-0.156v0.008c0-0.023 0-0.050 0-0.077 0-7.457 3.078-14.196 8.032-19.014l0.006-0.006 106.854-106.496h-336.947c-15.362-0.314-27.713-12.772-27.853-28.147v-23.309c0.313-15.084 12.615-27.192 27.745-27.192 0.182 0 0.364 0.002 0.545 0.005h-0.539z" />
<glyph unicode="&#xe918;" glyph-name="cleaning" d="M860.809 827.255c-35.38 19.107-77.441 30.336-122.124 30.336-41.391 0-80.531-9.635-115.301-26.786l1.529 0.682c-68.263-37.54-122.612-93.052-157.71-160.216l-1.010-2.122c-2.234 0.569-4.799 0.895-7.44 0.895-12.573 0-23.418-7.397-28.421-18.077l-0.081-0.192c-1.939-4.055-3.072-8.813-3.072-13.836 0-9.68 4.206-18.378 10.891-24.366l0.031-0.027c-2.867-6.554-4.642-10.957-5.291-12.663l-153.020-343.689c-3.877 1.862-8.429 2.95-13.235 2.95-12.368 0-23.053-7.205-28.087-17.646l-0.081-0.186c-2.099-4.19-3.328-9.13-3.328-14.356 0-12.501 7.029-23.359 17.35-28.84l0.177-0.086 1.024-0.546-34.406-77.346h-85.504c-17.395-0.583-31.274-14.824-31.274-32.307s13.879-31.724 31.221-32.306l0.053-0.001h157.901c17.395 0.583 31.274 14.824 31.274 32.307s-13.879 31.724-31.221 32.306l-0.053 0.001h-3.038l21.914 49.22c2.59-0.85 5.575-1.369 8.672-1.433l0.032-0.001c12.415 0.041 23.136 7.248 28.248 17.7l0.082 0.186c2.066 4.162 3.275 9.064 3.275 14.247 0 11.279-5.722 21.221-14.422 27.082l-0.116 0.074 158.413 356.147c3.863-1.892 8.402-3.010 13.2-3.038h0.009c12.552 0.064 23.363 7.451 28.386 18.103l0.082 0.192c1.958 4.062 3.102 8.833 3.102 13.871 0 11.904-6.388 22.317-15.923 27.996l-0.149 0.082c29.114 55.538 72.477 100.183 125.3 130.049l1.573 0.818c25.771 12.882 56.144 20.422 88.278 20.422 32.998 0 64.138-7.951 91.61-22.042l-1.132 0.527c34.247-20.38 57.443-56.227 59.956-97.656l0.017-0.341c8.806-82.978 1.331-138.615-22.118-165.41-2.113-2.372-4.344-4.527-6.726-6.506l-0.101-0.082v-72.294c21.531 7.301 39.739 19.632 53.884 35.639l0.115 0.133c36.591 41.574 48.777 112.060 37.922 215.484-5.060 62.547-39.962 115.977-90.298 146.506l-0.838 0.472zM770.833 282.556c20.966-0.026 40.793-4.872 58.442-13.49l-0.791 0.349v255.351c0 17.852 1.638 16.145-15.804 16.145h-62.020c-17.442 0-193.399-14.814-239.889-249.822l-29.833-194.253c-0.013-0.387-0.021-0.841-0.021-1.297 0-19.108 13.408-35.084 31.329-39.034l0.265-0.049h149.845c-18.020 23.503-28.877 53.324-28.877 85.681 0 0.034 0 0.068 0 0.101v-0.005c-0.005 0.419-0.007 0.913-0.007 1.408 0 76.175 61.31 138.031 137.276 138.913l0.083 0.001zM844.288 219.716c-4.728 4.678-9.894 8.933-15.424 12.693l-0.379 0.243c-16.174 11.023-36.143 17.604-57.649 17.613h-0.002c-58.469-0.748-105.58-48.321-105.58-106.897 0-0.387 0.002-0.773 0.006-1.159v0.059c0-0.064 0-0.139 0-0.215 0-34.643 16.219-65.498 41.479-85.386l0.232-0.176c8.395-6.599 18.102-12.050 28.59-15.878l0.73-0.233c10.281-3.843 22.161-6.066 34.56-6.066s24.279 2.224 35.262 6.294l-0.702-0.228c11.682 4.236 21.781 10.015 30.677 17.221l-0.196-0.154c8.628 6.958 16.002 15.004 22.045 24.018l0.244 0.387c11.316 17 18.056 37.892 18.056 60.357 0 30.229-12.204 57.608-31.954 77.479l0.005-0.006zM770.833 196.471c0.366 0.009 0.797 0.014 1.229 0.014 29.917 0 54.17-24.253 54.17-54.17s-24.253-54.17-54.17-54.17c-29.912 0-54.162 24.245-54.17 54.155v0.001c-0.002 0.174-0.003 0.379-0.003 0.584 0 29.37 23.626 53.221 52.91 53.585h0.034z" />
<glyph unicode="&#xe919;" glyph-name="collaps" d="M1023.949 550.4h-1024v-199.68h1024z" />
<glyph unicode="&#xe91a;" glyph-name="combo" d="M693.965 476.006h-663.962c-0.015 0-0.033 0-0.051 0-16.542 0-29.952-13.41-29.952-29.952 0-0.018 0-0.036 0-0.054v0.003-419.84c0-0.030 0-0.066 0-0.102 0-49.721 40.292-90.032 90.007-90.061h543.952c49.717 0.029 90.010 40.34 90.010 90.061v0 419.84c0 16.57-13.433 30.003-30.003 30.003v0zM540.006 295.936c0-99.45-80.62-180.070-180.070-180.070s-180.070 80.62-180.070 180.070v0 30.003c0 16.57 13.433 30.003 30.003 30.003s30.003-13.433 30.003-30.003v0-30.003c-0.016-0.738-0.026-1.607-0.026-2.479 0-66.31 53.754-120.064 120.064-120.064s120.064 53.754 120.064 120.064c0 0.872-0.009 1.741-0.028 2.609l0.002-0.129v30.003c0 16.57 13.433 30.003 30.003 30.003s30.003-13.433 30.003-30.003v0zM993.946 715.776h-154.010v63.898c0 99.45-80.62 180.070-180.070 180.070s-180.070-80.62-180.070-180.070v-64h-153.6c-16.57 0-30.003-13.433-30.003-30.003v0-150.016h397.978c49.699-0.029 89.981-40.31 90.010-90.007v-419.843c-0.101-34.039-11.641-65.363-30.974-90.351l0.254 0.342h180.736c49.623 0.116 89.805 40.37 89.805 90.009 0 0.108 0 0.216-0.001 0.324v-0.017 659.917c0 16.57-13.433 30.003-30.003 30.003v0zM779.93 715.776h-240.128v63.898c-0.016 0.738-0.026 1.607-0.026 2.479 0 66.31 53.754 120.064 120.064 120.064s120.064-53.754 120.064-120.064c0-0.872-0.009-1.741-0.028-2.609l0.002 0.129v-64z" />
<glyph unicode="&#xe91b;" glyph-name="contact-us-headquarter" d="M940.339 31.846l-166.605 609.28-301.107 267.674-213.555-195.994-158.72-680.96h-100.352v-54.323h1024v54.323zM187.29 31.386h-70.912l156.262 670.72 198.4 186.573-5.12-158.72-157.85-139.315zM359.322 148.275l69.581 391.27 60.365 43.264 97.28-44.698 76.134-392.448-139.162-21.094zM533.914 28.774l-1.434 81.357 150.989 21.094-61.44 300.646 62.925 150.938 133.837-554.035z" />
<glyph unicode="&#xe91c;" glyph-name="contact-us-operation-office" d="M889.498-21.35h-61.747v874.701c0 11.792-9.559 21.35-21.35 21.35v0h-64v63.949c0 11.792-9.559 21.35-21.35 21.35v0h-426.65c-11.792 0-21.35-9.559-21.35-21.35v0-64h-64c-11.792 0-21.35-9.559-21.35-21.35v0-874.65h-64.154c-0.312 0.016-0.678 0.026-1.045 0.026-11.792 0-21.35-9.559-21.35-21.35s9.559-21.35 21.35-21.35c0.368 0 0.733 0.009 1.096 0.028l-0.051-0.002h256c11.792 0 21.35 9.559 21.35 21.35v0 106.65h213.35v-106.65c0 0 0 0 0 0 0-11.773 9.53-21.321 21.296-21.35h253.955c0.312-0.016 0.678-0.026 1.045-0.026 11.792 0 21.35 9.559 21.35 21.35s-9.559 21.35-21.35 21.35c-0.368 0-0.733-0.009-1.096-0.028l0.051 0.002zM401.050 170.65c0-11.792-9.559-21.35-21.35-21.35v0h-85.299c-11.792 0-21.35 9.559-21.35 21.35v0 85.35c0 11.792 9.559 21.35 21.35 21.35v0h85.146c11.792 0 21.35-9.559 21.35-21.35v0zM401.050 341.299c0-11.792-9.559-21.35-21.35-21.35v0h-85.299c-11.792 0-21.35 9.559-21.35 21.35v0 85.35c0 11.792 9.559 21.35 21.35 21.35v0h85.146c11.792 0 21.35-9.559 21.35-21.35v0zM401.050 511.949c0-11.792-9.559-21.35-21.35-21.35v0h-85.299c-11.792 0-21.35 9.559-21.35 21.35v0 85.402c0 11.792 9.559 21.35 21.35 21.35v0h85.146c11.792 0 21.35-9.559 21.35-21.35v0zM401.050 682.598c0-11.792-9.559-21.35-21.35-21.35v0h-85.299c-11.792 0-21.35 9.559-21.35 21.35v0 85.402c0 11.792 9.559 21.35 21.35 21.35v0h85.146c11.792 0 21.35-9.559 21.35-21.35v0zM571.699 170.598c0-11.792-9.559-21.35-21.35-21.35v0h-85.299c-11.792 0-21.35 9.559-21.35 21.35v0 85.402c0 11.792 9.559 21.35 21.35 21.35v0h85.35c11.792 0 21.35-9.559 21.35-21.35v0zM571.699 341.248c0-11.792-9.559-21.35-21.35-21.35v0h-85.299c-11.792 0-21.35 9.559-21.35 21.35v0 85.402c0 11.792 9.559 21.35 21.35 21.35v0h85.35c11.792 0 21.35-9.559 21.35-21.35v0zM571.699 511.898c0-11.792-9.559-21.35-21.35-21.35v0h-85.299c-11.792 0-21.35 9.559-21.35 21.35v0 85.453c0 11.792 9.559 21.35 21.35 21.35v0h85.35c11.792 0 21.35-9.559 21.35-21.35v0zM571.699 682.547c0-11.792-9.559-21.35-21.35-21.35v0h-85.299c-11.792 0-21.35 9.559-21.35 21.35v0 85.453c0 11.792 9.559 21.35 21.35 21.35v0h85.35c11.792 0 21.35-9.559 21.35-21.35v0zM742.349 170.547c0-11.792-9.559-21.35-21.35-21.35v0h-85.453c-11.792 0-21.35 9.559-21.35 21.35v0 85.453c0 11.792 9.559 21.35 21.35 21.35v0h85.504c11.792 0 21.35-9.559 21.35-21.35v0zM742.349 341.197c0-11.792-9.559-21.35-21.35-21.35v0h-85.453c-11.792 0-21.35 9.559-21.35 21.35v0 85.453c0 11.792 9.559 21.35 21.35 21.35v0h85.504c11.792 0 21.35-9.559 21.35-21.35v0zM742.349 511.846c0-11.792-9.559-21.35-21.35-21.35v0h-85.453c-11.792 0-21.35 9.559-21.35 21.35v0 85.504c0 11.792 9.559 21.35 21.35 21.35v0h85.504c11.792 0 21.35-9.559 21.35-21.35v0zM742.349 682.496c0-11.792-9.559-21.35-21.35-21.35v0h-85.453c-11.792 0-21.35 9.559-21.35 21.35v0 85.504c0 11.792 9.559 21.35 21.35 21.35v0h85.504c11.792 0 21.35-9.559 21.35-21.35v0z" />
<glyph unicode="&#xe91d;" glyph-name="credit-line-1" d="M186.368 217.6v-26.396h464.612l-18.375-101.262h-446.009v-25.998h14.052q227.556 0 455.623 0c7.391 0.069 14.276 2.177 20.137 5.786l-0.169-0.097q39.31 25.259 77.54 51.996c6.167 4.382 11.249 9.864 15.055 16.199l0.135 0.242c18.148 31.289 35.499 63.033 54.784 97.394 0.512-6.372 0.967-9.899 0.967-13.312v-256c0-22.13-8.761-30.72-31.175-30.72h-703.886c-24.292 0-32.768 8.647-32.768 33.28v958.009c0.057 25.372 8.078 33.28 33.906 33.28h701.099c25.031 0 32.711-7.908 32.711-32.939q0-204.174 0-408.235c-0.057-6.574-1.757-12.739-4.708-18.12l0.1 0.2c-51.2-91.364-103.083-182.5-154.396-273.863-2.72-5.727-8.458-9.616-15.103-9.616-0.692 0-1.374 0.042-2.044 0.124l0.080-0.008q-223.289 0.398-446.635 0zM185.401 650.809h178.688v205.938h-178.688zM696.092 600.633h-509.326v-23.723h509.326zM696.092 472.633h-509.383v-23.78h509.326zM696.092 344.633h-509.326v-23.893h509.326zM416.427 832.967h278.756v23.609h-278.756zM415.858 704.967h279.78v23.893h-279.78zM868.295 537.259l75.89-43.065c-1.82-3.641-3.243-6.656-4.836-9.444q-93.696-164.978-187.733-329.956c-1.868-4.004-4.376-7.403-7.43-10.22l-0.022-0.020c-30.208-21.39-60.644-42.382-93.525-65.252 4.836 27.136 10.012 51.2 13.255 75.947 4.158 25.841 13.144 48.962 26.045 69.361l-0.445-0.753c57.401 99.612 113.778 199.623 170.667 299.634 2.674 4.494 5.234 8.818 8.135 13.767zM949.248 503.012l-75.833 43.861 11.378 20.48c28.573-7.090 53.249-20.982 73.112-39.886l-0.067 0.063c0.99-1.338 1.584-3.021 1.584-4.842 0-0.955-0.163-1.872-0.464-2.725l0.018 0.057c-3.461-6.816-6.693-12.381-10.185-17.762l0.457 0.752z" />
<glyph unicode="&#xe91e;" glyph-name="credit-line-2" d="M396.092 25.234c-1.33 5.213-2.643 12.246-4.579 19.039-0.159 0.72-0.403 1.528-0.709 2.328-2.615 6.822-9.074 11.039-15.96 11.127l-0.124-0.004c-19.241 2.040-36.025 5.11-52.479 9.317l1.332-0.306c-4.068 1.701-8.783 1.9-13.235 0.194-4.236-1.624-7.495-4.689-9.433-8.422l0.011 0.021c-3.139-4.875-5.878-9.55-9.346-14.313-1.944-3.491-5.106-6.371-9.165-7.927-5.755-2.206-11.948-1.227-16.637 2.070l-0.061 0.045c-11.873 7.086-23.522 14.831-34.898 22.488-3.437 1.983-6.272 5.148-7.819 9.185-2.241 5.846-1.252 12.136 2.090 16.905l0.045 0.061c14.965 26.53 14.757 26.45-3.203 50.662-6.591 8.422-13.231 18.823-18.932 29.949l-0.389 0.799c-3.394 7.813-11.988 11.87-20.080 9.657l-0.068-0.020c-6.306-0.843-12.453-2.723-18.862-3.796-8.566-1.9-17.362 2.654-20.561 11-0.441 1.15-0.754 2.317-0.948 3.486l0.023-0.114c-2.994 13.16-5.987 26.321-8.565 39.64-2.731 9.299 2.068 19.218 11.213 22.723 1.768 0.678 3.576 1.069 5.372 1.195l-0.136-0.015c5.293 1.123 10.457 1.958 15.671 3.288 0.939 0.172 1.984 0.465 3.014 0.86 6.941 2.661 11.26 9.192 11.437 16.189l-0.002 0.126c2.149 19.369 5.217 36.147 9.342 52.622l-0.33-1.476c1.611 4.14 1.747 8.891 0.024 13.387s-5 7.939-8.984 9.951l0.018-0.009c-4.588 3.011-9.256 5.609-13.349 8.571-3.568 1.939-6.512 5.135-8.091 9.256-2.224 5.803-1.211 12.050 2.152 16.753l0.047 0.062c7.086 11.873 14.831 23.522 22.488 34.898 1.947 3.432 5.082 6.262 9.093 7.799 6.132 2.35 12.76 1.086 17.538-2.747l0.073-0.063c25.181-15.053 25.021-14.637 48.817 3.164 8.060 6.218 18.074 12.62 28.725 18.205l0.897 0.446c0.057 0.021 0.124 0.046 0.19 0.072 8.981 3.442 13.72 13.147 11.146 22.225l-0.021 0.068c-0.789 3.799-1.344 7.736-2.34 11.455-3.989 18.121-0.529 24.025 17.161 28.516 12.102 3.017 24.203 5.414 36.321 7.769 8.509 2.469 17.568-1.928 20.773-10.291 0.436-1.137 0.742-2.293 0.926-3.449l-0.022 0.111c1.959-6.355 2.994-13.16 4.761-19.637 0.156-0.703 0.394-1.492 0.693-2.273 2.621-6.837 9.185-11.003 16.104-10.897l0.124 0.007c17.535-2.198 35.068-5.636 52.265-9.441 3.704-1.298 7.905-1.341 11.89 0.187 3.656 1.401 6.564 3.907 8.489 6.991l-0.030-0.045c1.576 2.193 2.869 4.258 4.032 6.39l-0.054-0.096c14.612 22.722 19.531 23.702 42.563 8.779 8.106-5.096 16.269-10.218 24.039-15.682 3.507-2.011 6.399-5.232 7.976-9.344 2.33-6.078 1.219-12.628-2.374-17.506l-0.053-0.067c-15.124-26.114-14.98-25.868 3.172-49.958 6.422-8.395 13.285-18.985 19.411-30.162l0.629-1.217c3.186-7.073 10.86-10.837 18.264-9.203l0.087 0.022c6.968 0.858 13.905 3.041 20.915 3.915 8.284 1.68 16.706-2.762 19.794-10.818 0.418-1.090 0.719-2.196 0.909-3.304l-0.023 0.11c3.105-13.451 6.274-27.069 8.676-40.552 2.734-8.49-1.601-17.689-9.99-20.905-1.142-0.438-2.301-0.743-3.462-0.922l0.111 0.021c-5.732-1.72-11.75-2.691-17.478-4.172-1.186-0.176-2.494-0.517-3.781-1.011-7.375-2.827-11.93-9.815-12.014-17.26l0.004-0.134c-2.145-19.248-5.322-36.070-9.647-52.552l0.303 1.278c-1.351-3.821-1.401-8.159 0.176-12.273 1.451-3.786 4.055-6.792 7.257-8.771l-0.045 0.029c4.955-3.347 10.285-6.55 15.048-10.018 3.542-1.94 6.465-5.126 8.037-9.226 2.184-5.699 1.246-11.827-1.974-16.499l-0.043-0.058c-7.086-11.873-14.831-23.522-22.488-34.898-2.014-3.298-5.136-6.018-9.077-7.529-5.793-2.22-12.014-1.316-16.809 1.885l-0.057 0.040c-26.322 15.045-26.035 14.917-50.454-3.123-8.364-6.434-18.76-13.065-29.812-18.856l-0.936-0.465c-7.447-3.242-11.457-11.231-9.835-18.975l0.023-0.095c0.642-5.906 2.691-11.75 3.797-17.622 3.015-9.246-1.7-19.287-10.842-22.791-1.439-0.552-2.905-0.909-4.369-1.086l0.127 0.020c-13.081-3.201-26.4-5.779-39.64-8.565-9.429-2.899-16.65 1.631-21 13.603zM236.614 207.005c31.378-81.509 122.841-122.224 204.411-90.958 81.644 31.294 122.46 122.848 91.166 204.491s-122.848 122.46-204.491 91.166c-0.073-0.028-0.146-0.056-0.219-0.084l0.011 0.004c-0.087-0.033-0.19-0.073-0.294-0.112-81.368-31.188-122.047-122.433-90.859-203.801 0.112-0.293 0.225-0.585 0.339-0.876l-0.018 0.045zM563.258 836.986c-8.458 18.458-6.332 23.613 12.327 31.671 7.984 3.060 15.464 7.31 23.368 10.579 0.782 0.486 1.718 0.952 2.711 1.332 8.589 3.292 18.221-1.002 21.513-9.591 0.113-0.295 0.217-0.591 0.312-0.888l-0.014 0.041c1.245-2.428 2.527-5.307 3.667-8.281 0.207-0.539 0.408-1.080 0.603-1.62l-0.030 0.081c0.108-0.358 0.248-0.77 0.406-1.18 3.296-8.6 12.536-13.174 21.239-10.834l0.074 0.021c15.925 1.754 30.121 1.964 44.135 0.944l-1.594 0.053c2.555-0.379 5.335-0.114 8.010 0.911 4.56 1.748 7.87 5.342 9.402 9.603l0.009 0.026c13.529 29.032 13.529 29.032 43.877 17.295 5.529-1.982 10.662-3.926 15.896-6.259 4.459-1.309 8.239-4.577 10.013-9.205 1.599-4.171 1.247-8.611-0.608-12.313l-0.007-0.014c-5.721-7.449-7.519-17.459-3.964-26.734 2.852-7.441 8.583-12.931 15.436-15.686l0.022-0.009c7.846-5.265 15-12.214 20.739-20.458l0.304-0.473c4.371-6.742 12.877-9.705 20.57-6.756 1.074 0.412 2.082 0.919 3.019 1.51l-0.095-0.056c3.305 1.711 7.223 3.467 11.279 5.021 0.85 0.326 1.702 0.641 2.555 0.946l-0.127-0.046c0.075 0.031 0.164 0.066 0.254 0.1 7.333 2.811 15.541-0.742 18.539-7.946l0.008-0.019c5.27-10.762 10.203-21.891 14.906-32.917 0.326-0.581 0.65-1.272 0.927-1.995 3.151-8.222-0.959-17.442-9.181-20.593-0.211-0.081-0.422-0.157-0.634-0.228l0.030 0.010c-22.843-11.951-22.635-11.871-20.823-38.123 0.724-11.116 0.402-20.999-0.795-30.719l0.083 0.972c-0.679-2.839-0.534-5.97 0.614-8.964 1.806-4.711 5.684-8.017 10.197-9.276l0.049-0.013c1.057-0.389 2.053-0.833 3.016-1.341l0.033-0.018c24.985-10.311 25.958-12.228 15.87-37.794-2.582-6.951-5.1-14.069-8.177-20.971-1.552-4.33-4.891-7.961-9.495-9.725-4.123-1.58-8.491-1.37-12.249 0.25l0.004-0.002c-24.594 8.172-24.435 7.756-41.056-10.968-6.048-7.169-13.536-14.603-21.686-21.394l-1.082-0.83c-6.016-4.332-8.57-12.192-5.836-19.325 0.33-0.862 0.725-1.68 1.177-2.451l-0.047 0.085c1.674-4.366 4.281-8.184 5.955-12.55 0.143-0.302 0.295-0.66 0.435-1.026 3.096-8.076-0.915-17.129-8.96-20.27l-0.005-0.002c-10.675-4.998-21.309-9.98-31.919-14.524-9.405-4.082-18.307-2.009-21.202 7.66-6.906 22.248-20.68 27.7-42.019 22.525-9.365-1.678-18.324-1.525-26.905 0.177l0.342-0.057c-3.087 0.761-6.498 0.616-9.757-0.633-5.073-1.945-8.632-6.125-9.983-10.987l-0.014-0.053c-11.542-27.746-12.204-27.761-40.58-16.937-5.96 2.485-12.042 4.541-17.939 6.86-4.747 1.363-8.776 4.825-10.66 9.741-1.634 4.263-1.337 8.792 0.461 12.623l0.003 0.007c8.092 24.802 7.964 24.514-10.968 41.056-7.104 5.846-14.281 13.065-20.74 21.012l-0.686 0.917c-4.439 6.459-12.743 9.246-20.268 6.362-0.839-0.321-1.638-0.702-2.394-1.135l0.085 0.046c-4.158-1.594-7.681-3.85-11.632-5.365-0.481-0.253-1.051-0.511-1.642-0.738-8.268-3.169-17.539 0.964-20.708 9.232-0.091 0.238-0.176 0.477-0.256 0.716l0.012-0.034c-4.679 9.843-9.064 20.038-13.343 30.083-0.403 0.682-0.795 1.495-1.123 2.352-3.239 8.451 0.986 17.929 9.437 21.168 0.229 0.088 0.459 0.17 0.689 0.247l-0.033-0.011c22.506 11.584 22.34 11.52 20.71 37.174-0.704 11.223-0.453 21.077 0.581 30.796l-0.077-1.128c0.703 2.986 0.543 6.278-0.663 9.427-1.844 4.811-5.731 8.237-10.292 9.668l-0.041 0.012c-28.649 12.531-28.761 12.822-17.127 42.32 2.485 5.96 4.541 12.042 7.106 17.794 1.276 4.208 4.383 7.769 8.765 9.448 4.118 1.578 8.509 1.169 12.115-0.758l0.021-0.011c7.554-5.668 17.621-7.418 26.956-3.84 7.666 2.938 13.297 8.879 16.067 15.966l0.011 0.028c5.090 6.937 11.545 13.471 18.975 18.983l0.551 0.377c9.505 10.416 10.225 13.887 2.963 29.847zM544.041 624.208c27.44-70.951 107.112-106.362 178.174-79.124 71.194 27.289 106.787 107.124 79.498 178.318s-107.124 106.786-178.318 79.498v0c-71.17-27.442-106.711-107.324-79.403-178.568 0.045-0.117 0.090-0.234 0.135-0.351l-0.007 0.018zM315.392 234.53c-14.405 38.369 4.826 81.203 43.131 95.886 38.468 14.745 81.605-4.487 96.349-42.955s-4.487-81.605-42.955-96.349c-0.321-0.123-0.643-0.244-0.964-0.362l0.049 0.018c-38.105-14.339-80.666 4.754-95.25 42.802-0.129 0.337-0.255 0.674-0.379 1.011l0.019-0.051zM735.058 693.99c12.1-33.387-4.707-70.386-37.948-83.127-33.622-12.887-71.325 3.922-84.212 37.544s3.922 71.325 37.544 84.212c0.040 0.016 0.081 0.031 0.122 0.046l-0.006-0.002c0.168 0.066 0.366 0.143 0.565 0.22 33.255 12.746 70.546-3.879 83.292-37.133 0.236-0.615 0.461-1.232 0.677-1.849l-0.032 0.090z" />
<glyph unicode="&#xe91f;" glyph-name="credit-line-3" d="M667.853 592.026c84.48 0 168.346 0.614 252.774 0 3.336 0.427 7.196 0.671 11.112 0.671 51.040 0 92.416-41.376 92.416-92.416 0-3.754-0.224-7.457-0.659-11.094l0.043 0.439q0.87-154.368 0-308.685c0.474-3.597 0.744-7.757 0.744-11.98 0-53.472-43.347-96.819-96.819-96.819-4.287 0-8.51 0.279-12.65 0.819l0.488-0.052c-166.554-0.614-332.493-0.614-499.046 0-4.304-0.699-9.265-1.098-14.319-1.098-51.86 0-93.901 42.041-93.901 93.901 0 5.196 0.422 10.293 1.234 15.26l-0.073-0.543v317.44c-0.14 1.857-0.219 4.023-0.219 6.206 0 48.552 39.359 87.91 87.91 87.91 1.572 0 3.134-0.041 4.686-0.123l-0.217 0.009c88.678 0.768 177.306 0.154 266.496 0.154zM668.467 405.248c-92.16 0-184.32-1.178-275.968 0.614-27.955 0.614-35.84-9.523-35.072-36.301 1.792-63.027 0-126.72 0.614-190.362 0-40.96 11.878-52.941 52.941-52.941h517.12c40.448 0 52.941 11.878 52.941 52.941 0.614 63.642-0.614 126.72 0.614 190.362 0.614 27.341-8.909 36.301-36.301 35.84-92.518-0.717-184.678-0.154-276.89-0.154zM669.645 484.966h62.464c72.55 0 144.538-0.614 217.088 0.614 10.24 0 19.61 8.346 29.747 13.107-5.12 11.878-8.346 27.341-17.869 35.072-8.817 5.394-19.489 8.589-30.907 8.589-1.899 0-3.777-0.088-5.631-0.261l0.237 0.018q-256.973 0.87-513.894 0.614c-0.683 0.014-1.488 0.021-2.296 0.021-4.421 0-8.788-0.231-13.089-0.681l0.537 0.046c-23.194-2.97-38.093-16.64-35.84-38.656 0.614-7.117 23.808-17.254 36.301-17.254 91.136-1.792 182.17-1.229 273.152-1.229zM714.291 653.107h-36.864c-92.16 0-184.32 0.614-275.968 0-2.196 0.114-4.768 0.179-7.355 0.179-68.42 0-126.204-45.54-144.694-107.963l-0.271-1.068c-2.405-6.881-3.904-14.822-4.145-23.079l-0.003-0.115c0-115.405-0.614-231.373 0-346.778 1.717-21.026 5.511-40.452 11.217-59.041l-0.516 1.953c-6.723-2.147-14.455-3.384-22.477-3.384-29.895 0-55.777 17.184-68.306 42.213l-0.2 0.441c-53.043 104.038-105.318 208.179-154.675 314.010-6.012 11.287-9.542 24.682-9.542 38.903 0 37.235 24.207 68.816 57.742 79.865l0.594 0.17c114.79 57.702 230.4 114.227 345.6 171.315 40.038 19.661 79.667 39.885 120.115 58.931 13.343 8.16 29.492 12.992 46.769 12.992 38.402 0 71.228-23.872 84.448-57.586l0.213-0.616c18.893-38.093 36.864-77.312 58.317-121.344zM468.634 173.261c-33.331-2.97-55.296 7.117-60.058 30.31-1.067 5.235-1.678 11.252-1.678 17.412 0 15.603 3.919 30.29 10.825 43.132l-0.239-0.486c8.025 12.525 21.872 20.708 37.63 20.708 8.515 0 16.472-2.389 23.237-6.534l-0.195 0.111c7.718-4.441 16.972-7.061 26.837-7.061 10.296 0 19.925 2.853 28.14 7.813l-0.245-0.137c6.397 3.291 13.959 5.221 21.972 5.221 16.157 0 30.482-7.845 39.373-19.933l0.095-0.135c8.425-9.49 13.571-22.055 13.571-35.823 0-9.383-2.39-18.208-6.595-25.899l0.141 0.282c-6.481-17.782-23.242-30.249-42.916-30.249-3.554 0-7.013 0.407-10.332 1.176l0.307-0.060c-29.901 7.322-59.034 17.408-79.872 0.154z" />
<glyph unicode="&#xe920;" glyph-name="cutting-tools" d="M926.959 59.938h-797.662c-14.957-0.54-26.878-12.796-26.878-27.836s11.92-27.296 26.829-27.834l0.049-0.001h797.696c14.778 0.755 26.474 12.921 26.474 27.819s-11.696 27.064-26.407 27.816l-0.067 0.003zM528.145 857.6c-230.369-0.272-417.052-186.92-417.382-417.249v-0.031c0-0.010 0-0.022 0-0.034 0-15.364 12.455-27.819 27.819-27.819h779.127c15.368 0.019 27.819 12.482 27.819 27.853v0c-0.33 230.36-187.014 417.008-417.356 417.28h-0.026zM454.485 679.629c-70.407-22.191-126.269-72.623-155.252-137.67l-0.634-1.594c-4.37-9.987-14.165-16.839-25.56-16.839-15.364 0-27.819 12.455-27.819 27.819 0 4.108 0.89 8.008 2.489 11.517l-0.071-0.174c36.196 81.412 104.464 143.012 188.329 169.496l2.169 0.591c2.399 0.749 5.157 1.18 8.016 1.18 15.364 0 27.819-12.455 27.819-27.819 0-12.388-8.097-22.885-19.288-26.486l-0.197-0.055zM449.809 356.762c11.638-32.685 42.312-55.662 78.353-55.662s66.715 22.977 78.173 55.082l0.18 0.58zM842.342 324.335l-26.624 12.459c2.389 6.656 4.676 13.312 6.656 19.968h-157.867c-13.31-64.088-69.309-111.56-136.397-111.56s-123.087 47.472-136.24 110.656l-0.157 0.903h-158.003c5.018-17.489 10.677-32.329 17.409-46.562l-0.786 1.848-25.395-14.643c-8.377-4.9-13.915-13.852-13.915-24.098 0-15.367 12.457-27.824 27.824-27.824 5.121 0 9.919 1.384 14.041 3.797l-0.131-0.071 25.532 14.711c15.387-21.564 32.617-40.3 51.89-56.709l0.436-0.362-16.862-24.098c-3.277-4.507-5.242-10.151-5.242-16.254 0-15.364 12.455-27.819 27.819-27.819 9.515 0 17.915 4.777 22.931 12.064l0.061 0.094 16.623 23.893c20.606-12.154 44.416-22.372 69.55-29.425l2.13-0.51-5.086-28.809c-0.17-1.156-0.267-2.491-0.267-3.848 0-15.383 12.47-27.853 27.853-27.853 13.312 0 24.443 9.339 27.198 21.822l0.034 0.185 5.052 28.672q12.629-1.024 25.532-1.058c18.379 0.018 36.366 1.644 53.843 4.745l-1.858-0.273 7.543-28.16c3.658-11.407 14.17-19.519 26.577-19.519 15.383 0 27.853 12.47 27.853 27.853 0 2.152-0.244 4.246-0.706 6.257l0.036-0.187-7.578 28.331c26.195 9.857 48.834 21.99 69.56 36.65l-0.952-0.639 18.91-22.528c5.146-6.502 13.037-10.636 21.895-10.636 15.383 0 27.853 12.47 27.853 27.853 0 7.14-2.687 13.652-7.104 18.582l0.023-0.026-18.978 22.596c17.811 17.95 33.439 38.108 46.425 60.016l0.781 1.424 26.624-12.493c3.285-1.467 7.12-2.321 11.153-2.321 15.439 0 27.955 12.516 27.955 27.955 0 10.788-6.111 20.149-15.060 24.81l-0.155 0.073z" />
<glyph unicode="&#xe921;" glyph-name="delete" d="M633.639 448.051l365.019 365.122c16.147 15.662 26.169 37.561 26.169 61.8 0 47.529-38.53 86.059-86.059 86.059-24.239 0-46.138-10.021-61.779-26.147l-0.021-0.022-365.019-365.019-365.122 365.019c-15.472 15.007-36.6 24.258-59.89 24.258-47.529 0-86.059-38.53-86.059-86.059 0-23.289 9.251-44.418 24.279-59.912l-0.021 0.022 365.019-365.122-365.019-365.122c-15.007-15.472-24.258-36.6-24.258-59.89 0-47.529 38.53-86.059 86.059-86.059 23.289 0 44.418 9.251 59.912 24.279l-0.022-0.021 365.122 365.122 365.019-365.019c15.472-15.007 36.6-24.258 59.89-24.258 47.529 0 86.059 38.53 86.059 86.059 0 23.289-9.251 44.418-24.279 59.912l0.021-0.022z" />
<glyph unicode="&#xe922;" glyph-name="delivery" d="M229.222 296.397c-1.314 0.057-2.855 0.090-4.403 0.090-59.382 0-107.52-48.138-107.52-107.52s48.138-107.52 107.52-107.52c59.35 0 107.469 48.087 107.52 107.425v0.005c0.012 0.587 0.018 1.28 0.018 1.974 0 57.449-45.887 104.182-103.009 105.544l-0.126 0.002zM229.222 134.861c-0.718-0.034-1.56-0.054-2.406-0.054-29.804 0-53.965 24.161-53.965 53.965s24.161 53.965 53.965 53.965c29.803 0 53.963-24.159 53.965-53.962v0c0.004-0.249 0.007-0.543 0.007-0.837 0-28.755-22.925-52.155-51.494-52.921l-0.071-0.002zM140.339 296.397h-113.050c-9.217-0.256-16.591-7.789-16.591-17.043 0-0.092 0.001-0.184 0.002-0.276v0.014-52.429c-0.002-0.109-0.004-0.236-0.004-0.365 0-9.256 7.375-16.789 16.569-17.043l0.023-0.001h67.174c4.894 34.78 21.642 64.962 45.955 86.929l0.125 0.111zM768.973 296.397c-1.314 0.057-2.855 0.090-4.403 0.090-59.382 0-107.52-48.138-107.52-107.52s48.138-107.52 107.52-107.52c59.35 0 107.469 48.087 107.52 107.425v0.005c0.012 0.602 0.019 1.312 0.019 2.024 0 57.44-45.893 104.16-103.012 105.494l-0.124 0.002zM768.973 134.861c-0.718-0.034-1.56-0.054-2.406-0.054-29.804 0-53.965 24.161-53.965 53.965s24.161 53.965 53.965 53.965c29.803 0 53.963-24.159 53.965-53.962v0c0.006-0.294 0.009-0.64 0.009-0.987 0-28.725-22.943-52.091-51.504-52.772l-0.063-0.001zM1007.258 296.397h-9.626v234.854c0 0.017 0 0.038 0 0.059 0 28.67-8.479 55.359-23.067 77.697l0.334-0.546-100.966 155.853c-23.498 36.601-63.88 60.579-109.882 60.877h-156.562c-18.411-0.398-33.184-15.417-33.184-33.887 0-0.237 0.002-0.473 0.007-0.708l-0.001 0.035v-494.182h-256c24.297-22.132 40.932-52.303 45.686-86.283l0.087-0.757h270.438c6.794 69.040 64.554 122.539 134.81 122.539s128.015-53.498 134.765-121.979l0.045-0.56h103.475c9.217 0.255 16.592 7.788 16.592 17.043 0 0.11-0.001 0.22-0.003 0.33v-0.016 52.531c0 0.001 0 0.002 0 0.003 0 9.308-7.459 16.874-16.726 17.047h-0.016zM872.755 577.382h-206.643c-9.172 0.17-16.543 7.645-16.543 16.842 0 0.145 0.002 0.29 0.005 0.434v-0.021 119.45c-0.001 0.063-0.001 0.138-0.001 0.212 0 9.237 7.345 16.758 16.513 17.041l0.026 0.001h125.85c0.010 0 0.023 0 0.035 0 5.645 0 10.627-2.837 13.599-7.163l0.036-0.056 80.742-119.45c1.948-2.756 3.114-6.186 3.114-9.888 0-9.364-7.46-16.986-16.761-17.247l-0.024-0.001zM495.36 331.008h-462.182c-18.406 0.369-33.185 15.377-33.185 33.837 0 0.254 0.003 0.508 0.008 0.761l-0.001-0.038v155.392c-0.004 0.2-0.007 0.436-0.007 0.673 0 18.47 14.773 33.489 33.147 33.886l0.037 0.001h462.182c18.411-0.398 33.184-15.417 33.184-33.887 0-0.237-0.002-0.473-0.007-0.708l0.001 0.035v-155.546c0.003-0.154 0.004-0.336 0.004-0.518 0-18.458-14.777-33.465-33.147-33.836l-0.035-0.001zM147.2 587.52h-113.92c-18.406 0.369-33.185 15.377-33.185 33.837 0 0.254 0.003 0.508 0.008 0.761l-0.001-0.038v175.36c-0.004 0.2-0.007 0.436-0.007 0.673 0 18.47 14.773 33.489 33.147 33.886l0.037 0.001h113.971c18.411-0.398 33.184-15.417 33.184-33.887 0-0.237-0.002-0.473-0.007-0.708l0.001 0.035v-175.462c0.003-0.154 0.004-0.335 0.004-0.517 0-18.494-14.835-33.524-33.254-33.838h-0.030zM495.36 587.52h-232.090c-18.406 0.369-33.185 15.377-33.185 33.837 0 0.254 0.003 0.508 0.008 0.761l-0.001-0.038v175.36c-0.004 0.2-0.007 0.436-0.007 0.673 0 18.47 14.773 33.489 33.147 33.886l0.037 0.001h232.090c18.411-0.398 33.184-15.417 33.184-33.887 0-0.237-0.002-0.473-0.007-0.708l0.001 0.035v-175.462c0.003-0.154 0.004-0.336 0.004-0.518 0-18.458-14.777-33.465-33.147-33.836l-0.035-0.001z" />
<glyph unicode="&#xe923;" glyph-name="diagnostic-instruments" d="M830.737 789.333h-603.204c-69.18-0.329-125.133-56.486-125.133-125.712 0-0.144 0-0.289 0.001-0.433v0.022-453.973c0-0.122-0.001-0.267-0.001-0.412 0-69.178 55.876-125.305 124.958-125.711h603.243c69.18 0.329 125.133 56.486 125.133 125.712 0 0.144 0 0.289-0.001 0.433v-0.022 453.973c0 0.122 0.001 0.267 0.001 0.412 0 69.178-55.876 125.305-124.958 125.711h-0.039zM755.644 209.237c0-0.030 0-0.067 0-0.103 0-13.839-11.189-25.064-25.014-25.122h-503.165c-13.827 0.039-25.020 11.256-25.020 25.088 0 0.048 0 0.096 0 0.144v-0.007 453.973c0 0.041 0 0.089 0 0.137 0 13.832 11.194 25.049 25.016 25.088h503.163c13.831-0.058 25.020-11.283 25.020-25.122 0-0.036 0-0.072 0-0.108v0.006zM830.737 335.326c-0.071-0.001-0.155-0.001-0.239-0.001-13.95 0-25.259 11.309-25.259 25.259s11.309 25.259 25.259 25.259c13.95 0 25.258-11.308 25.259-25.257v0c0 0 0-0.001 0-0.001 0-13.866-11.173-25.122-25.007-25.257h-0.013zM830.737 436.224c-0.061-0.001-0.133-0.001-0.205-0.001-13.931 0-25.225 11.293-25.225 25.225s11.293 25.225 25.225 25.225c13.931 0 25.224-11.293 25.225-25.224v0c0 0 0-0.001 0-0.001 0-13.859-11.177-25.108-25.009-25.224h-0.011zM830.737 537.122c-0.061-0.001-0.133-0.001-0.205-0.001-13.931 0-25.225 11.293-25.225 25.225s11.293 25.225 25.225 25.225c13.931 0 25.224-11.293 25.225-25.224v0c0 0 0-0.001 0-0.001 0-13.859-11.177-25.108-25.009-25.224h-0.011zM252.587 637.986v-201.762h34.543l43.076 86.938c4.098 8.255 12.47 13.83 22.145 13.83 1.037 0 2.060-0.064 3.063-0.189l-0.12 0.012c10.516-1.256 18.962-8.85 21.467-18.805l0.037-0.173 33.587-135.612 19.763 39.902c4.185 8.338 12.668 13.961 22.464 13.961 0.010 0 0.021 0 0.031 0h86.526l45.329 87.347c4.189 8.104 12.471 13.567 22.038 13.653h0.012c9.544 0 17.834-5.366 22.019-13.245l0.065-0.135 46.012-87.518h31.027v201.762zM659.729 385.775c-9.521 0.015-17.791 5.361-21.985 13.212l-0.065 0.134-30.925 58.675-30.379-58.539c-4.187-8.134-12.508-13.61-22.113-13.653h-86.227l-43.11-86.938c-4.146-8.339-12.607-13.97-22.384-13.97-11.718 0-21.547 8.089-24.207 18.987l-0.035 0.171-33.587 135.612-19.763-39.902c-4.157-8.317-12.598-13.935-22.354-13.961h-50.009v-151.347h453.188v151.347h-46.319z" />
<glyph unicode="&#xe924;" glyph-name="dislike" d="M174.652 262.775h-139.681c-19.267 0.029-34.884 15.611-34.971 34.861v627.495c0.029 19.264 15.652 34.869 34.92 34.869 0.018 0 0.036 0 0.054 0h139.678c0.015 0 0.033 0 0.051 0 19.258 0 34.869-15.611 34.869-34.869 0 0 0 0 0 0v0-627.487c-0.058-19.252-15.664-34.84-34.917-34.869h-0.003zM983.652 262.775c-5.632-0.922-269.274 0-269.274 0l36.815-100.152c25.601-69.175 9.012-174.806-61.443-212.388-16.499-8.975-36.131-14.252-56.995-14.252-8.442 0-16.682 0.864-24.637 2.508l0.784-0.135c-15.31 3.94-27.907 13.532-35.696 26.366l-0.146 0.259c-6.3 14.528-10.324 31.391-11.15 49.090l-0.012 0.32c-8.291 44.558-29.393 83.209-59.29 113.052l-0.003 0.003c-54.275 52.79-222.936 205.066-222.936 205.066v557.647h582.685c66.951-80.855 112.347-181.819 126.086-292.6l0.282-2.788c22.431-47.111 35.531-102.379 35.531-160.707 0-62.461-15.022-121.414-41.651-173.442l1 2.152z" />
<glyph unicode="&#xe925;" glyph-name="done" d="M302.080 545.28l-71.68-71.68 230.4-230.4 512 512-71.68 71.68-440.32-440.32zM921.6 448c0-226.216-183.384-409.6-409.6-409.6s-409.6 183.384-409.6 409.6c0 226.216 183.384 409.6 409.6 409.6v0c0.865 0.007 1.887 0.011 2.911 0.011 39.083 0 76.855-5.614 112.553-16.080l-2.823 0.71 81.92 81.92c-57.714 21.197-124.363 34.195-193.823 35.826l-0.737 0.014c-282.77 0-512-229.23-512-512s229.23-512 512-512c282.77 0 512 229.23 512 512v0z" />
<glyph unicode="&#xe926;" glyph-name="down" d="M982.435 630.086l-447.162-452.282c-8.658-8.833-20.714-14.309-34.048-14.309s-25.39 5.476-34.040 14.301l-0.008 0.008-446.836 452.282c-12.629 12.842-20.426 30.471-20.426 49.92s7.797 37.078 20.435 49.93l-0.010-0.010c12.567 12.738 30.019 20.629 49.315 20.629s36.748-7.891 49.307-20.621l0.008-0.008 382.464-386.932 382.324 386.886c12.574 12.741 30.034 20.633 49.338 20.633s36.764-7.892 49.331-20.625l0.007-0.008c12.629-12.842 20.426-30.471 20.426-49.92s-7.797-37.078-20.435-49.93l0.010 0.010z" />
<glyph unicode="&#xe927;" glyph-name="dropdown" d="M0 704l512-512 512 512z" />
<glyph unicode="&#xe928;" glyph-name="edit" d="M512 960v0c-282.77 0-512-229.23-512-512v0c0-282.77 229.23-512 512-512s512 229.23 512 512c0 282.77-229.23 512-512 512zM594.432 644.608l112.998-113.254-277.35-277.914-112.947 113.254zM274.432 323.891l112.998-113.254-27.597-27.648-0.512 0.512c-3.051-5.091-7.964-8.801-13.776-10.209l-0.151-0.031-105.318-23.552c-1.43-0.323-3.073-0.509-4.76-0.512h-0.002c-6.010 0.030-11.439 2.491-15.358 6.449l-0.002 0.002c-3.982 3.984-6.444 9.486-6.444 15.563 0 1.743 0.203 3.439 0.586 5.066l-0.030-0.149 23.45 105.574c2.446 5.523 5.911 10.186 10.195 13.939l0.045 0.039-0.563 0.563zM692.582 743.219c3.023 3.035 7.206 4.914 11.827 4.914s8.804-1.878 11.827-4.913l0.001-0.001 89.293-89.6c2.981-3.067 4.819-7.258 4.819-11.878s-1.838-8.812-4.823-11.882l-55.446-55.446-112.998 113.254z" />
<glyph unicode="&#xe929;" glyph-name="electricals" d="M874.394 789.333h-356.489c-45.047-0.576-81.343-37.228-81.343-82.357 0-0.254 0.001-0.508 0.003-0.762v0.039-364.066c-0.002-0.215-0.003-0.469-0.003-0.723 0-45.129 36.296-81.781 81.289-82.357l0.054-0.001h356.489c45.043 0.557 81.343 37.201 81.343 82.324 0 0.266-0.001 0.532-0.004 0.797v-0.041 364.066c0.002 0.225 0.003 0.491 0.003 0.757 0 45.123-36.3 81.767-81.291 82.323l-0.053 0.001zM853.914 524.186c-1.875-85.661-71.759-154.385-157.695-154.385-87.112 0-157.73 70.618-157.73 157.73s70.617 157.729 157.729 157.73v0c87.292-1.094 157.635-72.113 157.635-159.562 0-0.532-0.003-1.064-0.008-1.595l0.001 0.081zM805.854 538.726v-29.047c0.001-0.092 0.001-0.2 0.001-0.309 0-17.657-14.218-31.994-31.83-32.186h-25.652c-17.63 0.192-31.848 14.529-31.848 32.186 0 0.109 0.001 0.217 0.002 0.326v-0.017 28.911c-0.001 0.092-0.001 0.2-0.001 0.309 0 17.657 14.218 31.994 31.83 32.186h25.652c17.63-0.192 31.848-14.529 31.848-32.186 0-0.109-0.001-0.217-0.002-0.326v0.017zM675.84 538.726v-29.047c0.001-0.092 0.001-0.2 0.001-0.309 0-17.657-14.218-31.994-31.83-32.186h-25.652c-17.63 0.192-31.848 14.529-31.848 32.186 0 0.109 0.001 0.217 0.002 0.326v-0.017 28.911c-0.001 0.092-0.001 0.2-0.001 0.309 0 17.657 14.218 31.994 31.83 32.186h25.652c17.674-0.135 31.95-14.494 31.95-32.187 0-0.108-0.001-0.217-0.002-0.325v0.017zM918.187 161.28c0.001-0.092 0.001-0.2 0.001-0.309 0-17.657-14.218-31.994-31.83-32.186h-511.574c-88.642 1.152-160.057 73.279-160.057 162.086 0 0.485 0.002 0.969 0.006 1.452l-0.001-0.074v131.857c-51.224 10.787-89.125 55.603-89.125 109.271 0 0.284 0.001 0.569 0.003 0.853v-0.044 73.626c-13.56 4.139-23.254 16.539-23.254 31.204 0 17.759 14.217 32.198 31.89 32.556l0.033 0.001h25.975v63.932c-0.011 0.311-0.017 0.676-0.017 1.042 0 17.588 14.258 31.846 31.846 31.846s31.846-14.258 31.846-31.846c0-0.367-0.006-0.732-0.018-1.095l0.001 0.053v-63.932h45.193v63.932c-0.011 0.311-0.017 0.676-0.017 1.042 0 17.588 14.258 31.846 31.846 31.846s31.846-14.258 31.846-31.846c0-0.367-0.006-0.732-0.018-1.095l0.001 0.053v-63.932h26.010c17.707-0.359 31.924-14.798 31.924-32.557 0-14.665-9.694-27.065-23.023-31.143l-0.231-0.061v-73.626c0.002-0.238 0.003-0.52 0.003-0.802 0-53.681-37.918-98.505-88.432-109.15l-0.727-0.128v-131.891c-0.003-0.276-0.004-0.602-0.004-0.928 0-53.452 43.004-96.859 96.301-97.511l0.062-0.001h511.42c17.66-0.154 31.916-14.505 31.916-32.187 0-0.108-0.001-0.217-0.002-0.325v0.016z" />
<glyph unicode="&#xe92a;" glyph-name="electronic-components" d="M376.934 400.896c1.536 26.010-11.571 51.541 19.661 69.53 16.623 9.523 11.571 32.529-6.11 46.524-6.707 4.038-11.709 10.326-14.004 17.799l-0.059 0.223c-0.99 107.042-0.512 213.572-0.512 322.628h302.114c0.512-6.997 2.014-14.507 2.014-21.504v-289.28c0.252-1.464 0.397-3.15 0.397-4.87 0-11.867-6.866-22.13-16.842-27.034l-0.177-0.079c-9.172-3.76-15.514-12.619-15.514-22.96 0-8.532 4.318-16.055 10.887-20.505l0.087-0.056c31.232-18.534 18.295-43.554 20.139-69.53-100.147-0.887-199.373-0.887-302.080-0.887zM575.317 378.368h23.689c1.265-1.752 2.298-3.779 2.996-5.957l0.042-0.153c0.478-166.059 0.478-182.579 0.99-348.638 0-20.48-10.24-21.504-27.682-17.476v372.224zM455.475 378.368h25.702v-256.614c-7.543-0.99-15.599-1.536-25.702-2.492v259.004z" />
<glyph unicode="&#xe92b;" glyph-name="emi" d="M128 800v128c0 17.673 14.327 32 32 32s32-14.327 32-32v0-128c0-17.673-14.327-32-32-32s-32 14.327-32 32v0zM672 768c0.015 0 0.033 0 0.051 0 17.645 0 31.949 14.304 31.949 31.949 0 0.018 0 0.036 0 0.054v-0.003 128c0 17.673-14.327 32-32 32s-32-14.327-32-32v0-128c0-0.015 0-0.033 0-0.051 0-17.645 14.304-31.949 31.949-31.949 0.018 0 0.036 0 0.054 0h-0.003zM1024 192c0-141.385-114.615-256-256-256s-256 114.615-256 256c0 141.385 114.615 256 256 256v0c141.385 0 256-114.615 256-256v0zM960 192c0 106.039-85.961 192-192 192s-192-85.961-192-192c0-106.039 85.961-192 192-192v0c106.039 0 192 85.961 192 192v0zM256 576h-128v-128h128zM128 256h128v128h-128zM320 448h128v128h-128zM320 256h128v128h-128zM64 198.349v441.651h704v-128h64v249.651c0.001 0.153 0.002 0.334 0.002 0.516 0 38.318-30.861 69.429-69.084 69.833h-26.713v-32c0-35.346-28.654-64-64-64s-64 28.654-64 64v0 32h-384v-32c0-35.346-28.654-64-64-64s-64 28.654-64 64v0 32h-26.522c-38.505-0.086-69.685-31.32-69.685-69.837 0-0.18 0.001-0.36 0.002-0.54v0.028-563.2c-0.001-0.122-0.001-0.267-0.001-0.411 0-38.465 31.051-69.677 69.455-69.938h378.547v63.898h-378.522c-3.090 0.293-5.488 2.875-5.488 6.016 0 0.117 0.003 0.233 0.010 0.349l-0.001-0.016zM640 448v128h-128v-128zM864 192h-96v96c0 17.673-14.327 32-32 32s-32-14.327-32-32v0-128c0-0.015 0-0.033 0-0.051 0-17.645 14.304-31.949 31.949-31.949 0.018 0 0.036 0 0.054 0h127.997c17.673 0 32 14.327 32 32s-14.327 32-32 32v0z" />
<glyph unicode="&#xe92c;" glyph-name="expand" d="M1024 548.536h-412.181v411.361h-199.69v-411.361h-412.181v-199.69h412.232v-413.051h199.69v413.051h412.129z" />
<glyph unicode="&#xe92d;" glyph-name="facebook-login" d="M598.067 624.486v88.218c-0.025 1.088-0.040 2.369-0.040 3.654 0 9.558 0.797 18.93 2.327 28.053l-0.137-0.986c1.791 8.194 5.174 15.4 9.83 21.595l-0.102-0.142c5.989 7.508 14.497 12.786 24.228 14.555l0.245 0.037c12.126 2.606 26.056 4.099 40.336 4.099 1.642 0 3.279-0.020 4.911-0.059l-0.242 0.005h102.4v176.486h-163.328c-8.092 0.795-17.491 1.249-26.996 1.249-66.676 0-128.141-22.313-177.335-59.88l0.709 0.519c-38.637-40.143-62.436-94.808-62.436-155.031 0-5.694 0.213-11.339 0.631-16.926l-0.045 0.745v-106.189h-122.317v-176.486h122.317v-512h245.043v512h163.328l21.606 176.486z" />
<glyph unicode="&#xe92e;" glyph-name="facebook" d="M511.795 960h0.41c282.77 0 512-229.23 512-512v0-0.307c0-282.77-229.23-512-512-512v0h-0.41c-282.77 0-512 229.23-512 512v0 0.512c0.117 282.682 229.302 511.795 512 511.795v0zM451.738 579.686v-64.41h-48.179v-78.746h48.179v-234.086h98.918v234.086h66.56s6.195 37.786 9.216 79.053h-75.366v53.811c2.013 10.39 10.728 18.231 21.387 18.89l0.066 0.003h53.914v81.92h-73.318c-103.834 0-101.427-78.848-101.427-90.573z" />
<glyph unicode="&#xe92f;" glyph-name="fan" d="M509.85 857.6c-190.939-8.475-342.528-165.33-342.528-357.591 0-197.675 160.247-357.922 357.922-357.922s357.922 160.247 357.922 357.922c0 0.040 0 0.079 0 0.119v-0.006c-4.484 198.424-166.398 357.562-365.48 357.562-2.755 0-5.503-0.030-8.244-0.091l0.408 0.007zM530.33 819.61c70.656 0 127.863-30.515 127.863-67.789 0-29.798-54.409-37.956-121.071-135.987-7.408 1.496-15.923 2.352-24.638 2.352-28.218 0-54.339-8.975-75.665-24.226l0.394 0.268c-14.637 44.804-26.774 98.162-34.151 153.030l-0.528 4.803c-0.068 37.786 56.969 67.55 127.795 67.55zM573.713 500.087c-0.085-34.961-28.446-63.27-63.42-63.27-35.026 0-63.42 28.394-63.42 63.42s28.394 63.42 63.42 63.42c17.465 0 33.282-7.060 44.751-18.482l-0.002 0.002c11.517-11.553 18.645-27.487 18.671-45.085v-0.005zM188.826 520.977c0 70.383 30.72 127.351 68.062 127.351 29.901 0 38.127-54.17 136.533-120.559-1.325-7.058-2.082-15.178-2.082-23.475 0-28.442 8.904-54.804 24.076-76.452l-0.284 0.428c-44.989-14.575-98.592-26.656-153.697-33.985l-4.818-0.524c-37.137-0.785-67.755 56.866-67.755 127.249zM489.199 180.361c-70.656 0-127.863 30.481-127.863 67.789 0 29.798 54.409 37.99 121.071 135.987 7.435-1.513 15.981-2.379 24.729-2.379 28.18 0 54.262 8.987 75.534 24.251l-0.389-0.265c14.633-44.799 26.77-98.158 34.15-153.024l0.529-4.808c0-37.069-56.9-67.686-127.761-67.686zM762.641 352.324c-29.901 0-38.127 54.17-136.533 120.559 2.568 8.79 4.045 18.888 4.045 29.331 0 26.819-9.742 51.362-25.879 70.285l0.126-0.151c44.987 14.574 98.591 26.655 153.695 33.985l4.82 0.524c37.342 0 68.062-57.003 68.062-127.351s-30.72-127.078-68.164-127.078zM632.149 125.474c-36.607-11.455-78.711-18.13-122.351-18.295h-0.086c-0.561-0.003-1.224-0.004-1.888-0.004-43.044 0-84.526 6.692-123.461 19.091l2.879-0.791-31.334-92.843c-0.764-2.105-1.205-4.535-1.205-7.068 0-11.782 9.551-21.333 21.333-21.333 0.124 0 0.247 0.001 0.37 0.003h265.914c0.105-0.002 0.228-0.003 0.352-0.003 11.782 0 21.333 9.551 21.333 21.333 0 2.533-0.442 4.963-1.252 7.217l0.047-0.149zM539.614 38.741h-59.836c-0.723-0.109-1.558-0.171-2.408-0.171-9.426 0-17.067 7.641-17.067 17.067s7.641 17.067 17.067 17.067c0.849 0 1.684-0.062 2.5-0.182l-0.093 0.011h59.836c0.723 0.109 1.558 0.171 2.408 0.171 9.426 0 17.067-7.641 17.067-17.067s-7.641-17.067-17.067-17.067c-0.849 0-1.684 0.062-2.5 0.182l0.093-0.011z" />
<glyph unicode="&#xe930;" glyph-name="faq-side-navigation" d="M505.139 960c-279.806-3.866-505.144-231.595-505.144-511.954 0-282.77 229.23-512 512-512s512 229.23 512 512c0 2.414-0.017 4.825-0.050 7.231l0.004-0.365c-3.872 279.801-231.598 505.134-511.954 505.134-2.41 0-4.817-0.017-7.22-0.050l0.364 0.004zM503.603 136.397h-2.816c-40.029 1.451-71.928 34.251-71.928 74.501 0 40.862 32.877 74.046 73.622 74.542h2.556c0.327 0.005 0.713 0.008 1.1 0.008 41.171 0 74.547-33.376 74.547-74.547s-33.376-74.547-74.547-74.547c-0.891 0-1.779 0.016-2.662 0.047l0.128-0.004zM686.746 499.917c-18.027-20.522-38.081-38.544-60.059-54.016l-1.074-0.717-31.232-21.555c-13.914-9.369-24.723-22.386-31.177-37.688l-0.209-0.558c-3.13-8.179-4.943-17.639-4.943-27.523 0-1.593 0.047-3.175 0.14-4.745l-0.010 0.216v-5.12h-119.347l0.358 10.24c-0.603 4.712-0.947 10.163-0.947 15.695 0 26.134 7.684 50.473 20.917 70.881l-0.309-0.508c26.269 26.533 55.399 50.146 86.914 70.365l2.021 1.213c8.19 6.077 15.165 13.199 20.899 21.265l0.196 0.29c10.245 11.901 16.881 27.17 18.060 43.946l0.014 0.24c0.001 0.117 0.001 0.256 0.001 0.394 0 18.993-6.145 36.551-16.555 50.794l0.17-0.244c-12.539 13.943-30.639 22.671-50.777 22.671-2.91 0-5.778-0.182-8.592-0.536l0.335 0.034c-1.917 0.203-4.142 0.318-6.394 0.318-21.989 0-41.402-11.027-53.011-27.853l-0.141-0.216c-11.106-16.751-17.815-37.262-18.073-59.325l-0.001-0.067v-5.12h-122.88v5.12c-0.106 2.35-0.166 5.106-0.166 7.876 0 63.231 31.394 119.129 79.445 152.957l0.593 0.396c31.183 19.287 68.992 30.716 109.471 30.716 2.267 0 4.525-0.036 6.774-0.107l-0.329 0.008c2.684 0.103 5.836 0.162 9.002 0.162 52.378 0 100.991-16.12 141.148-43.67l-0.85 0.551c36.969-27.444 60.664-70.961 60.664-120.013 0-3.026-0.090-6.031-0.268-9.012l0.020 0.411c-0.115-33.305-11.277-63.98-30.010-88.578l0.263 0.36z" />
<glyph unicode="&#xe931;" glyph-name="faq" d="M867.891 433.613c0.009-1.016 0.014-2.216 0.014-3.418 0-49.634-8.882-97.192-25.145-141.174l0.913 2.819c-16.264-44.429-39.723-82.616-69.317-115.118l0.248 0.276 145.92-141.158-123.238-99.84-156.109 152.525c-19.291-7.273-42.306-13.595-66.034-17.859l-2.471-0.368c-21.809-4.007-46.906-6.298-72.538-6.298-0.256 0-0.513 0-0.769 0.001h0.040c-4.363-0.189-9.481-0.297-14.624-0.297-99.065 0-188.794 39.97-253.941 104.663l0.021-0.020c-63.86 65.247-103.265 154.65-103.265 253.257 0 4.224 0.072 8.43 0.216 12.619l-0.017-0.609v156.723c-0.127 3.592-0.2 7.814-0.2 12.052 0 98.377 39.133 187.614 102.683 252.993l-0.083-0.085c64.808 64.838 154.355 104.943 253.269 104.943 5.066 0 10.107-0.105 15.121-0.313l-0.717 0.024c4.093 0.168 8.896 0.263 13.721 0.263 98.834 0 188.303-40.097 253.027-104.912l0.004-0.004c63.735-65.261 103.053-154.611 103.053-253.145 0-4.155-0.070-8.293-0.209-12.414l0.016 0.599zM666.317 591.514c0.142 3.164 0.223 6.874 0.223 10.604 0 53.269-16.534 102.676-44.751 143.369l0.547-0.833c-26.655 36.564-69.34 60.054-117.512 60.054-2.32 0-4.628-0.054-6.921-0.162l0.324 0.012c-2.321 0.132-5.037 0.208-7.77 0.208-48.096 0-90.742-23.335-117.235-59.301l-0.282-0.401c-27.313-39.907-43.616-89.225-43.616-142.35 0-3.957 0.090-7.892 0.269-11.805l-0.020 0.555v-157.901c-0.153-3.299-0.241-7.167-0.241-11.055 0-53.494 16.537-103.126 44.777-144.062l-0.556 0.852c27.030-36.551 69.979-59.991 118.403-59.991 2.619 0 5.222 0.069 7.808 0.204l-0.362-0.015c1.943-0.094 4.221-0.148 6.51-0.148 47.915 0 90.349 23.464 116.439 59.529l0.289 0.42c27.501 40.123 43.918 89.723 43.918 143.158 0 3.925-0.089 7.829-0.264 11.711l0.020-0.551z" />
<glyph unicode="&#xe932;" glyph-name="fasteners" d="M529.067 656.282c-120.179-0.272-217.498-97.758-217.498-217.975 0-120.385 97.591-217.975 217.975-217.975s217.975 97.591 217.975 217.975v0c0 0 0 0 0 0.001 0 120.385-97.591 217.975-217.975 217.975-0.168 0-0.336 0-0.504-0.001h0.026zM529.067 291.942c-80.692 0.214-146.022 65.676-146.022 146.397 0 80.853 65.545 146.398 146.398 146.398s146.398-65.545 146.398-146.398c0-0.012 0-0.024 0-0.035v0.002c-0.019-80.839-65.556-146.364-146.398-146.364-0.132 0-0.264 0-0.396 0.001h0.021zM939.042 500.565l-150.938 260.779c-22.072 37.403-62.14 62.118-107.987 62.191h-301.886c-45.911-0.042-86.032-24.795-107.782-61.675l-0.319-0.584-150.938-260.779c-10.491-17.87-16.686-39.358-16.686-62.293s6.196-44.423 17.005-62.882l-0.318 0.589 150.938-260.779c22.079-37.455 62.193-62.203 108.092-62.259h301.883c45.905 0.064 86.017 24.81 107.782 61.676l0.319 0.584 150.938 260.779c10.494 17.869 16.691 39.358 16.691 62.293s-6.198 44.424-17.010 62.881l0.318-0.588zM529.067 170.496c-147.61 0.369-267.127 120.115-267.127 267.775 0 147.889 119.887 267.776 267.776 267.776s267.776-119.887 267.776-267.776v0c0-0.041 0-0.089 0-0.137 0-147.889-119.887-267.776-267.776-267.776-0.228 0-0.456 0-0.684 0.001h0.035z" />
<glyph unicode="&#xe933;" glyph-name="filter" d="M388.864 476.058c10.407-11.186 16.794-26.235 16.794-42.775 0-0.010 0-0.020 0-0.030v0.002-465.92c0.291-17.478 14.527-31.535 32.047-31.535 8.66 0 16.517 3.434 22.285 9.015l-0.009-0.008 131.123 148.89c15.189 12.652 25.329 30.917 27.216 51.569l0.022 0.297v287.437c0.057 16.54 6.431 31.581 16.833 42.846l-0.039-0.043 376.269 404.48c7.802 8.418 12.589 19.728 12.589 32.155 0 26.156-21.204 47.36-47.36 47.36-0.142 0-0.284-0.001-0.425-0.002h-928.388c-0.135 0.001-0.295 0.002-0.455 0.002-26.156 0-47.36-21.204-47.36-47.36 0-12.428 4.787-23.738 12.618-32.186l-0.028 0.031z" />
<glyph unicode="&#xe934;" glyph-name="flood-light" d="M893.201 472.849h-131.447c-15.938-1.63-28.268-14.982-28.268-31.215s12.33-29.585 28.135-31.204l0.133-0.011h131.447c15.938 1.63 28.268 14.982 28.268 31.215s-12.33 29.585-28.135 31.204l-0.133 0.011zM893.201 614.025h-131.447c-16.020-1.544-28.445-14.937-28.445-31.232s12.425-29.688 28.317-31.222l0.128-0.010h131.447c15.787 1.786 27.942 15.064 27.942 31.181s-12.155 29.395-27.798 31.168l-0.144 0.013zM893.201 755.2h-131.447c-16.020-1.544-28.445-14.937-28.445-31.232s12.425-29.688 28.317-31.222l0.128-0.010h131.447c15.787 1.786 27.942 15.064 27.942 31.181s-12.155 29.395-27.798 31.168l-0.144 0.013zM893.201 331.674h-131.447c-16.020-1.544-28.445-14.937-28.445-31.232s12.425-29.688 28.317-31.222l0.128-0.010h131.447c15.787 1.786 27.942 15.064 27.942 31.181s-12.155 29.395-27.798 31.168l-0.144 0.013zM893.201 190.498h-131.447c-15.938-1.63-28.268-14.982-28.268-31.215s12.33-29.585 28.135-31.204l0.133-0.011h131.447c15.716 1.857 27.79 15.1 27.79 31.164s-12.074 29.307-27.642 31.149l-0.148 0.014zM199.851 626.688c-12.712-4.11-21.744-15.841-21.744-29.681 0-0.101 0-0.202 0.001-0.303v0.015-7.27c-63.516-15.767-109.849-72.288-109.849-139.63 0-0.531 0.003-1.062 0.009-1.592l-0.001 0.081v-13.653c-0.004-0.378-0.006-0.825-0.006-1.273 0-67.341 46.332-123.861 108.858-139.421l0.989-0.208v-7.236c-0.001-0.086-0.001-0.187-0.001-0.288 0-13.84 9.032-25.571 21.524-29.619l0.22-0.062 276.275-84.002v537.907zM178.108 359.219c-29.195 12.958-49.188 41.692-49.188 75.097 0 0.215 0.001 0.429 0.002 0.644v-0.033 13.414c-0.001 0.182-0.002 0.396-0.002 0.611 0 33.404 19.994 62.139 48.667 74.89l0.522 0.207v-164.932zM618.735 754.039l-81.92-24.917v-575.010l81.92-24.883c2.517-0.749 5.41-1.18 8.403-1.18 16.853 0 30.515 13.662 30.515 30.515 0 0.211-0.002 0.421-0.006 0.631l0.001-0.031v564.565c0.005 0.206 0.008 0.448 0.008 0.691 0 16.872-13.677 30.549-30.549 30.549-2.981 0-5.863-0.427-8.586-1.223l0.216 0.054z" />
<glyph unicode="&#xe935;" glyph-name="furniture" d="M855.245 608.358v122.88c0.063 1.249 0.099 2.712 0.099 4.183 0 48.674-39.458 88.132-88.132 88.132-3.511 0-6.974-0.205-10.377-0.604l0.413 0.039h-438.135c-59.051 0-116.565-33.758-116.565-91.75v-122.88h16.145c2.904 0.402 6.259 0.632 9.667 0.632 41.039 0 74.308-33.269 74.308-74.308 0-1.627-0.052-3.242-0.155-4.843l0.011 0.218v-127.317h452.335v127.317c0 50.551 50.927 78.302 102.4 78.302zM302.729 367.206v-35.533c3.633-22.035 19.962-39.452 41.096-44.637l0.376-0.078h388.028c17.613 0 22.903 27.307 22.903 44.715v35.533h-452.335zM907.708 572.723h-50.142c-31.437 0-66.014-11.708-66.014-42.564v-198.656c0-36.966-21.641-80.486-59.324-80.486h-388.062c-41.601 5.273-74.003 38.564-77.866 80.134l-0.026 0.352v198.519c0.168 1.36 0.264 2.934 0.264 4.531 0 21.547-17.467 39.014-39.014 39.014-3.083 0-6.082-0.358-8.959-1.034l0.264 0.052h-50.142c-31.437 0-66.287-11.708-66.287-42.564v-222.925c3.98-63.055 53.517-113.369 115.867-118.548l0.459-0.031h-7.1v-67.004c3.32-9.573 9.801-17.336 18.169-22.218l0.195-0.105h63.556c1.221 3.323 1.928 7.16 1.928 11.162s-0.706 7.839-2.001 11.393l0.074-0.231v67.004h470.63v-67.004c3.062-9.528 9.327-17.299 17.501-22.223l0.18-0.1h63.795c1.496 3.59 2.364 7.761 2.364 12.135 0 3.644-0.603 7.148-1.715 10.416l0.067-0.228v67.004h11.366c59.085 0 97.86 60.587 97.86 118.579v222.925c0.154 1.305 0.242 2.816 0.242 4.347 0 21.66-17.559 39.219-39.219 39.219-3.124 0-6.163-0.365-9.075-1.055l0.266 0.053z" />
<glyph unicode="&#xe936;" glyph-name="gardening" d="M316.348 400.828c-76.561-0.117-138.581-62.208-138.581-138.786 0-76.649 62.137-138.786 138.786-138.786s138.786 62.137 138.786 138.786v0c0 0 0 0 0 0 0 76.649-62.137 138.786-138.786 138.786-0.072 0-0.144 0-0.216 0h0.011zM316.348 178.961c-45.92 0.078-83.115 37.321-83.115 83.251 0 45.978 37.273 83.251 83.251 83.251s83.251-37.273 83.251-83.251v0c0-0.041 0-0.089 0-0.137 0-45.978-37.273-83.251-83.251-83.251-0.048 0-0.096 0-0.144 0h0.008zM872.346 289.963c-45.92-0.078-83.115-37.321-83.115-83.251 0-45.978 37.273-83.251 83.251-83.251s83.251 37.273 83.251 83.251v0c-0.078 45.92-37.321 83.115-83.251 83.115-0.048 0-0.096 0-0.144 0h0.008zM872.346 178.961c-15.311 0.019-27.716 12.436-27.716 27.75 0 15.326 12.424 27.75 27.75 27.75s27.75-12.424 27.75-27.75v0c0-15.326-12.424-27.75-27.75-27.75-0.012 0-0.024 0-0.036 0h0.002zM792.951 547.294l-277.948 83.217c-2.382 0.736-5.12 1.16-7.958 1.16-12.515 0-23.105-8.245-26.635-19.599l-0.053-0.198-9.523-31.744 331.093-99.191 9.523 31.744c0.758 2.409 1.195 5.178 1.195 8.050 0 12.484-8.253 23.040-19.601 26.509l-0.196 0.052zM880.196 399.667l-544.461 163.055-105.813 211.285c-4.663 9.179-14.034 15.359-24.849 15.36h-74.138c-15.326 0-27.75-12.424-27.75-27.75s12.424-27.75 27.75-27.75v0h56.969l100.591-200.806v-78.916c8.62 1.359 18.561 2.135 28.683 2.135 106.981 0 193.707-86.725 193.707-193.707 0-30.437-7.020-59.233-19.529-84.86l0.505 1.146h244.224c-1.757 8.291-2.763 17.817-2.763 27.578 0 76.781 62.244 139.025 139.025 139.025 9.761 0 19.287-1.006 28.48-2.92l-0.902 0.157v30.72c-0.143 12.308-8.266 22.68-19.43 26.195l-0.197 0.053zM686.899 289.826h-111.206c-15.326 0-27.75 12.424-27.75 27.75s12.424 27.75 27.75 27.75h111.445c15.326 0 27.75-12.424 27.75-27.75s-12.424-27.75-27.75-27.75v0z" />
<glyph unicode="&#xe937;" glyph-name="geysers" d="M730.249 133.359h-439.637c0.067-9.835 5.83-18.309 14.152-22.293l0.15-0.065c25.189-12.301 54.814-23.295 85.616-31.386l3.438-0.768v-48.742c-0.011-0.28-0.017-0.609-0.017-0.939 0-14.27 11.568-25.839 25.839-25.839s25.839 11.568 25.839 25.839c0 0.33-0.006 0.659-0.018 0.986l0.001-0.047v38.161c23.306-4.259 50.127-6.695 77.517-6.695s54.211 2.436 80.258 7.102l-2.741-0.407v-37.888c0.52-13.861 11.882-24.9 25.822-24.9s25.302 11.039 25.82 24.853l0.001 0.047v48.742c34.238 8.857 63.863 19.851 92.001 33.437l-2.948-1.283c8.472 4.048 14.235 12.522 14.302 22.348v0.009h-25.259zM729.737 857.6h-413.286c-0.358 0.006-0.781 0.010-1.204 0.010-41.723 0-75.626-33.479-76.312-75.038l-0.001-0.064v-124.86h157.628c14.144 57.711 65.425 99.859 126.549 99.859s112.405-42.148 126.364-98.966l0.185-0.892h157.628v124.86c-0.686 41.624-34.589 75.103-76.312 75.103-0.436 0-0.87-0.004-1.304-0.011l0.065 0.001zM523.093 707.755c-40.417-1.346-72.67-34.434-72.67-75.054 0-41.473 33.62-75.093 75.093-75.093 41.459 0 75.071 33.598 75.093 75.052v0.002c-0.705 41.628-34.616 75.102-76.346 75.102-0.412 0-0.823-0.003-1.233-0.010l0.062 0.001zM548.932 607.846c-0.52-13.861-11.882-24.9-25.822-24.9s-25.302 11.039-25.82 24.853l-0.001 0.047v49.937c0.52 13.861 11.882 24.9 25.822 24.9s25.302-11.039 25.82-24.853l0.001-0.047zM523.093 408.064c-0.349 0.006-0.761 0.009-1.174 0.009-41.67 0-75.543-33.379-76.342-74.857l-0.001-0.075v-149.845h155.17v149.845c-0.799 41.554-34.673 74.934-76.343 74.934-0.461 0-0.921-0.004-1.379-0.012l0.069 0.001zM523.093 308.156c-13.427 0.473-24.132 11.472-24.132 24.971 0 13.799 11.186 24.986 24.986 24.986 13.794 0 24.977-11.178 24.986-24.97v-0.001c-0.189-13.805-11.424-24.924-25.256-24.924-0.205 0-0.409 0.002-0.613 0.007l0.030-0.001zM649.626 607.846c-14.144-57.711-65.425-99.859-126.549-99.859s-112.405 42.148-126.364 98.966l-0.185 0.892h-157.594v-349.628c0.686-41.624 34.59-75.103 76.312-75.103 0.423 0 0.846 0.003 1.268 0.010l-0.064-0.001h77.483v149.845c2.332 69.541 59.266 125.029 129.161 125.029s126.828-55.488 129.155-124.816l0.006-0.213v-149.845h77.483c0.358-0.006 0.781-0.010 1.204-0.010 41.723 0 75.626 33.479 76.312 75.038l0.001 0.064v349.628z" />
<glyph unicode="&#xe938;" glyph-name="google-login" horiz-adv-x="1044" d="M1043.939 504.895h-487.154v-159.305h297.21c-46.999-139.941-176.965-238.963-330.059-238.963-0.691 0-1.382 0.002-2.072 0.006h0.107c-2.176-0.050-4.741-0.078-7.311-0.078-188.561 0-341.42 152.859-341.42 341.42s152.859 341.42 341.42 341.42c2.571 0 5.135-0.028 7.692-0.085l-0.381 0.007c0.306 0.001 0.668 0.002 1.029 0.002 96.085 0 183.132-38.692 246.413-101.344l-0.029 0.028 117.965 125.534c-94.238 90.455-222.437 146.154-363.645 146.154-0.61 0-1.219-0.001-1.829-0.003h0.094c-3.077 0.067-6.704 0.104-10.34 0.104-282.827 0-512.104-229.277-512.104-512.104s229.277-512.104 512.104-512.104c3.636 0 7.262 0.038 10.88 0.113l-0.54-0.009c1.372-0.013 2.994-0.020 4.618-0.020 250.303 0 460.195 173.016 516.609 405.978l0.743 3.631v159.618z" />
<glyph unicode="&#xe939;" glyph-name="google" d="M511.795 960.205v0c-282.77 0-512-229.23-512-512v-0.512c0-282.77 229.23-512 512-512h0.41c282.77 0 512 229.23 512 512v0.307c0 282.77-229.23 512-512 512h-0.41zM740.864 394.547c-11.212-95.516-91.677-168.923-189.288-168.923-3.566 0-7.108 0.098-10.626 0.291l0.489-0.021c-114.854 1.848-207.251 95.388-207.251 210.509s92.397 208.661 207.078 210.507l0.173 0.002c1.104 0.022 2.405 0.035 3.709 0.035 53.293 0 101.695-20.942 137.425-55.046l-0.078 0.074-60.262-60.416c-19.958 19.565-47.32 31.639-77.503 31.639-1.157 0-2.31-0.018-3.458-0.053l0.168 0.004c-68.605-1.492-123.649-57.459-123.649-126.282 0-0.172 0-0.344 0.001-0.516v0.027c0-0.093 0-0.203 0-0.313 0-68.525 55.217-124.154 123.585-124.82h0.063c2.9-0.283 6.268-0.444 9.675-0.444 50.568 0 92.837 35.536 103.196 82.997l0.128 0.698h-112.998v84.582h198.707c2.281-12.601 3.585-27.104 3.585-41.912 0-0.259 0-0.518-0.001-0.777v0.040c0.002-0.415 0.003-0.907 0.003-1.399 0-14.283-1.062-28.318-3.112-42.030l0.19 1.547z" />
<glyph unicode="&#xe93a;" glyph-name="grid-view" d="M589.414-64c-0.673-0.049-1.458-0.077-2.249-0.077-18.267 0-33.075 14.808-33.075 33.075 0 0.621 0.017 1.239 0.051 1.851l-0.004-0.085v400.435c-0.032 0.543-0.050 1.178-0.050 1.818 0 18.267 14.808 33.075 33.075 33.075 0.792 0 1.578-0.028 2.356-0.083l-0.105 0.006h399.36c0.642 0.044 1.391 0.070 2.146 0.070 18.295 0 33.126-14.831 33.126-33.126 0-0.619-0.017-1.234-0.050-1.844l0.004 0.085v-400.486c0.028-0.511 0.044-1.109 0.044-1.711 0-18.295-14.831-33.126-33.126-33.126-0.772 0-1.538 0.026-2.297 0.078l0.103-0.006zM35.277-64c-0.673-0.049-1.458-0.077-2.249-0.077-18.267 0-33.075 14.808-33.075 33.075 0 0.621 0.017 1.239 0.051 1.851l-0.004-0.085v400.435c-0.032 0.543-0.050 1.178-0.050 1.818 0 18.267 14.808 33.075 33.075 33.075 0.792 0 1.578-0.028 2.356-0.083l-0.105 0.006h399.36c0.706 0.054 1.53 0.085 2.36 0.085 18.21 0 32.973-14.762 32.973-32.973 0-0.678-0.020-1.352-0.061-2.020l0.004 0.092v-400.486c0.030-0.528 0.047-1.145 0.047-1.766 0-18.267-14.808-33.075-33.075-33.075-0.791 0-1.576 0.028-2.353 0.082l0.105-0.006zM589.414 489.933c-0.657-0.046-1.424-0.073-2.197-0.073-18.295 0-33.126 14.831-33.126 33.126 0 0.62 0.017 1.236 0.051 1.848l-0.004-0.085v400.435c-0.032 0.543-0.050 1.178-0.050 1.818 0 18.267 14.808 33.075 33.075 33.075 0.792 0 1.578-0.028 2.356-0.083l-0.105 0.006h399.36c0.657 0.046 1.424 0.073 2.197 0.073 18.295 0 33.126-14.831 33.126-33.126 0-0.62-0.017-1.236-0.051-1.848l0.004 0.085v-400.384c0.030-0.527 0.047-1.143 0.047-1.763 0-18.295-14.831-33.126-33.126-33.126-0.773 0-1.54 0.026-2.3 0.079l0.103-0.006zM35.277 489.933c-0.658-0.047-1.426-0.073-2.2-0.073-18.295 0-33.126 14.831-33.126 33.126 0 0.638 0.018 1.272 0.054 1.901l-0.004-0.087v400.384c-0.032 0.543-0.050 1.178-0.050 1.818 0 18.267 14.808 33.075 33.075 33.075 0.792 0 1.578-0.028 2.356-0.083l-0.105 0.006h399.36c0.69 0.051 1.495 0.081 2.306 0.081 18.239 0 33.024-14.785 33.024-33.024 0-0.659-0.019-1.313-0.057-1.962l0.004 0.090v-400.384c0.032-0.543 0.050-1.178 0.050-1.818 0-18.267-14.808-33.075-33.075-33.075-0.792 0-1.578 0.028-2.356 0.083l0.105-0.006z" />
</font>
</defs>
</svg>
