<svg xmlns="http://www.w3.org/2000/svg" width="16" height="15.888" viewBox="0 0 16 15.888"><defs><style>.a{fill:#303030;}</style></defs><g transform="translate(0 0)"><path class="a" d="M8.857,255.681l-5.143-3.414-2.406,1.416,4.867,3.55Z" transform="translate(-1.307 -246.776)"/><path class="a" d="M.6,253.755l5.8,3.792,2.179-1.57-2.65-1.761-2.718-1.7Zm.443-.332" transform="translate(7.149 -252.52)"/><path class="a" d="M0,3.433,2.358,4.967,5.634,2.9,7.627,1.528,5.271,0Z" transform="matrix(1, -0.017, 0.017, 1, 8.287, 5.517)"/><path class="a" d="M200.377,254.114l-2.772-1.591-2.716,1.809-2.424,1.6,2.275,1.651Zm0,0" transform="translate(-192.425 -252.523)"/><path class="a" d="M187.934,309.141l2.838-1.685.111,6.695c-.029-.014-.136-.094-6.436-2.8a1.078,1.078,0,0,1-.509-.932l.184-3.979C187.025,308.5,187.5,308.888,187.934,309.141Z" transform="translate(-183 -298.263)"/><path class="a" d="M186.955,309.13l-2.727-1.707.133,6.629c.029-.014.279.038,6.579-2.671a1.078,1.078,0,0,0,.509-.932l-.217-4.2C188.1,308.3,187.389,308.877,186.955,309.13Z" transform="translate(-176.125 -298.185)"/><path class="a" d="M69.533,177.294c-.388-.25-1.362-.926-.735-.492l-.873-.6a2.881,2.881,0,0,1-.347-.245l-1.262.843a8.721,8.721,0,0,1-.735.493l-3.256,2.179,5.237,3.495,5.249-3.495Z" transform="translate(-59.562 -174.209)"/></g></svg>