<svg xmlns="http://www.w3.org/2000/svg" width="10.4" height="16" viewBox="0 0 10.4 16"><defs><style>.a{fill:#303030;}</style></defs><g transform="translate(0 0)"><path class="a" d="M115.29,15.341l-2.681-.535V9.613A4.867,4.867,0,0,0,117.067,5a4.116,4.116,0,0,0-.057-.658.276.276,0,0,0,0-.06l-.686-4A.361.361,0,0,0,115.953,0h-3.269a.364.364,0,0,0-.364.268l-.445,2a.309.309,0,0,0,.077.277.39.39,0,0,0,.287.122h1.628l-1.429,4.314.17-3.281a.31.31,0,0,0-.094-.257.391.391,0,0,0-.276-.11h-1.8l.47-2.953a.311.311,0,0,0-.087-.266A.392.392,0,0,0,110.54,0h-2.759a.361.361,0,0,0-.367.283l-.686,4a.25.25,0,0,0,0,.062,4.094,4.094,0,0,0-.057.656,4.867,4.867,0,0,0,4.457,4.613v5.193l-2.681.535a.34.34,0,0,0-.289.362.36.36,0,0,0,.369.3h6.686a.36.36,0,0,0,.369-.3A.34.34,0,0,0,115.29,15.341Z" transform="translate(-106.667 0)"/></g></svg>