<svg xmlns="http://www.w3.org/2000/svg" width="71.844" height="69.098" viewBox="0 0 71.844 69.098"><defs><style>.a{fill:#f7e8e8;}.b{fill:#d1d1d7;}.c{fill:#d9232d;}.d{fill:#7b7b7b;}.e{fill:#3c3c3c;}</style></defs><g transform="translate(-411.288 -1385)"><ellipse class="a" cx="31.725" cy="31.725" rx="31.725" ry="31.725" transform="translate(419.681 1385)"></ellipse><g transform="translate(411.288 1391.902)"><path class="b" d="M4,38H20.051V62.076H4Z" transform="translate(-0.991 -0.883)"></path><path class="b" d="M44,38H60.051V62.076H44Z" transform="translate(-0.864 -0.883)"></path><path class="c" d="M10,54h4.013v8.025H10Z" transform="translate(-0.972 -0.832)"></path><path class="c" d="M50,54h4.013v8.025H50Z" transform="translate(-0.845 -0.832)"></path><path class="d" d="M32.019,42V59.054a3.01,3.01,0,0,1-6.019,0V42Z" transform="translate(-0.921 -0.87)"></path><path class="d" d="M38.019,42V59.054a3.01,3.01,0,0,1-6.019,0V42Z" transform="translate(-0.902 -0.87)"></path><path class="b" d="M35.073,28.025h.9a6,6,0,0,0,3.752-1.314l7.644-6.119A2.715,2.715,0,0,1,49.057,20h.371a2.7,2.7,0,0,1,1.665,4.825L40.38,33.242a6.049,6.049,0,0,0-2.3,4.735V42.07H26.044V37.977a6.049,6.049,0,0,0-2.3-4.735L13.033,24.825A2.7,2.7,0,0,1,14.7,20h.371a2.715,2.715,0,0,1,1.685.592L24.4,26.711a6,6,0,0,0,3.752,1.314H31.06l-1,8.025,2.006,2.006,2.006-2.006-1-8.025Z" transform="translate(-0.966 -0.94)"></path><path class="c" d="M33.01,28l1,8.025-2.006,2.006L30,36.025,31,28Z" transform="translate(-0.908 -0.915)"></path><path class="b" d="M32.019,8A6.019,6.019,0,1,1,26,14.019,6.024,6.024,0,0,1,32.019,8Zm2.006,6.019a2.006,2.006,0,1,0-2.006,2.006A2.012,2.012,0,0,0,34.025,14.019Z" transform="translate(-0.921 -0.978)"></path><path class="c" d="M44.076,11.029v6.019l-2.719.682c-.04.1-.07.2-.12.3l1.445,2.388-4.263,4.263-2.388-1.445c-.1.05-.2.08-.3.12l-.682,4.725H29.029l-.682-4.725c-.1-.04-.2-.07-.3-.12l-2.388,1.445-4.263-4.263,1.445-2.388c-.05-.1-.08-.2-.12-.3L20,17.048V11.029l2.719-.682c.04-.1.07-.2.12-.3L21.394,7.658l4.263-4.263,2.388,1.445c.1-.05.2-.08.3-.12L29.029,2h6.019l.682,2.719c.1.04.2.07.3.12l2.388-1.445,4.263,4.263-1.445,2.388c.05.1.08.2.12.3Zm-6.019,3.01a6.019,6.019,0,1,0-6.019,6.019A6.024,6.024,0,0,0,38.057,14.038Z" transform="translate(-0.94 -0.997)"></path><path class="e" d="M39.044,14.022a7.022,7.022,0,1,0-7.022,7.022A7.031,7.031,0,0,0,39.044,14.022Zm-12.038,0a5.016,5.016,0,1,1,5.016,5.016A5.022,5.022,0,0,1,27.006,14.022Z" transform="translate(-0.924 -0.981)"></path><path class="e" d="M35.019,14.01a3.01,3.01,0,1,0-3.01,3.01A3.013,3.013,0,0,0,35.019,14.01Zm-4.013,0a1,1,0,1,1,1,1A1,1,0,0,1,31.006,14.01Z" transform="translate(-0.912 -0.969)"></path><path class="e" d="M61.19,61.19V37.114H43.133V61.19h-4.57a3.971,3.971,0,0,0,.558-2.006V38.033a4.987,4.987,0,0,1,1.917-3.944l10.713-8.417a3.7,3.7,0,0,0-2.288-6.615H49.1a3.719,3.719,0,0,0-2.314.812L39.14,25.983a5.016,5.016,0,0,1-2.87,1.076l.335-2.336,2.034,1.221L44,20.58l-1.284-2.142,2.422-.6V10.248l-2.424-.6L44,7.5,38.639,2.138,36.5,3.423,35.891,1H28.305l-.6,2.424L25.558,2.138,20.195,7.5,21.48,9.642l-2.423.606v7.586l2.423.606L20.2,20.581l5.363,5.364,2.034-1.221.335,2.336a5.021,5.021,0,0,1-2.87-1.076l-7.644-6.115a3.714,3.714,0,0,0-2.313-.812h-.365a3.7,3.7,0,0,0-2.289,6.615l10.713,8.417a4.987,4.987,0,0,1,1.917,3.944V59.184a3.971,3.971,0,0,0,.558,2.006h-4.57V37.114H3.006V61.19H1V63.2H63.2V61.19ZM45.14,39.121H59.184V61.19H55.171V55.171h2.006V53.165H47.146v2.006h2.006V61.19H45.14Zm8.025,16.051V61.19H51.159V55.171ZM33.048,35.749l-.95.95-.95-.95.833-6.66h.236ZM25.87,23.418,22.721,20.27l1.3-2.167-.5-1.224-2.453-.612V11.815l1.955-.489.537-.2.465-1.146-1.3-2.165L25.87,4.665l2.166,1.3,1.224-.5.613-2.454h4.452l.613,2.454,1.224.5,2.166-1.3,3.149,3.148-1.3,2.165.5,1.224,2.46.614v4.452l-1.955.489-.536.2L40.176,18.1l1.3,2.167-3.149,3.148-2.166-1.3-1.285.53-.638,4.434h-4.28l-.637-4.435-1.285-.53ZM24.4,32.512,13.686,24.1a1.7,1.7,0,0,1,1.048-3.032H15.1a1.7,1.7,0,0,1,1.06.372L23.8,27.55a7.051,7.051,0,0,0,4.387,1.539h1.769l-.923,7.384L32.1,39.536l3.063-3.063-.923-7.384h1.769a7.047,7.047,0,0,0,4.387-1.539l7.642-6.114a1.709,1.709,0,0,1,1.061-.372h.365A1.7,1.7,0,0,1,50.511,24.1L39.8,32.512a6.983,6.983,0,0,0-2.683,5.521v3.094H27.083V38.033A6.983,6.983,0,0,0,24.4,32.512Zm2.683,26.672V43.133H37.114V59.184a2.006,2.006,0,0,1-4.013,0V46.143H31.1V59.184a2.006,2.006,0,0,1-4.013,0ZM5.013,39.121H19.057V61.19H15.044V55.171h2.006V53.165H7.019v2.006H9.025V61.19H5.013Zm8.025,16.051V61.19H11.032V55.171Z" transform="translate(-1 -1)"></path><path class="e" d="M47,41h2.006v2.006H47Z" transform="translate(-0.854 -0.873)"></path><path class="e" d="M51,41h2.006v2.006H51Z" transform="translate(-0.842 -0.873)"></path><path class="e" d="M55,41h2.006v2.006H55Z" transform="translate(-0.829 -0.873)"></path><path class="e" d="M47,45h2.006v2.006H47Z" transform="translate(-0.854 -0.861)"></path><path class="e" d="M51,45h2.006v2.006H51Z" transform="translate(-0.842 -0.861)"></path><path class="e" d="M55,45h2.006v2.006H55Z" transform="translate(-0.829 -0.861)"></path><path class="e" d="M47,49h2.006v2.006H47Z" transform="translate(-0.854 -0.848)"></path><path class="e" d="M51,49h2.006v2.006H51Z" transform="translate(-0.842 -0.848)"></path><path class="e" d="M55,49h2.006v2.006H55Z" transform="translate(-0.829 -0.848)"></path><path class="e" d="M7,41H9.006v2.006H7Z" transform="translate(-0.981 -0.873)"></path><path class="e" d="M11,41h2.006v2.006H11Z" transform="translate(-0.969 -0.873)"></path><path class="e" d="M15,41h2.006v2.006H15Z" transform="translate(-0.956 -0.873)"></path><path class="e" d="M7,45H9.006v2.006H7Z" transform="translate(-0.981 -0.861)"></path><path class="e" d="M11,45h2.006v2.006H11Z" transform="translate(-0.969 -0.861)"></path><path class="e" d="M15,45h2.006v2.006H15Z" transform="translate(-0.956 -0.861)"></path><path class="e" d="M7,49H9.006v2.006H7Z" transform="translate(-0.981 -0.848)"></path><path class="e" d="M11,49h2.006v2.006H11Z" transform="translate(-0.969 -0.848)"></path><path class="e" d="M15,49h2.006v2.006H15Z" transform="translate(-0.956 -0.848)"></path></g></g></svg>