<svg xmlns="http://www.w3.org/2000/svg" viewBox="0 0 27.237 29.797">
  <defs>
    <style>
      .cls-1 {
        fill: #0da30d;
      }
    </style>
  </defs>
  <g id="gst-invoice" transform="translate(0 0.103)">
    <path id="Path_551" data-name="Path 551" class="cls-1" d="M305.933,175c2.076-2.535,4.138-5.057,6.222-7.6.838.689,1.667,1.365,2.514,2.054-2.807,3.428-5.6,6.835-8.4,10.267-2.016-1.863-4.028-3.713-6.065-5.6.744-.787,1.48-1.565,2.229-2.36C303.594,172.848,304.751,173.911,305.933,175Z" transform="translate(-287.432 -160.379)"/>
    <path id="Path_552" data-name="Path 552" d="M20.428,1.654a1.933,1.933,0,0,1,1.961,1.859c.03,1,.009,4.16.009,4.729.017,0,.034.013.051.017.553-.676,1.688-2.144,1.688-2.195,0-.88.013-1.757,0-2.637A3.36,3.36,0,0,0,23.417,1.4a3.7,3.7,0,0,0-3.066-1.5c-1.5,0-15.264-.03-16.94.021A3.473,3.473,0,0,0,.834,1.271,3.66,3.66,0,0,0,0,3.725C0,8.225,0,23.276,0,26a3.5,3.5,0,0,0,1,2.522,3.753,3.753,0,0,0,2.816,1.17c2.935-.013,13.946-.009,16.519,0a3.831,3.831,0,0,0,1.314-.208,3.676,3.676,0,0,0,2.492-3.611q-.006-5.442,0-10.884v-.247c-.527.642-1.748,2.165-1.748,2.165s.009,6.18,0,9.08a1.821,1.821,0,0,1-.4,1.2,2.1,2.1,0,0,1-1.7.77c-3.449,0-14.49,0-16.562,0A1.957,1.957,0,0,1,1.757,25.99c.017-.34.009-20.9,0-22.346a1.861,1.861,0,0,1,.468-1.31,1.978,1.978,0,0,1,1.565-.68C5.278,1.649,18.913,1.645,20.428,1.654Z"/>
    <path id="Path_553" data-name="Path 553" d="M114.815,539.8v.727H99.1V539.8Z" transform="translate(-94.885 -516.94)"/>
    <path id="Path_554" data-name="Path 554" d="M114.815,480.1v.732H99.1V480.1Z" transform="translate(-94.885 -459.78)"/>
    <path id="Path_555" data-name="Path 555" class="cls-1" d="M138.116,152.348c0-.383,0-.761,0-1.144,0-.14.026-.2.183-.2.651-.013.651-.017.651.634v2.594c-.272,0-.523.009-.774-.009-.055,0-.123-.1-.149-.162-.132-.344-.247-.693-.374-1.038-.021-.064-.055-.119-.081-.179-.017,0-.038,0-.055.008v.876c0,.5,0,.5-.5.5-.323,0-.306.055-.31-.306,0-.893,0-1.786,0-2.679,0-.183.043-.268.238-.242a1.7,1.7,0,0,0,.255,0c.357,0,.349,0,.468.344s.259.676.391,1.017A.338.338,0,0,0,138.116,152.348Z" transform="translate(-130.886 -144.672)"/>
    <path id="Path_556" data-name="Path 556" class="cls-1" d="M261,151.026v-.7a.86.86,0,0,1,.8-.944,1.686,1.686,0,0,1,.961.072.736.736,0,0,1,.527.676c.013.574.017,1.144.013,1.718a.791.791,0,0,1-.655.8,1.489,1.489,0,0,1-1.37-.2.694.694,0,0,1-.272-.574c-.008-.281-.008-.561-.008-.846Zm1.318.021h0c0-.306,0-.608,0-.914,0-.111.013-.242-.157-.247s-.187.111-.187.23c0,.621,0,1.246,0,1.867,0,.119.034.217.179.208s.157-.115.157-.23Z" transform="translate(-249.899 -143.091)"/>
    <path id="Path_557" data-name="Path 557" class="cls-1" d="M194.6,151.112h1.046c.089.71.174,1.412.259,2.114h.055c.03-.366.06-.736.094-1.1.03-.289.068-.574.1-.863a.16.16,0,0,1,.191-.166c.276.008.549,0,.855,0-.047.319-.085.617-.128.914-.106.689-.217,1.382-.323,2.071-.026.174-.089.251-.285.242-.425-.017-.846,0-1.293,0C194.991,153.255,194.8,152.2,194.6,151.112Z" transform="translate(-186.324 -144.767)"/>
    <path id="Path_558" data-name="Path 558" d="M98.8,421.236V420.5h7.719v.736Z" transform="translate(-94.598 -402.714)"/>
    <path id="Path_559" data-name="Path 559" d="M106.819,360.8v.723H99.1V360.8Z" transform="translate(-94.885 -345.553)"/>
    <path id="Path_560" data-name="Path 560" class="cls-1" d="M361.3,151.365c-.026.272-.03.506-.072.736a.681.681,0,0,1-.476.476,1.718,1.718,0,0,1-1.382-.013.7.7,0,0,1-.442-.71q-.006-.88,0-1.761a.664.664,0,0,1,.434-.6,1.731,1.731,0,0,1,1.438-.017.814.814,0,0,1,.481.8c.034.523.043.523-.472.523s-.519,0-.519-.506a.687.687,0,0,0-.009-.23.31.31,0,0,0-.149-.183.164.164,0,0,0-.225.153,1.729,1.729,0,0,0-.021.208c0,.523,0,1.046,0,1.574a.429.429,0,0,0,.034.225.29.29,0,0,0,.2.128c.055,0,.145-.094.153-.153.026-.162,0-.327.021-.485,0-.055.072-.149.115-.149C360.689,151.361,360.974,151.365,361.3,151.365Z" transform="translate(-343.66 -143.072)"/>
    <path id="Path_561" data-name="Path 561" d="M99,301.927V301.2h7.715v.727Z" transform="translate(-94.789 -288.488)"/>
    <path id="Path_562" data-name="Path 562" class="cls-1" d="M325.8,151.176c.293,0,.561,0,.829,0a.175.175,0,0,1,.128.115c0,1.021,0,2.041,0,3.058,0,0-.009.009-.026.03H325.8Z" transform="translate(-311.943 -144.844)"/>
    <path id="Path_563" data-name="Path 563" class="cls-1" d="M102.913,150.972c.276-.013.987,0,.987,0s-.009.366,0,.425c0,.872,0,1.74,0,2.611,0,.149-.043.2-.191.2-.213-.009-.425,0-.638,0-.111,0-.17-.026-.17-.153,0-.6,0-1.2,0-1.8,0-.064.008-.4.008-.4S102.913,151.232,102.913,150.972Z" transform="translate(-98.524 -144.645)"/>
    <path id="Path_564" data-name="Path 564" class="cls-1" d="M424.4,151.2v3.224h1.3c.451,0,.447,0,.421-.455-.009-.132-.06-.166-.183-.162-.183.009-.366,0-.574,0,0-.14-.008-.744-.008-.744a4.275,4.275,0,0,0,.646-.021v-.57c-.17,0-.625-.017-.625-.017s-.009-.4-.009-.591c.1-.008.387-.017.578-.021.111,0,.183-.191.183-.191l-.008-.353s-.068-.1-.106-.1Z" transform="translate(-406.35 -144.868)"/>
  </g>
</svg>
