<?xml version="1.0" encoding="utf-8"?>
<!-- Generator: Adobe Illustrator 20.1.0, SVG Export Plug-In . SVG Version: 6.00 Build 0)  -->
<svg version="1.1" xmlns="http://www.w3.org/2000/svg" xmlns:xlink="http://www.w3.org/1999/xlink" x="0px" y="0px" width="683px"
	 height="87px" viewBox="0 0 683 87" style="enable-background:new 0 0 683 87;" xml:space="preserve">
<style type="text/css">
	.st0{fill:#FDBA13;}
	.st1{fill:#1E1E1E;}
	.st2{enable-background:new    ;}
	.st3{fill:#EDEDED;}
	.st4{display:none;}
	.st5{display:inline;}
	.st6{font-family:'Roboto-Regular';}
	.st7{font-size:10px;}
</style>
<g id="Layer_1">
	<polygon class="st0" points="24,12 16.5,19.5 16.5,53.6 55.6,53.6 60,49.4 60,12 	"/>
	<path class="st1" d="M22.9,35.1c0.1-0.4,0.2-0.8,0.4-1.1c1.7-2.8,3.4-5.6,5.1-8.4c0.3-0.6,1-0.7,1.6-0.4c1.9,1.3,4.5,0.3,5.2-1.9
		c0.2-0.7,0.6-1,1.3-1c2.3-0.1,4.6-0.3,6.9-0.4c0.4,0,0.8-0.1,1.2-0.1c0.2,0,0.4,0,0.6,0.1c0.5,0.2,0.9,0.5,1,1.1
		c0.1,0.5-0.2,0.9-0.6,1.2c-0.5,0.4-1.1,0.4-1.7,0.4c-2.3,0.2-4.5,0.4-6.8,0.6c-0.7,0.1-0.9,0.3-0.9,1c0.1,1.4,0.6,2.7,1.2,3.9
		c0.2,0.4,0.4,0.4,0.9,0.3c1.6-0.5,3.2-0.9,4.8-1.4c0.2-0.1,0.4-0.1,0.6-0.1c0.7-0.2,1.4-0.1,2,0.4c1.5,1.2,3.1,2.4,4.6,3.6
		c0.3,0.2,0.5,0.5,0.6,0.8c0.5,1.1-0.2,2.2-1.4,2c-0.4,0-0.8-0.2-1.1-0.4c-1.4-0.9-2.9-1.8-4.3-2.7c-0.6-0.4-1.1-0.4-1.6,0
		c-0.8,0.5-1.6,1-2.4,1.5c-1.3,0.8-1.4,2.1-0.4,3.3c0.7,0.8,1.5,1.7,2.2,2.5c1,1.1,2.1,2.3,3.1,3.4c0.9,1,0.5,2.3-0.7,2.6
		c-0.7,0.2-1.3,0-1.8-0.4c-0.7-0.6-1.5-1.3-2.2-2c-2.3-2.1-4.5-4.3-6.8-6.4c-1-1-1.7-2.1-2.1-3.5c-0.3-1.2-0.7-2.5-1.1-3.7
		c-0.1-0.3-0.2-0.6-0.4-0.7c-0.3-0.1-0.5,0.3-0.6,0.5c-1.1,1.8-2.2,3.7-3.4,5.5c-0.2,0.4-0.5,0.7-0.9,1s-0.9,0.4-1.4,0.2
		C23.1,36.1,23,35.6,22.9,35.1z"/>
	<path class="st1" d="M38.5,47.6c4.2,0,8.3,0,12.5,0c0.5,0,0.5,0,0.5,0.5c0,0.1,0,0.2,0,0.2c0,0.4,0,0.5-0.5,0.5
		c-3.6,0-7.1,0-10.7,0c-4.8,0-9.5,0-14.3,0c-0.6,0-0.6,0-0.6-0.6c0-0.1,0-0.2,0-0.2c0-0.3,0.1-0.4,0.4-0.4
		C30.1,47.6,34.3,47.6,38.5,47.6z"/>
	<path class="st1" d="M34.4,22c0,0.9-0.3,1.7-0.9,2.2c-1,1-2.4,0.9-3.4-0.1c-1.1-1.1-1.1-2.9-0.2-4c0.7-0.8,1.5-1.1,2.5-0.8
		c1.1,0.3,1.7,1,1.9,2.1C34.4,21.7,34.4,21.9,34.4,22z"/>
	<g class="st2">
		<path d="M24.2,65.2h-3L20.5,67h-1l2.7-7.1h0.8l2.7,7.1h-1L24.2,65.2z M21.5,64.4h2.4l-1.2-3.2h0L21.5,64.4z"/>
		<path d="M27.5,61.7l0.1,0.8c0.2-0.3,0.4-0.5,0.7-0.7c0.3-0.2,0.6-0.2,0.9-0.2c0.6,0,1,0.2,1.3,0.5c0.3,0.3,0.5,0.8,0.5,1.5V67h-1
			v-3.3c0-0.5-0.1-0.8-0.3-1s-0.5-0.3-0.8-0.3c-0.3,0-0.5,0.1-0.7,0.2s-0.4,0.3-0.5,0.5V67h-1v-5.3H27.5z"/>
		<path d="M33.6,60.4v1.3h1v0.7h-1v3.2c0,0.2,0.1,0.4,0.2,0.5s0.2,0.2,0.4,0.2c0.1,0,0.1,0,0.2,0s0.1,0,0.2,0l0.1,0.7
			C34.6,67,34.5,67,34.3,67c-0.1,0-0.3,0.1-0.4,0.1c-0.4,0-0.7-0.1-0.9-0.4c-0.2-0.2-0.3-0.6-0.3-1.1v-3.2h-0.8v-0.7h0.8v-1.3H33.6z
			"/>
		<path d="M36.8,60.4h-1v-1h1V60.4z M36.8,67h-1v-5.3h1V67z"/>
		<path d="M41.4,65.6c0-0.2-0.1-0.4-0.2-0.5s-0.5-0.3-0.9-0.4c-0.6-0.1-1.1-0.3-1.4-0.6c-0.3-0.2-0.5-0.6-0.5-1
			c0-0.4,0.2-0.8,0.5-1.1c0.4-0.3,0.8-0.5,1.4-0.5c0.6,0,1.1,0.2,1.5,0.5s0.5,0.7,0.5,1.2l0,0h-0.9c0-0.2-0.1-0.4-0.3-0.6
			c-0.2-0.2-0.5-0.3-0.8-0.3c-0.3,0-0.6,0.1-0.8,0.2s-0.2,0.3-0.2,0.5c0,0.2,0.1,0.4,0.2,0.5s0.4,0.2,0.9,0.3
			c0.7,0.1,1.2,0.3,1.5,0.6c0.3,0.2,0.5,0.6,0.5,1c0,0.5-0.2,0.8-0.6,1.1s-0.9,0.4-1.5,0.4c-0.7,0-1.2-0.2-1.6-0.5s-0.6-0.7-0.6-1.2
			l0,0h0.9c0,0.3,0.1,0.6,0.4,0.7s0.5,0.2,0.8,0.2c0.3,0,0.6-0.1,0.8-0.2C41.3,66,41.4,65.8,41.4,65.6z"/>
		<path d="M45.1,64.6h-0.6V67h-1v-7.6h1v4.4h0.6l1.4-2.1h1.2l-1.8,2.4L48,67h-1.1L45.1,64.6z"/>
		<path d="M49.7,60.4h-1v-1h1V60.4z M49.7,67h-1v-5.3h1V67z"/>
		<path d="M51,64.5c0-0.8,0.2-1.5,0.5-2.1s0.9-0.8,1.5-0.8c0.3,0,0.6,0.1,0.8,0.2s0.4,0.3,0.6,0.5v-2.9h1V67h-0.8l-0.1-0.6
			c-0.2,0.2-0.4,0.4-0.6,0.6s-0.5,0.2-0.9,0.2c-0.6,0-1.1-0.2-1.5-0.7c-0.4-0.5-0.5-1.1-0.5-1.8V64.5z M51.9,64.6
			c0,0.5,0.1,1,0.3,1.3c0.2,0.3,0.6,0.5,1,0.5c0.3,0,0.5-0.1,0.7-0.2s0.4-0.3,0.5-0.5v-2.5c-0.1-0.2-0.3-0.4-0.5-0.5
			c-0.2-0.1-0.4-0.2-0.7-0.2c-0.5,0-0.8,0.2-1,0.6s-0.3,0.9-0.3,1.5V64.6z"/>
	</g>
	<polygon class="st0" points="94,12 86.5,19.5 86.5,53.6 125.6,53.6 130,49.4 130,12 	"/>
	<g class="st2">
		<path d="M85.7,64.1c0,0.9-0.3,1.6-0.8,2.2s-1.2,0.9-2.1,0.9c-0.8,0-1.5-0.3-2-0.9S80,64.9,80,64.1v-1.3c0-0.9,0.3-1.6,0.8-2.2
			s1.2-0.9,2-0.9c0.9,0,1.6,0.3,2.1,0.9c0.5,0.6,0.8,1.3,0.8,2.2V64.1z M84.8,62.8c0-0.7-0.2-1.2-0.5-1.6s-0.8-0.6-1.4-0.6
			c-0.6,0-1,0.2-1.3,0.6s-0.5,1-0.5,1.6v1.3c0,0.7,0.2,1.2,0.5,1.6s0.8,0.6,1.3,0.6c0.6,0,1.1-0.2,1.4-0.6c0.4-0.4,0.5-1,0.5-1.6
			V62.8z"/>
		<path d="M88,60.4h-1v-1h1V60.4z M88,67h-1v-5.3h1V67z"/>
		<path d="M90.5,67h-1v-7.6h1V67z"/>
		<path d="M95.6,63.9V67h-1v-7.1h2.6c0.8,0,1.4,0.2,1.8,0.5s0.6,0.8,0.6,1.5c0,0.4-0.1,0.7-0.3,1s-0.5,0.5-0.8,0.6
			c0.4,0.1,0.7,0.3,0.8,0.6c0.2,0.3,0.3,0.6,0.3,1.1v0.7c0,0.2,0,0.4,0.1,0.6s0.1,0.3,0.3,0.4V67h-1c-0.1-0.1-0.2-0.3-0.2-0.5
			s-0.1-0.4-0.1-0.7v-0.6c0-0.4-0.1-0.7-0.3-0.9s-0.5-0.4-0.9-0.4H95.6z M95.6,63.2h1.5c0.5,0,0.9-0.1,1.2-0.3s0.4-0.5,0.4-0.9
			c0-0.4-0.1-0.7-0.3-0.9c-0.2-0.2-0.6-0.3-1.1-0.3h-1.6V63.2z"/>
		<path d="M103.3,67.1c-0.7,0-1.3-0.2-1.8-0.7c-0.4-0.5-0.7-1.1-0.7-1.9v-0.2c0-0.8,0.2-1.4,0.7-1.9c0.4-0.5,1-0.8,1.6-0.8
			c0.7,0,1.3,0.2,1.6,0.6s0.5,1,0.5,1.7v0.6h-3.4l0,0c0,0.5,0.1,0.9,0.4,1.2s0.6,0.5,1,0.5c0.3,0,0.6,0,0.9-0.1
			c0.2-0.1,0.5-0.2,0.6-0.4l0.4,0.6c-0.2,0.2-0.4,0.3-0.7,0.5C104.1,67,103.8,67.1,103.3,67.1z M103.2,62.4c-0.3,0-0.6,0.1-0.8,0.4
			c-0.2,0.3-0.4,0.6-0.4,1l0,0h2.4v-0.1c0-0.4-0.1-0.7-0.3-0.9S103.6,62.4,103.2,62.4z"/>
		<path d="M109.5,65.6c0-0.2-0.1-0.4-0.2-0.5s-0.5-0.3-0.9-0.4c-0.6-0.1-1.1-0.3-1.4-0.6c-0.3-0.2-0.5-0.6-0.5-1
			c0-0.4,0.2-0.8,0.5-1.1c0.4-0.3,0.8-0.5,1.4-0.5c0.6,0,1.1,0.2,1.5,0.5s0.5,0.7,0.5,1.2l0,0h-0.9c0-0.2-0.1-0.4-0.3-0.6
			c-0.2-0.2-0.5-0.3-0.8-0.3c-0.3,0-0.6,0.1-0.8,0.2s-0.2,0.3-0.2,0.5c0,0.2,0.1,0.4,0.2,0.5s0.4,0.2,0.9,0.3
			c0.7,0.1,1.2,0.3,1.5,0.6c0.3,0.2,0.5,0.6,0.5,1c0,0.5-0.2,0.8-0.6,1.1s-0.9,0.4-1.5,0.4c-0.7,0-1.2-0.2-1.6-0.5s-0.6-0.7-0.6-1.2
			l0,0h0.9c0,0.3,0.1,0.6,0.4,0.7s0.5,0.2,0.8,0.2c0.3,0,0.6-0.1,0.8-0.2C109.4,66,109.5,65.8,109.5,65.6z"/>
		<path d="M112.7,60.4h-1v-1h1V60.4z M112.7,67h-1v-5.3h1V67z"/>
		<path d="M117.2,65.6c0-0.2-0.1-0.4-0.2-0.5s-0.5-0.3-0.9-0.4c-0.6-0.1-1.1-0.3-1.4-0.6c-0.3-0.2-0.5-0.6-0.5-1
			c0-0.4,0.2-0.8,0.5-1.1c0.4-0.3,0.8-0.5,1.4-0.5c0.6,0,1.1,0.2,1.5,0.5s0.5,0.7,0.5,1.2l0,0h-0.9c0-0.2-0.1-0.4-0.3-0.6
			c-0.2-0.2-0.5-0.3-0.8-0.3c-0.3,0-0.6,0.1-0.8,0.2s-0.2,0.3-0.2,0.5c0,0.2,0.1,0.4,0.2,0.5s0.4,0.2,0.9,0.3
			c0.7,0.1,1.2,0.3,1.5,0.6c0.3,0.2,0.5,0.6,0.5,1c0,0.5-0.2,0.8-0.6,1.1s-0.9,0.4-1.5,0.4c-0.7,0-1.2-0.2-1.6-0.5s-0.6-0.7-0.6-1.2
			l0,0h0.9c0,0.3,0.1,0.6,0.4,0.7s0.5,0.2,0.8,0.2c0.3,0,0.6-0.1,0.8-0.2C117.1,66,117.2,65.8,117.2,65.6z"/>
		<path d="M120.7,60.4v1.3h1v0.7h-1v3.2c0,0.2,0.1,0.4,0.2,0.5s0.2,0.2,0.4,0.2c0.1,0,0.1,0,0.2,0s0.1,0,0.2,0l0.1,0.7
			c-0.1,0.1-0.2,0.1-0.3,0.1c-0.1,0-0.3,0.1-0.4,0.1c-0.4,0-0.7-0.1-0.9-0.4c-0.2-0.2-0.3-0.6-0.3-1.1v-3.2h-0.8v-0.7h0.8v-1.3
			H120.7z"/>
		<path d="M126.1,67c0-0.2-0.1-0.3-0.1-0.4c0-0.1,0-0.2,0-0.4c-0.2,0.3-0.4,0.5-0.7,0.6c-0.3,0.2-0.6,0.3-0.9,0.3
			c-0.6,0-1-0.1-1.3-0.4c-0.3-0.3-0.4-0.7-0.4-1.2c0-0.5,0.2-0.9,0.6-1.2c0.4-0.3,1-0.4,1.7-0.4h1v-0.5c0-0.3-0.1-0.6-0.3-0.7
			c-0.2-0.2-0.5-0.3-0.8-0.3c-0.3,0-0.6,0.1-0.8,0.2c-0.2,0.2-0.3,0.3-0.3,0.6h-0.9l0,0c0-0.4,0.2-0.7,0.5-1.1s0.9-0.5,1.5-0.5
			c0.6,0,1.1,0.2,1.4,0.5c0.4,0.3,0.5,0.7,0.5,1.3v2.5c0,0.2,0,0.4,0,0.5s0.1,0.3,0.1,0.5H126.1z M124.5,66.3c0.3,0,0.7-0.1,0.9-0.3
			s0.5-0.4,0.5-0.6v-0.9h-1.1c-0.4,0-0.7,0.1-0.9,0.3c-0.2,0.2-0.3,0.4-0.3,0.7c0,0.2,0.1,0.4,0.2,0.6
			C124,66.2,124.2,66.3,124.5,66.3z"/>
		<path d="M129.2,61.7l0.1,0.8c0.2-0.3,0.4-0.5,0.7-0.7c0.3-0.2,0.6-0.2,0.9-0.2c0.6,0,1,0.2,1.3,0.5c0.3,0.3,0.5,0.8,0.5,1.5V67h-1
			v-3.3c0-0.5-0.1-0.8-0.3-1s-0.5-0.3-0.8-0.3c-0.3,0-0.5,0.1-0.7,0.2s-0.4,0.3-0.5,0.5V67h-1v-5.3H129.2z"/>
		<path d="M135.3,60.4v1.3h1v0.7h-1v3.2c0,0.2,0.1,0.4,0.2,0.5s0.2,0.2,0.4,0.2c0.1,0,0.1,0,0.2,0s0.1,0,0.2,0l0.1,0.7
			c-0.1,0.1-0.2,0.1-0.3,0.1c-0.1,0-0.3,0.1-0.4,0.1c-0.4,0-0.7-0.1-0.9-0.4c-0.2-0.2-0.3-0.6-0.3-1.1v-3.2h-0.8v-0.7h0.8v-1.3
			H135.3z"/>
	</g>
	<polygon class="st0" points="164,12 156.5,19.5 156.5,53.6 195.6,53.6 200,49.4 200,12 	"/>
	<g class="st2">
		<path d="M161.2,65.2h-3l-0.7,1.8h-1l2.7-7.1h0.8l2.7,7.1h-1L161.2,65.2z M158.5,64.4h2.4l-1.2-3.2h0L158.5,64.4z"/>
		<path d="M164.5,61.7l0.1,0.8c0.2-0.3,0.4-0.5,0.7-0.7c0.3-0.2,0.6-0.2,0.9-0.2c0.6,0,1,0.2,1.3,0.5c0.3,0.3,0.5,0.8,0.5,1.5V67h-1
			v-3.3c0-0.5-0.1-0.8-0.3-1c-0.2-0.2-0.5-0.3-0.8-0.3c-0.3,0-0.5,0.1-0.7,0.2c-0.2,0.1-0.4,0.3-0.5,0.5V67h-1v-5.3H164.5z"/>
		<path d="M170.5,60.4v1.3h1v0.7h-1v3.2c0,0.2,0.1,0.4,0.2,0.5s0.2,0.2,0.4,0.2c0.1,0,0.1,0,0.2,0c0.1,0,0.1,0,0.2,0l0.1,0.7
			c-0.1,0.1-0.2,0.1-0.3,0.1c-0.1,0-0.3,0.1-0.4,0.1c-0.4,0-0.7-0.1-0.9-0.4c-0.2-0.2-0.3-0.6-0.3-1.1v-3.2h-0.8v-0.7h0.8v-1.3
			H170.5z"/>
		<path d="M173.8,60.4h-1v-1h1V60.4z M173.8,67h-1v-5.3h1V67z"/>
		<path d="M178.3,65.6c0-0.2-0.1-0.4-0.2-0.5s-0.5-0.3-0.9-0.4c-0.6-0.1-1.1-0.3-1.4-0.6c-0.3-0.2-0.5-0.6-0.5-1
			c0-0.4,0.2-0.8,0.5-1.1c0.4-0.3,0.8-0.5,1.4-0.5c0.6,0,1.1,0.2,1.5,0.5c0.4,0.3,0.5,0.7,0.5,1.2l0,0h-0.9c0-0.2-0.1-0.4-0.3-0.6
			c-0.2-0.2-0.5-0.3-0.8-0.3c-0.3,0-0.6,0.1-0.8,0.2s-0.2,0.3-0.2,0.5c0,0.2,0.1,0.4,0.2,0.5s0.4,0.2,0.9,0.3
			c0.7,0.1,1.2,0.3,1.5,0.6c0.3,0.2,0.5,0.6,0.5,1c0,0.5-0.2,0.8-0.6,1.1c-0.4,0.3-0.9,0.4-1.5,0.4c-0.7,0-1.2-0.2-1.6-0.5
			c-0.4-0.3-0.6-0.7-0.6-1.2l0,0h0.9c0,0.3,0.1,0.6,0.4,0.7c0.2,0.2,0.5,0.2,0.8,0.2c0.3,0,0.6-0.1,0.8-0.2
			C178.2,66,178.3,65.8,178.3,65.6z"/>
		<path d="M181.8,60.4v1.3h1v0.7h-1v3.2c0,0.2,0.1,0.4,0.2,0.5s0.2,0.2,0.4,0.2c0.1,0,0.1,0,0.2,0c0.1,0,0.1,0,0.2,0l0.1,0.7
			c-0.1,0.1-0.2,0.1-0.3,0.1c-0.1,0-0.3,0.1-0.4,0.1c-0.4,0-0.7-0.1-0.9-0.4c-0.2-0.2-0.3-0.6-0.3-1.1v-3.2H180v-0.7h0.8v-1.3H181.8
			z"/>
		<path d="M187.2,67c0-0.2-0.1-0.3-0.1-0.4c0-0.1,0-0.2,0-0.4c-0.2,0.3-0.4,0.5-0.7,0.6c-0.3,0.2-0.6,0.3-0.9,0.3
			c-0.5,0-1-0.1-1.3-0.4c-0.3-0.3-0.4-0.7-0.4-1.2c0-0.5,0.2-0.9,0.6-1.2c0.4-0.3,1-0.4,1.7-0.4h1v-0.5c0-0.3-0.1-0.6-0.3-0.7
			c-0.2-0.2-0.5-0.3-0.8-0.3c-0.3,0-0.6,0.1-0.8,0.2c-0.2,0.2-0.3,0.3-0.3,0.6H184l0,0c0-0.4,0.2-0.7,0.5-1.1
			c0.4-0.3,0.9-0.5,1.5-0.5c0.6,0,1.1,0.2,1.4,0.5c0.4,0.3,0.5,0.7,0.5,1.3v2.5c0,0.2,0,0.4,0,0.5s0.1,0.3,0.1,0.5H187.2z
			 M185.6,66.3c0.3,0,0.7-0.1,0.9-0.3c0.3-0.2,0.5-0.4,0.5-0.6v-0.9H186c-0.4,0-0.7,0.1-0.9,0.3c-0.2,0.2-0.3,0.4-0.3,0.7
			c0,0.2,0.1,0.4,0.2,0.6C185.1,66.2,185.3,66.3,185.6,66.3z"/>
		<path d="M190.7,60.4v1.3h1v0.7h-1v3.2c0,0.2,0.1,0.4,0.2,0.5s0.2,0.2,0.4,0.2c0.1,0,0.1,0,0.2,0c0.1,0,0.1,0,0.2,0l0.1,0.7
			c-0.1,0.1-0.2,0.1-0.3,0.1c-0.1,0-0.3,0.1-0.4,0.1c-0.4,0-0.7-0.1-0.9-0.4c-0.2-0.2-0.3-0.6-0.3-1.1v-3.2h-0.8v-0.7h0.8v-1.3
			H190.7z"/>
		<path d="M193.9,60.4h-1v-1h1V60.4z M193.9,67h-1v-5.3h1V67z"/>
		<path d="M197.6,66.3c0.3,0,0.6-0.1,0.8-0.3c0.2-0.2,0.4-0.4,0.4-0.7h0.9l0,0c0,0.5-0.2,0.9-0.6,1.2c-0.4,0.4-0.9,0.5-1.5,0.5
			c-0.8,0-1.4-0.3-1.8-0.8c-0.4-0.5-0.6-1.1-0.6-1.9v-0.2c0-0.8,0.2-1.4,0.6-1.9c0.4-0.5,1-0.8,1.8-0.8c0.6,0,1.1,0.2,1.5,0.5
			c0.4,0.4,0.6,0.8,0.6,1.3l0,0h-0.9c0-0.3-0.1-0.6-0.3-0.8c-0.2-0.2-0.5-0.3-0.9-0.3c-0.5,0-0.9,0.2-1.1,0.5
			c-0.2,0.4-0.3,0.8-0.3,1.3v0.2c0,0.5,0.1,1,0.3,1.3S197.1,66.3,197.6,66.3z"/>
	</g>
	<polygon class="st0" points="234,12 226.5,19.5 226.5,53.6 265.6,53.6 270,49.4 270,12 	"/>
	<g class="st2">
		<path d="M219.3,67h-1v-3.1h-3.5V67h-1v-7.1h1v3.2h3.5v-3.2h1V67z"/>
		<path d="M223.1,67.1c-0.7,0-1.3-0.2-1.8-0.7c-0.4-0.5-0.7-1.1-0.7-1.9v-0.2c0-0.8,0.2-1.4,0.7-1.9c0.4-0.5,1-0.8,1.6-0.8
			c0.7,0,1.3,0.2,1.6,0.6s0.5,1,0.5,1.7v0.6h-3.4l0,0c0,0.5,0.1,0.9,0.4,1.2s0.6,0.5,1,0.5c0.3,0,0.6,0,0.9-0.1
			c0.2-0.1,0.5-0.2,0.6-0.4l0.4,0.6c-0.2,0.2-0.4,0.3-0.7,0.5C223.9,67,223.5,67.1,223.1,67.1z M222.9,62.4c-0.3,0-0.6,0.1-0.8,0.4
			c-0.2,0.3-0.4,0.6-0.4,1l0,0h2.4v-0.1c0-0.4-0.1-0.7-0.3-0.9S223.3,62.4,222.9,62.4z"/>
		<path d="M229.4,67c0-0.2-0.1-0.3-0.1-0.4c0-0.1,0-0.2,0-0.4c-0.2,0.3-0.4,0.5-0.7,0.6c-0.3,0.2-0.6,0.3-0.9,0.3
			c-0.6,0-1-0.1-1.3-0.4c-0.3-0.3-0.4-0.7-0.4-1.2c0-0.5,0.2-0.9,0.6-1.2c0.4-0.3,1-0.4,1.7-0.4h1v-0.5c0-0.3-0.1-0.6-0.3-0.7
			c-0.2-0.2-0.5-0.3-0.8-0.3c-0.3,0-0.6,0.1-0.8,0.2c-0.2,0.2-0.3,0.3-0.3,0.6h-0.9l0,0c0-0.4,0.2-0.7,0.5-1.1s0.9-0.5,1.5-0.5
			c0.6,0,1.1,0.2,1.4,0.5c0.4,0.3,0.5,0.7,0.5,1.3v2.5c0,0.2,0,0.4,0,0.5s0.1,0.3,0.1,0.5H229.4z M227.8,66.3c0.3,0,0.7-0.1,0.9-0.3
			s0.5-0.4,0.5-0.6v-0.9h-1.1c-0.4,0-0.7,0.1-0.9,0.3c-0.2,0.2-0.3,0.4-0.3,0.7c0,0.2,0.1,0.4,0.2,0.6
			C227.3,66.2,227.5,66.3,227.8,66.3z"/>
		<path d="M232.9,60.4v1.3h1v0.7h-1v3.2c0,0.2,0.1,0.4,0.2,0.5s0.2,0.2,0.4,0.2c0.1,0,0.1,0,0.2,0s0.1,0,0.2,0l0.1,0.7
			c-0.1,0.1-0.2,0.1-0.3,0.1c-0.1,0-0.3,0.1-0.4,0.1c-0.4,0-0.7-0.1-0.9-0.4c-0.2-0.2-0.3-0.6-0.3-1.1v-3.2h-0.8v-0.7h0.8v-1.3
			H232.9z"/>
		<path d="M238.7,63.9V67h-1v-7.1h2.6c0.8,0,1.4,0.2,1.8,0.5s0.6,0.8,0.6,1.5c0,0.4-0.1,0.7-0.3,1s-0.5,0.5-0.8,0.6
			c0.4,0.1,0.7,0.3,0.8,0.6c0.2,0.3,0.3,0.6,0.3,1.1v0.7c0,0.2,0,0.4,0.1,0.6s0.1,0.3,0.3,0.4V67h-1c-0.1-0.1-0.2-0.3-0.2-0.5
			s-0.1-0.4-0.1-0.7v-0.6c0-0.4-0.1-0.7-0.3-0.9s-0.5-0.4-0.9-0.4H238.7z M238.7,63.2h1.5c0.5,0,0.9-0.1,1.2-0.3s0.4-0.5,0.4-0.9
			c0-0.4-0.1-0.7-0.3-0.9c-0.2-0.2-0.6-0.3-1.1-0.3h-1.6V63.2z"/>
		<path d="M246.4,67.1c-0.7,0-1.3-0.2-1.8-0.7c-0.4-0.5-0.7-1.1-0.7-1.9v-0.2c0-0.8,0.2-1.4,0.7-1.9c0.4-0.5,1-0.8,1.6-0.8
			c0.7,0,1.3,0.2,1.6,0.6s0.5,1,0.5,1.7v0.6H245l0,0c0,0.5,0.1,0.9,0.4,1.2s0.6,0.5,1,0.5c0.3,0,0.6,0,0.9-0.1
			c0.2-0.1,0.5-0.2,0.6-0.4l0.4,0.6c-0.2,0.2-0.4,0.3-0.7,0.5C247.2,67,246.9,67.1,246.4,67.1z M246.3,62.4c-0.3,0-0.6,0.1-0.8,0.4
			c-0.2,0.3-0.4,0.6-0.4,1l0,0h2.4v-0.1c0-0.4-0.1-0.7-0.3-0.9S246.7,62.4,246.3,62.4z"/>
		<path d="M252.6,65.6c0-0.2-0.1-0.4-0.2-0.5s-0.5-0.3-0.9-0.4c-0.6-0.1-1.1-0.3-1.4-0.6c-0.3-0.2-0.5-0.6-0.5-1
			c0-0.4,0.2-0.8,0.5-1.1c0.4-0.3,0.8-0.5,1.4-0.5c0.6,0,1.1,0.2,1.5,0.5s0.5,0.7,0.5,1.2l0,0h-0.9c0-0.2-0.1-0.4-0.3-0.6
			c-0.2-0.2-0.5-0.3-0.8-0.3c-0.3,0-0.6,0.1-0.8,0.2s-0.2,0.3-0.2,0.5c0,0.2,0.1,0.4,0.2,0.5s0.4,0.2,0.9,0.3
			c0.7,0.1,1.2,0.3,1.5,0.6c0.3,0.2,0.5,0.6,0.5,1c0,0.5-0.2,0.8-0.6,1.1s-0.9,0.4-1.5,0.4c-0.7,0-1.2-0.2-1.6-0.5s-0.6-0.7-0.6-1.2
			l0,0h0.9c0,0.3,0.1,0.6,0.4,0.7s0.5,0.2,0.8,0.2c0.3,0,0.6-0.1,0.8-0.2C252.5,66,252.6,65.8,252.6,65.6z"/>
		<path d="M255.8,60.4h-1v-1h1V60.4z M255.8,67h-1v-5.3h1V67z"/>
		<path d="M260.3,65.6c0-0.2-0.1-0.4-0.2-0.5s-0.5-0.3-0.9-0.4c-0.6-0.1-1.1-0.3-1.4-0.6c-0.3-0.2-0.5-0.6-0.5-1
			c0-0.4,0.2-0.8,0.5-1.1c0.4-0.3,0.8-0.5,1.4-0.5c0.6,0,1.1,0.2,1.5,0.5s0.5,0.7,0.5,1.2l0,0h-0.9c0-0.2-0.1-0.4-0.3-0.6
			c-0.2-0.2-0.5-0.3-0.8-0.3c-0.3,0-0.6,0.1-0.8,0.2s-0.2,0.3-0.2,0.5c0,0.2,0.1,0.4,0.2,0.5s0.4,0.2,0.9,0.3
			c0.7,0.1,1.2,0.3,1.5,0.6c0.3,0.2,0.5,0.6,0.5,1c0,0.5-0.2,0.8-0.6,1.1s-0.9,0.4-1.5,0.4c-0.7,0-1.2-0.2-1.6-0.5s-0.6-0.7-0.6-1.2
			l0,0h0.9c0,0.3,0.1,0.6,0.4,0.7s0.5,0.2,0.8,0.2c0.3,0,0.6-0.1,0.8-0.2C260.2,66,260.3,65.8,260.3,65.6z"/>
		<path d="M263.8,60.4v1.3h1v0.7h-1v3.2c0,0.2,0.1,0.4,0.2,0.5s0.2,0.2,0.4,0.2c0.1,0,0.1,0,0.2,0s0.1,0,0.2,0l0.1,0.7
			c-0.1,0.1-0.2,0.1-0.3,0.1c-0.1,0-0.3,0.1-0.4,0.1c-0.4,0-0.7-0.1-0.9-0.4c-0.2-0.2-0.3-0.6-0.3-1.1v-3.2H262v-0.7h0.8v-1.3H263.8
			z"/>
		<path d="M269.2,67c0-0.2-0.1-0.3-0.1-0.4c0-0.1,0-0.2,0-0.4c-0.2,0.3-0.4,0.5-0.7,0.6c-0.3,0.2-0.6,0.3-0.9,0.3
			c-0.6,0-1-0.1-1.3-0.4c-0.3-0.3-0.4-0.7-0.4-1.2c0-0.5,0.2-0.9,0.6-1.2c0.4-0.3,1-0.4,1.7-0.4h1v-0.5c0-0.3-0.1-0.6-0.3-0.7
			c-0.2-0.2-0.5-0.3-0.8-0.3c-0.3,0-0.6,0.1-0.8,0.2c-0.2,0.2-0.3,0.3-0.3,0.6H266l0,0c0-0.4,0.2-0.7,0.5-1.1s0.9-0.5,1.5-0.5
			c0.6,0,1.1,0.2,1.4,0.5c0.4,0.3,0.5,0.7,0.5,1.3v2.5c0,0.2,0,0.4,0,0.5s0.1,0.3,0.1,0.5H269.2z M267.6,66.3c0.3,0,0.7-0.1,0.9-0.3
			s0.5-0.4,0.5-0.6v-0.9H268c-0.4,0-0.7,0.1-0.9,0.3c-0.2,0.2-0.3,0.4-0.3,0.7c0,0.2,0.1,0.4,0.2,0.6
			C267.1,66.2,267.3,66.3,267.6,66.3z"/>
		<path d="M272.3,61.7l0.1,0.8c0.2-0.3,0.4-0.5,0.7-0.7c0.3-0.2,0.6-0.2,0.9-0.2c0.6,0,1,0.2,1.3,0.5c0.3,0.3,0.5,0.8,0.5,1.5V67h-1
			v-3.3c0-0.5-0.1-0.8-0.3-1s-0.5-0.3-0.8-0.3c-0.3,0-0.5,0.1-0.7,0.2s-0.4,0.3-0.5,0.5V67h-1v-5.3H272.3z"/>
		<path d="M278.4,60.4v1.3h1v0.7h-1v3.2c0,0.2,0.1,0.4,0.2,0.5s0.2,0.2,0.4,0.2c0.1,0,0.1,0,0.2,0s0.1,0,0.2,0l0.1,0.7
			c-0.1,0.1-0.2,0.1-0.3,0.1c-0.1,0-0.3,0.1-0.4,0.1c-0.4,0-0.7-0.1-0.9-0.4c-0.2-0.2-0.3-0.6-0.3-1.1v-3.2h-0.8v-0.7h0.8v-1.3
			H278.4z"/>
	</g>
	<polygon class="st0" points="304,12 296.5,19.5 296.5,53.6 335.6,53.6 340,49.4 340,12 	"/>
	<g class="st2">
		<path d="M297.8,64.1V67h-1v-7.1h2.7c0.8,0,1.3,0.2,1.8,0.6s0.6,0.9,0.6,1.5c0,0.6-0.2,1.2-0.6,1.6c-0.4,0.4-1,0.6-1.8,0.6H297.8z
			 M297.8,63.4h1.8c0.5,0,0.8-0.1,1.1-0.4c0.2-0.3,0.4-0.6,0.4-1c0-0.4-0.1-0.7-0.4-1c-0.2-0.3-0.6-0.4-1.1-0.4h-1.8V63.4z"/>
		<path d="M306.5,66.2c-0.2,0.3-0.4,0.5-0.6,0.7s-0.6,0.2-0.9,0.2c-0.6,0-1-0.2-1.3-0.6s-0.5-0.9-0.5-1.7v-3.1h1v3.1
			c0,0.6,0.1,1,0.2,1.2s0.4,0.3,0.8,0.3c0.3,0,0.6-0.1,0.8-0.2c0.2-0.1,0.4-0.3,0.5-0.6v-3.8h1V67h-0.9L306.5,66.2z"/>
		<path d="M309.6,61.7l0.1,0.8c0.2-0.3,0.4-0.5,0.7-0.7c0.3-0.2,0.6-0.2,0.9-0.2c0.6,0,1,0.2,1.3,0.5c0.3,0.3,0.5,0.8,0.5,1.5V67h-1
			v-3.3c0-0.5-0.1-0.8-0.3-1s-0.5-0.3-0.8-0.3c-0.3,0-0.5,0.1-0.7,0.2s-0.4,0.3-0.5,0.5V67h-1v-5.3H309.6z"/>
		<path d="M316.6,66.3c0.3,0,0.6-0.1,0.8-0.3c0.2-0.2,0.4-0.4,0.4-0.7h0.9l0,0c0,0.5-0.2,0.9-0.6,1.2s-0.9,0.5-1.5,0.5
			c-0.8,0-1.4-0.3-1.8-0.8s-0.6-1.1-0.6-1.9v-0.2c0-0.8,0.2-1.4,0.6-1.9c0.4-0.5,1-0.8,1.8-0.8c0.6,0,1.1,0.2,1.5,0.5
			s0.6,0.8,0.6,1.3l0,0h-0.9c0-0.3-0.1-0.6-0.3-0.8c-0.2-0.2-0.5-0.3-0.9-0.3c-0.5,0-0.9,0.2-1.1,0.5s-0.3,0.8-0.3,1.3v0.2
			c0,0.5,0.1,1,0.3,1.3S316.1,66.3,316.6,66.3z"/>
		<path d="M321,60.4v1.3h1v0.7h-1v3.2c0,0.2,0.1,0.4,0.2,0.5s0.2,0.2,0.4,0.2c0.1,0,0.1,0,0.2,0s0.1,0,0.2,0l0.1,0.7
			c-0.1,0.1-0.2,0.1-0.3,0.1c-0.1,0-0.3,0.1-0.4,0.1c-0.4,0-0.7-0.1-0.9-0.4c-0.2-0.2-0.3-0.6-0.3-1.1v-3.2h-0.8v-0.7h0.8v-1.3H321z
			"/>
		<path d="M326.6,66.2c-0.2,0.3-0.4,0.5-0.6,0.7s-0.6,0.2-0.9,0.2c-0.6,0-1-0.2-1.3-0.6s-0.5-0.9-0.5-1.7v-3.1h1v3.1
			c0,0.6,0.1,1,0.2,1.2s0.4,0.3,0.8,0.3c0.3,0,0.6-0.1,0.8-0.2c0.2-0.1,0.4-0.3,0.5-0.6v-3.8h1V67h-0.9L326.6,66.2z"/>
		<path d="M331.4,62.6l-0.5,0c-0.3,0-0.5,0.1-0.6,0.2s-0.3,0.3-0.4,0.5V67h-1v-5.3h0.9l0.1,0.8c0.1-0.3,0.3-0.5,0.6-0.6
			s0.5-0.2,0.8-0.2c0.1,0,0.1,0,0.2,0c0.1,0,0.1,0,0.2,0L331.4,62.6z"/>
		<path d="M334.4,67.1c-0.7,0-1.3-0.2-1.8-0.7c-0.4-0.5-0.7-1.1-0.7-1.9v-0.2c0-0.8,0.2-1.4,0.7-1.9c0.4-0.5,1-0.8,1.6-0.8
			c0.7,0,1.3,0.2,1.6,0.6s0.5,1,0.5,1.7v0.6H333l0,0c0,0.5,0.1,0.9,0.4,1.2s0.6,0.5,1,0.5c0.3,0,0.6,0,0.9-0.1
			c0.2-0.1,0.5-0.2,0.6-0.4l0.4,0.6c-0.2,0.2-0.4,0.3-0.7,0.5C335.3,67,334.9,67.1,334.4,67.1z M334.3,62.4c-0.3,0-0.6,0.1-0.8,0.4
			c-0.2,0.3-0.4,0.6-0.4,1l0,0h2.4v-0.1c0-0.4-0.1-0.7-0.3-0.9S334.7,62.4,334.3,62.4z"/>
	</g>
	<g class="st2">
		<path d="M296.8,75.9V79h-1v-7.1h2.6c0.8,0,1.4,0.2,1.8,0.5s0.6,0.8,0.6,1.5c0,0.4-0.1,0.7-0.3,1s-0.5,0.5-0.8,0.6
			c0.4,0.1,0.7,0.3,0.8,0.6c0.2,0.3,0.3,0.6,0.3,1.1v0.7c0,0.2,0,0.4,0.1,0.6s0.1,0.3,0.3,0.4V79h-1c-0.1-0.1-0.2-0.3-0.2-0.5
			s-0.1-0.4-0.1-0.7v-0.6c0-0.4-0.1-0.7-0.3-0.9s-0.5-0.4-0.9-0.4H296.8z M296.8,75.2h1.5c0.5,0,0.9-0.1,1.2-0.3s0.4-0.5,0.4-0.9
			c0-0.4-0.1-0.7-0.3-0.9c-0.2-0.2-0.6-0.3-1.1-0.3h-1.6V75.2z"/>
		<path d="M304.5,79.1c-0.7,0-1.3-0.2-1.8-0.7c-0.4-0.5-0.7-1.1-0.7-1.9v-0.2c0-0.8,0.2-1.4,0.7-1.9c0.4-0.5,1-0.8,1.6-0.8
			c0.7,0,1.3,0.2,1.6,0.6s0.5,1,0.5,1.7v0.6h-3.4l0,0c0,0.5,0.1,0.9,0.4,1.2s0.6,0.5,1,0.5c0.3,0,0.6,0,0.9-0.1
			c0.2-0.1,0.5-0.2,0.6-0.4l0.4,0.6c-0.2,0.2-0.4,0.3-0.7,0.5C305.3,79,305,79.1,304.5,79.1z M304.4,74.4c-0.3,0-0.6,0.1-0.8,0.4
			c-0.2,0.3-0.4,0.6-0.4,1l0,0h2.4v-0.1c0-0.4-0.1-0.7-0.3-0.9S304.8,74.4,304.4,74.4z"/>
		<path d="M310.7,77.6c0-0.2-0.1-0.4-0.2-0.5s-0.5-0.3-0.9-0.4c-0.6-0.1-1.1-0.3-1.4-0.6c-0.3-0.2-0.5-0.6-0.5-1
			c0-0.4,0.2-0.8,0.5-1.1c0.4-0.3,0.8-0.5,1.4-0.5c0.6,0,1.1,0.2,1.5,0.5s0.5,0.7,0.5,1.2l0,0h-0.9c0-0.2-0.1-0.4-0.3-0.6
			c-0.2-0.2-0.5-0.3-0.8-0.3c-0.3,0-0.6,0.1-0.8,0.2s-0.2,0.3-0.2,0.5c0,0.2,0.1,0.4,0.2,0.5s0.4,0.2,0.9,0.3
			c0.7,0.1,1.2,0.3,1.5,0.6c0.3,0.2,0.5,0.6,0.5,1c0,0.5-0.2,0.8-0.6,1.1s-0.9,0.4-1.5,0.4c-0.7,0-1.2-0.2-1.6-0.5s-0.6-0.7-0.6-1.2
			l0,0h0.9c0,0.3,0.1,0.6,0.4,0.7s0.5,0.2,0.8,0.2c0.3,0,0.6-0.1,0.8-0.2C310.6,78,310.7,77.8,310.7,77.6z"/>
		<path d="M313.9,72.4h-1v-1h1V72.4z M313.9,79h-1v-5.3h1V79z"/>
		<path d="M318.4,77.6c0-0.2-0.1-0.4-0.2-0.5s-0.5-0.3-0.9-0.4c-0.6-0.1-1.1-0.3-1.4-0.6c-0.3-0.2-0.5-0.6-0.5-1
			c0-0.4,0.2-0.8,0.5-1.1c0.4-0.3,0.8-0.5,1.4-0.5c0.6,0,1.1,0.2,1.5,0.5s0.5,0.7,0.5,1.2l0,0h-0.9c0-0.2-0.1-0.4-0.3-0.6
			c-0.2-0.2-0.5-0.3-0.8-0.3c-0.3,0-0.6,0.1-0.8,0.2s-0.2,0.3-0.2,0.5c0,0.2,0.1,0.4,0.2,0.5s0.4,0.2,0.9,0.3
			c0.7,0.1,1.2,0.3,1.5,0.6c0.3,0.2,0.5,0.6,0.5,1c0,0.5-0.2,0.8-0.6,1.1s-0.9,0.4-1.5,0.4c-0.7,0-1.2-0.2-1.6-0.5s-0.6-0.7-0.6-1.2
			l0,0h0.9c0,0.3,0.1,0.6,0.4,0.7s0.5,0.2,0.8,0.2c0.3,0,0.6-0.1,0.8-0.2C318.3,78,318.4,77.8,318.4,77.6z"/>
		<path d="M321.9,72.4v1.3h1v0.7h-1v3.2c0,0.2,0.1,0.4,0.2,0.5s0.2,0.2,0.4,0.2c0.1,0,0.1,0,0.2,0s0.1,0,0.2,0l0.1,0.7
			c-0.1,0.1-0.2,0.1-0.3,0.1c-0.1,0-0.3,0.1-0.4,0.1c-0.4,0-0.7-0.1-0.9-0.4c-0.2-0.2-0.3-0.6-0.3-1.1v-3.2h-0.8v-0.7h0.8v-1.3
			H321.9z"/>
		<path d="M327.3,79c0-0.2-0.1-0.3-0.1-0.4c0-0.1,0-0.2,0-0.4c-0.2,0.3-0.4,0.5-0.7,0.6c-0.3,0.2-0.6,0.3-0.9,0.3
			c-0.6,0-1-0.1-1.3-0.4c-0.3-0.3-0.4-0.7-0.4-1.2c0-0.5,0.2-0.9,0.6-1.2c0.4-0.3,1-0.4,1.7-0.4h1v-0.5c0-0.3-0.1-0.6-0.3-0.7
			c-0.2-0.2-0.5-0.3-0.8-0.3c-0.3,0-0.6,0.1-0.8,0.2c-0.2,0.2-0.3,0.3-0.3,0.6h-0.9l0,0c0-0.4,0.2-0.7,0.5-1.1s0.9-0.5,1.5-0.5
			c0.6,0,1.1,0.2,1.4,0.5c0.4,0.3,0.5,0.7,0.5,1.3v2.5c0,0.2,0,0.4,0,0.5s0.1,0.3,0.1,0.5H327.3z M325.7,78.3c0.3,0,0.7-0.1,0.9-0.3
			s0.5-0.4,0.5-0.6v-0.9h-1.1c-0.4,0-0.7,0.1-0.9,0.3c-0.2,0.2-0.3,0.4-0.3,0.7c0,0.2,0.1,0.4,0.2,0.6
			C325.2,78.2,325.4,78.3,325.7,78.3z"/>
		<path d="M330.4,73.7l0.1,0.8c0.2-0.3,0.4-0.5,0.7-0.7c0.3-0.2,0.6-0.2,0.9-0.2c0.6,0,1,0.2,1.3,0.5c0.3,0.3,0.5,0.8,0.5,1.5V79h-1
			v-3.3c0-0.5-0.1-0.8-0.3-1s-0.5-0.3-0.8-0.3c-0.3,0-0.5,0.1-0.7,0.2s-0.4,0.3-0.5,0.5V79h-1v-5.3H330.4z"/>
		<path d="M336.5,72.4v1.3h1v0.7h-1v3.2c0,0.2,0.1,0.4,0.2,0.5s0.2,0.2,0.4,0.2c0.1,0,0.1,0,0.2,0s0.1,0,0.2,0l0.1,0.7
			c-0.1,0.1-0.2,0.1-0.3,0.1c-0.1,0-0.3,0.1-0.4,0.1c-0.4,0-0.7-0.1-0.9-0.4c-0.2-0.2-0.3-0.6-0.3-1.1v-3.2h-0.8v-0.7h0.8v-1.3
			H336.5z"/>
	</g>
	<polygon class="st0" points="374,12 366.5,19.5 366.5,53.6 405.6,53.6 410,49.4 410,12 	"/>
	<g class="st2">
		<path d="M372.6,67h-1v-7.1h1V67z"/>
		<path d="M375.1,61.7l0.1,0.7c0.2-0.3,0.4-0.4,0.7-0.6c0.3-0.1,0.6-0.2,0.9-0.2s0.7,0.1,0.9,0.2c0.3,0.2,0.4,0.4,0.6,0.7
			c0.2-0.3,0.4-0.5,0.7-0.7s0.6-0.3,1-0.3c0.5,0,1,0.2,1.3,0.6c0.3,0.4,0.5,0.9,0.5,1.7V67h-1v-3.2c0-0.5-0.1-0.9-0.3-1.1
			c-0.2-0.2-0.4-0.3-0.8-0.3c-0.3,0-0.6,0.1-0.8,0.3c-0.2,0.2-0.3,0.5-0.4,0.9v0V67h-1v-3.2c0-0.5-0.1-0.9-0.3-1.1
			c-0.2-0.2-0.4-0.3-0.8-0.3c-0.3,0-0.5,0.1-0.7,0.2c-0.2,0.1-0.3,0.3-0.4,0.5V67h-1v-5.3H375.1z"/>
		<path d="M387.5,64.6c0,0.8-0.2,1.4-0.5,1.8c-0.4,0.5-0.9,0.7-1.5,0.7c-0.3,0-0.6-0.1-0.9-0.2c-0.2-0.1-0.5-0.3-0.6-0.5V69h-1v-7.3
			h0.7l0.2,0.7c0.2-0.3,0.4-0.4,0.6-0.6c0.3-0.1,0.6-0.2,0.9-0.2c0.7,0,1.2,0.3,1.5,0.8c0.4,0.5,0.5,1.2,0.5,2.1V64.6z M386.5,64.5
			c0-0.6-0.1-1.1-0.4-1.5c-0.2-0.4-0.6-0.6-1-0.6c-0.3,0-0.5,0.1-0.7,0.2s-0.4,0.3-0.5,0.5v2.6c0.1,0.2,0.3,0.4,0.5,0.5
			s0.4,0.2,0.7,0.2c0.5,0,0.8-0.2,1-0.5s0.4-0.8,0.4-1.3V64.5z"/>
		<path d="M391.9,67c0-0.2-0.1-0.3-0.1-0.4c0-0.1,0-0.2,0-0.4c-0.2,0.3-0.4,0.5-0.7,0.6c-0.3,0.2-0.6,0.3-0.9,0.3
			c-0.6,0-1-0.1-1.3-0.4c-0.3-0.3-0.4-0.7-0.4-1.2c0-0.5,0.2-0.9,0.6-1.2c0.4-0.3,1-0.4,1.7-0.4h1v-0.5c0-0.3-0.1-0.6-0.3-0.7
			c-0.2-0.2-0.5-0.3-0.8-0.3c-0.3,0-0.6,0.1-0.8,0.2c-0.2,0.2-0.3,0.3-0.3,0.6h-0.9l0,0c0-0.4,0.2-0.7,0.5-1.1
			c0.4-0.3,0.9-0.5,1.5-0.5c0.6,0,1.1,0.2,1.4,0.5c0.4,0.3,0.5,0.7,0.5,1.3v2.5c0,0.2,0,0.4,0,0.5s0.1,0.3,0.1,0.5H391.9z
			 M390.3,66.3c0.3,0,0.7-0.1,0.9-0.3c0.3-0.2,0.5-0.4,0.5-0.6v-0.9h-1.1c-0.4,0-0.7,0.1-0.9,0.3c-0.2,0.2-0.3,0.4-0.3,0.7
			c0,0.2,0.1,0.4,0.2,0.6C389.8,66.2,390,66.3,390.3,66.3z"/>
		<path d="M396.3,66.3c0.3,0,0.6-0.1,0.8-0.3c0.2-0.2,0.4-0.4,0.4-0.7h0.9l0,0c0,0.5-0.2,0.9-0.6,1.2c-0.4,0.4-0.9,0.5-1.5,0.5
			c-0.8,0-1.4-0.3-1.8-0.8c-0.4-0.5-0.6-1.1-0.6-1.9v-0.2c0-0.8,0.2-1.4,0.6-1.9c0.4-0.5,1-0.8,1.8-0.8c0.6,0,1.1,0.2,1.5,0.5
			c0.4,0.4,0.6,0.8,0.6,1.3l0,0h-0.9c0-0.3-0.1-0.6-0.3-0.8c-0.2-0.2-0.5-0.3-0.9-0.3c-0.5,0-0.9,0.2-1.1,0.5
			c-0.2,0.4-0.3,0.8-0.3,1.3v0.2c0,0.5,0.1,1,0.3,1.3S395.8,66.3,396.3,66.3z"/>
		<path d="M400.7,60.4v1.3h1v0.7h-1v3.2c0,0.2,0.1,0.4,0.2,0.5s0.2,0.2,0.4,0.2c0.1,0,0.1,0,0.2,0c0.1,0,0.1,0,0.2,0l0.1,0.7
			c-0.1,0.1-0.2,0.1-0.3,0.1c-0.1,0-0.3,0.1-0.4,0.1c-0.4,0-0.7-0.1-0.9-0.4c-0.2-0.2-0.3-0.6-0.3-1.1v-3.2h-0.8v-0.7h0.8v-1.3
			H400.7z"/>
	</g>
	<g class="st2">
		<path d="M366.9,75.9V79h-1v-7.1h2.6c0.8,0,1.4,0.2,1.8,0.5s0.6,0.8,0.6,1.5c0,0.4-0.1,0.7-0.3,1s-0.5,0.5-0.8,0.6
			c0.4,0.1,0.7,0.3,0.8,0.6c0.2,0.3,0.3,0.6,0.3,1.1v0.7c0,0.2,0,0.4,0.1,0.6s0.1,0.3,0.3,0.4V79h-1c-0.1-0.1-0.2-0.3-0.2-0.5
			c0-0.2-0.1-0.4-0.1-0.7v-0.6c0-0.4-0.1-0.7-0.3-0.9s-0.5-0.4-0.9-0.4H366.9z M366.9,75.2h1.5c0.5,0,0.9-0.1,1.2-0.3
			s0.4-0.5,0.4-0.9c0-0.4-0.1-0.7-0.3-0.9c-0.2-0.2-0.6-0.3-1.1-0.3h-1.6V75.2z"/>
		<path d="M374.5,79.1c-0.7,0-1.3-0.2-1.8-0.7c-0.4-0.5-0.7-1.1-0.7-1.9v-0.2c0-0.8,0.2-1.4,0.7-1.9c0.4-0.5,1-0.8,1.6-0.8
			c0.7,0,1.3,0.2,1.6,0.6c0.4,0.4,0.5,1,0.5,1.7v0.6h-3.4l0,0c0,0.5,0.1,0.9,0.4,1.2c0.2,0.3,0.6,0.5,1,0.5c0.3,0,0.6,0,0.9-0.1
			c0.2-0.1,0.5-0.2,0.6-0.4l0.4,0.6c-0.2,0.2-0.4,0.3-0.7,0.5C375.3,79,375,79.1,374.5,79.1z M374.4,74.4c-0.3,0-0.6,0.1-0.8,0.4
			c-0.2,0.3-0.4,0.6-0.4,1l0,0h2.4v-0.1c0-0.4-0.1-0.7-0.3-0.9C375.1,74.5,374.8,74.4,374.4,74.4z"/>
		<path d="M380.7,77.6c0-0.2-0.1-0.4-0.2-0.5s-0.5-0.3-0.9-0.4c-0.6-0.1-1.1-0.3-1.4-0.6c-0.3-0.2-0.5-0.6-0.5-1
			c0-0.4,0.2-0.8,0.5-1.1c0.4-0.3,0.8-0.5,1.4-0.5c0.6,0,1.1,0.2,1.5,0.5c0.4,0.3,0.5,0.7,0.5,1.2l0,0h-0.9c0-0.2-0.1-0.4-0.3-0.6
			c-0.2-0.2-0.5-0.3-0.8-0.3c-0.3,0-0.6,0.1-0.8,0.2s-0.2,0.3-0.2,0.5c0,0.2,0.1,0.4,0.2,0.5s0.4,0.2,0.9,0.3
			c0.7,0.1,1.2,0.3,1.5,0.6c0.3,0.2,0.5,0.6,0.5,1c0,0.5-0.2,0.8-0.6,1.1c-0.4,0.3-0.9,0.4-1.5,0.4c-0.7,0-1.2-0.2-1.6-0.5
			c-0.4-0.3-0.6-0.7-0.6-1.2l0,0h0.9c0,0.3,0.1,0.6,0.4,0.7c0.2,0.2,0.5,0.2,0.8,0.2c0.3,0,0.6-0.1,0.8-0.2
			C380.6,78,380.7,77.8,380.7,77.6z"/>
		<path d="M383.9,72.4h-1v-1h1V72.4z M383.9,79h-1v-5.3h1V79z"/>
		<path d="M388.4,77.6c0-0.2-0.1-0.4-0.2-0.5s-0.5-0.3-0.9-0.4c-0.6-0.1-1.1-0.3-1.4-0.6c-0.3-0.2-0.5-0.6-0.5-1
			c0-0.4,0.2-0.8,0.5-1.1c0.4-0.3,0.8-0.5,1.4-0.5c0.6,0,1.1,0.2,1.5,0.5c0.4,0.3,0.5,0.7,0.5,1.2l0,0h-0.9c0-0.2-0.1-0.4-0.3-0.6
			c-0.2-0.2-0.5-0.3-0.8-0.3c-0.3,0-0.6,0.1-0.8,0.2s-0.2,0.3-0.2,0.5c0,0.2,0.1,0.4,0.2,0.5s0.4,0.2,0.9,0.3
			c0.7,0.1,1.2,0.3,1.5,0.6c0.3,0.2,0.5,0.6,0.5,1c0,0.5-0.2,0.8-0.6,1.1c-0.4,0.3-0.9,0.4-1.5,0.4c-0.7,0-1.2-0.2-1.6-0.5
			c-0.4-0.3-0.6-0.7-0.6-1.2l0,0h0.9c0,0.3,0.1,0.6,0.4,0.7c0.2,0.2,0.5,0.2,0.8,0.2c0.3,0,0.6-0.1,0.8-0.2
			C388.3,78,388.4,77.8,388.4,77.6z"/>
		<path d="M391.9,72.4v1.3h1v0.7h-1v3.2c0,0.2,0.1,0.4,0.2,0.5s0.2,0.2,0.4,0.2c0.1,0,0.1,0,0.2,0c0.1,0,0.1,0,0.2,0l0.1,0.7
			c-0.1,0.1-0.2,0.1-0.3,0.1c-0.1,0-0.3,0.1-0.4,0.1c-0.4,0-0.7-0.1-0.9-0.4c-0.2-0.2-0.3-0.6-0.3-1.1v-3.2h-0.8v-0.7h0.8v-1.3
			H391.9z"/>
		<path d="M397.3,79c0-0.2-0.1-0.3-0.1-0.4c0-0.1,0-0.2,0-0.4c-0.2,0.3-0.4,0.5-0.7,0.6c-0.3,0.2-0.6,0.3-0.9,0.3
			c-0.5,0-1-0.1-1.3-0.4c-0.3-0.3-0.4-0.7-0.4-1.2c0-0.5,0.2-0.9,0.6-1.2c0.4-0.3,1-0.4,1.7-0.4h1v-0.5c0-0.3-0.1-0.6-0.3-0.7
			c-0.2-0.2-0.5-0.3-0.8-0.3c-0.3,0-0.6,0.1-0.8,0.2c-0.2,0.2-0.3,0.3-0.3,0.6h-0.9l0,0c0-0.4,0.2-0.7,0.5-1.1
			c0.4-0.3,0.9-0.5,1.5-0.5c0.6,0,1.1,0.2,1.4,0.5c0.4,0.3,0.5,0.7,0.5,1.3v2.5c0,0.2,0,0.4,0,0.5s0.1,0.3,0.1,0.5H397.3z
			 M395.7,78.3c0.3,0,0.7-0.1,0.9-0.3c0.3-0.2,0.5-0.4,0.5-0.6v-0.9h-1.1c-0.4,0-0.7,0.1-0.9,0.3c-0.2,0.2-0.3,0.4-0.3,0.7
			c0,0.2,0.1,0.4,0.2,0.6C395.2,78.2,395.4,78.3,395.7,78.3z"/>
		<path d="M400.4,73.7l0.1,0.8c0.2-0.3,0.4-0.5,0.7-0.7c0.3-0.2,0.6-0.2,0.9-0.2c0.6,0,1,0.2,1.3,0.5c0.3,0.3,0.5,0.8,0.5,1.5V79h-1
			v-3.3c0-0.5-0.1-0.8-0.3-1c-0.2-0.2-0.5-0.3-0.8-0.3c-0.3,0-0.5,0.1-0.7,0.2c-0.2,0.1-0.4,0.3-0.5,0.5V79h-1v-5.3H400.4z"/>
		<path d="M406.5,72.4v1.3h1v0.7h-1v3.2c0,0.2,0.1,0.4,0.2,0.5s0.2,0.2,0.4,0.2c0.1,0,0.1,0,0.2,0c0.1,0,0.1,0,0.2,0l0.1,0.7
			c-0.1,0.1-0.2,0.1-0.3,0.1c-0.1,0-0.3,0.1-0.4,0.1c-0.4,0-0.7-0.1-0.9-0.4c-0.2-0.2-0.3-0.6-0.3-1.1v-3.2h-0.8v-0.7h0.8v-1.3
			H406.5z"/>
	</g>
	<polygon class="st0" points="444,12 436.5,19.5 436.5,53.6 475.6,53.6 480,49.4 480,12 	"/>
	<g class="st2">
		<path d="M441.4,64.7L441.4,64.7c0,0.7-0.2,1.3-0.7,1.7c-0.5,0.5-1.1,0.7-1.9,0.7c-0.8,0-1.5-0.3-2-0.9c-0.5-0.6-0.8-1.3-0.8-2.2
			v-1.3c0-0.9,0.3-1.6,0.8-2.2c0.5-0.6,1.2-0.9,2-0.9c0.8,0,1.4,0.2,1.9,0.6c0.5,0.4,0.7,1,0.7,1.7l0,0h-0.9c0-0.5-0.1-0.9-0.4-1.2
			s-0.7-0.4-1.2-0.4c-0.5,0-1,0.2-1.3,0.6c-0.3,0.4-0.5,1-0.5,1.6v1.3c0,0.6,0.2,1.2,0.5,1.6c0.3,0.4,0.7,0.6,1.3,0.6
			c0.5,0,0.9-0.1,1.2-0.4c0.3-0.3,0.4-0.7,0.4-1.2H441.4z"/>
		<path d="M443.5,62.4c0.2-0.3,0.4-0.5,0.7-0.6c0.3-0.1,0.6-0.2,0.9-0.2c0.6,0,1,0.2,1.3,0.5c0.3,0.3,0.5,0.9,0.5,1.6V67h-1v-3.3
			c0-0.4-0.1-0.8-0.3-1c-0.2-0.2-0.5-0.3-0.8-0.3c-0.3,0-0.5,0.1-0.7,0.2c-0.2,0.1-0.4,0.3-0.5,0.5V67h-1v-7.6h1V62.4z"/>
		<path d="M450.4,67.1c-0.7,0-1.3-0.2-1.8-0.7c-0.4-0.5-0.7-1.1-0.7-1.9v-0.2c0-0.8,0.2-1.4,0.7-1.9c0.4-0.5,1-0.8,1.6-0.8
			c0.7,0,1.3,0.2,1.6,0.6c0.4,0.4,0.5,1,0.5,1.7v0.6H449l0,0c0,0.5,0.1,0.9,0.4,1.2c0.2,0.3,0.6,0.5,1,0.5c0.3,0,0.6,0,0.9-0.1
			c0.2-0.1,0.5-0.2,0.6-0.4l0.4,0.6c-0.2,0.2-0.4,0.3-0.7,0.5C451.2,67,450.9,67.1,450.4,67.1z M450.3,62.4c-0.3,0-0.6,0.1-0.8,0.4
			c-0.2,0.3-0.4,0.6-0.4,1l0,0h2.4v-0.1c0-0.4-0.1-0.7-0.3-0.9C451,62.5,450.7,62.4,450.3,62.4z"/>
		<path d="M454.4,61.7l0.1,0.7c0.2-0.3,0.4-0.4,0.7-0.6c0.3-0.1,0.6-0.2,0.9-0.2s0.7,0.1,0.9,0.2c0.3,0.2,0.4,0.4,0.6,0.7
			c0.2-0.3,0.4-0.5,0.7-0.7s0.6-0.3,1-0.3c0.5,0,1,0.2,1.3,0.6c0.3,0.4,0.5,0.9,0.5,1.7V67h-1v-3.2c0-0.5-0.1-0.9-0.3-1.1
			c-0.2-0.2-0.4-0.3-0.8-0.3c-0.3,0-0.6,0.1-0.8,0.3c-0.2,0.2-0.3,0.5-0.4,0.9v0V67h-1v-3.2c0-0.5-0.1-0.9-0.3-1.1
			c-0.2-0.2-0.4-0.3-0.8-0.3c-0.3,0-0.5,0.1-0.7,0.2c-0.2,0.1-0.3,0.3-0.4,0.5V67h-1v-5.3H454.4z"/>
		<path d="M463.3,60.4h-1v-1h1V60.4z M463.3,67h-1v-5.3h1V67z"/>
		<path d="M466.9,66.3c0.3,0,0.6-0.1,0.8-0.3c0.2-0.2,0.4-0.4,0.4-0.7h0.9l0,0c0,0.5-0.2,0.9-0.6,1.2c-0.4,0.4-0.9,0.5-1.5,0.5
			c-0.8,0-1.4-0.3-1.8-0.8c-0.4-0.5-0.6-1.1-0.6-1.9v-0.2c0-0.8,0.2-1.4,0.6-1.9c0.4-0.5,1-0.8,1.8-0.8c0.6,0,1.1,0.2,1.5,0.5
			c0.4,0.4,0.6,0.8,0.6,1.3l0,0h-0.9c0-0.3-0.1-0.6-0.3-0.8c-0.2-0.2-0.5-0.3-0.9-0.3c-0.5,0-0.9,0.2-1.1,0.5
			c-0.2,0.4-0.3,0.8-0.3,1.3v0.2c0,0.5,0.1,1,0.3,1.3S466.4,66.3,466.9,66.3z"/>
		<path d="M473.3,67c0-0.2-0.1-0.3-0.1-0.4c0-0.1,0-0.2,0-0.4c-0.2,0.3-0.4,0.5-0.7,0.6c-0.3,0.2-0.6,0.3-0.9,0.3
			c-0.5,0-1-0.1-1.3-0.4c-0.3-0.3-0.4-0.7-0.4-1.2c0-0.5,0.2-0.9,0.6-1.2c0.4-0.3,1-0.4,1.7-0.4h1v-0.5c0-0.3-0.1-0.6-0.3-0.7
			c-0.2-0.2-0.5-0.3-0.8-0.3c-0.3,0-0.6,0.1-0.8,0.2c-0.2,0.2-0.3,0.3-0.3,0.6h-0.9l0,0c0-0.4,0.2-0.7,0.5-1.1
			c0.4-0.3,0.9-0.5,1.5-0.5c0.6,0,1.1,0.2,1.4,0.5c0.4,0.3,0.5,0.7,0.5,1.3v2.5c0,0.2,0,0.4,0,0.5s0.1,0.3,0.1,0.5H473.3z
			 M471.7,66.3c0.3,0,0.7-0.1,0.9-0.3c0.3-0.2,0.5-0.4,0.5-0.6v-0.9h-1.1c-0.4,0-0.7,0.1-0.9,0.3c-0.2,0.2-0.3,0.4-0.3,0.7
			c0,0.2,0.1,0.4,0.2,0.6C471.2,66.2,471.5,66.3,471.7,66.3z"/>
		<path d="M476.6,67h-1v-7.6h1V67z"/>
	</g>
	<g class="st2">
		<path d="M436.9,75.9V79h-1v-7.1h2.6c0.8,0,1.4,0.2,1.8,0.5s0.6,0.8,0.6,1.5c0,0.4-0.1,0.7-0.3,1s-0.5,0.5-0.8,0.6
			c0.4,0.1,0.7,0.3,0.8,0.6c0.2,0.3,0.3,0.6,0.3,1.1v0.7c0,0.2,0,0.4,0.1,0.6s0.1,0.3,0.3,0.4V79h-1c-0.1-0.1-0.2-0.3-0.2-0.5
			c0-0.2-0.1-0.4-0.1-0.7v-0.6c0-0.4-0.1-0.7-0.3-0.9s-0.5-0.4-0.9-0.4H436.9z M436.9,75.2h1.5c0.5,0,0.9-0.1,1.2-0.3
			s0.4-0.5,0.4-0.9c0-0.4-0.1-0.7-0.3-0.9c-0.2-0.2-0.6-0.3-1.1-0.3h-1.6V75.2z"/>
		<path d="M444.5,79.1c-0.7,0-1.3-0.2-1.8-0.7c-0.4-0.5-0.7-1.1-0.7-1.9v-0.2c0-0.8,0.2-1.4,0.7-1.9c0.4-0.5,1-0.8,1.6-0.8
			c0.7,0,1.3,0.2,1.6,0.6c0.4,0.4,0.5,1,0.5,1.7v0.6h-3.4l0,0c0,0.5,0.1,0.9,0.4,1.2c0.2,0.3,0.6,0.5,1,0.5c0.3,0,0.6,0,0.9-0.1
			c0.2-0.1,0.5-0.2,0.6-0.4l0.4,0.6c-0.2,0.2-0.4,0.3-0.7,0.5C445.4,79,445,79.1,444.5,79.1z M444.4,74.4c-0.3,0-0.6,0.1-0.8,0.4
			c-0.2,0.3-0.4,0.6-0.4,1l0,0h2.4v-0.1c0-0.4-0.1-0.7-0.3-0.9C445.1,74.5,444.8,74.4,444.4,74.4z"/>
		<path d="M450.7,77.6c0-0.2-0.1-0.4-0.2-0.5s-0.5-0.3-0.9-0.4c-0.6-0.1-1.1-0.3-1.4-0.6c-0.3-0.2-0.5-0.6-0.5-1
			c0-0.4,0.2-0.8,0.5-1.1c0.4-0.3,0.8-0.5,1.4-0.5c0.6,0,1.1,0.2,1.5,0.5c0.4,0.3,0.5,0.7,0.5,1.2l0,0h-0.9c0-0.2-0.1-0.4-0.3-0.6
			c-0.2-0.2-0.5-0.3-0.8-0.3c-0.3,0-0.6,0.1-0.8,0.2s-0.2,0.3-0.2,0.5c0,0.2,0.1,0.4,0.2,0.5s0.4,0.2,0.9,0.3
			c0.7,0.1,1.2,0.3,1.5,0.6c0.3,0.2,0.5,0.6,0.5,1c0,0.5-0.2,0.8-0.6,1.1c-0.4,0.3-0.9,0.4-1.5,0.4c-0.7,0-1.2-0.2-1.6-0.5
			c-0.4-0.3-0.6-0.7-0.6-1.2l0,0h0.9c0,0.3,0.1,0.6,0.4,0.7c0.2,0.2,0.5,0.2,0.8,0.2c0.3,0,0.6-0.1,0.8-0.2
			C450.6,78,450.7,77.8,450.7,77.6z"/>
		<path d="M453.9,72.4h-1v-1h1V72.4z M453.9,79h-1v-5.3h1V79z"/>
		<path d="M458.5,77.6c0-0.2-0.1-0.4-0.2-0.5s-0.5-0.3-0.9-0.4c-0.6-0.1-1.1-0.3-1.4-0.6c-0.3-0.2-0.5-0.6-0.5-1
			c0-0.4,0.2-0.8,0.5-1.1c0.4-0.3,0.8-0.5,1.4-0.5c0.6,0,1.1,0.2,1.5,0.5c0.4,0.3,0.5,0.7,0.5,1.2l0,0h-0.9c0-0.2-0.1-0.4-0.3-0.6
			c-0.2-0.2-0.5-0.3-0.8-0.3c-0.3,0-0.6,0.1-0.8,0.2s-0.2,0.3-0.2,0.5c0,0.2,0.1,0.4,0.2,0.5s0.4,0.2,0.9,0.3
			c0.7,0.1,1.2,0.3,1.5,0.6c0.3,0.2,0.5,0.6,0.5,1c0,0.5-0.2,0.8-0.6,1.1c-0.4,0.3-0.9,0.4-1.5,0.4c-0.7,0-1.2-0.2-1.6-0.5
			c-0.4-0.3-0.6-0.7-0.6-1.2l0,0h0.9c0,0.3,0.1,0.6,0.4,0.7c0.2,0.2,0.5,0.2,0.8,0.2c0.3,0,0.6-0.1,0.8-0.2
			C458.4,78,458.5,77.8,458.5,77.6z"/>
		<path d="M461.9,72.4v1.3h1v0.7h-1v3.2c0,0.2,0.1,0.4,0.2,0.5s0.2,0.2,0.4,0.2c0.1,0,0.1,0,0.2,0c0.1,0,0.1,0,0.2,0l0.1,0.7
			c-0.1,0.1-0.2,0.1-0.3,0.1c-0.1,0-0.3,0.1-0.4,0.1c-0.4,0-0.7-0.1-0.9-0.4c-0.2-0.2-0.3-0.6-0.3-1.1v-3.2h-0.8v-0.7h0.8v-1.3
			H461.9z"/>
		<path d="M467.3,79c0-0.2-0.1-0.3-0.1-0.4c0-0.1,0-0.2,0-0.4c-0.2,0.3-0.4,0.5-0.7,0.6c-0.3,0.2-0.6,0.3-0.9,0.3
			c-0.5,0-1-0.1-1.3-0.4c-0.3-0.3-0.4-0.7-0.4-1.2c0-0.5,0.2-0.9,0.6-1.2c0.4-0.3,1-0.4,1.7-0.4h1v-0.5c0-0.3-0.1-0.6-0.3-0.7
			c-0.2-0.2-0.5-0.3-0.8-0.3c-0.3,0-0.6,0.1-0.8,0.2c-0.2,0.2-0.3,0.3-0.3,0.6h-0.9l0,0c0-0.4,0.2-0.7,0.5-1.1
			c0.4-0.3,0.9-0.5,1.5-0.5c0.6,0,1.1,0.2,1.4,0.5c0.4,0.3,0.5,0.7,0.5,1.3v2.5c0,0.2,0,0.4,0,0.5s0.1,0.3,0.1,0.5H467.3z
			 M465.7,78.3c0.3,0,0.7-0.1,0.9-0.3c0.3-0.2,0.5-0.4,0.5-0.6v-0.9h-1.1c-0.4,0-0.7,0.1-0.9,0.3c-0.2,0.2-0.3,0.4-0.3,0.7
			c0,0.2,0.1,0.4,0.2,0.6C465.2,78.2,465.4,78.3,465.7,78.3z"/>
		<path d="M470.4,73.7l0.1,0.8c0.2-0.3,0.4-0.5,0.7-0.7c0.3-0.2,0.6-0.2,0.9-0.2c0.6,0,1,0.2,1.3,0.5c0.3,0.3,0.5,0.8,0.5,1.5V79h-1
			v-3.3c0-0.5-0.1-0.8-0.3-1c-0.2-0.2-0.5-0.3-0.8-0.3c-0.3,0-0.5,0.1-0.7,0.2c-0.2,0.1-0.4,0.3-0.5,0.5V79h-1v-5.3H470.4z"/>
		<path d="M476.5,72.4v1.3h1v0.7h-1v3.2c0,0.2,0.1,0.4,0.2,0.5s0.2,0.2,0.4,0.2c0.1,0,0.1,0,0.2,0c0.1,0,0.1,0,0.2,0l0.1,0.7
			c-0.1,0.1-0.2,0.1-0.3,0.1c-0.1,0-0.3,0.1-0.4,0.1c-0.4,0-0.7-0.1-0.9-0.4c-0.2-0.2-0.3-0.6-0.3-1.1v-3.2h-0.8v-0.7h0.8v-1.3
			H476.5z"/>
	</g>
	<polygon class="st0" points="514,12 506.5,19.5 506.5,53.6 545.6,53.6 550,49.4 550,12 	"/>
	<path class="st1" d="M528.5,47.6c4.2,0,8.3,0,12.5,0c0.5,0,0.5,0,0.5,0.5c0,0.1,0,0.2,0,0.2c0,0.4,0,0.5-0.5,0.5
		c-3.6,0-7.1,0-10.7,0c-4.8,0-9.5,0-14.3,0c-0.6,0-0.6,0-0.6-0.6c0-0.1,0-0.2,0-0.2c0-0.3,0.1-0.4,0.4-0.4
		C520.1,47.6,524.3,47.6,528.5,47.6z"/>
	<g class="st2">
		<path d="M503.6,64.5l0.1,0.9l0,0l0.2-0.9l1.3-4.6h0.8l1.3,4.6l0.2,0.9h0l0.1-0.9l1.1-4.6h1L508,67h-0.9l-1.4-4.9l-0.1-0.6h0
			l-0.1,0.6l-1.4,4.9h-0.9l-1.7-7.1h1L503.6,64.5z"/>
		<path d="M513.9,67c0-0.2-0.1-0.3-0.1-0.4c0-0.1,0-0.2,0-0.4c-0.2,0.3-0.4,0.5-0.7,0.6c-0.3,0.2-0.6,0.3-0.9,0.3
			c-0.5,0-1-0.1-1.3-0.4c-0.3-0.3-0.4-0.7-0.4-1.2c0-0.5,0.2-0.9,0.6-1.2c0.4-0.3,1-0.4,1.7-0.4h1v-0.5c0-0.3-0.1-0.6-0.3-0.7
			c-0.2-0.2-0.5-0.3-0.8-0.3c-0.3,0-0.6,0.1-0.8,0.2c-0.2,0.2-0.3,0.3-0.3,0.6h-0.9l0,0c0-0.4,0.2-0.7,0.5-1.1
			c0.4-0.3,0.9-0.5,1.5-0.5c0.6,0,1.1,0.2,1.4,0.5c0.4,0.3,0.5,0.7,0.5,1.3v2.5c0,0.2,0,0.4,0,0.5s0.1,0.3,0.1,0.5H513.9z
			 M512.3,66.3c0.3,0,0.7-0.1,0.9-0.3c0.3-0.2,0.5-0.4,0.5-0.6v-0.9h-1.1c-0.4,0-0.7,0.1-0.9,0.3c-0.2,0.2-0.3,0.4-0.3,0.7
			c0,0.2,0.1,0.4,0.2,0.6C511.8,66.2,512,66.3,512.3,66.3z"/>
		<path d="M517.4,60.4v1.3h1v0.7h-1v3.2c0,0.2,0.1,0.4,0.2,0.5s0.2,0.2,0.4,0.2c0.1,0,0.1,0,0.2,0c0.1,0,0.1,0,0.2,0l0.1,0.7
			c-0.1,0.1-0.2,0.1-0.3,0.1c-0.1,0-0.3,0.1-0.4,0.1c-0.4,0-0.7-0.1-0.9-0.4c-0.2-0.2-0.3-0.6-0.3-1.1v-3.2h-0.8v-0.7h0.8v-1.3
			H517.4z"/>
		<path d="M521.8,67.1c-0.7,0-1.3-0.2-1.8-0.7c-0.4-0.5-0.7-1.1-0.7-1.9v-0.2c0-0.8,0.2-1.4,0.7-1.9c0.4-0.5,1-0.8,1.6-0.8
			c0.7,0,1.3,0.2,1.6,0.6c0.4,0.4,0.5,1,0.5,1.7v0.6h-3.4l0,0c0,0.5,0.1,0.9,0.4,1.2c0.2,0.3,0.6,0.5,1,0.5c0.3,0,0.6,0,0.9-0.1
			c0.2-0.1,0.5-0.2,0.6-0.4l0.4,0.6c-0.2,0.2-0.4,0.3-0.7,0.5C522.6,67,522.2,67.1,521.8,67.1z M521.6,62.4c-0.3,0-0.6,0.1-0.8,0.4
			c-0.2,0.3-0.4,0.6-0.4,1l0,0h2.4v-0.1c0-0.4-0.1-0.7-0.3-0.9C522.3,62.5,522,62.4,521.6,62.4z"/>
		<path d="M527.4,62.6l-0.5,0c-0.3,0-0.5,0.1-0.6,0.2c-0.2,0.1-0.3,0.3-0.4,0.5V67h-1v-5.3h0.9l0.1,0.8c0.2-0.3,0.3-0.5,0.6-0.6
			s0.5-0.2,0.8-0.2c0.1,0,0.1,0,0.2,0c0.1,0,0.1,0,0.2,0L527.4,62.6z"/>
		<path d="M532.8,64.6c0,0.8-0.2,1.4-0.5,1.8c-0.4,0.5-0.9,0.7-1.5,0.7c-0.3,0-0.6-0.1-0.9-0.2c-0.2-0.1-0.5-0.3-0.6-0.5V69h-1v-7.3
			h0.7l0.2,0.7c0.2-0.3,0.4-0.4,0.6-0.6c0.3-0.1,0.6-0.2,0.9-0.2c0.7,0,1.2,0.3,1.5,0.8c0.4,0.5,0.5,1.2,0.5,2.1V64.6z M531.8,64.5
			c0-0.6-0.1-1.1-0.4-1.5c-0.2-0.4-0.6-0.6-1-0.6c-0.3,0-0.5,0.1-0.7,0.2s-0.4,0.3-0.5,0.5v2.6c0.1,0.2,0.3,0.4,0.5,0.5
			s0.4,0.2,0.7,0.2c0.5,0,0.8-0.2,1-0.5s0.4-0.8,0.4-1.3V64.5z"/>
		<path d="M536.5,62.6l-0.5,0c-0.3,0-0.5,0.1-0.6,0.2c-0.2,0.1-0.3,0.3-0.4,0.5V67h-1v-5.3h0.9l0.1,0.8c0.2-0.3,0.3-0.5,0.6-0.6
			s0.5-0.2,0.8-0.2c0.1,0,0.1,0,0.2,0c0.1,0,0.1,0,0.2,0L536.5,62.6z"/>
		<path d="M537.1,64.3c0-0.8,0.2-1.4,0.6-1.9c0.4-0.5,1-0.8,1.7-0.8c0.7,0,1.3,0.3,1.7,0.8s0.6,1.1,0.6,1.9v0.1
			c0,0.8-0.2,1.4-0.6,1.9c-0.4,0.5-1,0.8-1.7,0.8c-0.7,0-1.3-0.3-1.7-0.8c-0.4-0.5-0.6-1.1-0.6-1.9V64.3z M538,64.4
			c0,0.6,0.1,1,0.4,1.4c0.2,0.4,0.6,0.5,1.1,0.5c0.5,0,0.8-0.2,1-0.5c0.2-0.4,0.4-0.8,0.4-1.4v-0.1c0-0.6-0.1-1-0.4-1.4
			c-0.2-0.4-0.6-0.6-1.1-0.6c-0.5,0-0.8,0.2-1,0.6c-0.2,0.4-0.4,0.8-0.4,1.4V64.4z"/>
		<path d="M542.8,64.3c0-0.8,0.2-1.4,0.6-1.9c0.4-0.5,1-0.8,1.7-0.8c0.7,0,1.3,0.3,1.7,0.8s0.6,1.1,0.6,1.9v0.1
			c0,0.8-0.2,1.4-0.6,1.9c-0.4,0.5-1,0.8-1.7,0.8c-0.7,0-1.3-0.3-1.7-0.8c-0.4-0.5-0.6-1.1-0.6-1.9V64.3z M543.7,64.4
			c0,0.6,0.1,1,0.4,1.4c0.2,0.4,0.6,0.5,1.1,0.5c0.5,0,0.8-0.2,1-0.5c0.2-0.4,0.4-0.8,0.4-1.4v-0.1c0-0.6-0.1-1-0.4-1.4
			c-0.2-0.4-0.6-0.6-1.1-0.6c-0.5,0-0.8,0.2-1,0.6c-0.2,0.4-0.4,0.8-0.4,1.4V64.4z"/>
		<path d="M549.1,67v-4.6h-0.8v-0.7h0.8V61c0-0.6,0.1-1,0.4-1.3c0.3-0.3,0.7-0.5,1.2-0.5c0.1,0,0.2,0,0.3,0c0.1,0,0.2,0,0.4,0.1
			l-0.1,0.7c-0.1,0-0.1,0-0.2,0s-0.2,0-0.3,0c-0.3,0-0.5,0.1-0.6,0.3c-0.1,0.2-0.2,0.4-0.2,0.7v0.7h1.1v0.7H550V67H549.1z"/>
	</g>
	<g>
		<path class="st1" d="M120.2,33c0,0-0.1-0.6-1.1-1c-0.9-0.4-7.6-4.2-7.6-4.2s0.1-2.8-2.4-4.1c-2.5-1.3-5.1,0.1-5.1,0.1l-3.7-2.3
			c0,0-1.1-1-2.3,0.9l-2.8,9.3c0,0-0.3,1,0.8,1.7l1.1,0.6l-2.6,4.4c0,0-0.7,0.7,0.5,1.6l7.4,4.1c0,0,1.1,0.9,1.9-0.6l4.8-8.4
			l8.5-1.4l3.8,4l0.8-0.9L120.2,33z M102.7,24.4L97.6,33c0,0-0.7-0.1-1.2-0.5c0,0-0.3-0.5,0.1-1.6s2.4-7.9,2.4-7.9s0.3-1.3,1.3-0.6
			l2.5,1.5C102.7,23.9,102.7,24.4,102.7,24.4z"/>
		<g>
			<path class="st1" d="M121.5,39c0,0.2,0.2,0.4,0.3,0.6c0.2,0.3,0.4,0.7,0.6,1s0.3,0.5,0.4,0.8c0.2,0.7-0.3,1.4-1,1.6
				c-0.5,0.1-1.1-0.1-1.4-0.6c-0.2-0.3-0.2-0.7-0.1-1s0.2-0.6,0.4-0.9c0.2-0.3,0.4-0.6,0.6-1C121.3,39.4,121.4,39.2,121.5,39
				L121.5,39z M121.3,42.7C121.3,42.7,121.4,42.7,121.3,42.7C121.4,42.7,121.4,42.7,121.3,42.7c0.1-0.2,0.1-0.2,0-0.2c0,0,0,0-0.1,0
				c-0.2,0-0.4-0.1-0.5-0.4c-0.1-0.1-0.1-0.2-0.1-0.3s-0.1-0.1-0.1-0.1c-0.1,0-0.1,0-0.1,0.1v0.1C120.6,42.4,120.9,42.7,121.3,42.7z
				"/>
		</g>
	</g>
	<polygon class="st1" points="174.8,21.8 189.5,22 179.7,30.7 187.7,30.7 170.7,47.9 176.4,34.8 169.4,34.8 	"/>
	<g>
		<g>
			<g>
				<polygon id="SVGID_1_" class="st1" points="306.6,48.1 315.3,48.1 318.1,43.5 320.9,48.2 329.9,48.2 329.9,49.3 306.6,49.3 				
					"/>
			</g>
		</g>
	</g>
	<path class="st1" d="M244.8,19.6c6.1,1.9,10.5,10,10.1,17.9c0.3-1.5,0.5-3.1,0.9-5.1c0.3,1.4,0.7,2.5,0.8,3.5
		c0.3,4.4-0.8,8.3-4.7,10.9c-1.7,1.1-3.5,1.4-5.5,1.2s-3.4-2-3.7-4.6c-0.1-1.8,0-3.6,0-5.3c-1.3,2.6-1.4,5.4-1,8.3
		c-2-0.5-3.5-2.8-3.7-5.5c-0.2-3.1,1-5.7,2.7-8.1c0.7-1,1.4-1.9,2-2.9c0.6-1.2,1.1-2.4,1.6-3.7c1.2,1.3,0.7,3.2,1.1,4.9
		C247.5,29,247.3,23.3,244.8,19.6z"/>
	<path class="st1" d="M305.9,32.9c0,0-0.7,0.3-1,3.8c0,0-0.3,0.3-0.1,1c0,0-0.3,0.3-0.2,0.8c0,0-0.2,0.2-0.2,0.6
		c0,0-0.3,1.1,0.7,1.5c0,0,0,0.3,0.6,0.3c0,0,0,0.3,0.9,0.2l0.1,0.1l0.1,0.1l1.1,0.1V41l0.8,0.1l0.1,0.3l0.6,0.1l0.1-0.2h0.3v0.2
		h0.5l0.4-0.3h0.3l0.1,0.4h1.7l1.6-1.7c0,0,2.8,0.3,3.8,0.5l0.3,0.7l0.3,0.5l1.8,0.2l0.1-0.4h0.4l0.4,0.4h0.6v-0.2h0.3l0.2,0.2
		l0.6-0.1l0.1-0.3l0.6-0.1l0.2,0.4h1.2v-0.4h0.4l0.3,0.4h0.5v-0.3h0.6v0.3l0.5-0.1v-0.3l0.6-0.1v0.4l1.4-0.2l0.1-0.4h0.3l0.3,0.3
		l0.4-0.1v-0.3l0.4-0.1l0.1,0.3l0.4-0.2l0.1-0.4h0.2l0.2,0.3c0,0,2.1-0.4,2.1-1.9c0,0,0.3-2.7-1.3-3.4c0,0-1.1-1.8-4.2-1.3
		c0,0-6.3,0.2-9.4-6.9l-0.7-4.5c0,0-0.5-2.4-1.5-2.4s-2.4,1-2.4,1s-1.1,0.5-1.2,0.9c0,0-2,0-3.1,0.8c0,0-2.8,0.6-3.7,2.5
		c0,0-0.4,0.4,0,1.5l-0.2,0.2c0,0-0.6-1.6-2-1.1c0,0-0.9,0.6,0.5,1.2c0,0,1.3,0.3,1.3,1.5s-0.1,1.8-0.1,1.8S305.9,32.6,305.9,32.9z"
		/>
	<path d="M471,28.9c0.5,0.6,0.6,1.1,0.3,1.6c-0.3,0.5-0.9,0.6-1.4,0.4c-0.6-0.2-0.8-0.7-0.6-1.6c-0.1,0.1-0.2,0.1-0.3,0.2
		c-4.9,3.2-9.8,6.3-14.6,9.5c-1.9,1.2-3.7,2.5-5.6,3.6c-1.5,0.9-3.1,1.2-4.8,0.5c-2.3-0.8-3.3-3.3-2.4-5.6c0.5-1.4,1.5-2.3,2.8-3.1
		c5.9-3.8,11.8-7.7,17.8-11.5c0.7-0.4,1.4-0.9,2.1-1.3c0.1-0.1,0.3-0.2,0.3-0.3c0.7-1.5,2.2-1.9,3.6-1.3c1.5,0.6,2.5,1.8,3.3,3.3
		c0.6,1.1,0.9,2.3,0.7,3.5C472,27.5,471.8,27.8,471,28.9z M467.7,28.9c-0.3-0.2-0.6-0.4-0.9-0.6c-0.2-0.2-0.4-0.2-0.6,0
		c-6.1,4-12.2,7.9-18.3,11.9c-0.6,0.4-1.2,0.7-1.9,0.7c-1.6,0.1-2.6-1.1-2-2.6c0.3-0.7,0.8-1.2,1.4-1.6c3-2,6.1-3.9,9.1-5.9
		c0.7-0.4,1.3-0.7,2.1-0.9c2.9-0.8,5.9-1.6,8.8-2.4c0.1,0,0.3-0.1,0.4-0.1c-1-1.3-1.6-2.7-1.7-4.4c-0.1,0.1-0.2,0.1-0.3,0.2
		c-0.9,0.6-1.7,1.1-2.6,1.7c-5.5,3.6-11.1,7.2-16.6,10.8c-0.9,0.6-1.6,1.3-1.9,2.3c-0.8,2.1,0.4,4,2.5,4.4c1.3,0.2,2.4-0.2,3.4-0.9
		c4.1-2.6,8.1-5.3,12.2-7.9C463.1,31.9,465.4,30.4,467.7,28.9z M470.8,25.9c-0.1-1.4-0.7-2.6-1.7-3.6c-0.5-0.5-1-1-1.7-1.2
		c-1-0.4-1.8,0.1-2,1.1c0,0.1,0,0.2,0,0.3c-0.1,1.7,0.6,3.1,1.7,4.3c0.1,0.1,0.2,0.1,0.3,0.1C468.5,26.5,469.6,26.2,470.8,25.9z"/>
	<path d="M471.5,34.2c0.6,0.7,1.1,1.5,1.8,2.2c0.4,0.4,0.9,0.8,1.4,1.1c1.2,0.9,1.8,2.9,0.9,4.2c-0.6,0.9-1.5,1.4-2.6,1.3
		c-1.1-0.1-1.9-0.6-2.4-1.6c-0.4-0.9-0.5-1.8-0.1-2.7C471.1,37.3,471.5,35.9,471.5,34.2C471.4,34.3,471.5,34.2,471.5,34.2z"/>
	<path d="M540.2,40.8c-0.7,1.3-1.9,1.7-3.2,1.8c-1.7,0.2-3.4,0.3-4.8,1.2c-0.6,0.4-1.2,0.8-1.8,1.2c-0.1,0-0.1-0.1-0.2-0.1
		c0.5-0.9,0.9-1.9,1.6-2.7c1.4-1.8,3.1-3.1,5.4-3.3c1.3-0.1,2.4,0.2,3.1,1.4C540.2,40.5,540.2,40.7,540.2,40.8z"/>
	<path d="M528.2,19.8c0.8,3.8,2.8,6.8,4.2,10.2c0.7,1.7,1,3.4,0.4,5.1c-0.8,2.4-2.8,4-5,3.8s-4.2-2.2-4.6-4.6
		c-0.2-1.4-0.1-2.8,0.5-4.1c0.6-1.4,1.4-2.8,2-4.2c0.8-1.9,1.5-3.8,2.3-5.7C528,20.2,528.1,20.1,528.2,19.8z"/>
	<path d="M526.2,45.3c-1.8-1.1-3.6-1.2-5.4-1c-1,0.1-2,0-2.9-0.6c-1.2-0.8-1.2-2.1,0.1-2.7c0.6-0.3,1.3-0.5,2-0.4
		c2.5,0.4,4.5,1.6,5.9,3.7c0.1,0.1,0.2,0.3,0.2,0.5C526,44.9,526.1,45,526.2,45.3z"/>
	<path d="M522.4,38.5c-1.1-0.2-2.2-0.3-3.3-0.5c-0.7-0.1-1.3-0.3-1.5-1c-0.1-0.2,0-0.7,0.2-0.8c0.5-0.5,1.2-0.5,1.9-0.2
		C520.8,36.6,521.7,37.4,522.4,38.5z"/>
	<path class="st1" d="M372.8,36.2c0,0-0.7,0.3-1,3.8c0,0-0.3,0.3-0.1,1c0,0-0.3,0.3-0.2,0.8c0,0-0.2,0.2-0.2,0.6
		c0,0-0.3,1.1,0.7,1.5c0,0,0,0.3,0.6,0.3c0,0,0,0.3,0.9,0.2l0.1,0.1l0.1,0.1l1.1,0.1v-0.4l0.8,0.1l0.1,0.3l0.6,0.1l0.1-0.2h0.3v0.2
		h0.5l0.4-0.3h0.3l0.1,0.4h1.7l1.6-1.7c0,0,2.8,0.3,3.8,0.5l0.3,0.7l0.3,0.5l1.8,0.2l0.1-0.4h0.4l0.4,0.4h0.6v-0.2h0.3l0.2,0.2
		l0.6-0.1l0.1-0.3l0.6-0.1L391,45h1.2v-0.4h0.4L393,45h0.5v-0.3h0.6V45l0.5-0.1v-0.3l0.6-0.1v0.4l1.4-0.2l0.1-0.4h0.3l0.3,0.3
		l0.4-0.1v-0.3l0.4-0.1l0.1,0.3l0.4-0.2l0.1-0.4h0.2l0.2,0.3c0,0,2.1-0.4,2.1-1.9c0,0,0.3-2.7-1.3-3.4c0,0-1.1-1.8-4.2-1.3
		c0,0-6.3,0.2-9.4-6.9l-0.7-4.5c0,0-0.5-2.4-1.5-2.4s-2.4,1-2.4,1s-1.1,0.5-1.2,0.9c0,0-2,0-3.1,0.8c0,0-2.8,0.6-3.7,2.5
		c0,0-0.4,0.4,0,1.5l-0.2,0.2c0,0-0.6-1.6-2-1.1c0,0-0.9,0.6,0.5,1.2c0,0,1.3,0.3,1.3,1.5s-0.1,1.8-0.1,1.8S372.9,35.9,372.8,36.2z"
		/>
	<g>
		<path class="st1" d="M403.9,23.1c0,0-3.6,1.8-4.6,3.1c0,0,2.4-2,4.7-2.8L403.9,23.1z"/>
		<path class="st1" d="M405.2,23.2c0,0-3.6,1.8-4.6,3.1c0,0,2.4-2,4.7-2.8L405.2,23.2z"/>
		<path class="st1" d="M406.6,23.2c0,0-3.7,1.7-4.7,3c0,0,2.4-1.9,4.8-2.6L406.6,23.2z"/>
		<path class="st1" d="M394.7,32.7c0.3,0.2,0.5,0.4,0.8,0.7c0.1,0.1,0.3,0.1,0.4,0c0.3-0.3,0.5-0.6,0.8-0.9c0.1-0.2,0.1-0.3,0-0.4
			c-0.3-0.2-0.2-0.6,0.1-0.8c0.5-0.2,1-0.3,1.4,0.1c0.3,0.2,0.6,0.5,0.9,0.7c0,0,0.1,0.1,0,0.2c-0.1,0.2,0,0.4,0.2,0.5
			c0.8,0.7,1.6,1.3,2.3,2c0.9,0.9,1.9,1.8,2.8,2.7c0.2,0.2,0.3,0.2,0.5,0c0.4-0.5,0.8-1,1.2-1.4c0.2-0.3,0.2-0.3-0.1-0.5
			c-1.9-1.3-3.6-2.7-5.3-4.2c-0.2-0.2-0.4-0.4-0.7-0.1c0,0-0.1,0-0.2-0.1c-0.2-0.2-0.5-0.5-0.7-0.7c-0.4-0.5-0.4-1.3,0-2
			c0.4-0.6,0.9-0.9,1.6-0.9c0.2,0,0.5,0,0.7,0c0.1,0,0.1,0,0.2-0.1c0-0.1,0-0.2-0.1-0.2c-0.2-0.1-0.3-0.3-0.5-0.3
			c-1-0.3-1.9-0.1-2.8,0.4c-1,0.6-1.8,1.3-2.5,2.2c-0.1,0.2-0.2,0.4-0.2,0.7c0.1,0.3-0.1,0.5-0.4,0.6H395c-0.2-0.2-0.3-0.1-0.5,0.1
			c-0.2,0.3-0.5,0.6-0.7,0.8c-0.1,0.1-0.1,0.2,0,0.4C394.1,32.3,394.4,32.5,394.7,32.7L394.7,32.7z"/>
	</g>
	<polygon class="st0" points="574,12 566.5,19.5 566.5,53.6 605.6,53.6 610,49.4 610,12 	"/>
	<path class="st1" d="M588.5,47.6c4.2,0,8.3,0,12.5,0c0.5,0,0.5,0,0.5,0.5c0,0.1,0,0.2,0,0.2c0,0.4,0,0.5-0.5,0.5
		c-3.6,0-7.1,0-10.7,0c-4.8,0-9.5,0-14.3,0c-0.6,0-0.6,0-0.6-0.6c0-0.1,0-0.2,0-0.2c0-0.3,0.1-0.4,0.4-0.4
		C580.1,47.6,584.3,47.6,588.5,47.6z"/>
	<g class="st2">
		<path d="M571.2,65.2c0-0.3-0.1-0.6-0.4-0.8c-0.2-0.2-0.7-0.4-1.3-0.6c-0.8-0.2-1.3-0.4-1.8-0.8c-0.4-0.3-0.6-0.8-0.6-1.3
			c0-0.6,0.2-1,0.7-1.4s1-0.6,1.8-0.6c0.8,0,1.4,0.2,1.9,0.6c0.5,0.4,0.7,0.9,0.7,1.5l0,0h-0.9c0-0.4-0.1-0.8-0.4-1
			c-0.3-0.3-0.7-0.4-1.2-0.4c-0.5,0-0.8,0.1-1.1,0.3c-0.3,0.2-0.4,0.5-0.4,0.8c0,0.3,0.1,0.6,0.4,0.8c0.3,0.2,0.7,0.4,1.3,0.5
			c0.7,0.2,1.3,0.5,1.7,0.8s0.6,0.8,0.6,1.3c0,0.6-0.2,1-0.7,1.4s-1.1,0.5-1.8,0.5c-0.7,0-1.3-0.2-1.9-0.6c-0.5-0.4-0.8-0.9-0.8-1.5
			l0,0h0.9c0,0.5,0.2,0.8,0.5,1c0.3,0.2,0.8,0.4,1.2,0.4c0.5,0,0.9-0.1,1.2-0.3S571.2,65.6,571.2,65.2z"/>
		<path d="M574.6,60.4v1.3h1v0.7h-1v3.2c0,0.2,0.1,0.4,0.2,0.5s0.2,0.2,0.4,0.2c0.1,0,0.1,0,0.2,0c0.1,0,0.1,0,0.2,0l0.1,0.7
			c-0.1,0.1-0.2,0.1-0.3,0.1c-0.1,0-0.3,0.1-0.4,0.1c-0.4,0-0.7-0.1-0.9-0.4c-0.2-0.2-0.3-0.6-0.3-1.1v-3.2h-0.8v-0.7h0.8v-1.3
			H574.6z"/>
		<path d="M579,67.1c-0.7,0-1.3-0.2-1.8-0.7c-0.4-0.5-0.7-1.1-0.7-1.9v-0.2c0-0.8,0.2-1.4,0.7-1.9c0.4-0.5,1-0.8,1.6-0.8
			c0.7,0,1.3,0.2,1.6,0.6c0.4,0.4,0.5,1,0.5,1.7v0.6h-3.4l0,0c0,0.5,0.1,0.9,0.4,1.2c0.2,0.3,0.6,0.5,1,0.5c0.3,0,0.6,0,0.9-0.1
			c0.2-0.1,0.5-0.2,0.6-0.4l0.4,0.6c-0.2,0.2-0.4,0.3-0.7,0.5C579.8,67,579.4,67.1,579,67.1z M578.9,62.4c-0.3,0-0.6,0.1-0.8,0.4
			c-0.2,0.3-0.4,0.6-0.4,1l0,0h2.4v-0.1c0-0.4-0.1-0.7-0.3-0.9C579.5,62.5,579.2,62.4,578.9,62.4z"/>
		<path d="M584.3,67.1c-0.7,0-1.3-0.2-1.8-0.7c-0.4-0.5-0.7-1.1-0.7-1.9v-0.2c0-0.8,0.2-1.4,0.7-1.9c0.4-0.5,1-0.8,1.6-0.8
			c0.7,0,1.3,0.2,1.6,0.6c0.4,0.4,0.5,1,0.5,1.7v0.6h-3.4l0,0c0,0.5,0.1,0.9,0.4,1.2c0.2,0.3,0.6,0.5,1,0.5c0.3,0,0.6,0,0.9-0.1
			c0.2-0.1,0.5-0.2,0.6-0.4l0.4,0.6c-0.2,0.2-0.4,0.3-0.7,0.5C585.1,67,584.7,67.1,584.3,67.1z M584.1,62.4c-0.3,0-0.6,0.1-0.8,0.4
			c-0.2,0.3-0.4,0.6-0.4,1l0,0h2.4v-0.1c0-0.4-0.1-0.7-0.3-0.9C584.8,62.5,584.5,62.4,584.1,62.4z"/>
		<path d="M588.4,67h-1v-7.6h1V67z"/>
		<path d="M597.4,60.6h-2.3V67h-1v-6.4h-2.3v-0.8h5.5V60.6z"/>
		<path d="M597.6,64.3c0-0.8,0.2-1.4,0.6-1.9c0.4-0.5,1-0.8,1.7-0.8c0.7,0,1.3,0.3,1.7,0.8s0.6,1.1,0.6,1.9v0.1
			c0,0.8-0.2,1.4-0.6,1.9c-0.4,0.5-1,0.8-1.7,0.8c-0.7,0-1.3-0.3-1.7-0.8c-0.4-0.5-0.6-1.1-0.6-1.9V64.3z M598.6,64.4
			c0,0.6,0.1,1,0.4,1.4c0.2,0.4,0.6,0.5,1.1,0.5c0.5,0,0.8-0.2,1-0.5c0.2-0.4,0.4-0.8,0.4-1.4v-0.1c0-0.6-0.1-1-0.4-1.4
			c-0.2-0.4-0.6-0.6-1.1-0.6c-0.5,0-0.8,0.2-1,0.6c-0.2,0.4-0.4,0.8-0.4,1.4V64.4z"/>
		<path d="M605.7,67.1c-0.7,0-1.3-0.2-1.8-0.7c-0.4-0.5-0.7-1.1-0.7-1.9v-0.2c0-0.8,0.2-1.4,0.7-1.9c0.4-0.5,1-0.8,1.6-0.8
			c0.7,0,1.3,0.2,1.6,0.6c0.4,0.4,0.5,1,0.5,1.7v0.6h-3.4l0,0c0,0.5,0.1,0.9,0.4,1.2c0.2,0.3,0.6,0.5,1,0.5c0.3,0,0.6,0,0.9-0.1
			c0.2-0.1,0.5-0.2,0.6-0.4l0.4,0.6c-0.2,0.2-0.4,0.3-0.7,0.5C606.6,67,606.2,67.1,605.7,67.1z M605.6,62.4c-0.3,0-0.6,0.1-0.8,0.4
			c-0.2,0.3-0.4,0.6-0.4,1l0,0h2.4v-0.1c0-0.4-0.1-0.7-0.3-0.9C606.3,62.5,606,62.4,605.6,62.4z"/>
	</g>
	<path class="st1" d="M576.3,34.3c0,0-0.7,0.3-1,3.8c0,0-0.3,0.3-0.1,1c0,0-0.3,0.3-0.2,0.8c0,0-0.2,0.2-0.2,0.6
		c0,0-0.3,1.1,0.7,1.5c0,0,0,0.3,0.6,0.3c0,0,0,0.3,0.9,0.2l0.1,0.1l0.1,0.1l1.1,0.1v-0.4l0.8,0.1l0.1,0.3l0.6,0.1l0.1-0.2h0.3v0.2
		h0.5l0.4-0.3h0.3l0.1,0.4h1.7l1.6-1.7c0,0,2.8,0.3,3.8,0.5l0.3,0.7l0.3,0.5l1.8,0.2l0.1-0.4h0.4l0.4,0.4h0.6V43h0.3l0.2,0.2
		l0.6-0.1l0.1-0.3l0.6-0.1l0.2,0.4h1.2v-0.4h0.4l0.3,0.4h0.5v-0.3h0.6v0.3L598,43v-0.3l0.6-0.1V43l1.4-0.2l0.1-0.4h0.3l0.3,0.3
		l0.4-0.1v-0.3l0.4-0.1l0.1,0.3l0.4-0.2l0.1-0.4h0.2l0.2,0.3c0,0,2.1-0.4,2.1-1.9c0,0,0.3-2.7-1.3-3.4c0,0-1.1-1.8-4.2-1.3
		c0,0-6.3,0.2-9.4-6.9l-0.7-4.5c0,0-0.5-2.4-1.5-2.4s-2.4,1-2.4,1s-1.1,0.5-1.2,0.9c0,0-2,0-3.1,0.8c0,0-2.8,0.6-3.7,2.5
		c0,0-0.4,0.4,0,1.5l-0.2,0.2c0,0-0.6-1.6-2-1.1c0,0-0.9,0.6,0.5,1.2c0,0,1.3,0.3,1.3,1.5s-0.1,1.8-0.1,1.8S576.3,34,576.3,34.3z"/>
	<path class="st3" d="M604.7,39c-0.1-0.8-0.4-1.7-1.2-2.1c0,0-1-1.6-3.6-1.3V39H604.7z"/>
</g>
<g id="Layer_2" class="st4">
	<text transform="matrix(1 0 0 1 19.4676 67)" class="st5 st6 st7">Antiskid</text>
	<text transform="matrix(1 0 0 1 79.4676 67)" class="st5 st6 st7">Oil Resistant</text>
	<text transform="matrix(1 0 0 1 156.4231 67)" class="st5 st6 st7">Antistatic </text>
	<text transform="matrix(1 0 0 1 213.0423 67)" class="st5 st6 st7">Heat Resistant</text>
	<text transform="matrix(1 0 0 1 295.9988 67)" class="st5 st6 st7">Puncture</text>
	<text transform="matrix(1 0 0 1 294.9988 79)" class="st5 st6 st7">Resistant</text>
	<text transform="matrix(1 0 0 1 370.7108 67)" class="st5 st6 st7">Impact</text>
	<text transform="matrix(1 0 0 1 365.0108 79)" class="st5 st6 st7">Resistant</text>
	<text transform="matrix(1 0 0 1 435.5228 67)" class="st5 st6 st7">Chemical</text>
	<text transform="matrix(1 0 0 1 435.0228 79)" class="st5 st6 st7">Resistant</text>
	<text transform="matrix(1 0 0 1 501.2503 67)" class="st5 st6 st7">Waterproof</text>
	<text transform="matrix(1 0 0 1 566.4153 67)" class="st5 st6 st7">Steel Toe</text>
</g>
</svg>
